<svg id="レイヤー_1" data-name="レイヤー 1" xmlns="http://www.w3.org/2000/svg" viewBox="0 0 129.25 50.06"><defs><style>.cls-1{fill:#fff;}</style></defs><path class="cls-1" d="M11.75,10.86c-.16,0-.29.05-.31.21s0,1.41,0,1.57,0,.26.1.26,1-.35,1-.35,0,0,0,0a4.55,4.55,0,0,1-.8.57.63.63,0,0,0-.38.71c0,.36,0,2,0,2.3,0,.17,0,1.16,0,1.24a.58.58,0,0,1-.54.36c-.17,0-.24-.05-.24-.25,0-.56.08-3,.08-3.47,0,0,0-.14-.09-.14a5.2,5.2,0,0,0-1,.59c-.09.16-.1.18-.15.18s-.62-.81-.62-.87.05-.08.22-.09a4.89,4.89,0,0,0,1.54-.57.37.37,0,0,0,.07-.26c0-.32,0-1.33,0-1.71,0-.12,0-.3-.3-.3H9.81c-.24,0-.26.05-.41.36a3,3,0,0,1-.51.84s0,0,0,0,.23-1,.26-1.18a8.69,8.69,0,0,0,.19-1.62c0-.05,0-.24,0-.28s0-.11.1-.11.81.19.81.37a3.36,3.36,0,0,1-.22.42c0,.05-.25.76-.25.83s.08.12.15.12h.57c.19,0,.29-.08.29-.28,0-.39,0-1.08,0-1.51,0-.11-.05-.58-.05-.68s0-.1.08-.1,1,.19,1,.38,0,.1-.17.26-.08.14-.1.65c0,.15,0,.9,0,1.05s0,.22.15.22a.38.38,0,0,0,.28-.16c.23-.34.25-.37.34-.37s.71.51.71.66-.18.17-.57.17Zm4-.93c-.31,0-.31.18-.31.42,0,1.35,0,1.37.3,1.37h.91a1.46,1.46,0,0,0,.52,0c.1,0,.35-.53.46-.53s.88.57.88.72S18.48,12,18,12H14c-.31,0-.73,0-1.12,0l-.44,0s0,0-.12-.09l-.19-.22c-.05-.06-.05-.07-.05-.08l0,0,.47,0c.68,0,1.1,0,1.46,0h.44c.27,0,.3-.14.3-.35s0-1.13,0-1.24-.23-.2-.3-.2H13.6L13,10s0,0-.11-.1l-.2-.21s-.05-.07-.05-.08,0,0,0,0l.43,0c.13,0,.9,0,1.31,0,.22,0,.4,0,.4-.31s0-.59,0-.76-.06-.44-.06-.48,0-.11.08-.11.68.17.85.23c0,0,.12.06.12.11s-.22.26-.25.31a4.86,4.86,0,0,0,0,.68c0,.16,0,.33.31.33h.46a1.53,1.53,0,0,0,.52,0c.09,0,.3-.49.39-.49s.77.5.77.66-.22.15-.57.15Zm.95,4c-.28,0-.31.1-.31.79,0,.32,0,1.75,0,2,0,1-.74,1-.86,1s-.22-.07-.28-.27-.23-.34-.47-.43-.3-.13-.3-.17.09-.05.12-.05l.68,0c.22,0,.43,0,.43-.49,0-.32,0-1.93,0-2,0-.24,0-.43-.3-.43H14.2c-.31,0-.71,0-1.12,0l-.44,0s0,0-.1-.08l-.22-.23,0-.07s0,0,0,0l.48,0c.69,0,1.09,0,1.46,0h1.18c.3,0,.3-.2.3-.33s0-.79,0-.91,0-.09.09-.09l.72.12c.1,0,.19.05.19.15s-.17.23-.19.28a1.39,1.39,0,0,0-.05.49c0,.29.2.29.41.29a.37.37,0,0,0,.36-.23c.07-.11.19-.29.29-.29s.79.5.79.65-.21.15-.57.15Zm-3.47.72c.15,0,1.1.24,1.1,1,0,.37-.18.59-.41.59s-.21-.07-.39-.65a2.53,2.53,0,0,0-.36-.78s0-.08,0-.11S13.24,14.63,13.27,14.63Z"/><path class="cls-1" d="M24.85,12c-.94,0-1.23,0-1.34,0l-.23,0s-.06,0-.09-.07l-.2-.24c0-.06-.06-.06-.06-.08s0,0,.05,0l.46,0c.53,0,1,0,1.47,0H27.8c.46,0,.56,0,.68-.18.26-.38.28-.42.39-.42s.91.53.91.72-.19.16-.57.16H27.15c-.3,0-.3.11-.3,1s0,.92.3.92h.73c.46,0,.56,0,.68-.18s.22-.35.32-.35.76.54.76.68-.06.12-.16.13h-2.3c-.33,0-.33.06-.33.7,0,.37,0,1.57,0,1.63s.13.08.26.09.64.05,1.18.05a12.85,12.85,0,0,0,2.85-.34,2.13,2.13,0,0,1,.33-.11s0,0,0,0-.65.52-.75.65a3.25,3.25,0,0,0-.18.43c-.07.14-.5.15-.65.15-4.28,0-4.79-.61-5.48-1.42a2.38,2.38,0,0,1-.46-.77c0-.07,0-.1-.07-.1s-.07.05-.16.2c-1,1.59-1.93,1.82-2,1.82s-.06,0-.06,0,.16-.17.18-.19a6.85,6.85,0,0,0,1.82-3.76c0-.48,0-.52.11-.52s.92.24.92.39-.22.24-.24.28-.25.89-.31,1S24,15,24,15c0,.53,1.38,1.47,1.95,1.47.14,0,.14-.15.14-.22,0-.6,0-3.28,0-3.82,0-.27,0-.42-.32-.42Zm-1.6-1.93c-.14,0-.2,0-.26.19-.21.64-.54.89-.79.89a.32.32,0,0,1-.36-.3c0-.15.05-.2.31-.48a2.89,2.89,0,0,0,.54-.95c0-.13.06-.18.1-.18s.16.17.23.37.1.18.24.18H25.8c.26,0,.29-.15.29-.33s0-.64,0-.81S26,8.16,26,8.08,26,8,26,8l1.08.25a.12.12,0,0,1,.08.1c0,.06-.25.25-.28.31a3.12,3.12,0,0,0-.05.69c0,.38.08.41.33.41h2.09c.29,0,.34,0,.48-.13s.26-.22.38-.22,1,.54,1,.83-.25.22-.31.22l-.56,0a1.38,1.38,0,0,0-.61.15,1,1,0,0,1-.31.16,0,0,0,0,1,0,0c0-.08.26-.48.26-.59s-.07-.07-.21-.07Z"/><path class="cls-1" d="M37.5,10.28c.29,0,.32-.13.32-.33s0-.88,0-1.21c0-.07-.09-.38-.09-.45a.09.09,0,0,1,.1-.09s1,.15,1,.33-.13.2-.13.24c0,.25,0,3.06,0,3.51s-.08,1.27-.08,1.51c0,.07,0,.17.1.17s.76-.18.8-.18.07,0,.07.05-.63.34-.78.39-.24.14-.39.64a4,4,0,0,1-2.83,2.81s-.08,0-.08-.05.06-.1.11-.12a5.62,5.62,0,0,0,1.12-.87,4,4,0,0,0,1-1.87c0-.12,0-.13-.09-.13s-2.28.82-2.3.83-.2.22-.25.22-.51-.94-.51-1,0,0,.38,0a13.34,13.34,0,0,0,2.81-.52A3.31,3.31,0,0,0,37.81,13c0-.24-.1-.32-.32-.32h-.77c-.26,0-1,0-1.34,0l-.23,0s-.06,0-.09-.07l-.22-.24c0-.06,0-.06,0-.08s0,0,0,0l.46,0c.31,0,.87.05,1.47.05h.73c.24,0,.33-.08.33-.27V11c0-.21,0-.39-.33-.39h-.8c-.26,0-1,0-1.35,0l-.22,0s-.06,0-.1-.06l-.2-.24s0-.06,0-.08,0,0,0,0l.47,0c.31,0,.86,0,1.46,0ZM41,12.66c-.21,0-.33.09-.33.3s0,1.32,0,1.39.21.19.32.19h1.2a1.63,1.63,0,0,0,.52,0c.1,0,.44-.51.56-.51s.8.55.8.69-.23.14-.57.14H41.05c-.31,0-.33.13-.33.46s0,1.58,0,1.88,0,.53-.55.53c-.3,0-.31-.23-.31-.39s0-.87,0-1c0-1.57.08-4.12.08-5.67,0-.77,0-1.31,0-1.81,0-.06-.06-.38-.06-.46s0-.13.11-.13a6.88,6.88,0,0,1,.82.18c.08,0,.17.08.17.18s-.18.22-.2.27-.08.18-.08,1.1c0,.16,0,.35.33.35h1a1.59,1.59,0,0,0,.52,0c.1,0,.44-.51.57-.51a1.92,1.92,0,0,1,.8.69c0,.14-.24.14-.58.14H41.06c-.11,0-.32,0-.34.25s0,.85,0,1.06c0,.38,0,.52.31.52h.6a1.29,1.29,0,0,0,.52-.05c.1,0,.44-.51.57-.51a1.94,1.94,0,0,1,.8.7c0,.13-.24.13-.58.13Z"/><path class="cls-1" d="M52.55,10.48c.47,0,.54,0,1-.84a7.07,7.07,0,0,0,.64-1.4c0-.19,0-.21.08-.21s1,.6,1,.77-.09.12-.34.17-.28,0-.93.72c-.14.14-.58.57-.58.67s.1.12.27.12h1.44c.34,0,.37,0,.46,0s.22-.23.28-.23,1,.65,1,1a.25.25,0,0,1-.28.25l-.33,0c-.16,0-.34.07-.69.39-.18.17-.22.2-.28.2s-.05-.05-.05-.07.29-.84.29-1-.07-.16-.4-.16H48.89c-.39,0-.44,0-.49.29-.14.73-.46,1.06-.74,1.06a.39.39,0,0,1-.41-.43c0-.16,0-.21.38-.77a2.31,2.31,0,0,0,.32-1c0-.08,0-.13,0-.13s.27.46.32.54.11.14.5.14Zm-2,4.36c.23,0,.39,0,.52-.24a2.37,2.37,0,0,0,.19-.81c0-.19-.08-.19-.35-.19h-.64c-.22,0-.23,0-.31.24s-.4.22-.47.22-.31-.05-.34-.23,0-.69,0-.81,0-.85,0-1.13c0-.05,0-.29,0-.35s0-.11.08-.11a5.89,5.89,0,0,1,.63.29.84.84,0,0,0,.39,0h3.31c.45,0,.5,0,.58-.08s.32-.39.42-.39a1.32,1.32,0,0,1,.61.7c0,.09,0,.12-.19.19s-.12.13-.12.61a4.14,4.14,0,0,1-.06.83.54.54,0,0,1-.5.31c-.16,0-.19-.06-.24-.21s-.14-.13-.26-.13H52.5a.49.49,0,0,0-.44.18,4.37,4.37,0,0,0-.7.94c0,.12.14.12.29.12h2.67a2.15,2.15,0,0,0,.51,0c.06,0,.3-.31.37-.31s.65.35.65.55,0,.12-.17.25a.58.58,0,0,0-.06.28c0,.17,0,1,0,1.21s0,.4-.16.55a.75.75,0,0,1-.49.23c-.21,0-.22-.13-.24-.34s-.16-.14-.27-.14h-5c-.19,0-.22.08-.26.23a.54.54,0,0,1-.55.37.29.29,0,0,1-.32-.34c0-.08.07-1.39.07-1.66s0-.89,0-1.06,0-.15.09-.15a3.79,3.79,0,0,1,.71.26.85.85,0,0,0,.49.1Zm-2-6.48c1.13,0,1.92.69,1.92,1.21a.47.47,0,0,1-.45.49c-.25,0-.36-.22-.44-.42a2.43,2.43,0,0,0-.92-1c-.22-.14-.24-.15-.22-.2S48.48,8.36,48.52,8.36Zm1,6.77c-.14,0-.23,0-.3.11a11.07,11.07,0,0,0,0,1.21c0,.18,0,.35.31.35h5c.29,0,.32-.13.32-.31s0-1.15,0-1.21-.23-.15-.3-.15Zm.69-3.08c-.14,0-.34,0-.34.3,0,1,0,1,.32,1h3.47c.32,0,.32-.08.32-.66s0-.6-.34-.6Zm2.45-2.62c0,.27-.15.44-.37.44s-.41-.31-.48-.49a3,3,0,0,0-.65-1.1A.87.87,0,0,1,51,8.05s.07,0,.09,0C51.47,8,52.69,8.58,52.69,9.43Z"/><path class="cls-1" d="M62,11.24c-.23,0-1,0-1.34,0l-.22,0s-.06,0-.1-.08l-.2-.24c-.05,0-.06-.06-.06-.07s0,0,0,0l.67.06c.78,0,.8,0,1.41,0,.33,0,.33-.09.33-.65,0-.14,0-1,0-1.06s-.14-.14-.28-.14l-1.43.05c-.19,0-.22,0-.22-.05s0,0,.26-.1a10.72,10.72,0,0,0,2.64-.7c.38-.17.42-.19.51-.19s1,.41,1,.57,0,.11-.65.17c-1.13.12-1.13.14-1.13.54,0,.14,0,1.34,0,1.39a.28.28,0,0,0,.3.17h.19c.25,0,.31,0,.44-.17.3-.37.33-.4.43-.4a2.91,2.91,0,0,1,.93.71c0,.14-.22.14-.57.14H63.55c-.31,0-.33,0-.33.82,0,.31.11.33.19.35.45.08,1.57.36,1.57,1.17,0,.39-.23.52-.36.52s-.25-.07-.52-.73a1.33,1.33,0,0,0-.81-.82c-.08,0-.08.07-.08.16,0,.41,0,3.42.06,3.83,0,.2,0,.57,0,.62,0,.4-.49.53-.61.53s-.23-.15-.23-.31c0-.52.07-2.82.07-3.29,0-.1,0-.53,0-.63s0-.18-.13-.18-.07,0-.19.16a11.55,11.55,0,0,1-2,1.92c-.09.07-.13.1-.17.1s-.06,0-.06-.05.68-.79.77-.92a12.94,12.94,0,0,0,1.85-3.1.14.14,0,0,0-.14-.15Zm4.83.76c0,1.87,0,2.08,0,2.55,0,.08,0,.41,0,.47,0,.3-.16.53-.59.53-.26,0-.26-.13-.26-.21s0-.25,0-.3c0-.34,0-1.55,0-3,0-.48,0-1.76-.08-2.47a1.68,1.68,0,0,1,0-.23c0-.05,0-.09.08-.09s1.11.19,1.11.38a.18.18,0,0,1,0,.12c-.22.19-.25.23-.28.38S66.86,11,66.86,12Zm2.09.23c0,.64.06,3.43.06,4,0,.77-.05,1-.23,1.11a1.72,1.72,0,0,1-.75.35c-.15,0-.17-.06-.22-.23-.13-.4-.8-.63-.92-.67s-.1,0-.1-.08.07,0,.08,0,.7.09.82.09c.52,0,.52-.09.52-.92,0-1,0-6.17,0-6.92,0-.12-.1-.7-.1-.73s.07-.09.12-.09l1,.17c.07,0,.16.05.16.16s0,.13-.17.21A.52.52,0,0,0,69,9C69,9.14,69,11.67,69,12.23Z"/><path class="cls-1" d="M73.09,10.61c.33,0,1.3.36,1.3,1A.39.39,0,0,1,74,12c-.11,0-.2-.07-.31-.29a3,3,0,0,0-.81-1S73,10.61,73.09,10.61Zm0,4.26a.67.67,0,0,0,.67-.41,17.89,17.89,0,0,0,1.28-3.32c0-.07.1-.3.15-.3s.07,0,.07.11-.14.84-.16.91c-.1.47-.67,2.54-.67,3a6.42,6.42,0,0,0,.35,1.68,3.1,3.1,0,0,1,.1.54.46.46,0,0,1-.44.5c-.54,0-.55-.64-.55-.92,0-1-.15-1.3-.65-1.54,0,0-.34-.09-.34-.14S73.07,14.87,73.13,14.87Zm1-6.67c.14,0,1.45.29,1.45,1a.41.41,0,0,1-.39.43c-.09,0-.2,0-.35-.28a5.59,5.59,0,0,0-.75-1,.16.16,0,0,1,0-.07S74,8.2,74.1,8.2Zm4.36,5.36c.32,0,.32-.19.32-.32s0-1.47,0-1.5-.11-.22-.31-.22h-.73c-.94,0-1.25,0-1.35,0l-.23,0s-.05,0-.09-.07l-.21-.24c0-.06,0-.06,0-.08s0,0,0,0l.47,0c.53,0,1,0,1.47,0h.66c.13,0,.34,0,.34-.28V9.76c0-.14,0-.3-.27-.3s-.8.1-.94.11c-.45,0-.74,0-1,0-.15,0-.27,0-.27-.07a2.29,2.29,0,0,1,.51-.14,12.93,12.93,0,0,0,3.35-1c.09-.05.49-.32.51-.32s1,.66,1,.79-.1.11-.29.11a13.75,13.75,0,0,0-1.57.25c-.2,0-.32.08-.32.33s0,1.47,0,1.55.22.12.26.12h.85c.49,0,.54,0,.68-.18.27-.35.3-.39.39-.39a3,3,0,0,1,.84.7c0,.15-.22.15-.57.15H79.81c-.17,0-.33,0-.33.32s0,1.46,0,1.52a.29.29,0,0,0,.32.2h.67c.13,0,.2,0,.38-.19s.22-.24.28-.24.8.6.8.75,0,.09-.18.24a.48.48,0,0,0-.14.4c0,.38,0,2.41,0,2.43a.54.54,0,0,1-.59.58c-.26,0-.29-.13-.34-.35s-.06-.19-.29-.19H77.72c-.28,0-.29,0-.36.29a.49.49,0,0,1-.53.34c-.19,0-.32,0-.32-.24s0-.63,0-.75c0-.41.06-2,.06-2.32s0-.53,0-.72a2.24,2.24,0,0,1,0-.24s0-.11,0-.11.1,0,.47.2a1.1,1.1,0,0,0,.61.12Zm2,3.14c.19,0,.33-.07.33-.3s0-1.9,0-2.22c0-.14,0-.34-.32-.34H77.67c-.18,0-.32.06-.32.3v2.21c0,.18,0,.35.32.35Z"/><path class="cls-1" d="M89.06,10.59c-.3,0-.3.21-.3.45,0,.55,0,.63.33.63h.73a.47.47,0,0,0,.35-.11.41.41,0,0,1,.26-.16c.15,0,.73.36.73.5s-.19.25-.23.29a1.22,1.22,0,0,0-.06.57c0,.23,0,1.27,0,1.47,0,.4-.49.44-.53.44s-.15,0-.19-.25-.12-.08-.17-.08h-.91c-.33,0-.33.19-.33.4,0,.55,0,.65.34.65h.29c.41,0,.46,0,.64-.19s.25-.26.34-.26c.25,0,.7.54.7.59s0,.14-.56.14H89.14c-.24,0-.37,0-.37.36s0,.45.14.45,1.78-.28,1.92-.28.08,0,.08.06-.41.19-.55.23c-1.09.35-2,.55-3.33.87a3.09,3.09,0,0,0-.66.21c-.05,0-.2.17-.24.17s-.49-.85-.49-.85,0-.05.09-.05a15.15,15.15,0,0,0,1.87-.18c.05,0,.44-.07.45-.08s.08-.11.08-.19,0-.47,0-.52-.18-.2-.44-.2c-.93,0-1.32,0-1.39,0l-.22,0s-.06,0-.1-.07l-.21-.24c0-.06,0-.06,0-.08s0,0,0,0l.45,0c.46,0,1.13,0,1.58,0s.35-.09.35-.67c0-.19,0-.38-.31-.38h-.76c-.18,0-.2,0-.21.18a.39.39,0,0,1-.41.32c-.31,0-.31-.21-.31-.32,0-.77,0-2,0-2.3,0-.12-.06-.63-.06-.74a.08.08,0,0,1,.09-.09,2.92,2.92,0,0,1,.54.2,1,1,0,0,0,.46.08h.66c.32,0,.32-.14.32-.52s0-.56-.32-.56h-.34c-.88,0-1.22,0-1.25,0l-.23,0s-.06,0-.09-.07l-.2-.24c0-.06-.06-.06-.06-.08l0,0,.47,0c.1,0,.86.05,1.36.05h.28c.33,0,.33-.16.33-.44,0-.64,0-.72-.13-.72l-.31.05c-.27,0-1,.09-1.27.09s-.14,0-.14-.05,0-.05.29-.12a11,11,0,0,0,2.89-1c.18-.11.2-.12.25-.12a2.89,2.89,0,0,1,.82.63s0,0-.24.1L89,9c-.17,0-.18.11-.18.26a5.93,5.93,0,0,0,0,1c0,.08.14.11.22.11.6,0,.67,0,.81-.19s.29-.35.43-.35a2,2,0,0,1,.78.69c0,.12-.06.12-.58.12Zm-1.25,2.29c.33,0,.33-.15.33-.5s0-.43-.33-.43h-.65c-.33,0-.33.16-.33.51s0,.42.33.42Zm0,1.18c.33,0,.33-.14.33-.46s0-.43-.33-.43h-.64c-.32,0-.33.14-.33.38,0,.41,0,.51.34.51ZM89.08,12c-.32,0-.32.17-.32.48s0,.45.32.45h.79c.33,0,.33-.16.33-.47s0-.46-.33-.46Zm0,1.22c-.32,0-.32.16-.32.43s0,.46.32.46h.78c.33,0,.33-.17.33-.44s0-.45-.33-.45Zm4.12-2.63c-.3,0-.31.13-.32.53-.1,3.57-.44,4.73-1.69,5.92a3.8,3.8,0,0,1-1.13.79.06.06,0,0,1-.06-.05c0-.06.24-.24.28-.29,1.44-1.44,1.91-2.64,1.91-6.65,0-.16,0-.24-.2-.24l-.56,0c-.05,0-.07,0-.1-.06l-.2-.25s0,0,0-.07,0,0,0,0l.89.05c.13,0,.18,0,.18-.18,0-.67,0-1.12-.06-1.39,0-.08-.09-.45-.09-.53s0-.15.09-.15,1.05.18,1.05.31-.18.17-.2.2a6.41,6.41,0,0,0-.08,1.27c0,.45,0,.49.3.49h.35a.44.44,0,0,0,.37-.14c.22-.23.25-.26.31-.26s.81.43.81.61,0,.1-.21.26a.4.4,0,0,0-.15.38,30.85,30.85,0,0,1-.22,5.63c-.27,1-.94,1-1.07,1s-.2-.06-.31-.36-.3-.38-.63-.54-.27-.12-.27-.19,0,0,.07,0,1,.18,1.14.18c.41,0,.51-.81.56-1.34S94,12,94,11.13c0-.47,0-.59-.32-.59Z"/><path class="cls-1" d="M98.41,10.87c.72,0,1.49.47,1.49,1.06a.47.47,0,0,1-.42.49c-.15,0-.22-.13-.37-.44a3.08,3.08,0,0,0-.69-.91,1.39,1.39,0,0,1-.19-.15S98.35,10.87,98.41,10.87ZM99.06,15c.37-.19.9-1.37,1.78-3.32.09-.22.28-.56.37-.79s.08-.18.14-.18.06,0,.06.07-1,2.9-1.16,3.24a2.68,2.68,0,0,0-.34,1.2,3.19,3.19,0,0,0,.33,1.4,1.45,1.45,0,0,1,.1.42.52.52,0,0,1-.47.51c-.39,0-.52-.38-.52-.72A1.76,1.76,0,0,0,99,15.4c0-.05-.32-.2-.32-.25S99,15,99.06,15Zm.07-6.51s.05,0,.09,0a3.94,3.94,0,0,1,.86.17,1,1,0,0,1,.7.86c0,.24-.11.48-.35.48s-.23-.09-.38-.36a3.59,3.59,0,0,0-.89-1.07Zm3.76,4.75c-.25,0-1,0-1.36,0l-.22,0s-.06,0-.1-.06L101,13c0-.05,0-.05,0-.07s0,0,0,0l.48,0c.48,0,1,0,1.46,0h.79c.18,0,.3,0,.33-.22s0-1.45,0-1.7,0-.32-.3-.32h-.3c-.24,0-1,0-1.34,0l-.24,0s-.05,0-.08-.07l-.21-.24c0-.06,0-.06,0-.08s0,0,0,0l.48,0c.48,0,1,0,1.46,0h.23c.1,0,.31,0,.31-.31s0-1,0-1.34c0-.09-.07-.5-.07-.52s0-.08,0-.08,1.06.17,1.06.34-.2.25-.21.3a.91.91,0,0,0,0,.35c0,.16,0,1,0,1,0,.29.22.29.33.29h.6c.44,0,.5,0,.59-.08s.32-.46.41-.46a2.88,2.88,0,0,1,.83.67c0,.15-.21.15-.57.15h-1.86c-.12,0-.34,0-.34.29s0,1.69,0,1.75.17.2.34.2h1c.45,0,.5,0,.59-.08s.35-.47.45-.47.81.55.81.68-.21.15-.58.15h-3s-.05,0-.05,0,.4.46.4.57-.07.1-.28.15-.14.07-.41.5A13.76,13.76,0,0,1,102.94,16c-.15.18-.16.19-.16.23s0,.05.06.05c.29,0,2.9-.15,3.38-.17.26,0,.36,0,.36-.17S106,14.5,106,14.37v0c.19,0,1.82,1.47,1.82,2.58a.56.56,0,0,1-.53.62c-.22,0-.24-.09-.42-.91-.07-.26-.12-.43-.35-.43s-1.45.28-1.71.33c-.43.07-2.3.33-2.67.42a3.13,3.13,0,0,0-.54.21,1.49,1.49,0,0,1-.24.14c-.16,0-.46-1.08-.46-1.12a0,0,0,0,1,0,0c.09,0,.44.07.52.08a6.13,6.13,0,0,0,.72,0c.26,0,.31-.1.74-.92a11,11,0,0,0,.87-1.93c0-.18-.19-.18-.32-.18Z"/><path class="cls-1" d="M116.27,9.12A11.64,11.64,0,0,0,117.82,14c.18.29,1.38,2.24,3,2.67,0,0,.1,0,.1.07s0,.05-.37.13a2,2,0,0,0-.74.32c-.2.15-.23.18-.26.18a6.82,6.82,0,0,1-2.44-3.1,11.65,11.65,0,0,1-1-4.13c0-.12,0-.13-.05-.13s-.07,0-.11.42A12.2,12.2,0,0,1,114.59,15a5.87,5.87,0,0,1-3.1,2.54s-.07,0-.07-.05.06-.08.14-.13a7.94,7.94,0,0,0,2.53-2.74,13.41,13.41,0,0,0,1.22-5.49,3.14,3.14,0,0,0,0-.65,1.6,1.6,0,0,1,0-.21.1.1,0,0,1,.09-.09c.06,0,.52.15.62.17.51.14.72.21.72.4s-.08.15-.18.17-.14,0-.17.06A.23.23,0,0,0,116.27,9.12Z"/><path class="cls-1" d="M11,44.4c-.73,0-.73-.38-.73-.61s.1-1.31.12-1.52V39.83a32.26,32.26,0,0,0-.14-3.74,3.64,3.64,0,0,1-.12-.52c0-.06.09-.08.13-.08a5.81,5.81,0,0,1,1.11.48l.09.05a5.78,5.78,0,0,0,2,.33H20.6c.88,0,1-.1,1.24-.29.63-.48.79-.52.82-.52a4.47,4.47,0,0,1,1.57,1.3c0,.11,0,.12-.49.54a6.42,6.42,0,0,0-.14,1.83c0,.48.06,1.2.09,1.91,0,1,.1,1.87.1,2.09,0,.91-1.05.94-1.06.94-.24,0-.79-.07-.79-.66,0-.32,0-.8-.73-.8H13c-.23,0-.83,0-.83.66C12.21,43.74,12.21,44.4,11,44.4Zm1.78-7.57c-.77,0-.77.13-.77,2.24,0,1.74,0,2.66.05,2.73a.65.65,0,0,0,.7.4h8.47c.76,0,.76-.12.76-2.25,0-1,0-2.62-.05-2.73a.67.67,0,0,0-.71-.39ZM9.1,33.48c-.06,0-.09,0-.16-.12l-.44-.53-.08-.09,0,0h0l.54,0,.48,0c1.05.07,2,.1,3.17.1h2.94c.25,0,.71,0,.71-.71V29.39c0-.49-.24-.7-.76-.7H10.7c-1.84,0-2.61,0-2.92.07h0l-.24,0-.23,0s-.07,0-.13-.07l0-.05-.44-.53c-.08-.1-.08-.1-.08-.12l.55,0,.48,0h.41c1,0,1.81.08,2.76.08h4.66c.25,0,.77,0,.77-.68a25.31,25.31,0,0,0-.16-2.7,3.75,3.75,0,0,0-.14-.46,3.87,3.87,0,0,1-.11-.41c0-.08.14-.08.15-.08l2.18.39c.31.06.58.13.58.39,0,.09-.24.35-.41.54a1.76,1.76,0,0,0-.35.46c-.05.15-.1,1.64-.1,1.87,0,.68.55.68.78.68H23c1,0,1.19,0,1.53-.41l.07-.09c.58-.69.64-.75.81-.75a8.34,8.34,0,0,1,2.12,1.47c0,.25-.39.27-1.19.27H18.64c-.23,0-.78,0-.78.68,0,.22,0,.85,0,1.46s0,1.15,0,1.34c0,.71.52.71.77.71h3.57a2.77,2.77,0,0,0,.74-.05,2.65,2.65,0,0,0,.7-.71,3.21,3.21,0,0,1,.44-.5c.19,0,1.95,1.18,1.95,1.5s-.22.24-.76.24H12.5c-1.84,0-2.6,0-2.92.07h0l-.24,0Z"/><path class="cls-1" d="M30.35,43.13s-.08,0-.17-.12l-.43-.53c-.08-.1-.08-.1-.08-.13s.32,0,.55,0l.48,0c1.06.06,2,.09,3.19.09h4.75c.18,0,.62,0,.74-.36.06-.19.1-2.35.1-2.59,0-1,0-1.38-.73-1.38H36.46c-1.54,0-2.31,0-2.67,0h-.25a3.27,3.27,0,0,1-.48.07c-.06,0-.09,0-.15-.12l-.48-.55,0,0,0-.06h0c.21,0,.86.07,1,.09,1.19.05,2.14.07,3.18.07h2.17a.61.61,0,0,0,.66-.36,22.52,22.52,0,0,0,.09-3c0-.59-.52-.59-.77-.59h-3.1c-.25,0-.58,0-.68.31-.16.5-.29.89-.87.89s-.78-.31-.78-1c0-.36,0-1.35.06-2.3s.06-1.8.06-2.1A45.3,45.3,0,0,0,33.28,25a3.51,3.51,0,0,0-.12-.37,3.27,3.27,0,0,1-.14-.45c0-.06,0-.06.06-.06a8.4,8.4,0,0,1,1.21.6l.13.07a3,3,0,0,0,1.83.42h8.5a1.35,1.35,0,0,0,.91-.2,1.82,1.82,0,0,0,.2-.2c.13-.13.35-.38.42-.39s1.63,1.12,1.63,1.38-.14.29-.46.48-.31.32-.31,1.21c0,.49,0,1.82,0,3.11s0,2.42,0,2.84A1.24,1.24,0,0,1,46,34.82c-.4,0-.43-.19-.47-.58s-.5-.53-.73-.53h-3c-.77,0-.77,0-.77,2,0,1.45,0,1.6.18,1.78a.86.86,0,0,0,.64.18H45c1,0,1.11,0,1.31-.18a3.12,3.12,0,0,0,.34-.41c.19-.26.54-.73.64-.73a6.2,6.2,0,0,1,1.77,1.56c0,.26-.38.27-1.17.27H41.83c-.82,0-.82.41-.82,1.21,0,2.48,0,2.74.23,2.94a.74.74,0,0,0,.57.18h5c.86,0,1,0,1.22-.2a3.13,3.13,0,0,0,.37-.45c.2-.26.54-.69.65-.69a5.1,5.1,0,0,1,1.82,1.56c0,.25-.39.26-1.19.26H33.77a25.58,25.58,0,0,0-3,.07h0l-.23,0ZM41.81,29.8c-.8,0-.8.38-.8,1.54,0,1.65,0,1.86.8,1.86h3c.79,0,.79-.24.79-2.14,0-.84,0-1.26-.77-1.26Zm-6.18,0c-.76,0-.76.26-.76,1.26,0,1.63,0,1.8.16,2a.75.75,0,0,0,.6.18h3.1c.75,0,.75-.26.75-1.24,0-1.66,0-1.83-.16-2a.72.72,0,0,0-.59-.18Zm6.22-4.12c-.8,0-.8.32-.8,2.09,0,1.23,0,1.52.8,1.52h3c.8,0,.8-.24.8-2.07,0-1.22,0-1.54-.8-1.54Zm-6.22,0c-.73,0-.76.26-.76,1.65,0,1.73,0,2,.76,2H38.7c.76,0,.76-.19.76-1.63,0-1.72,0-2-.76-2Z"/><path class="cls-1" d="M57.31,44.4c-.72,0-.72-.38-.72-.61s.09-1.32.11-1.52V39.83a32.26,32.26,0,0,0-.14-3.74,2.51,2.51,0,0,1-.11-.52c0-.06.08-.08.12-.08a5.81,5.81,0,0,1,1.11.48l.09.05a5.82,5.82,0,0,0,2,.33H66.9c.87,0,1-.1,1.24-.29.62-.48.78-.52.82-.52a4.44,4.44,0,0,1,1.56,1.3c0,.11,0,.12-.49.54a6.8,6.8,0,0,0-.14,1.83c0,.48.06,1.2.1,1.91,0,1,.09,1.87.09,2.09,0,.91-1,.94-1,.94-.24,0-.8-.07-.8-.66,0-.32,0-.8-.73-.8H59.33c-.23,0-.82,0-.82.66C58.51,43.74,58.51,44.4,57.31,44.4Zm1.79-7.57c-.78,0-.78.13-.78,2.24,0,1.74,0,2.66,0,2.73a.65.65,0,0,0,.7.4h8.48c.75,0,.75-.12.75-2.25,0-1,0-2.62,0-2.73a.66.66,0,0,0-.7-.39Zm-3.71-3.35c-.06,0-.09,0-.16-.12l-.44-.53a.38.38,0,0,0-.08-.09v0h0l.54,0,.48,0c1,.07,2,.1,3.17.1h2.94c.25,0,.71,0,.71-.71V29.39c0-.49-.23-.7-.76-.7H57c-1.84,0-2.61,0-2.92.07h0l-.25,0-.23,0c-.05,0-.07,0-.12-.07l0-.05L53,28.15c-.07-.1-.07-.1-.07-.12l.54,0,.48,0h.42c1,0,1.8.08,2.76.08h4.65c.25,0,.77,0,.77-.68a25.31,25.31,0,0,0-.16-2.7c0-.07-.07-.26-.13-.46a2.71,2.71,0,0,1-.12-.41c0-.08.14-.08.15-.08l2.18.39c.31.06.58.13.58.39,0,.09-.23.35-.41.54a1.76,1.76,0,0,0-.35.46c0,.15-.09,1.64-.09,1.87,0,.68.54.68.77.68H69.3c1,0,1.19,0,1.53-.41l.08-.09c.58-.69.63-.75.8-.75a8,8,0,0,1,2.12,1.47c0,.25-.39.27-1.19.27H64.93c-.23,0-.78,0-.78.68,0,.22,0,.85,0,1.46s0,1.15,0,1.34c0,.71.52.71.77.71h3.57a2.77,2.77,0,0,0,.74-.05,2.65,2.65,0,0,0,.7-.71,3.21,3.21,0,0,1,.44-.5c.2,0,2,1.18,2,1.5s-.22.24-.75.24H58.8c-1.85,0-2.61,0-2.93.07h0l-.24,0Z"/><path class="cls-1" d="M76.64,43.13s-.08,0-.17-.12L76,42.48c-.08-.1-.08-.1-.08-.13s.33,0,.55,0l.48,0c1.06.06,2,.09,3.19.09h4.75c.18,0,.62,0,.75-.36,0-.19.09-2.35.09-2.59,0-1,0-1.38-.73-1.38H82.75c-1.54,0-2.3,0-2.67,0h-.24a3.39,3.39,0,0,1-.49.07c-.06,0-.09,0-.15-.12l-.48-.55,0,0,0-.06h0c.21,0,.86.07,1,.09,1.19.05,2.14.07,3.18.07H85a.6.6,0,0,0,.66-.36,21.43,21.43,0,0,0,.1-3c0-.59-.53-.59-.78-.59h-3.1c-.24,0-.58,0-.68.31-.16.5-.28.89-.87.89s-.78-.31-.78-1c0-.36,0-1.35.06-2.3s.06-1.8.06-2.1A45.3,45.3,0,0,0,79.57,25a3.51,3.51,0,0,0-.12-.37,2.88,2.88,0,0,1-.13-.45c0-.06,0-.06.05-.06a7.91,7.91,0,0,1,1.21.6l.13.07a3,3,0,0,0,1.83.42H91A1.35,1.35,0,0,0,92,25l.21-.2a2.28,2.28,0,0,1,.41-.39c.17.05,1.63,1.12,1.63,1.38s-.14.29-.46.48-.31.32-.31,1.21c0,.49,0,1.82,0,3.11s0,2.42,0,2.84a1.25,1.25,0,0,1-1.22,1.4c-.4,0-.43-.19-.47-.58s-.49-.53-.73-.53h-3c-.78,0-.78,0-.78,2,0,1.45,0,1.6.18,1.78a.87.87,0,0,0,.64.18h3.17c1,0,1.11,0,1.32-.18a3.28,3.28,0,0,0,.33-.41c.19-.26.54-.73.64-.73a6.11,6.11,0,0,1,1.78,1.56c0,.26-.38.27-1.17.27H88.12c-.82,0-.82.41-.82,1.21,0,2.48,0,2.74.23,2.94a.74.74,0,0,0,.57.18h5c.87,0,1,0,1.22-.2a3.8,3.8,0,0,0,.38-.45c.2-.26.53-.69.65-.69a5.15,5.15,0,0,1,1.81,1.56c0,.25-.38.26-1.19.26H80.07a25.27,25.27,0,0,0-2.95.07h0l-.23,0ZM88.1,29.8c-.8,0-.8.38-.8,1.54,0,1.65,0,1.86.8,1.86h3c.8,0,.8-.24.8-2.14,0-.84,0-1.26-.78-1.26Zm-6.18,0c-.75,0-.75.26-.75,1.26,0,1.63,0,1.8.15,2a.75.75,0,0,0,.6.18H85c.75,0,.75-.26.75-1.24,0-1.66,0-1.83-.15-2a.75.75,0,0,0-.6-.18Zm6.23-4.12c-.8,0-.8.32-.8,2.09,0,1.23,0,1.52.8,1.52h3c.8,0,.8-.24.8-2.07,0-1.22,0-1.54-.8-1.54Zm-6.23,0c-.73,0-.75.26-.75,1.65,0,1.73,0,2,.75,2H85c.75,0,.75-.19.75-1.63,0-1.72,0-2-.75-2Z"/><path class="cls-1" d="M102.52,44.66c-.52,0-.57-.5-.57-1s0-2.29,0-4,0-3.7,0-4.37c0-1.09,0-7.12-.07-8.41l0-.44c0-.73-.13-1.94-.13-2.26s0-.2.13-.2.25,0,1.11.5a2.13,2.13,0,0,0,1.3.33h13.38a.85.85,0,0,0,.78-.34c.56-.61.61-.63.77-.63.31,0,1.67,1.19,1.67,1.56,0,.12,0,.14-.35.4l-.09.07c-.21.15-.23,1.28-.23,1.29s.14,12.06.17,12.74c0,.24,0,1.14,0,1.92,0,.59,0,1.11,0,1.22,0,.48,0,1.61-1.29,1.61-.58,0-.61-.32-.66-.84s-.31-.41-.73-.41H104.39c-.6,0-.63,0-.73.58S102.83,44.66,102.52,44.66Zm1.92-19.4c-.78,0-.82.38-.82,1s0,1.87,0,3.2,0,2.45,0,2.86c0,.78,0,2.91.06,5s.06,3.86.06,4.51,0,1,.82,1h13.31c.82,0,.82-.21.82-1.84,0-.65,0-2.46,0-4.21s.05-3.27.05-3.82,0-1.82,0-3.12,0-2.44,0-2.85a5.68,5.68,0,0,0,0-1.41.72.72,0,0,0-.75-.34Zm1.06,15s-.08,0-.15-.12l-.45-.55c-.06-.07-.1-.1-.1-.12h0c.21,0,.9.07,1,.09.39,0,1.78.07,3.07.07h.71c.15,0,.58,0,.71-.33s.09-3.78.09-3.82c0-1.39,0-1.61-.82-1.61-1.19,0-2.14,0-2.83.07h0l-.24,0-.24,0s-.08,0-.17-.13l-.43-.52c-.08-.1-.08-.1-.08-.13l.55,0,.48,0c.35,0,1.9.1,3.08.1.7,0,.7-.34.7-2,0-.42,0-2.52-.29-2.78a.73.73,0,0,0-.53-.17H109c-.92,0-2.15,0-2.8.07h0l-.28,0-.2,0c-.07,0-.1,0-.17-.11l-.46-.54s0-.07-.06-.09,0,0,0,0l.51,0,.51,0h.09c.55,0,1.83.09,3,.09h4.49c.38,0,.68,0,.93-.42l.07-.12c.39-.63.43-.69.57-.69s1.89,1.26,1.89,1.52-.06.2-1.17.2H112.8c-.76,0-.83.19-.83,2.28s0,2.4.29,2.53.25.1.81.1.74,0,.9-.18l.21-.21c.21-.21.63-.63.75-.63a4.22,4.22,0,0,1,1.7,1.33c0,.14-.27.17-1,.17h-2.89c-.78,0-.78.28-.78,1.47,0,.46,0,3.59.12,3.9s.55.39.8.39h.57c.78,0,1.29,0,1.54-.42.46-.74.49-.78.64-.78a6.31,6.31,0,0,1,1.89,1.49c0,.21-.05.22-1.17.22h-7.41c-.53,0-2.13,0-2.94,0ZM116,37.94c-.39,0-.46-.1-1.12-1.06l-.13-.18a5.92,5.92,0,0,0-1-1.2l0,0c-.18-.16-.34-.3-.34-.36s.15-.11.27-.11c.46,0,3,.74,3.18,2.06a.76.76,0,0,1-.19.63A.81.81,0,0,1,116,37.94Z"/></svg>