<svg id="レイヤー_1" data-name="レイヤー 1" xmlns="http://www.w3.org/2000/svg" viewBox="0 0 129.25 33.28"><defs><style>.cls-1{fill:#fff;}</style></defs><path class="cls-1" d="M11,26.91c-.73,0-.73-.39-.73-.62s.1-1.31.12-1.52V22.33a32.09,32.09,0,0,0-.14-3.73,4.68,4.68,0,0,1-.12-.52c0-.07.09-.09.13-.09a5.81,5.81,0,0,1,1.11.48l.09.05a5.55,5.55,0,0,0,2,.33H20.6c.88,0,1-.1,1.24-.29.63-.48.79-.52.82-.52a4.39,4.39,0,0,1,1.57,1.31c0,.11,0,.11-.49.53a6.45,6.45,0,0,0-.14,1.83c0,.48.06,1.21.09,1.91,0,1,.1,1.87.1,2.09,0,.92-1.05.94-1.06.94-.24,0-.79-.06-.79-.66,0-.32,0-.8-.73-.8H13c-.23,0-.83,0-.83.66C12.21,26.25,12.21,26.91,11,26.91Zm1.78-7.57c-.77,0-.77.12-.77,2.23,0,1.75,0,2.67.05,2.74a.65.65,0,0,0,.7.4h8.47c.76,0,.76-.13.76-2.26,0-1,0-2.62-.05-2.73a.67.67,0,0,0-.71-.38ZM9.1,16C9,16,9,16,8.94,15.86l-.44-.53-.08-.09,0,0h0l.54,0,.48,0c1.05.06,2,.09,3.17.09h2.94c.25,0,.71,0,.71-.71V11.9c0-.49-.24-.71-.76-.71H10.7c-1.84,0-2.61,0-2.92.07h0l-.24,0-.23,0s-.07,0-.13-.07l0-.05-.44-.53c-.08-.09-.08-.09-.08-.12l.55.05.48,0,.41,0c1,0,1.81.07,2.76.07h4.66c.25,0,.77,0,.77-.68a25.47,25.47,0,0,0-.16-2.7,3.75,3.75,0,0,0-.14-.46,3.32,3.32,0,0,1-.11-.41c0-.07.14-.07.15-.07s2,.34,2.18.39.58.12.58.38c0,.09-.24.36-.41.55a1.62,1.62,0,0,0-.35.45c-.05.15-.1,1.64-.1,1.87,0,.68.55.68.78.68H23c1,0,1.19,0,1.53-.41l.07-.09c.58-.68.64-.75.81-.75a8.6,8.6,0,0,1,2.12,1.47c0,.26-.39.27-1.19.27H18.64c-.23,0-.78,0-.78.68,0,.23,0,.86,0,1.47s0,1.14,0,1.33c0,.71.52.71.77.71h3.57a2.33,2.33,0,0,0,.74-.05c.16-.05.38-.31.7-.71a3,3,0,0,1,.44-.49c.19,0,1.95,1.17,1.95,1.49s-.22.24-.76.24H12.5c-1.84,0-2.6,0-2.92.07h0l-.24,0Z"/><path class="cls-1" d="M30.35,26.15s-.08,0-.17-.12l-.43-.53c-.08-.1-.08-.1-.08-.12l.55.05.48,0c1.06.06,2,.09,3.19.09h4.75c.18,0,.62,0,.74-.36.06-.18.1-2.34.1-2.59,0-1,0-1.38-.73-1.38H36.46c-1.54,0-2.31,0-2.67,0h-.25l-.48.07c-.06,0-.09,0-.15-.12l-.48-.56,0-.05,0-.05h0c.21,0,.86.06,1,.08,1.19.05,2.14.07,3.18.07h2.17a.62.62,0,0,0,.66-.35,22.85,22.85,0,0,0,.09-3c0-.59-.52-.59-.77-.59h-3.1c-.25,0-.58,0-.68.32-.16.5-.29.89-.87.89s-.78-.31-.78-1c0-.36,0-1.34.06-2.3s.06-1.79.06-2.1A45.19,45.19,0,0,0,33.28,8a2.89,2.89,0,0,0-.12-.38A2.6,2.6,0,0,1,33,7.18s0,0,.06,0a8,8,0,0,1,1.21.59l.13.07a3,3,0,0,0,1.83.43h8.5a1.35,1.35,0,0,0,.91-.2,1.4,1.4,0,0,0,.2-.21c.13-.13.35-.37.42-.38s1.63,1.12,1.63,1.38-.14.28-.46.48-.31.32-.31,1.2c0,.49,0,1.82,0,3.11s0,2.43,0,2.84A1.24,1.24,0,0,1,46,17.84c-.4,0-.43-.19-.47-.57-.06-.54-.5-.54-.73-.54h-3c-.77,0-.77,0-.77,2,0,1.45,0,1.6.18,1.78a.89.89,0,0,0,.64.17H45c1,0,1.11,0,1.31-.17a3.42,3.42,0,0,0,.34-.42c.19-.25.54-.72.64-.72A6.05,6.05,0,0,1,49.06,21c0,.25-.38.26-1.17.26H41.83c-.82,0-.82.41-.82,1.22,0,2.47,0,2.73.23,2.94a.77.77,0,0,0,.57.17h5c.86,0,1,0,1.22-.2a2.9,2.9,0,0,0,.37-.44c.2-.26.54-.7.65-.7a5.2,5.2,0,0,1,1.82,1.56c0,.26-.39.27-1.19.27H33.77a22.92,22.92,0,0,0-3,.07h0l-.23,0ZM41.81,12.82c-.8,0-.8.39-.8,1.54,0,1.65,0,1.86.8,1.86h3c.79,0,.79-.24.79-2.14,0-.84,0-1.26-.77-1.26Zm-6.18,0c-.76,0-.76.27-.76,1.26,0,1.64,0,1.81.16,2a.78.78,0,0,0,.6.17h3.1c.75,0,.75-.26.75-1.23,0-1.66,0-1.83-.16-2a.72.72,0,0,0-.59-.18ZM41.85,8.7c-.8,0-.8.32-.8,2.1,0,1.22,0,1.51.8,1.51h3c.8,0,.8-.23.8-2.07,0-1.21,0-1.54-.8-1.54Zm-6.22,0c-.73,0-.76.26-.76,1.66,0,1.73,0,2,.76,2H38.7c.76,0,.76-.18.76-1.63,0-1.72,0-2-.76-2Z"/><path class="cls-1" d="M57.31,26.91c-.72,0-.72-.39-.72-.62s.09-1.31.11-1.52V22.33a32.09,32.09,0,0,0-.14-3.73,2.85,2.85,0,0,1-.11-.52c0-.07.08-.09.12-.09a5.81,5.81,0,0,1,1.11.48l.09.05a5.59,5.59,0,0,0,2,.33H66.9c.87,0,1-.1,1.24-.29.62-.48.78-.52.82-.52a4.36,4.36,0,0,1,1.56,1.31c0,.11,0,.11-.49.53a6.84,6.84,0,0,0-.14,1.83c0,.48.06,1.21.1,1.91,0,1,.09,1.87.09,2.09,0,.92-1,.94-1,.94-.24,0-.8-.06-.8-.66,0-.32,0-.8-.73-.8H59.33c-.23,0-.82,0-.82.66C58.51,26.25,58.51,26.91,57.31,26.91Zm1.79-7.57c-.78,0-.78.12-.78,2.23,0,1.75,0,2.67,0,2.74a.65.65,0,0,0,.7.4h8.48c.75,0,.75-.13.75-2.26,0-1,0-2.62,0-2.73a.66.66,0,0,0-.7-.38ZM55.39,16c-.06,0-.09,0-.16-.12l-.44-.53-.08-.09v0h0l.54,0,.48,0c1,.06,2,.09,3.17.09h2.94c.25,0,.71,0,.71-.71V11.9c0-.49-.23-.71-.76-.71H57c-1.84,0-2.61,0-2.92.07h0l-.25,0-.23,0c-.05,0-.07,0-.12-.07l0-.05L53,10.65c-.07-.09-.07-.09-.07-.12l.54.05.48,0,.42,0c1,0,1.8.07,2.76.07h4.65c.25,0,.77,0,.77-.68a25.47,25.47,0,0,0-.16-2.7c0-.07-.07-.26-.13-.46a2.42,2.42,0,0,1-.12-.41c0-.07.14-.07.15-.07s2,.34,2.18.39.58.12.58.38a1.79,1.79,0,0,1-.41.55,1.62,1.62,0,0,0-.35.45c0,.15-.09,1.64-.09,1.87,0,.68.54.68.77.68H69.3c1,0,1.19,0,1.53-.41l.08-.09c.58-.68.63-.75.8-.75a8.24,8.24,0,0,1,2.12,1.47c0,.26-.39.27-1.19.27H64.93c-.23,0-.78,0-.78.68,0,.23,0,.86,0,1.47s0,1.14,0,1.33c0,.71.52.71.77.71h3.57a2.33,2.33,0,0,0,.74-.05c.16-.05.38-.31.7-.71a3,3,0,0,1,.44-.49c.2,0,2,1.17,2,1.49s-.22.24-.75.24H58.8c-1.85,0-2.61,0-2.93.07h0l-.24,0Z"/><path class="cls-1" d="M76.64,26.15s-.08,0-.17-.12L76,25.5c-.08-.1-.08-.1-.08-.12l.55.05.48,0c1.06.06,2,.09,3.19.09h4.75c.18,0,.62,0,.75-.36,0-.18.09-2.34.09-2.59,0-1,0-1.38-.73-1.38H82.75c-1.54,0-2.3,0-2.67,0h-.24c-.11,0-.42.07-.49.07s-.09,0-.15-.12l-.48-.56,0-.05s0-.05,0-.05h0c.21,0,.86.06,1,.08,1.19.05,2.14.07,3.18.07H85a.61.61,0,0,0,.66-.35,21.75,21.75,0,0,0,.1-3c0-.59-.53-.59-.78-.59h-3.1c-.24,0-.58,0-.68.32-.16.5-.28.89-.87.89s-.78-.31-.78-1c0-.36,0-1.34.06-2.3s.06-1.79.06-2.1A45.19,45.19,0,0,0,79.57,8a2.89,2.89,0,0,0-.12-.38,2.37,2.37,0,0,1-.13-.45,0,0,0,0,1,.05,0,7.57,7.57,0,0,1,1.21.59l.13.07a3,3,0,0,0,1.83.43H91A1.35,1.35,0,0,0,92,8l.21-.21a2.15,2.15,0,0,1,.41-.38c.17.05,1.63,1.12,1.63,1.38s-.14.28-.46.48-.31.32-.31,1.2c0,.49,0,1.82,0,3.11s0,2.43,0,2.84a1.25,1.25,0,0,1-1.22,1.4c-.4,0-.43-.19-.47-.58s-.49-.53-.73-.53h-3c-.78,0-.78,0-.78,2,0,1.45,0,1.6.18,1.78a.91.91,0,0,0,.64.17h3.17c1,0,1.11,0,1.32-.17a3.61,3.61,0,0,0,.33-.42c.19-.25.54-.72.64-.72A6,6,0,0,1,95.36,21c0,.25-.38.26-1.17.26H88.12c-.82,0-.82.41-.82,1.22,0,2.47,0,2.73.23,2.94a.77.77,0,0,0,.57.17h5c.87,0,1,0,1.22-.2a3.49,3.49,0,0,0,.38-.44c.2-.26.53-.7.65-.7a5.25,5.25,0,0,1,1.81,1.56c0,.26-.38.27-1.19.27H80.07a22.66,22.66,0,0,0-2.95.07h0l-.23,0ZM88.1,12.82c-.8,0-.8.39-.8,1.54,0,1.65,0,1.86.8,1.86h3c.8,0,.8-.24.8-2.14,0-.84,0-1.26-.78-1.26Zm-6.18,0c-.75,0-.75.27-.75,1.26,0,1.64,0,1.81.15,2a.78.78,0,0,0,.6.17H85c.75,0,.75-.26.75-1.23,0-1.66,0-1.83-.15-2a.75.75,0,0,0-.6-.18ZM88.15,8.7c-.8,0-.8.32-.8,2.1,0,1.22,0,1.51.8,1.51h3c.8,0,.8-.23.8-2.07C92,9,92,8.7,91.15,8.7Zm-6.23,0c-.73,0-.75.26-.75,1.66,0,1.73,0,2,.75,2H85c.75,0,.75-.18.75-1.63,0-1.72,0-2-.75-2Z"/><path class="cls-1" d="M102.52,27.07c-.52,0-.57-.5-.57-1s0-2.29,0-4,0-3.7,0-4.37c0-1.09,0-7.12-.07-8.41l0-.44c0-.73-.13-1.94-.13-2.26s0-.2.13-.2.25.05,1.11.5a2.12,2.12,0,0,0,1.3.34h13.38a.83.83,0,0,0,.78-.35c.56-.61.61-.63.77-.63.31,0,1.67,1.19,1.67,1.57,0,.11,0,.13-.35.39l-.09.07c-.21.15-.23,1.28-.23,1.29s.14,12.07.17,12.74c0,.25,0,1.15,0,1.92,0,.59,0,1.11,0,1.22,0,.48,0,1.61-1.29,1.61-.58,0-.61-.32-.66-.84s-.31-.41-.73-.41H104.39c-.6,0-.63,0-.73.58S102.83,27.07,102.52,27.07Zm1.92-19.4c-.78,0-.82.38-.82,1s0,1.87,0,3.2,0,2.45,0,2.86c0,.78,0,2.91.06,5s.06,3.86.06,4.51,0,1,.82,1h13.31c.82,0,.82-.21.82-1.84,0-.65,0-2.46,0-4.21s.05-3.27.05-3.82,0-1.82,0-3.12,0-2.43,0-2.85a5.68,5.68,0,0,0,0-1.41.72.72,0,0,0-.75-.34Zm1.06,15s-.08,0-.15-.12L104.9,22l-.1-.11h0a9.65,9.65,0,0,1,1,.09c.39,0,1.78.07,3.07.07h.71c.15,0,.58,0,.71-.34s.09-3.78.09-3.82c0-1.39,0-1.61-.82-1.61-1.19,0-2.14,0-2.83.07h0l-.24,0-.24,0s-.08,0-.17-.12l-.43-.53c-.08-.1-.08-.1-.08-.13l.55.05.48,0c.35,0,1.9.1,3.08.1.7,0,.7-.34.7-2,0-.42,0-2.52-.29-2.77a.7.7,0,0,0-.53-.18H109c-.92,0-2.15,0-2.8.07h0l-.28,0-.2,0c-.07,0-.1,0-.17-.11l-.46-.54s0-.07-.06-.09,0,0,0,0l.51,0,.51,0h.09c.55,0,1.83.09,3,.09h4.49c.38,0,.68,0,.93-.42l.07-.12c.39-.63.43-.68.57-.68a6.43,6.43,0,0,1,1.89,1.51c0,.19-.06.2-1.17.2H112.8c-.76,0-.83.19-.83,2.28s0,2.4.29,2.53.25.1.81.1.74-.05.9-.18l.21-.21c.21-.2.63-.63.75-.63a4.22,4.22,0,0,1,1.7,1.33c0,.15-.27.17-1,.17h-2.89c-.78,0-.78.28-.78,1.47,0,.46,0,3.59.12,3.9s.55.4.8.4h.57c.78,0,1.29,0,1.54-.43.46-.73.49-.78.64-.78a6.18,6.18,0,0,1,1.89,1.5c0,.21-.05.21-1.17.21h-7.41c-.53,0-2.13,0-2.94.05ZM116,20.36c-.39,0-.46-.1-1.12-1.07l-.13-.18a5.92,5.92,0,0,0-1-1.2l0-.05c-.18-.16-.34-.3-.34-.36s.15-.11.27-.11c.46,0,3,.74,3.18,2.06a.76.76,0,0,1-.19.63A.82.82,0,0,1,116,20.36Z"/></svg>