<svg id="レイヤー_1" data-name="レイヤー 1" xmlns="http://www.w3.org/2000/svg" viewBox="0 0 270 77.62"><defs><style>.cls-1{fill:#fff;}</style></defs><path class="cls-1" d="M109.35,25c-.22,0-.4.07-.43.29s0,2,0,2.17,0,.35.15.35,1.32-.48,1.43-.48.05,0,.05,0a6.93,6.93,0,0,1-1.1.79.86.86,0,0,0-.53,1c0,.5,0,2.72,0,3.18,0,.24,0,1.59,0,1.71a.81.81,0,0,1-.74.5c-.23,0-.33-.07-.33-.35,0-.77.11-4.12.11-4.79,0-.06,0-.2-.13-.2a7.18,7.18,0,0,0-1.33.82c-.11.22-.13.25-.2.25-.24,0-.86-1.12-.86-1.2s.07-.12.31-.13a6.94,6.94,0,0,0,2.12-.78.51.51,0,0,0,.11-.37c0-.44,0-1.83,0-2.36,0-.16,0-.41-.41-.41h-.91c-.33,0-.36.07-.57.5a4.08,4.08,0,0,1-.7,1.15s0,0,0-.05.33-1.37.37-1.63a13.21,13.21,0,0,0,.25-2.25c0-.05,0-.32,0-.38s0-.15.13-.15,1.13.27,1.13.5a3.66,3.66,0,0,1-.31.59,12,12,0,0,0-.34,1.15c0,.14.1.17.2.17h.78c.27,0,.42-.12.42-.39,0-.54,0-1.5,0-2.09,0-.15-.07-.8-.07-.94s0-.14.12-.14,1.34.27,1.34.53,0,.14-.24.36-.1.19-.13.9c0,.2,0,1.24,0,1.44s0,.31.2.31a.49.49,0,0,0,.39-.22c.32-.47.35-.52.47-.52s1,.71,1,.92-.25.24-.8.24Zm5.59-1.29c-.43,0-.43.25-.43.58,0,1.87,0,1.9.42,1.9h1.25a1.91,1.91,0,0,0,.72-.06c.13-.06.49-.74.64-.74s1.21.8,1.21,1-.09.17-.8.17h-5.49c-.43,0-1,0-1.55,0l-.6.05c-.06,0-.06,0-.16-.12l-.27-.31c-.07-.07-.07-.09-.07-.1s0,0,.06,0l.65,0c.94.05,1.51.06,2,.06h.6c.37,0,.41-.21.41-.49s0-1.56,0-1.71a.36.36,0,0,0-.41-.28c-.46,0-.71,0-1.21,0-.15,0-.77.06-.89.06s-.06,0-.16-.14l-.27-.29c-.06-.06-.07-.09-.07-.11s0,0,.06,0l.59,0c.18,0,1.24.06,1.81.06.3,0,.55,0,.55-.42,0-.25,0-.83,0-1.07s-.07-.6-.07-.66,0-.15.1-.15.94.24,1.18.33c0,0,.16.07.16.14s-.31.36-.34.43a7.09,7.09,0,0,0,0,.95c0,.22,0,.45.43.45h.63a2.2,2.2,0,0,0,.72,0c.12-.06.41-.68.53-.68s1.07.69,1.07.92-.3.2-.79.2Zm1.31,5.5c-.38,0-.42.14-.42,1.1,0,.44,0,2.41,0,2.81,0,1.35-1,1.35-1.2,1.35s-.31-.11-.38-.37-.32-.48-.65-.61-.41-.18-.41-.23.12-.06.16-.06l.94,0c.3,0,.6,0,.6-.67,0-.44-.05-2.67-.05-2.76,0-.32,0-.59-.41-.59h-1.73c-.43,0-1,0-1.55,0l-.6,0c-.06,0-.06,0-.15-.11l-.29-.32a.2.2,0,0,1-.06-.09s0,0,.06,0l.66,0c.94.05,1.5.06,2,.06h1.63c.42,0,.42-.28.42-.46s-.06-1.09-.06-1.27,0-.11.13-.11.94.14,1,.16.26.07.26.21-.23.32-.26.38a1.84,1.84,0,0,0-.06.68c0,.41.27.41.56.41a.54.54,0,0,0,.5-.32c.09-.15.27-.4.4-.4s1.09.69,1.09.9-.29.2-.78.2Zm-4.79,1c.21,0,1.52.34,1.52,1.36,0,.52-.25.81-.58.81s-.28-.09-.53-.9a3.63,3.63,0,0,0-.5-1.08s-.06-.1,0-.14S111.42,30.15,111.46,30.15Z"/><path class="cls-1" d="M127.46,26.51c-1.29,0-1.71,0-1.85,0l-.31,0c-.06,0-.09,0-.14-.09l-.28-.34c-.06-.07-.07-.07-.07-.1s0,0,.06,0l.65.05c.72,0,1.32.06,2,.06h4c.64,0,.79,0,.95-.26.35-.53.38-.59.53-.59s1.27.74,1.27,1-.27.22-.8.22h-2.84c-.42,0-.42.15-.42,1.37s0,1.27.42,1.27h1c.64,0,.77,0,.93-.25.28-.43.31-.49.45-.49s1.06.75,1.06.95-.09.16-.22.17a3.29,3.29,0,0,1-.55,0h-2.64c-.46,0-.46.09-.46,1,0,.5,0,2.17.05,2.24s.17.12.35.14.89.05,1.64.05a19,19,0,0,0,3.94-.45,2.75,2.75,0,0,1,.45-.17s0,0,0,.06-.9.73-1,.9a5.63,5.63,0,0,0-.24.59c-.1.2-.69.21-.9.21-5.91,0-6.62-.84-7.58-2a3.41,3.41,0,0,1-.63-1.06c0-.09-.06-.14-.1-.14s-.09.06-.23.27c-1.37,2.2-2.65,2.52-2.75,2.52s-.09,0-.09-.06l.25-.26a9.56,9.56,0,0,0,2.52-5.19c0-.67,0-.73.15-.73s1.27.34,1.27.55-.3.32-.33.38c-.1.22-.35,1.24-.43,1.45,0,0-.25.75-.25.78,0,.74,1.91,2,2.7,2,.19,0,.19-.2.19-.31,0-.82,0-4.52,0-5.28,0-.36,0-.57-.44-.57Zm-2.21-2.67c-.19,0-.28,0-.37.26-.28.89-.73,1.23-1.09,1.23a.44.44,0,0,1-.49-.41c0-.21.06-.28.43-.67a3.77,3.77,0,0,0,.74-1.31c.06-.18.09-.25.15-.25s.22.23.31.51.14.26.34.26h3.51c.35,0,.39-.21.39-.46s0-.89,0-1.12-.1-.67-.1-.78,0-.08.06-.08l1.5.34a.18.18,0,0,1,.1.15c0,.07-.33.34-.38.43a4.12,4.12,0,0,0-.07.94c0,.53.12.58.45.58h2.9c.39,0,.47,0,.66-.18s.35-.31.52-.31,1.35.75,1.35,1.15-.34.29-.42.29l-.77,0a1.75,1.75,0,0,0-.84.21,2.51,2.51,0,0,1-.43.22s0,0,0-.05.35-.66.35-.81-.09-.1-.3-.1Z"/><path class="cls-1" d="M144.94,24.15c.4,0,.45-.19.45-.46,0-.47,0-1.22-.06-1.68a6.18,6.18,0,0,1-.12-.62.11.11,0,0,1,.13-.12s1.33.21,1.33.46c0,.06-.18.27-.18.32-.07.36,0,4.24-.07,4.86,0,.45-.1,1.75-.1,2.09,0,.09,0,.22.13.22s1.05-.23,1.11-.23.1,0,.1.06-.87.47-1.08.54-.34.19-.54.89a5.59,5.59,0,0,1-3.91,3.88s-.12,0-.12-.08.09-.13.16-.16a7.43,7.43,0,0,0,1.55-1.19,5.51,5.51,0,0,0,1.39-2.6c0-.16-.06-.18-.12-.18s-3.16,1.14-3.19,1.15-.26.31-.34.31c-.28,0-.7-1.3-.7-1.37s.05-.07.53-.07a18,18,0,0,0,3.88-.73,4.68,4.68,0,0,0,.2-1.56c0-.34-.13-.44-.44-.44h-1.06c-.36,0-1.34,0-1.86,0l-.31,0c-.06,0-.09,0-.13-.09l-.3-.34c-.06-.07-.06-.07-.06-.1s0,0,.06,0l.64.05c.42,0,1.19.05,2,.05h1c.34,0,.46-.1.46-.36V25.06c0-.28,0-.53-.46-.53h-1.1c-.36,0-1.34,0-1.86,0l-.31,0c-.06,0-.09,0-.13-.09l-.28-.34c0-.05-.08-.08-.08-.11s0,0,.06,0l.65,0c.43,0,1.2.06,2,.06Zm4.9,3.29c-.29,0-.46.12-.46.41s0,1.82,0,1.92c.08.26.28.26.45.26h1.65a2.1,2.1,0,0,0,.72-.06c.13,0,.61-.7.77-.7s1.1.76,1.1,1-.31.19-.78.19h-3.46c-.43,0-.46.17-.46.63s0,2.18,0,2.6c0,.23,0,.74-.76.74-.42,0-.43-.33-.43-.55s0-1.2,0-1.42c.05-2.16.11-5.69.11-7.83,0-1.08,0-1.81-.05-2.51,0-.08-.09-.53-.09-.63s0-.18.15-.18a8.57,8.57,0,0,1,1.14.25c.11.05.23.11.23.24s-.25.31-.28.38-.1.25-.1,1.52c0,.22,0,.49.46.49h1.43a2,2,0,0,0,.72-.06c.13-.06.6-.71.78-.71a2.73,2.73,0,0,1,1.11,1c0,.19-.33.19-.8.19h-3.23c-.16,0-.44,0-.47.34s0,1.18,0,1.48c0,.51,0,.7.43.7h.83a2.43,2.43,0,0,0,.72-.05c.13-.06.61-.71.78-.71s1.11.76,1.11,1-.33.19-.8.19Z"/><path class="cls-1" d="M165.74,24.41c.65,0,.76,0,1.4-1.15a10.62,10.62,0,0,0,.89-1.94c0-.25,0-.28.1-.28s1.39.82,1.39,1.06-.12.16-.47.23-.39.08-1.29,1a4.65,4.65,0,0,0-.79.93c0,.16.13.16.37.16h2a1.79,1.79,0,0,0,.63,0c.08,0,.31-.32.39-.32s1.4.9,1.4,1.35c0,.24-.18.34-.39.34l-.45,0c-.22,0-.48.09-1,.53-.25.23-.3.28-.39.28s-.07-.08-.07-.1.4-1.16.4-1.38-.09-.22-.55-.22h-8.66c-.53,0-.6,0-.67.4-.2,1-.64,1.46-1,1.46a.54.54,0,0,1-.56-.59c0-.22.06-.29.51-1.06a3.25,3.25,0,0,0,.45-1.36c0-.12,0-.17.07-.17s.37.63.44.73.15.19.7.19Zm-2.83,6c.33,0,.55,0,.72-.34A3.32,3.32,0,0,0,163.9,29c0-.26-.12-.26-.49-.26h-.88c-.31,0-.33,0-.43.32s-.56.31-.65.31-.43-.07-.47-.32,0-.95,0-1.13,0-1.16,0-1.56c0-.06-.05-.4-.05-.47s0-.16.11-.16a7.63,7.63,0,0,1,.87.41,1.3,1.3,0,0,0,.53.06H167c.62,0,.68,0,.8-.1s.44-.55.57-.55a1.8,1.8,0,0,1,.84,1c0,.12-.05.17-.25.27s-.17.18-.17.84a6.55,6.55,0,0,1-.08,1.15.76.76,0,0,1-.69.43c-.22,0-.27-.09-.34-.3s-.19-.17-.35-.17h-1.66a.64.64,0,0,0-.61.25,5.56,5.56,0,0,0-1,1.29c0,.17.19.17.39.17h3.69a2.5,2.5,0,0,0,.71-.05c.09,0,.41-.43.52-.43s.9.49.9.77,0,.16-.24.34a.76.76,0,0,0-.09.38c0,.24.06,1.42.06,1.69s0,.54-.22.75a1.05,1.05,0,0,1-.68.32c-.29,0-.31-.17-.34-.47s-.22-.19-.37-.19h-6.93c-.26,0-.31.1-.37.31a.73.73,0,0,1-.75.52c-.44,0-.44-.34-.44-.48S160,32,160,31.63c0-.21,0-1.24,0-1.48,0-.07,0-.2.13-.2a5.13,5.13,0,0,1,1,.36,1.22,1.22,0,0,0,.68.14Zm-2.73-9c1.57,0,2.66,1,2.66,1.67a.67.67,0,0,1-.64.68c-.34,0-.48-.31-.6-.58a3.52,3.52,0,0,0-1.27-1.43c-.31-.19-.34-.2-.31-.28S160.12,21.49,160.18,21.49Zm1.42,9.36c-.19,0-.31,0-.41.14a14.37,14.37,0,0,0-.06,1.68c0,.26,0,.49.42.49h6.91c.4,0,.44-.19.44-.43s0-1.59,0-1.68-.31-.2-.41-.2Zm1-4.27c-.19,0-.47,0-.47.43,0,1.33,0,1.33.44,1.33h4.79c.44,0,.44-.12.44-.92s0-.84-.47-.84ZM165.94,23c0,.37-.21.6-.51.6s-.57-.42-.66-.68a4.44,4.44,0,0,0-.9-1.51,1.79,1.79,0,0,1-.22-.31c0-.06.09-.06.12-.06C164.25,21,165.94,21.79,165.94,23Z"/><path class="cls-1" d="M178.86,25.48c-.33,0-1.34,0-1.86,0l-.31,0c-.06,0-.07,0-.13-.1l-.28-.34c-.06-.06-.08-.08-.08-.09s0,0,.06,0,.78.07.93.07c1.08,0,1.11,0,1.95,0,.46,0,.46-.12.46-.9a13.12,13.12,0,0,0,0-1.46c-.1-.18-.19-.19-.38-.19s-1.65.07-2,.07-.29,0-.29-.07,0-.08.35-.14a14.55,14.55,0,0,0,3.64-1c.53-.24.59-.27.71-.27s1.39.58,1.39.8-.06.15-.9.24c-1.57.16-1.57.19-1.57.73,0,.2,0,1.86,0,1.92a.39.39,0,0,0,.42.24h.26c.34,0,.43,0,.61-.24.41-.5.45-.54.59-.54a4.2,4.2,0,0,1,1.28,1c0,.21-.29.21-.78.21h-2c-.43,0-.45.06-.45,1.12,0,.43.14.45.26.48.62.12,2.17.51,2.17,1.63,0,.53-.33.72-.5.72s-.34-.1-.71-1a1.91,1.91,0,0,0-1.12-1.13c-.12,0-.12.1-.12.22,0,.57,0,4.73.09,5.29,0,.28,0,.8,0,.86,0,.56-.68.74-.85.74s-.31-.21-.31-.43c0-.73.09-3.9.09-4.55,0-.14,0-.73,0-.87s0-.25-.18-.25-.08,0-.26.22a15.51,15.51,0,0,1-2.82,2.66c-.12.09-.18.13-.23.13a.07.07,0,0,1-.08-.07s.93-1.09,1.06-1.27a18.25,18.25,0,0,0,2.56-4.28.18.18,0,0,0-.2-.2Zm6.67,1c0,2.58,0,2.88,0,3.53,0,.1,0,.56,0,.65,0,.41-.22.72-.81.72-.37,0-.37-.18-.37-.28s0-.35,0-.41c0-.47.07-2.16.07-4.19,0-.67,0-2.44-.12-3.42a2.2,2.2,0,0,1,0-.31c0-.08,0-.14.12-.14s1.54.27,1.54.53a.25.25,0,0,1-.08.17c-.29.26-.34.32-.38.53S185.53,25.17,185.53,26.52Zm2.89.31c0,.89.08,4.75.08,5.53,0,1.07-.07,1.36-.32,1.54a2.32,2.32,0,0,1-1,.49c-.21,0-.24-.09-.31-.33-.18-.55-1.11-.87-1.27-.91s-.13-.06-.13-.12.09-.06.1-.06c.19,0,1,.13,1.14.13.72,0,.72-.13.72-1.27,0-1.37,0-8.54-.08-9.57,0-.16-.13-1-.13-1s.09-.13.16-.13l1.35.23c.08,0,.22.07.22.22s-.08.18-.24.3a.69.69,0,0,0-.22.44C188.43,22.57,188.42,26.07,188.42,26.83Z"/><path class="cls-1" d="M194.14,24.61c.46,0,1.8.48,1.8,1.35a.55.55,0,0,1-.49.58c-.14,0-.28-.11-.42-.4a4.4,4.4,0,0,0-1.13-1.45A.35.35,0,0,1,194.14,24.61Zm.06,5.88a.91.91,0,0,0,.91-.57,23.07,23.07,0,0,0,1.77-4.59c0-.09.15-.41.21-.41a.14.14,0,0,1,.1.14c0,.05-.19,1.17-.22,1.27-.13.65-.93,3.51-.93,4.1a8.85,8.85,0,0,0,.49,2.32,4.84,4.84,0,0,1,.13.75.63.63,0,0,1-.6.69c-.74,0-.75-.88-.75-1.26,0-1.41-.21-1.8-.9-2.14-.08-.05-.48-.12-.48-.2S194.11,30.49,194.2,30.49Zm1.34-9.22c.19,0,2,.4,2,1.43a.56.56,0,0,1-.53.59c-.13,0-.28,0-.49-.38a7.28,7.28,0,0,0-1-1.4s-.06-.08-.06-.1A.12.12,0,0,1,195.54,21.27Zm6,7.41c.44,0,.44-.27.44-.45s0-2,0-2.08-.15-.29-.43-.29h-1c-1.3,0-1.73,0-1.88,0l-.31,0s-.07,0-.13-.08l-.28-.34c-.06-.08-.06-.08-.06-.11s0,0,0,0l.64.05c.73,0,1.33.06,2,.06h.91c.18,0,.47,0,.47-.4V23.43c0-.2-.07-.42-.37-.42s-1.1.14-1.29.15a14.06,14.06,0,0,1-1.47.07c-.2,0-.36-.05-.36-.1s.59-.16.7-.19a17.56,17.56,0,0,0,4.64-1.39c.11-.06.67-.44.7-.44S206,22,206,22.2s-.13.16-.39.16-1.7.26-2.17.34c-.28.05-.44.12-.44.46s0,2,.05,2.14a.4.4,0,0,0,.37.18h1.17c.68,0,.75,0,.94-.25.37-.49.42-.55.55-.55a4.2,4.2,0,0,1,1.15,1c0,.21-.3.21-.78.21h-3c-.23,0-.45,0-.45.44,0,.22,0,2,0,2.1,0,.23.27.28.44.28h.92c.19,0,.28,0,.53-.27s.31-.32.38-.32,1.11.82,1.11,1-.05.12-.25.32a.72.72,0,0,0-.19.56c0,.54.07,3.34.07,3.37a.74.74,0,0,1-.81.79c-.37,0-.41-.17-.47-.48,0-.12-.09-.27-.4-.27h-3.78c-.38,0-.4,0-.5.41s-.44.46-.74.46-.44,0-.44-.32c0-.08,0-.87,0-1,0-.58.09-2.81.09-3.22,0-.24,0-.72,0-1,0-.07,0-.28,0-.34s0-.15.07-.15.14,0,.65.28a1.48,1.48,0,0,0,.84.17ZM204.33,33c.25,0,.45-.08.45-.41,0-.49,0-2.63,0-3.07,0-.19,0-.47-.44-.47h-3.88c-.25,0-.44.09-.44.41v3.06c0,.25,0,.48.44.48Z"/><path class="cls-1" d="M216.21,24.58c-.42,0-.42.28-.42.62,0,.75,0,.87.46.87h1a.62.62,0,0,0,.47-.15c.12-.12.22-.22.37-.22s1,.48,1,.68-.26.35-.31.41-.08.32-.08.78,0,1.76,0,2c0,.54-.67.6-.73.6s-.21,0-.27-.34c0-.12-.16-.12-.23-.12h-1.26c-.46,0-.46.27-.46.56,0,.76,0,.89.48.89h.4c.57,0,.63,0,.88-.25s.35-.37.47-.37c.36,0,1,.75,1,.83s-.08.19-.79.19h-1.88c-.34,0-.52,0-.52.48s0,.64.19.64,2.46-.4,2.66-.4c0,0,.11,0,.11.09s-.57.26-.76.32c-1.51.48-2.75.76-4.6,1.2a4.16,4.16,0,0,0-.92.29c-.06,0-.26.24-.32.24s-.68-1.18-.68-1.18.07-.07.12-.07A19.42,19.42,0,0,0,214.2,33c.06,0,.61-.08.62-.1s.1-.15.1-.26,0-.65,0-.73c0-.26-.25-.26-.61-.26-1.28,0-1.82,0-1.91,0l-.31,0c-.05,0-.08,0-.14-.09l-.29-.34c-.06-.07-.06-.07-.06-.1s0,0,.06,0l.62,0c.63,0,1.56.05,2.18.05s.49-.12.49-.92c0-.26,0-.53-.43-.53h-1c-.25,0-.28,0-.29.25a.54.54,0,0,1-.56.45c-.43,0-.43-.3-.43-.45,0-1.06,0-2.77,0-3.18,0-.16-.09-.87-.09-1a.11.11,0,0,1,.13-.12A5.13,5.13,0,0,1,213,26a1.29,1.29,0,0,0,.63.12h.92c.44,0,.44-.2.44-.73s0-.76-.44-.76H214c-1.2,0-1.68,0-1.72,0l-.31,0c-.06,0-.09,0-.13-.09l-.28-.34c-.06-.07-.08-.07-.08-.1s0,0,.06,0l.65,0c.13,0,1.18.06,1.87.06h.39c.45,0,.45-.22.45-.6,0-.89,0-1-.17-1l-.43.06c-.37,0-1.43.13-1.76.13-.11,0-.19,0-.19-.07s.06-.08.4-.16a15,15,0,0,0,4-1.38c.25-.14.28-.16.34-.16a3.67,3.67,0,0,1,1.13.87c0,.08,0,.08-.32.13l-1.86.36c-.24,0-.25.15-.25.35a7.7,7.7,0,0,0,0,1.32c0,.11.19.14.31.14.82,0,.91,0,1.12-.25s.4-.48.59-.48a2.71,2.71,0,0,1,1.08.94c0,.18-.09.18-.8.18Zm-1.73,3.15c.46,0,.46-.2.46-.69,0-.34,0-.59-.46-.59h-.9c-.45,0-.45.22-.45.71s0,.57.45.57Zm0,1.64c.46,0,.46-.19.46-.63s0-.61-.46-.61h-.88c-.44,0-.46.21-.46.53,0,.56,0,.71.47.71Zm1.76-2.92c-.45,0-.45.24-.45.66s0,.62.45.62h1.09c.46,0,.46-.22.46-.65s0-.63-.46-.63Zm0,1.68c-.45,0-.45.22-.45.61s0,.63.45.63h1.07c.46,0,.46-.24.46-.6s0-.64-.46-.64Zm5.69-3.63c-.41,0-.43.18-.44.74-.13,4.93-.61,6.53-2.33,8.17a5,5,0,0,1-1.57,1.09c-.05,0-.08,0-.08-.06s.34-.33.39-.39c2-2,2.64-3.66,2.64-9.21,0-.22,0-.32-.28-.32l-.78.06c-.06,0-.09,0-.13-.09l-.28-.34c-.06-.06-.06-.08-.06-.1s0,0,0,0c.2,0,1.07.07,1.24.07s.25-.06.25-.25c0-.93-.06-1.55-.08-1.92,0-.12-.12-.62-.12-.74s0-.2.12-.2,1.44.25,1.44.43-.23.23-.26.28a8.12,8.12,0,0,0-.12,1.75c0,.62,0,.68.41.68h.49a.61.61,0,0,0,.51-.19c.3-.33.34-.37.43-.37s1.12.6,1.12.84,0,.15-.29.37a.54.54,0,0,0-.21.51c0,4.53,0,6.7-.31,7.79-.37,1.32-1.3,1.36-1.47,1.36s-.28-.09-.43-.5-.41-.53-.87-.75-.37-.17-.37-.25.06-.06.09-.06,1.33.25,1.58.25c.57,0,.7-1.12.78-1.86s.07-4.81.07-6c0-.64,0-.81-.44-.81Z"/><path class="cls-1" d="M229.13,25c1,0,2.07.65,2.07,1.46a.65.65,0,0,1-.58.68c-.21,0-.31-.18-.52-.61a3.83,3.83,0,0,0-1-1.25l-.25-.21C228.91,25,229.06,25,229.13,25Zm.9,5.71c.52-.27,1.25-1.89,2.46-4.59.14-.31.39-.78.52-1.09s.1-.25.19-.25a.08.08,0,0,1,.09.09c0,.13-1.43,4-1.61,4.48a3.72,3.72,0,0,0-.47,1.67,4.48,4.48,0,0,0,.46,1.93,1.76,1.76,0,0,1,.13.58.72.72,0,0,1-.65.7c-.53,0-.71-.53-.71-1a2.47,2.47,0,0,0-.54-2c-.06-.06-.45-.26-.45-.34S230,30.71,230,30.67Zm.1-9c0-.06.08-.06.12-.06a5.53,5.53,0,0,1,1.2.24,1.39,1.39,0,0,1,1,1.19c0,.33-.16.67-.49.67s-.32-.14-.53-.51a5,5,0,0,0-1.22-1.47S230.13,21.69,230.13,21.67Zm5.2,6.56c-.34,0-1.36,0-1.88.05l-.31,0s-.07,0-.13-.09l-.28-.34c-.06-.07-.06-.07-.06-.1s0,0,0,0l.67,0c.66,0,1.33.06,2,.06h1.09c.25,0,.41,0,.46-.31s0-2,0-2.34-.08-.45-.42-.45h-.41c-.34,0-1.34,0-1.86.05l-.32,0c-.05,0-.08,0-.12-.09l-.29-.34c-.06-.07-.06-.07-.06-.1s0,0,0,0l.66,0c.67,0,1.33.06,2,.06h.33c.13,0,.43,0,.43-.43s0-1.37,0-1.86c0-.11-.1-.69-.1-.72s0-.1.07-.1,1.46.23,1.46.47c0,.07-.26.34-.28.41a1.2,1.2,0,0,0-.06.49c0,.22,0,1.33,0,1.33,0,.41.31.41.46.41h.82c.62,0,.7,0,.83-.12s.44-.63.56-.63a3.86,3.86,0,0,1,1.15.93c0,.2-.29.2-.8.2h-2.56c-.16,0-.47,0-.47.4s0,2.33,0,2.42c.06.25.24.28.47.28h1.39c.62,0,.69,0,.81-.12s.49-.65.62-.65,1.12.77,1.12,1-.29.2-.8.2h-4.17s-.07,0-.07.05.56.63.56.78-.11.15-.4.21-.19.1-.56.69A19.56,19.56,0,0,1,235.4,32c-.21.25-.22.26-.22.3a.09.09,0,0,0,.09.08c.39,0,4-.21,4.66-.24.37,0,.5-.06.5-.23s-.81-2-.84-2.14v0c.27,0,2.51,2,2.51,3.57a.76.76,0,0,1-.72.85c-.31,0-.34-.13-.59-1.25-.09-.37-.16-.61-.47-.61-.15,0-2,.4-2.38.46-.59.11-3.17.46-3.69.59a4.28,4.28,0,0,0-.73.28,1.93,1.93,0,0,1-.34.19c-.22,0-.64-1.49-.64-1.54s0-.05.06-.05.61.09.71.1a7,7,0,0,0,1,.06c.36,0,.43-.13,1-1.27a16.31,16.31,0,0,0,1.21-2.66c0-.26-.27-.26-.44-.26Z"/><path class="cls-1" d="M253.82,22.54A16.11,16.11,0,0,0,256,29.3c.25.4,1.92,3.09,4.19,3.68.05,0,.15.05.15.11s-.05.07-.52.17a2.92,2.92,0,0,0-1,.45c-.28.2-.32.25-.36.25A9.51,9.51,0,0,1,255,29.67,16,16,0,0,1,253.62,24c0-.17,0-.18-.08-.18s-.09.06-.14.59a17.12,17.12,0,0,1-1.89,6.31,8.14,8.14,0,0,1-4.29,3.51c-.05,0-.09,0-.09-.07s.07-.1.19-.18a10.79,10.79,0,0,0,3.49-3.79,18.47,18.47,0,0,0,1.69-7.58,4,4,0,0,0-.06-.9,1.5,1.5,0,0,1-.06-.29.12.12,0,0,1,.12-.12c.08,0,.72.2.85.23.71.2,1,.28,1,.55s-.11.21-.25.24a.33.33,0,0,0-.23.08A.3.3,0,0,0,253.82,22.54Z"/><path class="cls-1" d="M109.73,71.09c-1,0-1-.53-1-.85s.13-1.83.17-2.12V64.74a43.41,43.41,0,0,0-.2-5.19,5,5,0,0,1-.16-.73c0-.09.12-.11.18-.11a7.83,7.83,0,0,1,1.53.66l.14.07a7.8,7.8,0,0,0,2.77.46H123c1.22,0,1.39-.13,1.72-.4.87-.67,1.1-.73,1.14-.73a6.06,6.06,0,0,1,2.17,1.82c0,.15,0,.16-.68.74a9.24,9.24,0,0,0-.19,2.55c0,.66.08,1.67.13,2.65.07,1.33.13,2.59.13,2.9,0,1.27-1.45,1.31-1.46,1.31-.33,0-1.11-.09-1.11-.92,0-.44,0-1.11-1-1.11H112.52c-.31,0-1.14,0-1.14.92C111.38,70.17,111.38,71.09,109.73,71.09Zm2.47-10.52c-1.07,0-1.07.18-1.07,3.11,0,2.42,0,3.7.07,3.8a.89.89,0,0,0,1,.56h11.77c1,0,1-.18,1-3.14,0-1.35,0-3.64-.07-3.79a.92.92,0,0,0-1-.54Zm-5.14-4.66c-.09,0-.13,0-.23-.16l-.61-.74-.11-.13,0,0h0l.74,0,.67.05c1.46.09,2.78.13,4.41.13H116c.34,0,1,0,1-1V50.24c0-.68-.32-1-1-1h-6.69c-2.56,0-3.62.06-4.06.1h0l-.34,0-.33,0c-.07,0-.09,0-.17-.11l-.06-.06-.61-.74c-.11-.14-.11-.14-.11-.17l.76.07.67,0,.57,0c1.35.05,2.51.1,3.84.1h6.46c.35,0,1.08,0,1.08-.95a34,34,0,0,0-.23-3.75c0-.09-.1-.36-.18-.64a4.42,4.42,0,0,1-.17-.56c0-.11.2-.11.21-.11s2.78.48,3,.54c.43.08.81.18.81.53,0,.13-.33.5-.57.76a2.27,2.27,0,0,0-.49.64c-.07.21-.13,2.27-.13,2.59,0,.95.76.95,1.08.95h6c1.46,0,1.65,0,2.13-.58l.1-.12c.8-1,.89-1,1.12-1a11.26,11.26,0,0,1,2.94,2c0,.35-.54.36-1.65.36H120.31c-.33,0-1.08,0-1.08,1,0,.32,0,1.19,0,2s0,1.59,0,1.86c0,1,.72,1,1.07,1h5a3.37,3.37,0,0,0,1-.07c.22-.07.52-.44,1-1a4.21,4.21,0,0,1,.61-.68c.27,0,2.71,1.63,2.71,2.07,0,.24-.31.34-1.05.34H111.79c-2.56,0-3.63,0-4.06.1h0l-.33,0Z"/><path class="cls-1" d="M136.58,69.32c-.06,0-.11,0-.23-.17l-.61-.73c-.11-.14-.11-.14-.11-.18l.76.07.67,0c1.47.09,2.8.13,4.44.13h6.59c.26,0,.86,0,1-.51.07-.25.13-3.25.13-3.59,0-1.36,0-1.92-1-1.92h-3.18c-2.15,0-3.21,0-3.72.06H141c-.15,0-.59.09-.68.09s-.12-.05-.21-.17l-.66-.76-.06-.08s0-.06,0-.07h0c.29,0,1.2.09,1.43.12,1.66.07,3,.09,4.42.09h3a.84.84,0,0,0,.91-.49,28.86,28.86,0,0,0,.14-4.22c0-.82-.73-.82-1.08-.82h-4.31c-.34,0-.8.05-.95.44-.21.69-.39,1.23-1.21,1.23s-1.07-.43-1.07-1.39c0-.5,0-1.87.08-3.19s.08-2.5.08-2.92a61.1,61.1,0,0,0-.2-6.29,3.67,3.67,0,0,0-.16-.52,4.54,4.54,0,0,1-.19-.62.07.07,0,0,1,.08-.08,11,11,0,0,1,1.68.83l.18.09a4.18,4.18,0,0,0,2.55.59h11.8a1.88,1.88,0,0,0,1.27-.28,2.37,2.37,0,0,0,.28-.28,3.11,3.11,0,0,1,.57-.53c.24.07,2.27,1.55,2.27,1.91,0,.19-.19.4-.64.67s-.42.44-.42,1.68c0,.67,0,2.52.06,4.31s.07,3.37.07,3.95a1.73,1.73,0,0,1-1.69,2c-.56,0-.6-.27-.66-.81-.07-.74-.69-.74-1-.74h-4.22c-1.07,0-1.07.06-1.07,2.82,0,2,0,2.22.24,2.47a1.26,1.26,0,0,0,.9.24h4.4c1.37,0,1.55,0,1.83-.24.09-.09.26-.32.46-.58s.75-1,.9-1a8.58,8.58,0,0,1,2.46,2.17c0,.36-.53.37-1.63.37h-8.42c-1.14,0-1.14.57-1.14,1.69,0,3.44,0,3.8.31,4.08a1.07,1.07,0,0,0,.8.25h7c1.2,0,1.44-.06,1.7-.28a5.55,5.55,0,0,0,.52-.62c.28-.36.74-1,.9-1a7.23,7.23,0,0,1,2.53,2.17c0,.35-.54.37-1.66.37H141.34a33.61,33.61,0,0,0-4.1.1h0l-.32,0ZM152.5,50.8c-1.11,0-1.11.54-1.11,2.14,0,2.29,0,2.59,1.11,2.59h4.18c1.11,0,1.11-.34,1.11-3,0-1.17,0-1.75-1.08-1.75Zm-8.59,0c-1,0-1,.37-1,1.75,0,2.27,0,2.51.22,2.73a1,1,0,0,0,.83.25h4.31c1,0,1-.37,1-1.72,0-2.31,0-2.55-.21-2.76a1,1,0,0,0-.83-.25Zm8.65-5.73c-1.11,0-1.11.45-1.11,2.92,0,1.7,0,2.1,1.11,2.1h4.18c1.11,0,1.11-.33,1.11-2.88,0-1.68,0-2.14-1.11-2.14Zm-8.65,0c-1,0-1,.37-1,2.3,0,2.41,0,2.72,1,2.72h4.28c1,0,1-.26,1-2.27,0-2.38,0-2.75-1-2.75Z"/><path class="cls-1" d="M174,71.09c-1,0-1-.53-1-.85s.13-1.83.16-2.12V64.74a43.41,43.41,0,0,0-.2-5.19c-.14-.59-.16-.71-.16-.73s.12-.11.18-.11a8.15,8.15,0,0,1,1.54.66l.13.07a7.8,7.8,0,0,0,2.77.46h9.9c1.22,0,1.39-.13,1.73-.4.87-.67,1.09-.73,1.13-.73a6.06,6.06,0,0,1,2.17,1.82c0,.15,0,.16-.67.74a8.87,8.87,0,0,0-.19,2.55c0,.66.07,1.67.12,2.65.07,1.33.13,2.59.13,2.9,0,1.27-1.44,1.31-1.46,1.31-.33,0-1.11-.09-1.11-.92,0-.44,0-1.11-1-1.11H176.84c-.32,0-1.14,0-1.14.92C175.7,70.17,175.7,71.09,174,71.09Zm2.48-10.52c-1.08,0-1.08.18-1.08,3.11,0,2.42,0,3.7.07,3.8a.9.9,0,0,0,1,.56h11.77c1.05,0,1.05-.18,1.05-3.14,0-1.35,0-3.64-.07-3.79a.91.91,0,0,0-1-.54Zm-5.15-4.66c-.08,0-.13,0-.22-.16l-.62-.74-.1-.13,0,0h0l.75,0,.66.05c1.47.09,2.79.13,4.41.13h4.08c.35,0,1,0,1-1V50.24c0-.68-.32-1-1-1h-6.69c-2.56,0-3.62.06-4.06.1h0l-.34,0-.33,0c-.07,0-.09,0-.17-.11l-.06-.06-.61-.74c-.11-.14-.11-.14-.11-.17l.77.07.66,0,.58,0c1.34.05,2.5.1,3.83.1h6.46c.35,0,1.08,0,1.08-.95a34,34,0,0,0-.23-3.75,5.46,5.46,0,0,0-.18-.64c-.07-.23-.16-.51-.17-.56s.2-.11.21-.11,2.78.48,3,.54c.42.08.8.18.8.53,0,.13-.33.5-.57.76a2.49,2.49,0,0,0-.49.64c-.06.21-.13,2.27-.13,2.59,0,.95.76.95,1.08.95h6c1.46,0,1.64,0,2.12-.58l.1-.12c.81-1,.89-1,1.12-1a11.26,11.26,0,0,1,2.94,2c0,.35-.53.36-1.65.36H184.62c-.32,0-1.08,0-1.08,1,0,.32,0,1.19,0,2s0,1.59,0,1.86c0,1,.73,1,1.07,1h5a3.32,3.32,0,0,0,1-.07c.22-.07.52-.44,1-1a4.21,4.21,0,0,1,.61-.68c.27,0,2.71,1.63,2.71,2.07,0,.24-.3.34-1.05.34H176.1c-2.56,0-3.62,0-4.06.1h0l-.34,0Z"/><path class="cls-1" d="M200.89,69.32c-.06,0-.11,0-.23-.17l-.61-.73c-.11-.14-.11-.14-.11-.18l.77.07.66,0c1.47.09,2.8.13,4.44.13h6.59c.26,0,.86,0,1-.51.08-.25.14-3.25.14-3.59,0-1.36,0-1.92-1-1.92h-3.18c-2.15,0-3.21,0-3.71.06h-.34a6.75,6.75,0,0,1-.68.09c-.08,0-.12-.05-.21-.17l-.66-.76-.05-.08s-.06-.06-.06-.07h0c.3,0,1.2.09,1.43.12,1.66.07,3,.09,4.42.09h3a.83.83,0,0,0,.91-.49,28.86,28.86,0,0,0,.14-4.22c0-.82-.73-.82-1.08-.82h-4.31c-.34,0-.8.05-.94.44-.22.69-.39,1.23-1.21,1.23S205,57.47,205,56.51c0-.5,0-1.87.08-3.19s.08-2.5.08-2.92c0-1.46,0-5.32-.19-6.29,0-.09-.09-.29-.17-.52a4.54,4.54,0,0,1-.19-.62.07.07,0,0,1,.08-.08,11.39,11.39,0,0,1,1.69.83l.17.09a4.18,4.18,0,0,0,2.55.59h11.8a1.88,1.88,0,0,0,1.27-.28,2.37,2.37,0,0,0,.28-.28,2.81,2.81,0,0,1,.58-.53c.23.07,2.26,1.55,2.26,1.91,0,.19-.19.4-.64.67s-.42.44-.42,1.68c0,.67,0,2.52.07,4.31s.06,3.37.06,3.95a1.73,1.73,0,0,1-1.69,2c-.56,0-.59-.27-.66-.81-.07-.74-.68-.74-1-.74h-4.21c-1.08,0-1.08.06-1.08,2.82,0,2,0,2.22.25,2.47a1.24,1.24,0,0,0,.89.24h4.41c1.36,0,1.54,0,1.82-.24a5,5,0,0,0,.46-.58c.27-.35.75-1,.9-1a8.58,8.58,0,0,1,2.46,2.17c0,.36-.53.37-1.62.37h-8.43c-1.14,0-1.14.57-1.14,1.69,0,3.44,0,3.8.31,4.08a1.07,1.07,0,0,0,.8.25h7c1.2,0,1.43-.06,1.69-.28a5.55,5.55,0,0,0,.52-.62c.28-.36.74-1,.91-1a7.28,7.28,0,0,1,2.52,2.17c0,.35-.54.37-1.66.37H205.65a33.61,33.61,0,0,0-4.1.1h0l-.32,0ZM216.81,50.8c-1.11,0-1.11.54-1.11,2.14,0,2.29,0,2.59,1.11,2.59H221c1.11,0,1.11-.34,1.11-3,0-1.17,0-1.75-1.08-1.75Zm-8.59,0c-1,0-1,.37-1,1.75,0,2.27,0,2.51.21,2.73a1,1,0,0,0,.83.25h4.31c1.05,0,1.05-.37,1.05-1.72,0-2.31,0-2.55-.22-2.76a1,1,0,0,0-.83-.25Zm8.65-5.73c-1.11,0-1.11.45-1.11,2.92,0,1.7,0,2.1,1.11,2.1h4.18c1.11,0,1.11-.33,1.11-2.88,0-1.68,0-2.14-1.11-2.14Zm-8.65,0c-1,0-1,.37-1,2.3,0,2.41,0,2.72,1,2.72h4.28c1,0,1-.26,1-2.27,0-2.38,0-2.75-1-2.75Z"/><path class="cls-1" d="M234.69,71.44c-.73,0-.79-.69-.79-1.39s0-3.19.06-5.61.07-5.13.07-6.07c0-1.51,0-9.88-.1-11.67l0-.63c-.07-1-.18-2.69-.18-3.13,0-.25,0-.28.17-.28s.34.07,1.54.7a3,3,0,0,0,1.81.46h18.58a1.17,1.17,0,0,0,1.09-.48c.78-.84.85-.87,1.07-.87.44,0,2.33,1.65,2.33,2.17,0,.16,0,.18-.5.55l-.11.09c-.3.22-.32,1.79-.32,1.8s.19,16.76.22,17.69c0,.35,0,1.6.06,2.68,0,.82,0,1.54,0,1.69,0,.67,0,2.24-1.79,2.24-.81,0-.85-.44-.91-1.17,0-.57-.43-.57-1-.57H237.29c-.84,0-.88,0-1,.81S235.12,71.44,234.69,71.44Zm2.67-26.94c-1.09,0-1.15.53-1.15,1.39,0,.7,0,2.61,0,4.45s0,3.4,0,4c0,1.08,0,4,.08,6.92s.08,5.36.08,6.26,0,1.44,1.14,1.44H256c1.15,0,1.15-.29,1.15-2.56,0-.91,0-3.43.06-5.86s.06-4.53.06-5.3,0-2.53,0-4.33,0-3.39,0-4a7.69,7.69,0,0,0-.07-2,1,1,0,0,0-1-.47Zm1.47,20.83c-.07,0-.12,0-.2-.17L238,64.4l-.15-.16h0c.29,0,1.25.1,1.43.13.55,0,2.47.1,4.26.1h1c.2,0,.79,0,1-.47.12-.26.14-5.26.14-5.31,0-1.92-.08-2.23-1.14-2.23-1.65,0-3,0-3.93.09h0l-.34,0-.33,0c-.06,0-.11,0-.23-.17l-.61-.73c-.11-.14-.11-.14-.11-.18l.76.07.67,0c.48,0,2.64.12,4.28.12,1,0,1-.46,1-2.71,0-.59,0-3.5-.41-3.86a1,1,0,0,0-.73-.24h-.81c-1.29,0-3,0-3.89.09h0l-.38,0-.28,0c-.09,0-.13,0-.23-.16l-.65-.75a.48.48,0,0,0-.08-.12s0,0,0,0l.7,0,.72,0h.12c.76,0,2.54.12,4.12.12h6.24c.53,0,.95,0,1.29-.59l.11-.16c.54-.87.6-.95.79-.95s2.62,1.74,2.62,2.1-.08.28-1.62.28H249c-1,0-1.14.26-1.14,3.16s0,3.34.4,3.52c.24.13.34.13,1.13.13s1-.06,1.24-.24l.3-.29c.28-.29.88-.88,1-.88a5.9,5.9,0,0,1,2.37,1.85c0,.2-.37.24-1.4.24h-4c-1.08,0-1.08.39-1.08,2,0,.63.06,5,.16,5.42s.77.55,1.11.55h.8c1.08,0,1.79,0,2.13-.59.64-1,.69-1.09.9-1.09a8.77,8.77,0,0,1,2.62,2.08c0,.29-.06.3-1.63.3H243.59c-.73,0-3,0-4.09.07A5.13,5.13,0,0,1,238.83,65.33Zm14.64-3.21c-.54,0-.63-.14-1.56-1.48l-.18-.26a8.62,8.62,0,0,0-1.43-1.66l-.08-.07c-.25-.22-.47-.42-.47-.5s.2-.15.37-.15c.64,0,4.21,1,4.42,2.86a1.07,1.07,0,0,1-.27.87A1.12,1.12,0,0,1,253.47,62.12Z"/><path class="cls-1" d="M71.34,49.79a33.17,33.17,0,0,1-7.29-2.92,31.2,31.2,0,0,1-2.81-1.77A30,30,0,0,1,57,41.5a31.59,31.59,0,0,1-3.53-4.31A32.44,32.44,0,0,1,48.92,27a30.54,30.54,0,0,1-.76-4,32.65,32.65,0,0,1-.77,4,32.89,32.89,0,0,1-4.55,10.17,32.3,32.3,0,0,1-3.52,4.3,30.48,30.48,0,0,1-4.25,3.61A32.35,32.35,0,0,1,25,49.79a33.32,33.32,0,0,1-11.25,1.08,30.79,30.79,0,0,0,11.48-.11A30,30,0,0,0,36,46.36a28.34,28.34,0,0,0,4.57-3.68,29.71,29.71,0,0,0,3.79-4.5,32.85,32.85,0,0,0,3.85-7.56A32.72,32.72,0,0,0,52,38.19a29.54,29.54,0,0,0,3.79,4.49,26.9,26.9,0,0,0,4.57,3.68,28.39,28.39,0,0,0,5.17,2.73l1.36.52c.46.17.93.3,1.39.45s.93.27,1.41.38.93.25,1.41.32a30.63,30.63,0,0,0,11.49.11c-.42,0-1,.07-1.71.08A33.42,33.42,0,0,1,71.34,49.79Z"/><path class="cls-1" d="M74.46,67.91c-.47-.1-1.36-.31-2.46-.63a37.52,37.52,0,0,1-5.7-2,30.06,30.06,0,0,1-3.06-1.58,31.38,31.38,0,0,1-4.85-3.56c-.37-.32-.87-.78-1.44-1.36a30.35,30.35,0,0,1-2.61-3c-.69-.9-1.15-1.61-1.3-1.83s-.6-.94-1.14-2a37.75,37.75,0,0,1-2-4.38c-.3-.8-.52-1.45-.65-1.83-.35-1.06-.61-1.94-.77-2.57s-.27-1-.35-1.39c-.09.36-.2.84-.35,1.39S47.42,44.64,47,46c-.57,1.7-1.11,2.95-1.26,3.31-.49,1.13-.89,1.91-1,2.17-.32.62-.57,1.07-.64,1.19-.56,1-1,1.71-1.29,2.06-.1.14-.51.73-1.1,1.47a31.58,31.58,0,0,1-2.3,2.59c-.61.62-1.13,1.1-1.46,1.39a32.25,32.25,0,0,1-3.18,2.49c-.72.49-1.31.84-1.61,1s-1,.6-2.1,1.14c-.3.14-1,.46-1.79.82s-1.3.52-1.46.58l-.43.15c-.26.09-.89.31-1.59.53s-1.51.44-2.19.62c-.51.13-1,.27-1.69.42-1.45.33-2.64.52-3.3.62-.36,0-1.23.17-2.36.28-1,.08-1.75.12-2.3.14-1.17,0-2.06,0-2.32,0-.73,0-1.37,0-1.88-.08A41.1,41.1,0,0,0,22,68.83,36.36,36.36,0,0,0,33.84,65a31.21,31.21,0,0,0,9.6-8.08,32.33,32.33,0,0,0,4.72-8.45,32.33,32.33,0,0,0,4.72,8.45A31.06,31.06,0,0,0,62.47,65a36.51,36.51,0,0,0,11.82,3.88,42.12,42.12,0,0,0,12.33.06c-.93,0-1.72.07-2.34.07s-1.27,0-2.17,0c-.16,0-.89,0-1.87-.12-1.62-.14-2.84-.34-3.25-.41S75.72,68.2,74.46,67.91Z"/><path class="cls-1" d="M69.35,30.18a35.59,35.59,0,0,1-6.48-3.27,33.88,33.88,0,0,1-4.11-3.1A34.09,34.09,0,0,1,53.54,18,34.27,34.27,0,0,1,49,9c-.18-.53-.36-1.1-.53-1.7q-.16-.59-.3-1.14h0q-.13.55-.3,1.14c-.17.6-.35,1.17-.54,1.7a34,34,0,0,1-4.55,9,33.71,33.71,0,0,1-5.21,5.81,33.88,33.88,0,0,1-4.11,3.1A35.59,35.59,0,0,1,27,30.18a36.6,36.6,0,0,1-10,2.29,33.19,33.19,0,0,0,10.31-1.39,38.45,38.45,0,0,0,4.9-1.9c.77-.41,1.57-.79,2.31-1.26l1.13-.69,1.09-.75.55-.38.52-.41,1-.82c.67-.57,1.33-1.16,2-1.79a35,35,0,0,0,3.47-4,34.39,34.39,0,0,0,3.91-7h0a34.39,34.39,0,0,0,3.91,7,34,34,0,0,0,3.47,4c.62.63,1.28,1.22,2,1.79l1,.82.52.41.54.38,1.09.75,1.13.69c.75.47,1.55.85,2.32,1.26a38.45,38.45,0,0,0,4.9,1.9,33.13,33.13,0,0,0,10.3,1.39A36.61,36.61,0,0,1,69.35,30.18Z"/></svg>