<svg id="レイヤー_1" data-name="レイヤー 1" xmlns="http://www.w3.org/2000/svg" viewBox="0 0 279.75 94.12"><defs><style>.cls-1{fill:#231815;}</style></defs><path class="cls-1" d="M114.22,33.2c-.22,0-.39.07-.42.29s0,1.95,0,2.17,0,.35.15.35,1.33-.48,1.43-.48.06,0,.06,0a6.64,6.64,0,0,1-1.11.79.86.86,0,0,0-.53,1c0,.5,0,2.72,0,3.18,0,.24,0,1.59,0,1.71a.81.81,0,0,1-.74.5c-.24,0-.34-.07-.34-.35,0-.77.12-4.12.12-4.79,0-.06,0-.2-.13-.2a7.18,7.18,0,0,0-1.33.82c-.12.22-.13.25-.21.25-.23,0-.85-1.12-.85-1.2s.07-.12.31-.13a6.94,6.94,0,0,0,2.12-.78.51.51,0,0,0,.1-.37c0-.44,0-1.83,0-2.36,0-.16,0-.41-.41-.41h-.92c-.32,0-.35.07-.56.5a4,4,0,0,1-.71,1.15s0,0,0-.05.32-1.37.37-1.63a14.35,14.35,0,0,0,.25-2.25c0-.05,0-.32,0-.38s0-.15.13-.15,1.12.27,1.12.5a3.66,3.66,0,0,1-.31.59,12,12,0,0,0-.34,1.15c0,.14.1.17.21.17h.78c.27,0,.41-.12.41-.39,0-.54,0-1.5,0-2.09,0-.15-.07-.8-.07-.94s0-.14.11-.14,1.35.27,1.35.53,0,.14-.24.36-.1.19-.13.9c0,.2,0,1.24,0,1.44s0,.31.21.31a.47.47,0,0,0,.38-.22c.33-.47.36-.52.47-.52s1,.71,1,.92-.25.24-.79.24Zm5.6-1.29c-.43,0-.43.25-.43.58,0,1.87,0,1.9.41,1.9h1.25a2,2,0,0,0,.73-.06c.13-.06.48-.74.63-.74s1.21.8,1.21,1-.09.17-.8.17h-5.48c-.43,0-1,0-1.55,0l-.61.05c-.05,0-.05,0-.16-.12l-.26-.31c-.08-.07-.08-.09-.08-.1s0,0,.06,0l.65,0c.94.05,1.52.06,2,.06H118c.36,0,.41-.21.41-.49s0-1.56,0-1.71-.31-.28-.41-.28c-.46,0-.71,0-1.21,0-.15,0-.77.06-.88.06s-.06,0-.17-.14l-.26-.29c-.06-.06-.08-.09-.08-.11s0,0,.06,0l.59,0c.18,0,1.24.06,1.82.06.29,0,.54,0,.54-.42,0-.25,0-.83,0-1.07s-.07-.6-.07-.66,0-.15.1-.15,1,.24,1.18.33c0,0,.17.07.17.14s-.31.36-.34.43a5.68,5.68,0,0,0,0,.95c0,.22,0,.45.43.45h.63a2.29,2.29,0,0,0,.73,0c.12-.06.41-.68.53-.68s1.06.69,1.06.92-.29.2-.78.2Zm1.31,5.5c-.39,0-.43.14-.43,1.1,0,.44,0,2.41,0,2.81,0,1.35-1,1.35-1.19,1.35s-.31-.11-.38-.37-.33-.48-.65-.61-.42-.18-.42-.23.12-.06.17-.06l.94,0c.3,0,.59,0,.59-.67,0-.44,0-2.67,0-2.76,0-.32,0-.59-.42-.59h-1.72c-.43,0-1,0-1.55,0l-.61.05c-.06,0-.06,0-.14-.11l-.3-.32A.2.2,0,0,1,115,37s0,0,.06,0l.66,0c.95.05,1.51.06,2,.06h1.64c.41,0,.41-.28.41-.46s-.06-1.09-.06-1.27,0-.11.14-.11.94.14,1,.16.27.07.27.21-.24.32-.27.38a2.11,2.11,0,0,0-.06.68c0,.41.27.41.56.41s.37-.12.51-.32.26-.4.4-.4,1.09.69,1.09.9-.3.2-.79.2Zm-4.8,1c.21,0,1.52.34,1.52,1.36,0,.52-.25.81-.57.81s-.28-.09-.53-.9a3.9,3.9,0,0,0-.5-1.08s-.06-.1,0-.14S116.29,38.4,116.33,38.4Z"/><path class="cls-1" d="M132.34,34.76c-1.3,0-1.71,0-1.86,0l-.31,0c-.06,0-.09,0-.13-.09l-.28-.34c-.06-.07-.08-.07-.08-.1s0,0,.06,0l.65,0c.72,0,1.33.06,2,.06h4c.63,0,.78,0,.94-.26.36-.53.39-.59.54-.59s1.26.74,1.26,1-.26.22-.79.22h-2.85c-.41,0-.41.15-.41,1.37s0,1.27.41,1.27h1c.63,0,.77,0,.93-.25.28-.43.31-.49.44-.49s1.06.75,1.06,1-.09.16-.22.17a3.29,3.29,0,0,1-.55,0h-2.64c-.45,0-.45.09-.45,1,0,.5,0,2.17,0,2.24s.18.12.36.14.88.05,1.63.05a18.8,18.8,0,0,0,3.94-.45,3.25,3.25,0,0,1,.46-.17s0,0,0,.06-.9.73-1,.9a5.63,5.63,0,0,0-.24.59c-.1.2-.69.21-.9.21-5.92,0-6.62-.84-7.58-2a3.71,3.71,0,0,1-.64-1.06c0-.09-.06-.14-.1-.14s-.09.06-.22.27c-1.37,2.2-2.66,2.52-2.76,2.52s-.09,0-.09-.06l.25-.26a9.52,9.52,0,0,0,2.53-5.19c0-.67,0-.73.14-.73s1.27.34,1.27.55-.29.32-.32.38c-.11.22-.36,1.24-.43,1.45,0,0-.25.75-.25.78,0,.74,1.9,2,2.7,2,.19,0,.19-.2.19-.31,0-.82,0-4.52,0-5.28,0-.36,0-.57-.44-.57Zm-2.21-2.67c-.19,0-.28,0-.37.26-.28.89-.74,1.23-1.09,1.23s-.49-.12-.49-.41.06-.28.43-.67a4.12,4.12,0,0,0,.74-1.31c.05-.18.08-.25.14-.25s.22.23.31.51.15.26.34.26h3.51c.36,0,.4-.21.4-.46s0-.89,0-1.12-.11-.67-.11-.78,0-.08.06-.08l1.51.34a.21.21,0,0,1,.1.15c0,.07-.34.34-.38.43a3.62,3.62,0,0,0-.08.94c0,.53.12.58.46.58h2.89c.4,0,.47,0,.66-.18s.36-.31.52-.31S141,32,141,32.37s-.34.29-.43.29l-.77,0a1.75,1.75,0,0,0-.84.21,1.94,1.94,0,0,1-.43.22s0,0,0,0,.35-.66.35-.81-.08-.1-.29-.1Z"/><path class="cls-1" d="M149.82,32.4c.4,0,.44-.19.44-.46,0-.47,0-1.22-.06-1.68,0-.09-.12-.52-.12-.62a.12.12,0,0,1,.14-.12s1.33.21,1.33.46c0,.06-.18.27-.18.32-.08.36-.05,4.24-.08,4.86,0,.45-.1,1.75-.1,2.09,0,.09,0,.22.13.22s1.05-.23,1.11-.23.1,0,.1.06-.87.47-1.07.54-.34.19-.55.89A5.57,5.57,0,0,1,147,42.61s-.12,0-.12-.08.09-.13.17-.16a7.71,7.71,0,0,0,1.55-1.19,5.56,5.56,0,0,0,1.38-2.6c0-.16-.06-.18-.12-.18s-3.15,1.14-3.18,1.15-.27.31-.34.31c-.28,0-.71-1.3-.71-1.37s.06-.07.53-.07a18,18,0,0,0,3.88-.73,4.43,4.43,0,0,0,.21-1.56c0-.34-.14-.44-.44-.44h-1.07c-.35,0-1.34,0-1.86,0l-.31,0s-.08,0-.13-.09l-.29-.34c-.06-.07-.06-.07-.06-.1s0,0,.06,0l.63,0c.43,0,1.2,0,2,0h1c.34,0,.46-.1.46-.36V33.31c0-.28,0-.53-.46-.53h-1.11c-.35,0-1.34,0-1.86,0l-.3,0c-.06,0-.09,0-.14-.09l-.28-.34s-.07-.08-.07-.11,0,0,.06,0l.65,0c.42,0,1.19.06,2,.06Zm4.9,3.29c-.3,0-.46.12-.46.41s0,1.82,0,1.92c.07.26.28.26.44.26h1.65a2.14,2.14,0,0,0,.73-.06c.13,0,.6-.7.76-.7s1.11.76,1.11,1-.31.19-.78.19h-3.47c-.43,0-.46.17-.46.63s0,2.18,0,2.6c0,.23,0,.74-.77.74-.41,0-.43-.33-.43-.55s0-1.2,0-1.42c0-2.16.1-5.69.1-7.83,0-1.08,0-1.81,0-2.51,0-.08-.09-.53-.09-.63s0-.18.15-.18a8.54,8.54,0,0,1,1.13.25c.12.05.24.11.24.24s-.25.31-.28.38-.11.25-.11,1.52c0,.22,0,.49.46.49h1.43a2.11,2.11,0,0,0,.73-.06c.13-.06.6-.71.78-.71a2.7,2.7,0,0,1,1.1,1c0,.19-.32.19-.79.19h-3.23c-.17,0-.45,0-.48.34s0,1.18,0,1.48c0,.51,0,.7.43.7h.82a2.51,2.51,0,0,0,.73,0c.13-.06.6-.71.78-.71s1.1.76,1.1,1-.32.19-.79.19Z"/><path class="cls-1" d="M170.62,32.66c.65,0,.75,0,1.4-1.15a9.81,9.81,0,0,0,.88-1.94c0-.25,0-.28.11-.28s1.38.82,1.38,1.06-.11.16-.47.23-.38.08-1.28,1a4.75,4.75,0,0,0-.8.93c0,.16.14.16.37.16h2a1.87,1.87,0,0,0,.64,0c.07,0,.31-.32.38-.32s1.4.9,1.4,1.35c0,.24-.17.34-.38.34l-.46,0c-.22,0-.47.09-1,.53-.25.23-.29.28-.38.28s-.07-.08-.07-.1.39-1.16.39-1.38-.09-.22-.54-.22h-8.66c-.53,0-.61,0-.68.4-.19,1-.63,1.46-1,1.46a.54.54,0,0,1-.56-.59c0-.22.06-.29.52-1.06a3.21,3.21,0,0,0,.44-1.36c0-.12,0-.17.08-.17s.36.63.44.73.15.19.69.19Zm-2.83,6c.32,0,.54,0,.72-.34a3.29,3.29,0,0,0,.26-1.11c0-.26-.11-.26-.48-.26h-.89c-.31,0-.32,0-.42.32s-.57.31-.65.31-.43-.07-.48-.32,0-.95,0-1.13,0-1.16,0-1.56c0-.06-.06-.4-.06-.47s0-.16.12-.16a8.53,8.53,0,0,1,.87.41,1.28,1.28,0,0,0,.53.06h4.59c.62,0,.68,0,.79-.1s.45-.55.58-.55a1.84,1.84,0,0,1,.84,1c0,.12-.06.17-.25.27s-.18.18-.18.84A6.63,6.63,0,0,1,173.6,37a.77.77,0,0,1-.7.43c-.22,0-.26-.09-.33-.3s-.2-.17-.36-.17h-1.65a.67.67,0,0,0-.62.25,5.87,5.87,0,0,0-1,1.29c0,.17.19.17.4.17h3.69a2.54,2.54,0,0,0,.71-.05c.08,0,.41-.43.51-.43s.9.49.9.77c0,.13,0,.16-.24.34a.89.89,0,0,0-.08.38c0,.24.06,1.42.06,1.69s0,.54-.23.75a1,1,0,0,1-.67.32c-.3,0-.31-.17-.34-.47s-.22-.19-.37-.19h-6.93c-.27,0-.31.1-.37.31a.75.75,0,0,1-.76.52c-.44,0-.44-.34-.44-.48s.09-1.91.09-2.28c0-.21,0-1.24,0-1.48,0-.07,0-.2.13-.2a4.85,4.85,0,0,1,1,.36,1.24,1.24,0,0,0,.68.14Zm-2.73-9c1.56,0,2.65,1,2.65,1.67a.66.66,0,0,1-.63.68c-.34,0-.49-.31-.61-.58a3.38,3.38,0,0,0-1.27-1.43c-.3-.19-.33-.2-.3-.28S165,29.74,165.06,29.74Zm1.41,9.36c-.19,0-.31,0-.41.14a14.37,14.37,0,0,0-.06,1.68c0,.26,0,.49.43.49h6.9c.4,0,.45-.19.45-.43s0-1.59,0-1.68-.31-.2-.42-.2Zm1-4.27c-.19,0-.47,0-.47.43,0,1.33,0,1.33.44,1.33h4.8c.44,0,.44-.12.44-.92s0-.84-.47-.84Zm3.38-3.61c0,.37-.21.6-.5.6s-.58-.42-.66-.68a4.44,4.44,0,0,0-.9-1.51,1.45,1.45,0,0,1-.23-.31c0-.06.09-.06.12-.06C169.13,29.26,170.81,30,170.81,31.22Z"/><path class="cls-1" d="M183.73,33.73c-.32,0-1.34,0-1.86,0l-.31,0c-.05,0-.07,0-.13-.1l-.28-.34c-.06-.06-.07-.08-.07-.09s0,0,.06,0,.78.07.93.07c1.07,0,1.1,0,1.94,0,.46,0,.46-.12.46-.9,0-.19,0-1.39,0-1.46s-.2-.19-.39-.19-1.65.07-2,.07-.3,0-.3-.07,0-.08.36-.14a14.9,14.9,0,0,0,3.64-1c.53-.24.59-.27.71-.27s1.38.58,1.38.8-.06.15-.9.24c-1.56.16-1.56.19-1.56.73,0,.2,0,1.86,0,1.92a.37.37,0,0,0,.41.24h.27c.34,0,.43,0,.6-.24.41-.5.46-.54.59-.54a4.13,4.13,0,0,1,1.29,1c0,.21-.3.21-.79.21h-2c-.43,0-.46.06-.46,1.12,0,.43.15.45.27.48.62.12,2.16.51,2.16,1.63,0,.53-.32.72-.5.72s-.34-.1-.71-1a1.86,1.86,0,0,0-1.12-1.13c-.11,0-.11.1-.11.22,0,.57,0,4.73.08,5.29,0,.28.05.8.05.86,0,.56-.68.74-.86.74s-.31-.21-.31-.43c0-.73.09-3.9.09-4.55,0-.14,0-.73,0-.87s0-.25-.18-.25-.09,0-.27.22a15.76,15.76,0,0,1-2.81,2.66c-.12.09-.18.13-.24.13a.07.07,0,0,1-.07-.07s.93-1.09,1.06-1.27a18.06,18.06,0,0,0,2.55-4.28.18.18,0,0,0-.19-.2Zm6.67,1c0,2.58,0,2.88,0,3.53,0,.1,0,.56,0,.65,0,.41-.22.72-.81.72-.37,0-.37-.18-.37-.28s0-.35,0-.41c.05-.47.08-2.16.08-4.19,0-.67,0-2.44-.12-3.42a2.2,2.2,0,0,1,0-.31c0-.08,0-.14.12-.14s1.53.27,1.53.53a.28.28,0,0,1-.07.17c-.3.26-.34.32-.39.53S190.4,33.42,190.4,34.77Zm2.89.31c0,.89.09,4.75.09,5.53,0,1.07-.07,1.36-.33,1.54a2.32,2.32,0,0,1-1,.49c-.2,0-.23-.09-.31-.33-.17-.55-1.1-.87-1.27-.91s-.13-.06-.13-.12.09-.06.1-.06c.2,0,1,.13,1.14.13.72,0,.72-.13.72-1.27,0-1.37,0-8.54-.07-9.57,0-.16-.13-1-.13-1a.15.15,0,0,1,.16-.13l1.34.23c.09,0,.22.07.22.22s-.07.18-.23.3a.64.64,0,0,0-.22.44C193.31,30.82,193.29,34.32,193.29,35.08Z"/><path class="cls-1" d="M199,32.86c.45,0,1.79.48,1.79,1.35a.55.55,0,0,1-.48.58c-.15,0-.28-.11-.43-.4a4.39,4.39,0,0,0-1.12-1.45A.35.35,0,0,1,199,32.86Zm0,5.88a.92.92,0,0,0,.92-.57,23.73,23.73,0,0,0,1.77-4.59c0-.09.15-.41.21-.41a.14.14,0,0,1,.1.14s-.19,1.17-.22,1.27c-.14.65-.93,3.51-.93,4.1a8.85,8.85,0,0,0,.49,2.32,4.84,4.84,0,0,1,.13.75.64.64,0,0,1-.61.69c-.73,0-.75-.88-.75-1.26,0-1.41-.21-1.8-.9-2.14-.07,0-.47-.12-.47-.2S199,38.74,199.07,38.74Zm1.35-9.22c.19,0,2,.4,2,1.43a.56.56,0,0,1-.53.59c-.14,0-.28,0-.49-.38a7.28,7.28,0,0,0-1-1.4.27.27,0,0,1-.06-.1C200.3,29.61,200.31,29.52,200.42,29.52Zm6,7.41c.45,0,.45-.27.45-.45s0-2,0-2.08-.15-.29-.43-.29h-1c-1.3,0-1.72,0-1.87,0l-.31,0c-.05,0-.08,0-.13-.08l-.28-.34c-.06-.08-.06-.08-.06-.11s0,0,0,0l.65.05c.72,0,1.33.06,2,.06h.92c.17,0,.47,0,.47-.4V31.68c0-.2-.08-.42-.37-.42s-1.11.14-1.3.15a13.88,13.88,0,0,1-1.46.07c-.21,0-.37-.05-.37-.1s.59-.16.71-.19a17.42,17.42,0,0,0,4.63-1.39c.12-.06.68-.44.71-.44s1.43.91,1.43,1.09-.13.16-.4.16-1.69.26-2.17.34c-.28.05-.44.12-.44.46s0,2,.06,2.14a.4.4,0,0,0,.37.18h1.16c.68,0,.76,0,.95-.25.37-.49.41-.55.54-.55a4.2,4.2,0,0,1,1.15,1c0,.21-.29.21-.78.21h-3c-.24,0-.46,0-.46.44,0,.22,0,2,0,2.1,0,.23.26.28.44.28h.91c.19,0,.28,0,.53-.27s.31-.32.39-.32,1.1.82,1.1,1,0,.12-.25.32a.72.72,0,0,0-.19.56c0,.54.07,3.34.07,3.37a.74.74,0,0,1-.81.79c-.37,0-.41-.17-.47-.48,0-.12-.09-.27-.4-.27h-3.77c-.39,0-.4,0-.5.41a.67.67,0,0,1-.74.46c-.25,0-.44,0-.44-.32,0-.08,0-.87,0-1,0-.58.09-2.81.09-3.22,0-.24,0-.72,0-1a2.15,2.15,0,0,1-.05-.34s0-.15.08-.15.13,0,.65.28a1.47,1.47,0,0,0,.84.17Zm2.78,4.33c.25,0,.44-.08.44-.41,0-.49,0-2.63,0-3.07,0-.19,0-.47-.44-.47h-3.88c-.25,0-.44.09-.44.41v3.06c0,.25,0,.48.44.48Z"/><path class="cls-1" d="M221.08,32.83c-.41,0-.41.28-.41.62,0,.75,0,.87.46.87h1a.65.65,0,0,0,.48-.15A.52.52,0,0,1,223,34c.2,0,1,.48,1,.68s-.27.35-.31.41-.09.32-.09.78,0,1.76,0,2c0,.54-.68.6-.74.6s-.2,0-.26-.34c0-.12-.17-.12-.24-.12h-1.25c-.46,0-.46.27-.46.56,0,.76,0,.89.47.89h.4c.57,0,.63,0,.88-.25s.36-.37.48-.37c.35,0,1,.75,1,.83s-.07.19-.78.19H221.2c-.34,0-.52,0-.52.48s0,.64.2.64,2.46-.4,2.65-.4c0,0,.12,0,.12.09s-.58.26-.77.32c-1.5.48-2.74.76-4.6,1.2a4.1,4.1,0,0,0-.91.29c-.06,0-.27.24-.33.24s-.68-1.18-.68-1.18.08-.07.12-.07a19.57,19.57,0,0,0,2.6-.26c.06,0,.6-.08.62-.1s.1-.15.1-.26a7.21,7.21,0,0,0,0-.73c0-.26-.25-.26-.6-.26-1.28,0-1.83,0-1.92,0l-.31,0s-.07,0-.13-.09l-.29-.34c-.06-.07-.06-.07-.06-.1s0,0,.06,0l.61,0c.64,0,1.57.05,2.19.05s.48-.12.48-.92c0-.26,0-.53-.42-.53h-1c-.25,0-.28,0-.3.25a.54.54,0,0,1-.56.45c-.42,0-.42-.3-.42-.45,0-1.06,0-2.77,0-3.18,0-.16-.09-.87-.09-1s0-.12.14-.12a5.6,5.6,0,0,1,.73.27,1.33,1.33,0,0,0,.64.12h.91c.44,0,.44-.2.44-.73s0-.76-.44-.76h-.47c-1.21,0-1.68,0-1.73,0l-.31,0c-.05,0-.08,0-.13-.09l-.28-.34c-.06-.07-.07-.07-.07-.1s0,0,.06,0l.65,0c.13,0,1.18.06,1.87.06h.38c.46,0,.46-.22.46-.6,0-.89,0-1-.18-1l-.42.06c-.37,0-1.44.13-1.76.13-.12,0-.19,0-.19-.07s.06-.08.4-.16a14.92,14.92,0,0,0,4-1.38c.25-.14.28-.16.34-.16a3.71,3.71,0,0,1,1.14.87c0,.08,0,.08-.33.13l-1.85.36c-.24,0-.26.15-.26.35a7.7,7.7,0,0,0,0,1.32c0,.11.2.14.31.14.83,0,.92,0,1.12-.25s.4-.48.59-.48a2.71,2.71,0,0,1,1.08.94c0,.18-.09.18-.79.18ZM219.36,36c.45,0,.45-.2.45-.69,0-.34,0-.59-.45-.59h-.9c-.46,0-.46.22-.46.71s0,.57.46.57Zm0,1.64c.45,0,.45-.19.45-.63s0-.61-.45-.61h-.89c-.44,0-.46.21-.46.53,0,.56.05.71.48.71Zm1.75-2.92c-.44,0-.44.24-.44.66s0,.62.44.62h1.09c.46,0,.46-.22.46-.65s0-.63-.46-.63Zm0,1.68c-.44,0-.44.22-.44.61s0,.63.44.63h1.08c.46,0,.46-.24.46-.6s0-.64-.46-.64Zm5.7-3.63c-.42,0-.43.18-.45.74-.13,4.93-.6,6.53-2.33,8.17a4.92,4.92,0,0,1-1.56,1.09c-.06,0-.09,0-.09-.06s.34-.33.4-.39c2-2,2.64-3.66,2.64-9.21,0-.22,0-.32-.28-.32l-.78.06c-.06,0-.09,0-.14-.09l-.28-.34c-.05-.06-.05-.08-.05-.1s0,0,0,0c.19,0,1.06.07,1.24.07s.25-.06.25-.25c0-.93-.06-1.55-.09-1.92,0-.12-.12-.62-.12-.74s0-.2.12-.2,1.45.25,1.45.43-.24.23-.27.28a8.12,8.12,0,0,0-.12,1.75c0,.62,0,.68.42.68h.48a.63.63,0,0,0,.52-.19c.29-.33.34-.37.43-.37s1.12.6,1.12.84,0,.15-.3.37a.53.53,0,0,0-.2.51c0,4.53,0,6.7-.31,7.79-.37,1.32-1.3,1.36-1.48,1.36s-.28-.09-.43-.5-.41-.53-.87-.75-.37-.17-.37-.25.06-.06.09-.06,1.33.25,1.58.25c.58,0,.71-1.12.78-1.86s.08-4.81.08-5.95c0-.64,0-.81-.45-.81Z"/><path class="cls-1" d="M234,33.21c1,0,2.06.65,2.06,1.46a.65.65,0,0,1-.57.68c-.21,0-.31-.18-.52-.61a4,4,0,0,0-1-1.25,1.73,1.73,0,0,1-.25-.21C233.78,33.23,233.93,33.21,234,33.21Zm.89,5.71c.52-.27,1.26-1.89,2.47-4.59.13-.31.38-.78.51-1.09s.11-.25.2-.25a.08.08,0,0,1,.08.09c0,.13-1.43,4-1.6,4.48a3.72,3.72,0,0,0-.47,1.67,4.43,4.43,0,0,0,.45,1.93,1.83,1.83,0,0,1,.14.58.72.72,0,0,1-.65.7c-.53,0-.71-.53-.71-1a2.44,2.44,0,0,0-.55-2c-.06-.06-.44-.26-.44-.34S234.83,39,234.9,38.92Zm.11-9c0-.06.07-.06.12-.06a5.45,5.45,0,0,1,1.19.24,1.38,1.38,0,0,1,1,1.19c0,.33-.16.67-.48.67s-.33-.14-.53-.51A5,5,0,0,0,235.05,30S235,29.94,235,29.92Zm5.19,6.56c-.34,0-1.36,0-1.87.05l-.31,0c-.05,0-.08,0-.14-.09l-.28-.34c0-.07,0-.07,0-.1s0,0,0,0l.66,0c.67,0,1.33.06,2,.06h1.1c.25,0,.41,0,.45-.31s0-2,0-2.34-.07-.45-.41-.45H241c-.34,0-1.35,0-1.86,0l-.33,0s-.07,0-.11-.09l-.3-.34c-.06-.07-.06-.07-.06-.1s0,0,0,0l.66,0c.66,0,1.33.06,2,.06h.32c.14,0,.43,0,.43-.43s0-1.37,0-1.86c0-.11-.11-.69-.11-.72s0-.1.08-.1,1.46.23,1.46.47c0,.07-.27.34-.28.41a1.2,1.2,0,0,0-.06.49c0,.22,0,1.33,0,1.33,0,.41.31.41.45.41h.83c.62,0,.69,0,.82-.12s.45-.63.57-.63a3.86,3.86,0,0,1,1.15.93c0,.2-.3.2-.8.2h-2.57c-.16,0-.47,0-.47.4s0,2.33,0,2.42c0,.25.23.28.47.28h1.38c.62,0,.7,0,.82-.12s.48-.65.61-.65,1.13.77,1.13,1-.3.2-.8.2h-4.18s-.07,0-.07.05.56.63.56.78-.1.15-.4.21c-.14,0-.19.1-.56.69a18.28,18.28,0,0,1-1.55,2.07c-.2.25-.22.26-.22.3a.09.09,0,0,0,.09.08c.4,0,4-.21,4.66-.24.37,0,.5-.06.5-.23s-.81-2-.84-2.14l0,0c.26,0,2.51,2,2.51,3.57a.77.77,0,0,1-.73.85c-.31,0-.34-.13-.59-1.25-.09-.37-.16-.61-.47-.61-.15,0-2,.4-2.37.46-.59.11-3.18.46-3.69.59a4.06,4.06,0,0,0-.74.28,1.93,1.93,0,0,1-.34.19c-.22,0-.63-1.49-.63-1.54s0-.05.06-.05.6.09.7.1a7.27,7.27,0,0,0,1,.06c.35,0,.42-.13,1-1.27a15.93,15.93,0,0,0,1.2-2.66c0-.26-.26-.26-.44-.26Z"/><path class="cls-1" d="M258.7,30.79a15.94,15.94,0,0,0,2.14,6.76c.25.4,1.91,3.09,4.19,3.68,0,0,.14.05.14.11s0,.07-.51.17a2.83,2.83,0,0,0-1,.45c-.28.2-.32.25-.37.25a9.53,9.53,0,0,1-3.36-4.29,16,16,0,0,1-1.42-5.71c0-.17,0-.18-.07-.18s-.09.06-.15.59a16.92,16.92,0,0,1-1.89,6.31,8.14,8.14,0,0,1-4.29,3.51s-.09,0-.09-.07.08-.1.19-.18a10.8,10.8,0,0,0,3.5-3.79,18.56,18.56,0,0,0,1.68-7.58,4,4,0,0,0-.06-.9s-.06-.25-.06-.29a.13.13,0,0,1,.12-.12c.09,0,.72.2.86.23.7.2,1,.28,1,.55s-.12.21-.25.24a.36.36,0,0,0-.24.08A.3.3,0,0,0,258.7,30.79Z"/><path class="cls-1" d="M114.6,79.34c-1,0-1-.53-1-.85s.13-1.83.16-2.12V73a45.68,45.68,0,0,0-.19-5.19,5,5,0,0,1-.16-.73c0-.09.11-.11.17-.11a7.89,7.89,0,0,1,1.54.66l.13.07a7.84,7.84,0,0,0,2.77.46h9.91c1.21,0,1.38-.13,1.72-.4.87-.67,1.09-.73,1.14-.73A6.15,6.15,0,0,1,133,68.84c0,.15,0,.16-.68.74a8.87,8.87,0,0,0-.19,2.55c0,.66.08,1.67.13,2.65.06,1.33.13,2.59.13,2.9,0,1.27-1.45,1.31-1.47,1.31-.33,0-1.11-.09-1.11-.92,0-.44,0-1.11-1-1.11H117.4c-.31,0-1.14,0-1.14.92C116.26,78.42,116.26,79.34,114.6,79.34Zm2.48-10.52c-1.08,0-1.08.18-1.08,3.11,0,2.42,0,3.7.07,3.8a.91.91,0,0,0,1,.56h11.77c1,0,1-.18,1-3.14,0-1.35,0-3.64-.07-3.79a.91.91,0,0,0-1-.54Zm-5.15-4.66c-.08,0-.12,0-.22-.16l-.62-.74-.1-.13,0,0h0l.75,0,.67.05c1.46.09,2.78.13,4.4.13h4.08c.35,0,1,0,1-1V58.49c0-.68-.33-1-1-1h-6.69c-2.56,0-3.62.06-4.06.1h0l-.34,0-.33,0c-.06,0-.08,0-.16-.11l-.07-.06-.6-.74c-.11-.14-.11-.14-.11-.17l.76.07.67,0,.57,0c1.34.05,2.51.1,3.83.1h6.47c.35,0,1.07,0,1.07-.95a34.09,34.09,0,0,0-.22-3.75c0-.09-.1-.36-.19-.64s-.16-.51-.16-.56.2-.11.2-.11,2.78.48,3,.54c.43.08.81.18.81.53,0,.13-.33.5-.57.76a2.08,2.08,0,0,0-.49.64c-.07.21-.13,2.27-.13,2.59,0,.95.75.95,1.07.95h6c1.46,0,1.65,0,2.12-.58l.11-.12c.8-1,.88-1,1.11-1a11.32,11.32,0,0,1,3,2c0,.35-.54.36-1.66.36H125.18c-.32,0-1.08,0-1.08,1,0,.32,0,1.19,0,2s0,1.59,0,1.86c0,1,.73,1,1.08,1h4.95a3.37,3.37,0,0,0,1-.07c.21-.07.52-.44,1-1a4.77,4.77,0,0,1,.61-.68c.28,0,2.71,1.63,2.71,2.07,0,.24-.3.34-1,.34H116.66c-2.56,0-3.62,0-4.06.1h0l-.34,0Z"/><path class="cls-1" d="M141.45,77.57c-.06,0-.1,0-.23-.17l-.61-.73c-.11-.14-.11-.14-.11-.18l.77.07.66,0c1.48.09,2.8.13,4.44.13H153c.26,0,.87,0,1-.51.07-.25.13-3.25.13-3.59,0-1.36,0-1.92-1-1.92h-3.19c-2.14,0-3.2,0-3.71.06h-.34a6.39,6.39,0,0,1-.68.09c-.07,0-.12,0-.2-.17l-.67-.76-.05-.08-.06-.07h0c.29,0,1.2.09,1.43.12,1.65.07,3,.09,4.41.09h3a.84.84,0,0,0,.91-.49,29.85,29.85,0,0,0,.13-4.22c0-.82-.73-.82-1.08-.82h-4.31c-.33,0-.8,0-.94.44-.22.69-.39,1.23-1.21,1.23s-1.08-.43-1.08-1.39c0-.5,0-1.87.09-3.19s.07-2.5.07-2.92c0-1.46,0-5.32-.19-6.29,0-.09-.08-.29-.16-.52a4.54,4.54,0,0,1-.19-.62c0-.08.05-.08.08-.08a11.43,11.43,0,0,1,1.68.83l.18.09a4.16,4.16,0,0,0,2.54.59h11.8a1.93,1.93,0,0,0,1.28-.28,3.53,3.53,0,0,0,.28-.28c.17-.18.48-.52.57-.53s2.26,1.55,2.26,1.91c0,.19-.19.4-.63.67s-.43.44-.43,1.68c0,.67,0,2.52.07,4.31s.06,3.37.06,3.95a1.73,1.73,0,0,1-1.69,2c-.56,0-.59-.27-.65-.81-.08-.74-.69-.74-1-.74h-4.21c-1.08,0-1.08.06-1.08,2.82,0,2,0,2.22.25,2.47a1.24,1.24,0,0,0,.89.24h4.41c1.36,0,1.54,0,1.82-.24a6.1,6.1,0,0,0,.47-.58c.26-.35.75-1,.89-1a8.58,8.58,0,0,1,2.46,2.17c0,.36-.53.37-1.62.37H157.4c-1.14,0-1.14.57-1.14,1.69,0,3.44,0,3.8.32,4.08a1,1,0,0,0,.79.25h7c1.2,0,1.44-.06,1.69-.28a4.63,4.63,0,0,0,.52-.62c.28-.36.75-1,.91-1A7.28,7.28,0,0,1,170,77c0,.35-.54.37-1.65.37H146.21a33.61,33.61,0,0,0-4.1.1h0l-.33,0Zm15.92-18.52c-1.11,0-1.11.54-1.11,2.14,0,2.29,0,2.59,1.11,2.59h4.18c1.11,0,1.11-.34,1.11-3,0-1.17,0-1.75-1.08-1.75Zm-8.59,0c-1,0-1,.37-1,1.75,0,2.27,0,2.51.22,2.73a1,1,0,0,0,.82.25h4.31c1,0,1-.37,1-1.72,0-2.31,0-2.55-.22-2.76a1,1,0,0,0-.83-.25Zm8.65-5.73c-1.11,0-1.11.45-1.11,2.92,0,1.7,0,2.1,1.11,2.1h4.18c1.11,0,1.11-.33,1.11-2.88,0-1.68,0-2.14-1.11-2.14Zm-8.65,0c-1,0-1,.37-1,2.3,0,2.41,0,2.72,1,2.72h4.28c1.05,0,1.05-.26,1.05-2.27,0-2.38,0-2.75-1.05-2.75Z"/><path class="cls-1" d="M178.91,79.34c-1,0-1-.53-1-.85s.13-1.83.16-2.12V73a45.68,45.68,0,0,0-.19-5.19,5,5,0,0,1-.16-.73c0-.09.11-.11.18-.11a7.83,7.83,0,0,1,1.53.66l.13.07a7.84,7.84,0,0,0,2.77.46h9.91c1.22,0,1.38-.13,1.72-.4.87-.67,1.09-.73,1.14-.73a6.15,6.15,0,0,1,2.17,1.82c0,.15,0,.16-.68.74a9.24,9.24,0,0,0-.19,2.55c0,.66.08,1.67.13,2.65.07,1.33.13,2.59.13,2.9,0,1.27-1.45,1.31-1.46,1.31-.34,0-1.11-.09-1.11-.92,0-.44,0-1.11-1-1.11H181.71c-.31,0-1.14,0-1.14.92C180.57,78.42,180.57,79.34,178.91,79.34Zm2.48-10.52c-1.08,0-1.08.18-1.08,3.11,0,2.42,0,3.7.08,3.8a.89.89,0,0,0,1,.56h11.77c1,0,1-.18,1-3.14,0-1.35,0-3.64-.07-3.79a.91.91,0,0,0-1-.54Zm-5.14-4.66c-.09,0-.13,0-.23-.16l-.61-.74-.11-.13,0,0h0l.75,0,.67.05c1.46.09,2.78.13,4.4.13h4.09c.34,0,1,0,1-1V58.49c0-.68-.32-1-1-1h-6.69c-2.56,0-3.62.06-4.06.1h0l-.33,0-.33,0c-.07,0-.09,0-.17-.11l-.06-.06-.61-.74c-.11-.14-.11-.14-.11-.17l.76.07.67,0,.57,0c1.35.05,2.51.1,3.84.1h6.46c.35,0,1.08,0,1.08-.95a34,34,0,0,0-.23-3.75c0-.09-.1-.36-.19-.64s-.16-.51-.16-.56.2-.11.21-.11,2.77.48,3,.54c.43.08.81.18.81.53,0,.13-.33.5-.57.76a2.27,2.27,0,0,0-.49.64c-.07.21-.13,2.27-.13,2.59,0,.95.75.95,1.08.95h6c1.46,0,1.65,0,2.12-.58l.11-.12c.8-1,.88-1,1.12-1a11.26,11.26,0,0,1,2.94,2c0,.35-.54.36-1.66.36H189.49c-.32,0-1.07,0-1.07,1,0,.32,0,1.19,0,2s0,1.59,0,1.86c0,1,.73,1,1.08,1h4.95a3.37,3.37,0,0,0,1-.07c.21-.07.52-.44,1-1a4.13,4.13,0,0,1,.62-.68c.27,0,2.7,1.63,2.7,2.07,0,.24-.3.34-1,.34H181c-2.56,0-3.62,0-4.06.1h0l-.34,0Z"/><path class="cls-1" d="M205.76,77.57c-.06,0-.1,0-.23-.17l-.6-.73c-.11-.14-.11-.14-.11-.18l.76.07.67,0c1.47.09,2.8.13,4.43.13h6.6c.25,0,.86,0,1-.51.07-.25.13-3.25.13-3.59,0-1.36,0-1.92-1-1.92h-3.19c-2.14,0-3.2,0-3.71.06h-.34a6.58,6.58,0,0,1-.67.09c-.08,0-.12,0-.21-.17l-.66-.76-.06-.08a.18.18,0,0,1,0-.07h0c.29,0,1.2.09,1.43.12,1.65.07,3,.09,4.42.09h3a.84.84,0,0,0,.91-.49,29.85,29.85,0,0,0,.13-4.22c0-.82-.72-.82-1.07-.82H213.1c-.34,0-.8,0-.95.44-.22.69-.39,1.23-1.21,1.23s-1.07-.43-1.07-1.39c0-.5,0-1.87.08-3.19s.08-2.5.08-2.92a61.1,61.1,0,0,0-.2-6.29,3.67,3.67,0,0,0-.16-.52,4.54,4.54,0,0,1-.19-.62.07.07,0,0,1,.08-.08,11,11,0,0,1,1.68.83l.18.09a4.18,4.18,0,0,0,2.55.59h11.8a1.88,1.88,0,0,0,1.27-.28,3.53,3.53,0,0,0,.28-.28c.17-.18.48-.52.57-.53.24.07,2.27,1.55,2.27,1.91,0,.19-.19.4-.64.67s-.43.44-.43,1.68c0,.67,0,2.52.07,4.31s.06,3.37.06,3.95a1.73,1.73,0,0,1-1.68,2c-.57,0-.6-.27-.66-.81-.08-.74-.69-.74-1-.74h-4.21c-1.08,0-1.08.06-1.08,2.82,0,2,0,2.22.25,2.47a1.25,1.25,0,0,0,.9.24h4.4c1.37,0,1.54,0,1.82-.24a6.1,6.1,0,0,0,.47-.58c.26-.35.75-1,.89-1a8.45,8.45,0,0,1,2.46,2.17c0,.36-.52.37-1.62.37h-8.42c-1.15,0-1.15.57-1.15,1.69,0,3.44,0,3.8.32,4.08a1,1,0,0,0,.79.25h7c1.2,0,1.44-.06,1.69-.28a4.51,4.51,0,0,0,.53-.62c.27-.36.74-1,.9-1A7.28,7.28,0,0,1,234.3,77c0,.35-.53.37-1.65.37H210.52a33.9,33.9,0,0,0-4.1.1h0l-.33,0Zm15.92-18.52c-1.11,0-1.11.54-1.11,2.14,0,2.29,0,2.59,1.11,2.59h4.18c1.11,0,1.11-.34,1.11-3,0-1.17,0-1.75-1.07-1.75Zm-8.58,0c-1,0-1,.37-1,1.75,0,2.27,0,2.51.22,2.73a1,1,0,0,0,.83.25h4.31c1,0,1-.37,1-1.72,0-2.31,0-2.55-.22-2.76a1,1,0,0,0-.82-.25Zm8.65-5.73c-1.11,0-1.11.45-1.11,2.92,0,1.7,0,2.1,1.11,2.1h4.18c1.11,0,1.11-.33,1.11-2.88,0-1.68,0-2.14-1.11-2.14Zm-8.65,0c-1,0-1,.37-1,2.3,0,2.41,0,2.72,1,2.72h4.27c1,0,1-.26,1-2.27,0-2.38,0-2.75-1-2.75Z"/><path class="cls-1" d="M239.56,79.69c-.73,0-.79-.69-.79-1.39s0-3.19.07-5.61.06-5.13.06-6.07c0-1.51,0-9.88-.09-11.67l-.05-.63c-.06-1-.18-2.69-.18-3.13,0-.25,0-.28.18-.28s.34.07,1.54.7a3,3,0,0,0,1.8.46h18.59a1.17,1.17,0,0,0,1.09-.48c.78-.84.85-.87,1.06-.87.44,0,2.33,1.65,2.33,2.17,0,.16,0,.18-.49.55l-.12.09c-.3.22-.32,1.79-.32,1.8s.2,16.76.23,17.69c0,.35,0,1.6,0,2.68,0,.82,0,1.54,0,1.69,0,.67,0,2.24-1.78,2.24-.81,0-.85-.44-.91-1.17,0-.57-.43-.57-1-.57H242.17c-.84,0-.88,0-1,.81S240,79.69,239.56,79.69Zm2.67-26.94c-1.09,0-1.14.53-1.14,1.39,0,.7,0,2.61,0,4.45s0,3.4,0,4c0,1.08,0,4.05.08,6.92s.08,5.36.08,6.26,0,1.44,1.14,1.44h18.49c1.14,0,1.14-.29,1.14-2.56,0-.91,0-3.43.07-5.86s.06-4.53.06-5.3,0-2.53,0-4.33,0-3.39,0-4a7.69,7.69,0,0,0-.07-2,1,1,0,0,0-1-.47Zm1.48,20.83c-.08,0-.12,0-.21-.17l-.63-.76c-.08-.09-.14-.14-.14-.16h0c.29,0,1.26.1,1.44.13.54,0,2.46.1,4.26.1h1c.2,0,.8,0,1-.47.11-.26.13-5.26.13-5.31,0-1.92-.07-2.23-1.14-2.23-1.65,0-3,0-3.93.09h0l-.34,0-.33,0c-.06,0-.1,0-.23-.17L244,64c-.11-.14-.11-.14-.11-.18l.77.07.67,0c.48,0,2.63.12,4.27.12,1,0,1-.46,1-2.71,0-.59,0-3.5-.41-3.86a1,1,0,0,0-.73-.24h-.8c-1.29,0-3,0-3.9.09h0l-.38,0-.29,0c-.08,0-.13,0-.22-.16l-.65-.75a.48.48,0,0,0-.08-.12s0,0,0,0l.7,0,.71,0h.12c.77,0,2.55.12,4.13.12H255c.53,0,.94,0,1.29-.59l.1-.16c.55-.87.6-.95.79-.95s2.62,1.74,2.62,2.1-.07.28-1.62.28h-4.34c-1.05,0-1.14.26-1.14,3.16s0,3.34.4,3.52c.24.13.34.13,1.13.13s1-.06,1.24-.24l.3-.29c.28-.29.87-.88,1-.88a5.87,5.87,0,0,1,2.36,1.85c0,.2-.37.24-1.4.24h-4c-1.07,0-1.07.39-1.07,2,0,.63.06,5,.16,5.42s.77.55,1.11.55h.8c1.07,0,1.78,0,2.13-.59.64-1,.69-1.09.89-1.09a8.77,8.77,0,0,1,2.62,2.08c0,.29-.06.3-1.62.3H248.47c-.73,0-3,0-4.09.07A5.63,5.63,0,0,1,243.71,73.58Zm14.63-3.21c-.53,0-.63-.14-1.55-1.48l-.18-.26A8.93,8.93,0,0,0,255.17,67l-.07-.07c-.26-.22-.47-.42-.47-.5s.2-.15.37-.15c.64,0,4.2,1,4.42,2.86a1.07,1.07,0,0,1-.27.87A1.12,1.12,0,0,1,258.34,70.37Z"/><path class="cls-1" d="M76.21,58a32.78,32.78,0,0,1-7.28-2.92,31.76,31.76,0,0,1-2.82-1.77,30,30,0,0,1-4.23-3.6,31.72,31.72,0,0,1-3.52-4.31,32.63,32.63,0,0,1-4.57-10.17,34.3,34.3,0,0,1-.76-4,34.3,34.3,0,0,1-.76,4,32.61,32.61,0,0,1-4.56,10.17,30.78,30.78,0,0,1-3.52,4.3A30.24,30.24,0,0,1,40,53.35,32.6,32.6,0,0,1,29.85,58,33.32,33.32,0,0,1,18.6,59.12,30.79,30.79,0,0,0,30.08,59a30,30,0,0,0,10.74-4.4,27.49,27.49,0,0,0,4.57-3.68,29.14,29.14,0,0,0,3.79-4.5A32.46,32.46,0,0,0,53,38.87a33.12,33.12,0,0,0,3.85,7.57,30.13,30.13,0,0,0,3.79,4.49,27.3,27.3,0,0,0,4.57,3.68,28.39,28.39,0,0,0,5.17,2.73l1.37.52c.45.17.92.3,1.39.45s.93.27,1.4.38.94.25,1.42.32a30.58,30.58,0,0,0,11.48.11c-.41,0-1,.07-1.71.08A33.45,33.45,0,0,1,76.21,58Z"/><path class="cls-1" d="M79.33,76.16c-.47-.1-1.35-.31-2.46-.63a37.9,37.9,0,0,1-5.7-2,29.46,29.46,0,0,1-3-1.58,30.84,30.84,0,0,1-4.86-3.56c-.36-.32-.86-.78-1.43-1.36a30.83,30.83,0,0,1-2.62-3c-.68-.9-1.15-1.61-1.29-1.83s-.6-.94-1.15-2a35.76,35.76,0,0,1-2-4.38c-.31-.8-.53-1.45-.66-1.83-.35-1.06-.6-1.94-.77-2.57s-.26-1-.35-1.39c-.08.36-.2.84-.34,1.39s-.4,1.45-.84,2.77c-.58,1.7-1.11,2.95-1.27,3.31-.48,1.13-.88,1.91-1,2.17-.32.62-.58,1.07-.64,1.19-.56,1-1.06,1.71-1.3,2.06-.1.14-.5.73-1.1,1.47A29.76,29.76,0,0,1,44.23,67c-.61.62-1.13,1.1-1.45,1.39a33.39,33.39,0,0,1-3.19,2.49c-.72.49-1.31.84-1.6,1s-1,.6-2.1,1.14c-.3.14-1,.46-1.79.82s-1.31.52-1.47.58l-.43.15c-.25.09-.88.31-1.59.53s-1.51.44-2.18.62c-.51.13-1,.27-1.7.42-1.45.33-2.63.52-3.3.62-.36,0-1.23.17-2.36.28-.95.08-1.75.12-2.3.14-1.17,0-2.05,0-2.32,0-.73,0-1.36,0-1.87-.08a41.09,41.09,0,0,0,12.32-.06A36.43,36.43,0,0,0,38.72,73.2a31.06,31.06,0,0,0,9.59-8.08A32.33,32.33,0,0,0,53,56.67a32.92,32.92,0,0,0,4.72,8.45,31.21,31.21,0,0,0,9.6,8.08,36.36,36.36,0,0,0,11.82,3.88,42,42,0,0,0,12.32.06c-.92,0-1.72.07-2.34.07s-1.26,0-2.17,0c-.16,0-.88,0-1.87-.12-1.61-.14-2.84-.34-3.25-.41S80.6,76.45,79.33,76.16Z"/><path class="cls-1" d="M74.22,38.43a36,36,0,0,1-6.48-3.27,34.73,34.73,0,0,1-4.11-3.1,34.2,34.2,0,0,1-9.76-14.79c-.19-.53-.37-1.1-.53-1.7-.11-.39-.21-.77-.31-1.14h0q-.14.56-.3,1.14c-.17.6-.35,1.17-.53,1.7a34.27,34.27,0,0,1-4.55,9,34.09,34.09,0,0,1-5.22,5.81,34.38,34.38,0,0,1-4.1,3.1,36.32,36.32,0,0,1-6.48,3.27,36.69,36.69,0,0,1-10,2.29,33.13,33.13,0,0,0,10.3-1.39,37.88,37.88,0,0,0,4.9-1.9c.78-.41,1.58-.79,2.32-1.26l1.13-.69,1.09-.75.54-.38.53-.41,1-.82c.67-.57,1.33-1.16,1.95-1.79a34,34,0,0,0,3.47-4,34.39,34.39,0,0,0,3.91-7h0a34.91,34.91,0,0,0,3.92,7,34,34,0,0,0,3.47,4c.62.63,1.28,1.22,1.95,1.79l1,.82.52.41.55.38,1.09.75,1.13.69c.74.47,1.54.85,2.32,1.26a37.32,37.32,0,0,0,4.9,1.9,33.13,33.13,0,0,0,10.3,1.39A36.69,36.69,0,0,1,74.22,38.43Z"/></svg>