<svg id="レイヤー_1" data-name="レイヤー 1" xmlns="http://www.w3.org/2000/svg" viewBox="0 0 81.37 201.66"><defs><style>.cls-1{fill:#231815;}</style></defs><path class="cls-1" d="M18.35,79.87c0-.06,0-.14.08-.14s.09.08.09.16.09.23.17.23a.35.35,0,0,0,.12,0c.05,0,.91-.55,1-.62.46-.29.52-.32.52-.38s-.08-.15-.21-.26-.29-.24-.49-.24h-.75c-.37,0-.37.29-.37.45s0,.11-.09.11-.08-.08-.08-.13V77.76c0-.06,0-.14.08-.14s.09.08.09.15.07.4.37.4h2.8c.36,0,.36-.29.36-.44s0-.11.09-.11.09.08.09.13V79c0,.06,0,.14-.09.14s-.09-.08-.09-.15-.05-.41-.36-.41H20.32s-.1,0-.1.07,0,0,0,.06l1.11,1c.38.34.42.39.52.39s.17-.21.17-.37a.09.09,0,0,1,.09-.1c.09,0,.09.08.09.14V81.1c0,.06,0,.14-.09.14s-.09-.07-.09-.17a1,1,0,0,0-.19-.62c-.09-.12-.73-.7-1-.92a.26.26,0,0,0-.17-.09.48.48,0,0,0-.19.08l-1.76,1.12a.74.74,0,0,0-.25.58c0,.1-.07.1-.09.1s-.08-.08-.08-.12Z"/><path class="cls-1" d="M18.35,82.49c0-.07,0-.15.08-.15s.09,0,.09.25,0,.41.28.47h3c.27-.06.27-.25.27-.6,0,0,0-.12.09-.12s.09.08.09.16v1.56c0,.07,0,.15-.09.15s-.08,0-.08-.25,0-.39-.24-.45-1.28,0-1.52,0a11.11,11.11,0,0,0-1.5,0c-.28,0-.28.24-.28.6,0,0,0,.11-.09.11s-.08-.08-.08-.15Z"/><path class="cls-1" d="M22.23,87c0,.25,0,1.47-.92,1.47a1,1,0,0,1-.93-.71c-.09-.19-.1-.21-.16-.21a8.85,8.85,0,0,0-1.27.56.64.64,0,0,0-.43.62c0,.06,0,.16-.09.16s-.08-.1-.08-.13v-.66a.26.26,0,0,1,.15-.25c.06,0,.88-.41,1-.47.64-.3.72-.33.72-.52v-.29s0-.11-.06-.12a8,8,0,0,0-.88,0c-.64,0-.78,0-.78.49,0,0,0,.12-.09.12s-.08-.1-.08-.16V85.6c0-.06,0-.14.08-.14s.09.08.09.15c0,.37.17.42.37.44h1.89a9.22,9.22,0,0,0,1.08,0c.19-.07.19-.3.19-.42s0-.15.1-.15.08.1.08.16Zm-.18-.19c0-.39-.23-.39-.78-.39-.84,0-.86,0-.86.15V87a.86.86,0,0,0,.85,1c.37,0,.79-.2.79-.89Z"/><path class="cls-1" d="M18.35,90.05c0-.07,0-.15.08-.15s.09,0,.09.25,0,.41.28.47h3c.27-.06.27-.25.27-.6,0,0,0-.12.09-.12s.09.08.09.16v1.56c0,.07,0,.15-.09.15s-.08,0-.08-.25,0-.39-.24-.46-1.28,0-1.52,0a11.11,11.11,0,0,0-1.5,0c-.28,0-.28.24-.28.59,0,0,0,.12-.09.12s-.08-.08-.08-.15Z"/><path class="cls-1" d="M18.35,95.13s0-.13.08-.13.09.08.09.16.09.22.17.22l.12,0c.05,0,.91-.56,1-.62.46-.29.52-.32.52-.38s-.08-.15-.21-.26-.29-.24-.49-.24h-.75c-.37,0-.37.29-.37.45s0,.11-.09.11-.08-.08-.08-.13V93c0-.06,0-.14.08-.14s.09.08.09.15.07.4.37.4h2.8c.36,0,.36-.29.36-.45a.09.09,0,0,1,.09-.1c.09,0,.09.08.09.13v1.26c0,.06,0,.14-.09.14s-.09-.08-.09-.15-.05-.41-.36-.41H20.32s-.1,0-.1.07a.09.09,0,0,0,0,0l1.11,1c.38.34.42.38.52.38s.17-.2.17-.36a.09.09,0,0,1,.09-.1c.09,0,.09.08.09.13v1.32c0,.06,0,.14-.09.14s-.09-.07-.09-.17a1.05,1.05,0,0,0-.19-.63c-.09-.11-.73-.69-1-.91a.26.26,0,0,0-.17-.09.48.48,0,0,0-.19.08l-1.76,1.12a.74.74,0,0,0-.25.58c0,.1-.07.1-.09.1s-.08-.08-.08-.12Z"/><path class="cls-1" d="M18.35,97.79c0-.07,0-.15.08-.15s.09,0,.09.25,0,.41.28.46c.09,0,1.31,0,1.47,0s1.42,0,1.51,0c.27,0,.27-.24.27-.59,0,0,0-.12.09-.12s.09.08.09.16v1.56c0,.06,0,.14-.09.14s-.08,0-.08-.24,0-.39-.24-.46-1.28,0-1.52,0a11.11,11.11,0,0,0-1.5,0c-.28,0-.28.24-.28.59,0,0,0,.11-.09.11s-.08-.08-.08-.14Z"/><path class="cls-1" d="M22.23,102.34c0,.25,0,1.46-.92,1.46a1,1,0,0,1-.93-.7c-.09-.19-.1-.21-.16-.21a10,10,0,0,0-1.27.55.67.67,0,0,0-.43.63c0,.05,0,.16-.09.16s-.08-.11-.08-.13v-.67a.26.26,0,0,1,.15-.25l1-.47c.64-.29.72-.33.72-.51v-.3a.16.16,0,0,0-.06-.12c-.05,0-.76,0-.88,0-.64,0-.78,0-.78.49,0,0,0,.11-.09.11s-.08-.09-.08-.15v-1.32s0-.13.08-.13.09.07.09.15c0,.37.17.42.37.44h1.89a7.39,7.39,0,0,0,1.08,0c.19-.07.19-.29.19-.42s0-.14.1-.14.08.09.08.16Zm-.18-.2c0-.38-.23-.38-.78-.38-.84,0-.86,0-.86.14v.44a.86.86,0,0,0,.85,1c.37,0,.79-.2.79-.9Z"/><path class="cls-1" d="M18.35,105.53c0-.07,0-.15.08-.15s.09.05.09.25,0,.41.28.47h3c.27-.06.27-.25.27-.6,0,0,0-.12.09-.12s.09.08.09.16v1.56c0,.07,0,.15-.09.15s-.08,0-.08-.25,0-.39-.24-.45-1.28,0-1.52,0a11.11,11.11,0,0,0-1.5,0c-.28,0-.28.24-.28.6,0,0,0,.11-.09.11s-.08-.08-.08-.15Z"/><path class="cls-1" d="M20.2,108.87c0-.1,0-.22.17-.22s.17.18.17.22v.8c0,.21-.14.21-.17.21s-.17-.15-.17-.21Z"/><path class="cls-1" d="M18.35,113.54c0-.05,0-.13.08-.13s.09.08.09.16.09.22.17.22l.12,0c.05,0,.91-.56,1-.62.46-.29.52-.32.52-.38s-.08-.15-.21-.26-.29-.24-.49-.24h-.75c-.37,0-.37.29-.37.45s0,.11-.09.11-.08-.08-.08-.13v-1.26c0-.06,0-.14.08-.14s.09.08.09.15.07.4.37.4h2.8c.36,0,.36-.29.36-.45a.09.09,0,0,1,.09-.1c.09,0,.09.08.09.13v1.26c0,.06,0,.14-.09.14s-.09-.08-.09-.15-.05-.41-.36-.41H20.32s-.1,0-.1.07a.09.09,0,0,0,0,0l1.11,1c.38.34.42.38.52.38s.17-.2.17-.36a.09.09,0,0,1,.09-.1c.09,0,.09.08.09.13v1.32c0,.06,0,.14-.09.14s-.09-.07-.09-.17a1.05,1.05,0,0,0-.19-.63c-.09-.11-.73-.69-1-.91a.26.26,0,0,0-.17-.09.48.48,0,0,0-.19.08l-1.76,1.12a.74.74,0,0,0-.25.58c0,.1-.07.1-.09.1s-.08-.08-.08-.12Z"/><path class="cls-1" d="M18.25,117.49a1.82,1.82,0,0,1,2-1.74,1.76,1.76,0,1,1,0,3.47A1.81,1.81,0,0,1,18.25,117.49Zm2.09,1.23c.48,0,1.82-.14,1.82-1.23s-1.57-1.24-1.92-1.24c-.51,0-1.82.16-1.82,1.24S20,118.72,20.34,118.72Z"/><path class="cls-1" d="M18.35,122.4c0-.06,0-.14.08-.14s.09.08.09.16.09.23.17.23a.35.35,0,0,0,.12,0c.05,0,.91-.55,1-.62.46-.29.52-.32.52-.38s-.08-.15-.21-.26-.29-.24-.49-.24h-.75c-.37,0-.37.29-.37.45s0,.11-.09.11-.08-.08-.08-.13v-1.26c0-.06,0-.14.08-.14s.09.08.09.15.07.4.37.4h2.8c.36,0,.36-.29.36-.44s0-.11.09-.11.09.08.09.13v1.26c0,.06,0,.14-.09.14s-.09-.08-.09-.15-.05-.41-.36-.41H20.32s-.1,0-.1.07,0,0,0,.06l1.11,1c.38.34.42.39.52.39s.17-.21.17-.37a.09.09,0,0,1,.09-.1c.09,0,.09.08.09.14v1.31c0,.06,0,.14-.09.14s-.09-.07-.09-.17a1,1,0,0,0-.19-.62c-.09-.12-.73-.7-1-.92a.26.26,0,0,0-.17-.09.48.48,0,0,0-.19.08l-1.76,1.12a.74.74,0,0,0-.25.58c0,.1-.07.1-.09.1s-.08-.08-.08-.12Z"/><path class="cls-1" d="M22.23,128.05c0,.07,0,.15-.09.15s-.09-.08-.09-.17c0-.38-.3-.4-.46-.41H19.7a1.44,1.44,0,0,1-1.12-.34,1.26,1.26,0,0,1-.33-.9A1.24,1.24,0,0,1,19.42,125c.3,0,1.75,0,2.08,0s.55,0,.55-.49c0,0,0-.12.09-.12s.09.08.09.16v1.31c0,.06,0,.14-.09.14s-.09-.07-.09-.17a.35.35,0,0,0-.23-.39c-.08,0-1.1,0-1.28,0-1.17,0-1.26,0-1.51.09a1,1,0,0,0-.16,1.75c.26.18.49.18,1.72.18s1.2,0,1.3-.08a.39.39,0,0,0,.16-.38.09.09,0,0,1,.09-.1c.09,0,.09.08.09.13Z"/><path class="cls-1" d="M61,79.35c-.09,0-.16,0-.18.12v.87c0,.11,0,.14.06.14s.53-.2.57-.2,0,0,0,0a3,3,0,0,1-.44.32c-.21.13-.21.19-.21.39s0,1.09,0,1.27,0,.64,0,.69a.3.3,0,0,1-.29.2c-.1,0-.14,0-.14-.14,0-.31,0-1.65,0-1.92,0,0,0-.08,0-.08a2.71,2.71,0,0,0-.54.33c0,.08,0,.1-.08.1s-.34-.45-.34-.48,0,0,.12-.06a2.43,2.43,0,0,0,.85-.31.18.18,0,0,0,0-.15v-.94c0-.07,0-.17-.16-.17h-.37c-.13,0-.14,0-.23.2a1.3,1.3,0,0,1-.28.46s0,0,0,0,.13-.55.15-.65a4.79,4.79,0,0,0,.1-.9s0-.13,0-.15,0-.06,0-.06.45.1.45.2a1.67,1.67,0,0,1-.12.23s-.14.42-.14.47,0,.06.09.06h.31c.11,0,.17,0,.17-.15s0-.61,0-.84c0-.06,0-.32,0-.38s0,0,0,0,.53.1.53.21,0,0-.09.14,0,.08-.05.36c0,.08,0,.5,0,.58s0,.12.08.12A.26.26,0,0,0,61,79.1c.13-.19.14-.21.19-.21s.39.28.39.37-.1.09-.32.09Zm2.24-.51c-.17,0-.17.1-.17.23,0,.75,0,.76.16.76h.5a.87.87,0,0,0,.29,0c.06,0,.2-.3.26-.3s.48.32.48.4,0,.07-.32.07H61.57l-.24,0s0,0-.07,0l-.1-.13s0,0,0,0h0l.26,0,.81,0h.25c.14,0,.16-.08.16-.2s0-.62,0-.68-.13-.11-.17-.11H62l-.35,0s0,0-.07-.06l-.1-.12s0,0,0,0a0,0,0,0,1,0,0l.24,0,.73,0c.11,0,.22,0,.22-.18s0-.33,0-.42,0-.24,0-.27,0-.06.05-.06l.47.13s.06,0,.06.06-.12.14-.13.17a2.3,2.3,0,0,0,0,.38c0,.09,0,.19.17.19h.26a.77.77,0,0,0,.29,0s.16-.27.21-.27.42.27.42.36-.11.09-.31.09Zm.52,2.2c-.15,0-.17.06-.17.44,0,.18,0,1,0,1.13,0,.54-.41.54-.48.54s-.12,0-.15-.15-.13-.19-.26-.24-.17-.07-.17-.1,0,0,.07,0h.37c.12,0,.24,0,.24-.27s0-1.07,0-1.1,0-.24-.16-.24H61.69l-.25,0s0,0-.06,0l-.12-.13a.08.08,0,0,1,0,0s0,0,0,0h.27l.81,0H63c.17,0,.17-.11.17-.19s0-.43,0-.5,0,0,.06,0l.39.06c.06,0,.11,0,.11.09s-.09.13-.11.15a1.23,1.23,0,0,0,0,.27c0,.17.11.17.22.17s.15,0,.21-.13.1-.16.16-.16.43.28.43.36-.12.08-.31.08Zm-1.92.4c.08,0,.61.13.61.54,0,.21-.1.33-.23.33s-.11,0-.21-.36a1.84,1.84,0,0,0-.2-.44s0,0,0-.05S61.77,81.44,61.79,81.44Z"/><path class="cls-1" d="M61.11,87.07c-.52,0-.69,0-.74,0h-.13s0,0-.05,0l-.11-.14s0,0,0,0,0,0,0,0l.26,0,.81,0h1.6c.26,0,.32,0,.38-.1s.16-.24.22-.24.5.3.5.41-.1.08-.32.08H62.38c-.16,0-.16.06-.16.55s0,.51.16.51h.41c.26,0,.31,0,.37-.1s.13-.19.18-.19.43.3.43.38,0,.06-.09.07H62.4c-.18,0-.18,0-.18.39,0,.2,0,.87,0,.9s.07,0,.14,0a5.85,5.85,0,0,0,.65,0,7.15,7.15,0,0,0,1.58-.19l.19-.06s0,0,0,0-.36.29-.42.36a2.34,2.34,0,0,0-.09.24c0,.08-.28.08-.36.08-2.37,0-2.66-.33-3-.78a1.52,1.52,0,0,1-.26-.43s0-.05,0-.05,0,0-.09.1c-.55.89-1.06,1-1.1,1s0,0,0,0l.1-.1a3.8,3.8,0,0,0,1-2.09c0-.26,0-.29.06-.29s.51.14.51.22-.12.13-.13.16-.14.49-.17.58-.1.3-.1.31c0,.3.76.82,1.08.82.08,0,.08-.09.08-.13,0-.33,0-1.81,0-2.12,0-.14,0-.23-.18-.23ZM60.22,86c-.07,0-.11,0-.14.11-.12.35-.3.49-.44.49s-.2,0-.2-.16,0-.12.17-.27a1.55,1.55,0,0,0,.3-.53c0-.07,0-.1.06-.1s.09.1.12.21.06.1.14.1h1.41c.14,0,.16-.08.16-.18s0-.36,0-.45,0-.27,0-.32,0,0,0,0l.6.14s0,0,0,.06-.14.13-.16.17a1.54,1.54,0,0,0,0,.38c0,.21.05.23.19.23h1.16c.16,0,.18,0,.26-.07s.14-.13.21-.13.54.31.54.47-.13.11-.17.11H64.1a.68.68,0,0,0-.33.08,1,1,0,0,1-.17.09s0,0,0,0,.14-.27.14-.33,0,0-.12,0Z"/><path class="cls-1" d="M61,93.22c.16,0,.18-.07.18-.18s0-.49,0-.67a2.21,2.21,0,0,1,0-.25,0,0,0,0,1,0-.05s.53.08.53.18-.07.11-.07.13,0,1.7,0,2,0,.7,0,.84,0,.09.06.09.42-.1.44-.1,0,0,0,0-.35.19-.43.22-.14.07-.22.35a2.23,2.23,0,0,1-1.57,1.56s0,0,0,0a.07.07,0,0,1,.06-.07,2.67,2.67,0,0,0,.62-.48,2.13,2.13,0,0,0,.56-1c0-.06,0-.07-.05-.07s-1.27.46-1.28.46-.1.13-.13.13-.29-.52-.29-.55,0,0,.22,0a7.16,7.16,0,0,0,1.55-.29,1.85,1.85,0,0,0,.08-.63c0-.14,0-.18-.17-.18h-.43c-.14,0-.54,0-.74,0h-.13s0,0,0,0l-.12-.14s0,0,0,0,0,0,0,0l.25,0,.82,0H61c.14,0,.19,0,.19-.15v-.65c0-.11,0-.21-.19-.21h-.44c-.14,0-.54,0-.75,0h-.12a.05.05,0,0,1-.05,0l-.12-.13s0,0,0,0h0l.26,0,.81,0Zm2,1.32c-.12,0-.19,0-.19.17s0,.73,0,.77.12.1.18.1h.66a1,1,0,0,0,.29,0c.06,0,.25-.28.31-.28s.45.3.45.38-.13.08-.32.08H63c-.17,0-.18.07-.18.25s0,.88,0,1,0,.3-.31.3-.17-.13-.17-.22,0-.48,0-.57c0-.87,0-2.28,0-3.14,0-.43,0-.73,0-1,0,0,0-.22,0-.26s0-.07.06-.07a3.65,3.65,0,0,1,.46.1s.09,0,.09.1-.1.12-.11.15,0,.1,0,.61c0,.09,0,.19.18.19h.58a1,1,0,0,0,.29,0s.24-.28.31-.28.44.3.44.38-.13.08-.32.08H63c-.07,0-.18,0-.19.13s0,.48,0,.6,0,.28.17.28h.34a1,1,0,0,0,.29,0s.24-.29.31-.29a1,1,0,0,1,.44.39c0,.07-.13.07-.32.07Z"/><path class="cls-1" d="M62.26,100.43c.26,0,.31,0,.57-.46a4.94,4.94,0,0,0,.35-.78c0-.11,0-.12,0-.12s.56.33.56.43-.05.06-.19.09-.15,0-.52.4a2.24,2.24,0,0,0-.31.37c0,.07.05.07.14.07h.8c.19,0,.21,0,.26,0s.12-.13.15-.13.56.36.56.54a.13.13,0,0,1-.15.14l-.19,0c-.08,0-.18,0-.38.21s-.12.12-.15.12,0,0,0,0,.16-.47.16-.55,0-.09-.22-.09H60.24c-.22,0-.25,0-.28.16-.07.4-.25.58-.4.58a.22.22,0,0,1-.23-.23c0-.09,0-.12.21-.43a1.35,1.35,0,0,0,.18-.54s0-.08,0-.08.14.26.17.3.06.08.28.08Zm-1.13,2.42c.13,0,.22,0,.29-.14a1.26,1.26,0,0,0,.1-.44c0-.11,0-.11-.19-.11H61c-.12,0-.12,0-.17.13s-.22.12-.26.12-.17,0-.19-.13,0-.37,0-.45v-.62s0-.16,0-.19,0-.07,0-.07a2.81,2.81,0,0,1,.35.17.62.62,0,0,0,.21,0h1.84c.25,0,.28,0,.32,0s.18-.22.23-.22a.73.73,0,0,1,.34.39s0,.07-.1.11-.07.07-.07.34a3.23,3.23,0,0,1,0,.46.3.3,0,0,1-.28.17c-.09,0-.11,0-.13-.12s-.08-.07-.15-.07h-.66a.29.29,0,0,0-.25.1,2.27,2.27,0,0,0-.38.52c0,.07.08.07.16.07h1.48a1,1,0,0,0,.28,0s.17-.17.21-.17.36.19.36.3,0,.07-.1.14a.37.37,0,0,0,0,.15c0,.1,0,.57,0,.68s0,.22-.09.3a.39.39,0,0,1-.27.13c-.12,0-.12-.07-.14-.19s-.08-.08-.14-.08H60.57c-.11,0-.13,0-.15.13a.3.3,0,0,1-.3.21.16.16,0,0,1-.18-.19s0-.77,0-.92,0-.5,0-.59,0-.09,0-.09a1.85,1.85,0,0,1,.39.15.49.49,0,0,0,.27.06ZM60,99.26c.63,0,1.07.37,1.07.66a.27.27,0,0,1-.25.28c-.14,0-.2-.13-.25-.23a1.37,1.37,0,0,0-.51-.58c-.12-.07-.13-.08-.12-.11S60,99.26,60,99.26ZM60.6,103c-.07,0-.12,0-.16,0a4.72,4.72,0,0,0,0,.68c0,.1,0,.19.17.19h2.77c.16,0,.18-.07.18-.17s0-.64,0-.67-.13-.08-.17-.08ZM61,101.3c-.08,0-.19,0-.19.17,0,.53,0,.53.17.53H62.9c.17,0,.17,0,.17-.37s0-.33-.18-.33Zm1.35-1.45c0,.15-.08.24-.2.24s-.23-.17-.27-.27a1.62,1.62,0,0,0-.36-.61s-.09-.11-.09-.13,0,0,0,0C61.67,99.06,62.34,99.37,62.34,99.85Z"/><path class="cls-1" d="M60.42,108h-.74l-.12,0s0,0-.06,0l-.11-.14,0,0s0,0,0,0l.38,0c.43,0,.44,0,.78,0,.18,0,.18-.05.18-.36a5.34,5.34,0,0,0,0-.59c0-.07-.07-.07-.15-.07l-.79,0c-.11,0-.12,0-.12,0s0,0,.14-.06a5.42,5.42,0,0,0,1.46-.39c.21-.09.24-.1.28-.1s.56.23.56.32,0,.06-.36.09c-.63.07-.63.08-.63.3,0,.07,0,.74,0,.77s.12.09.16.09h.11c.13,0,.17,0,.24-.09s.18-.22.24-.22a1.54,1.54,0,0,1,.51.39c0,.08-.12.08-.31.08h-.8c-.17,0-.18,0-.18.45,0,.17.06.18.11.19.25,0,.87.21.87.65,0,.22-.13.29-.2.29s-.14,0-.29-.4a.77.77,0,0,0-.45-.46s0,0,0,.09c0,.23,0,1.9,0,2.12s0,.32,0,.35c0,.22-.27.29-.34.29s-.13-.08-.13-.17c0-.29,0-1.56,0-1.82v-.35c0-.05,0-.1-.07-.1s0,0-.1.09a6.48,6.48,0,0,1-1.13,1.06s-.08.06-.1.06a0,0,0,0,1,0,0s.37-.44.43-.51a7.36,7.36,0,0,0,1-1.72.07.07,0,0,0-.08-.08Zm2.68.42c0,1,0,1.15,0,1.41,0,0,0,.23,0,.26s-.09.29-.32.29-.15-.07-.15-.11,0-.14,0-.16c0-.19,0-.87,0-1.68,0-.27,0-1-.05-1.38a.94.94,0,0,1,0-.12s0,0,0,0,.62.1.62.21a.07.07,0,0,1,0,.06c-.12.11-.14.13-.15.22S63.1,107.83,63.1,108.37Zm1.16.12c0,.36,0,1.91,0,2.22s0,.55-.13.62a.9.9,0,0,1-.41.19c-.08,0-.1,0-.13-.13s-.44-.35-.5-.37-.06,0-.06,0,0,0,0,0,.39.06.46.06c.29,0,.29-.06.29-.51s0-3.43,0-3.84c0-.06,0-.38,0-.4a.06.06,0,0,1,.06-.06l.54.1s.09,0,.09.09,0,.07-.1.12a.3.3,0,0,0-.08.17C64.26,106.78,64.26,108.19,64.26,108.49Z"/><path class="cls-1" d="M59.46,114.7c.18,0,.72.19.72.54a.22.22,0,0,1-.2.23c-.06,0-.11,0-.17-.16a1.88,1.88,0,0,0-.45-.58S59.41,114.7,59.46,114.7Zm0,2.36a.38.38,0,0,0,.37-.23,10,10,0,0,0,.71-1.84s0-.17.08-.17,0,0,0,.06-.08.47-.09.51c-.05.26-.37,1.41-.37,1.64a3.46,3.46,0,0,0,.19.93,1.42,1.42,0,0,1,.06.3.26.26,0,0,1-.25.28c-.29,0-.3-.35-.3-.51,0-.56-.08-.72-.36-.85,0,0-.19-.05-.19-.08S59.44,117.06,59.48,117.06Zm.54-3.7c.07,0,.8.16.8.57a.23.23,0,0,1-.22.24c-.05,0-.11,0-.19-.15a2.45,2.45,0,0,0-.42-.56s0,0,0,0A.05.05,0,0,1,60,113.36Zm2.41,3c.18,0,.18-.11.18-.18s0-.81,0-.83-.06-.12-.17-.12H62a6.66,6.66,0,0,0-.75,0h-.13s0,0,0,0l-.11-.13s0,0,0,0l0,0,.26,0c.29,0,.53,0,.81,0h.37c.07,0,.19,0,.19-.16v-.67a.14.14,0,0,0-.15-.16l-.52.06-.59,0a.2.2,0,0,1-.14,0s.23-.07.28-.08a6.93,6.93,0,0,0,1.86-.56l.28-.17s.57.36.57.43,0,.07-.16.07-.68.1-.86.13-.18,0-.18.19,0,.81,0,.86a.17.17,0,0,0,.15.07h.47c.27,0,.3,0,.37-.1s.17-.22.22-.22a1.63,1.63,0,0,1,.47.39c0,.08-.12.08-.32.08h-1.2c-.09,0-.18,0-.18.18v.84a.16.16,0,0,0,.18.11h.37c.07,0,.11,0,.21-.11s.13-.13.15-.13.45.33.45.42,0,0-.1.13a.26.26,0,0,0-.08.22c0,.21,0,1.34,0,1.35a.3.3,0,0,1-.32.32c-.15,0-.17-.07-.19-.2a.15.15,0,0,0-.16-.1H62c-.15,0-.16,0-.2.16a.27.27,0,0,1-.3.19c-.1,0-.17,0-.17-.13s0-.35,0-.42c0-.23,0-1.12,0-1.29s0-.29,0-.39a.78.78,0,0,1,0-.14s0-.06,0-.06.05,0,.26.11a.6.6,0,0,0,.34.07Zm1.11,1.74c.1,0,.18,0,.18-.17s0-1.05,0-1.23,0-.19-.18-.19H62c-.1,0-.18,0-.18.17v1.22c0,.1,0,.2.18.2Z"/><path class="cls-1" d="M61.21,121.78c-.17,0-.17.11-.17.25,0,.3,0,.35.18.35h.41a.25.25,0,0,0,.19-.06s.09-.09.15-.09.4.2.4.27-.11.15-.12.17,0,.13,0,.31,0,.71,0,.82-.27.24-.29.24-.09,0-.11-.13-.06,0-.09,0h-.51c-.18,0-.18.1-.18.22,0,.3,0,.36.19.36h.16c.23,0,.25,0,.35-.1s.15-.15.19-.15.39.3.39.33,0,.08-.31.08h-.76c-.13,0-.2,0-.2.19s0,.26.07.26,1-.16,1.07-.16.05,0,.05,0-.24.11-.31.13c-.61.19-1.1.3-1.85.48a1.52,1.52,0,0,0-.36.12s-.11.09-.13.09-.28-.47-.28-.47,0,0,0,0a7.46,7.46,0,0,0,1-.1l.25,0s0-.06,0-.11v-.29c0-.1-.11-.1-.25-.1h-.77l-.12,0s0,0,0,0l-.12-.13s0,0,0,0h0l.25,0,.87,0c.2,0,.2,0,.2-.37,0-.11,0-.21-.17-.21h-.42c-.1,0-.12,0-.12.1a.23.23,0,0,1-.23.18c-.17,0-.17-.12-.17-.18v-1.28c0-.06,0-.35,0-.41s0,0,.05,0a1.71,1.71,0,0,1,.3.1.47.47,0,0,0,.25,0h.37c.18,0,.18-.08.18-.29s0-.31-.18-.31h-.19c-.48,0-.67,0-.69,0h-.13s0,0,0,0l-.11-.14s0,0,0,0h.28c.06,0,.48,0,.75,0h.16c.18,0,.18-.09.18-.24,0-.36,0-.4-.07-.4l-.17,0c-.15,0-.58.06-.7.06s-.08,0-.08,0,0,0,.16-.07a5.94,5.94,0,0,0,1.6-.55c.1-.06.11-.06.14-.06a1.43,1.43,0,0,1,.45.35s0,0-.13.05l-.74.14c-.1,0-.1.06-.1.14a3.64,3.64,0,0,0,0,.53c0,.05.07.06.12.06.33,0,.37,0,.45-.1s.16-.2.24-.2a1.15,1.15,0,0,1,.43.38c0,.07,0,.07-.32.07Zm-.7,1.27c.19,0,.19-.09.19-.28s0-.24-.19-.24h-.36c-.18,0-.18.09-.18.29s0,.23.18.23Zm0,.65c.19,0,.19-.07.19-.25s0-.24-.19-.24h-.35c-.18,0-.18.08-.18.21s0,.28.18.28Zm.71-1.17c-.18,0-.18.1-.18.27s0,.25.18.25h.44c.18,0,.18-.09.18-.26s0-.26-.18-.26Zm0,.68c-.18,0-.18.09-.18.24s0,.25.18.25h.43c.18,0,.18-.09.18-.24s0-.25-.18-.25Zm2.28-1.46c-.16,0-.17.07-.18.3,0,2-.24,2.62-.93,3.27a1.82,1.82,0,0,1-.63.44s0,0,0,0,.13-.14.16-.16c.79-.8,1-1.47,1-3.69,0-.09,0-.13-.11-.13l-.31,0a.05.05,0,0,1-.05,0l-.12-.14s0,0,0,0h0l.49,0c.07,0,.1,0,.1-.1,0-.38,0-.62,0-.77s0-.25,0-.3,0-.08,0-.08.58.1.58.17-.1.1-.11.11a4,4,0,0,0,0,.71c0,.25,0,.27.16.27h.2a.23.23,0,0,0,.2-.08c.12-.13.14-.15.17-.15s.45.25.45.34,0,.06-.11.15a.21.21,0,0,0-.09.21,16.85,16.85,0,0,1-.12,3.12c-.15.52-.52.54-.59.54s-.12,0-.17-.2-.17-.21-.35-.3-.15-.07-.15-.1,0,0,0,0,.54.1.64.1.28-.45.31-.75,0-1.93,0-2.38c0-.26,0-.33-.18-.33Z"/><path class="cls-1" d="M59.29,129c.4,0,.83.26.83.59a.26.26,0,0,1-.23.27c-.09,0-.13-.07-.21-.24a1.58,1.58,0,0,0-.38-.51.27.27,0,0,1-.1-.08S59.26,129,59.29,129Zm.36,2.29a6,6,0,0,0,1-1.84c0-.12.15-.31.21-.44s0-.1.07-.1a0,0,0,0,1,0,0c0,.05-.58,1.61-.65,1.8a1.52,1.52,0,0,0-.19.67,1.82,1.82,0,0,0,.19.77.87.87,0,0,1,0,.23.28.28,0,0,1-.26.28c-.21,0-.28-.21-.28-.4a1,1,0,0,0-.22-.79s-.18-.11-.18-.14S59.62,131.34,59.65,131.32Zm0-3.61s0,0,.05,0a2.48,2.48,0,0,1,.48.09.57.57,0,0,1,.39.48c0,.13-.07.27-.2.27s-.13-.05-.21-.2a1.93,1.93,0,0,0-.49-.59S59.69,127.72,59.69,127.71Zm2.08,2.64H60.9s0,0,0,0l-.12-.14,0,0h0l.26,0,.81,0h.44c.1,0,.17,0,.18-.12s0-.81,0-.94,0-.18-.17-.18H62.1c-.13,0-.53,0-.74,0h-.13s0,0,0,0l-.12-.13,0,0s0,0,0,0l.26,0,.81,0h.13c.06,0,.18,0,.18-.18s0-.55,0-.74,0-.28,0-.29,0,0,0,0,.58.09.58.19-.1.13-.11.16a.59.59,0,0,0,0,.2c0,.09,0,.53,0,.53,0,.17.12.17.18.17h.33c.25,0,.28,0,.33-.05s.18-.26.23-.26a1.53,1.53,0,0,1,.46.38c0,.08-.12.08-.32.08H63c-.06,0-.19,0-.19.16s0,.93,0,1,.09.11.19.11h.55c.25,0,.28,0,.33-.05s.19-.26.25-.26.45.31.45.38-.12.09-.32.09H62.61s0,0,0,0,.23.26.23.32,0,.06-.16.08-.08,0-.23.28a7.17,7.17,0,0,1-.62.83c-.08.1-.09.1-.09.12s0,0,0,0l1.87-.1c.15,0,.2,0,.2-.09s-.33-.79-.34-.86h0a2.32,2.32,0,0,1,1,1.43.3.3,0,0,1-.29.34c-.12,0-.13,0-.23-.5,0-.15-.07-.24-.19-.24s-.81.16-1,.18-1.28.19-1.48.24a1.6,1.6,0,0,0-.3.11.91.91,0,0,1-.13.08c-.09,0-.26-.6-.26-.62s0,0,0,0l.28,0a2.82,2.82,0,0,0,.4,0c.14,0,.17-.05.41-.5a6.65,6.65,0,0,0,.48-1.07c0-.1-.1-.1-.17-.1Z"/><path class="cls-1" d="M62.09,135.16a6.4,6.4,0,0,0,.86,2.71,3.44,3.44,0,0,0,1.68,1.48s.06,0,.06,0,0,0-.21.07a1.14,1.14,0,0,0-.41.18l-.14.1A3.75,3.75,0,0,1,62.58,138a6.28,6.28,0,0,1-.57-2.29c0-.07,0-.07,0-.07s0,0-.06.23a6.77,6.77,0,0,1-.76,2.53,3.2,3.2,0,0,1-1.72,1.41s0,0,0,0,0,0,.07-.07a4.39,4.39,0,0,0,1.41-1.52,7.45,7.45,0,0,0,.67-3,1.89,1.89,0,0,0,0-.36.53.53,0,0,1,0-.12.05.05,0,0,1,.05-.05s.29.09.34.1c.29.08.41.11.41.22s-.05.08-.1.09-.08,0-.1,0A.12.12,0,0,0,62.09,135.16Z"/><path class="cls-1" d="M35.24,140.44c-.66,0-.66-.35-.66-.55s.09-1.19.11-1.38v-2.19a28.36,28.36,0,0,0-.13-3.38,3.91,3.91,0,0,1-.1-.47c0-.05.07-.07.11-.07a4.77,4.77,0,0,1,1,.43l.09,0a5.15,5.15,0,0,0,1.8.29h6.43c.79,0,.9-.08,1.11-.26.57-.43.71-.47.74-.47a3.89,3.89,0,0,1,1.41,1.18c0,.1,0,.11-.44.48a6,6,0,0,0-.12,1.66l.08,1.72c0,.86.09,1.68.09,1.88,0,.83-.94.85-.95.85-.22,0-.72-.06-.72-.6,0-.28,0-.72-.66-.72H37.06c-.2,0-.74,0-.74.6C36.32,139.84,36.32,140.44,35.24,140.44Zm1.61-6.83c-.7,0-.7.11-.7,2,0,1.57,0,2.4.05,2.46a.58.58,0,0,0,.63.37h7.64c.68,0,.68-.12.68-2,0-.88,0-2.36,0-2.46a.58.58,0,0,0-.63-.35Zm-3.34-3c-.06,0-.08,0-.15-.1L33,130l-.06-.08,0,0h0l.49,0,.43,0c1,.06,1.81.08,2.86.08h2.65c.23,0,.64,0,.64-.64v-2.5c0-.44-.21-.64-.68-.64H35c-1.66,0-2.35,0-2.64.06h0l-.22,0-.21,0s-.06,0-.11-.07l0,0-.39-.48c-.08-.09-.08-.09-.08-.11l.5,0,.43,0,.37,0c.88,0,1.63.06,2.49.06h4.2c.23,0,.7,0,.7-.61a20.9,20.9,0,0,0-.15-2.44,4,4,0,0,0-.12-.41c0-.15-.1-.34-.11-.37s.13-.07.14-.07,1.8.31,2,.35.53.12.53.35c0,.08-.22.32-.38.49a1.48,1.48,0,0,0-.31.41c-.05.14-.09,1.48-.09,1.69,0,.61.49.61.7.61h3.93c.94,0,1.07,0,1.37-.37l.07-.08c.52-.62.58-.67.73-.67A7.13,7.13,0,0,1,50.14,126c0,.23-.35.24-1.08.24h-7c-.21,0-.7,0-.7.62,0,.2,0,.77,0,1.32s0,1,0,1.2c0,.64.47.64.7.64h3.21a2.67,2.67,0,0,0,.68,0c.14-.05.34-.29.63-.64a3.06,3.06,0,0,1,.39-.45c.18,0,1.76,1.06,1.76,1.35s-.2.22-.68.22H36.58c-1.66,0-2.35,0-2.64.06h0l-.22,0Z"/><path class="cls-1" d="M31.47,116.25s-.07,0-.15-.11l-.41-.49c-.07-.09-.07-.09-.07-.12l.51,0,.45,0c1,.06,1.87.08,3,.08h4.41c.18,0,.58,0,.7-.33.05-.17.09-2.18.09-2.41,0-.9,0-1.28-.68-1.28H37.15c-1.43,0-2.14,0-2.48,0h-.23a2.76,2.76,0,0,1-.45.07c-.05,0-.08,0-.14-.12l-.44-.51,0-.05,0,0h0c.19,0,.8.06,1,.08,1.1.05,2,.07,2.95.07h2a.55.55,0,0,0,.61-.34,19.42,19.42,0,0,0,.09-2.81c0-.55-.49-.55-.72-.55H36.38c-.23,0-.54,0-.63.29-.15.46-.27.83-.81.83s-.72-.29-.72-.94c0-.33,0-1.25.05-2.13s0-1.67,0-2a42,42,0,0,0-.13-4.2c0-.06,0-.19-.1-.35a2.2,2.2,0,0,1-.13-.41c0-.06,0-.06,0-.06a6.89,6.89,0,0,1,1.13.56l.12.06a2.77,2.77,0,0,0,1.7.39h7.89a1.3,1.3,0,0,0,.85-.18,1.64,1.64,0,0,0,.19-.19,2.79,2.79,0,0,1,.38-.36c.16.05,1.52,1,1.52,1.28s-.13.27-.43.45-.28.3-.28,1.12c0,.45,0,1.69,0,2.89s.05,2.25.05,2.64a1.16,1.16,0,0,1-1.13,1.3c-.38,0-.4-.18-.44-.54s-.46-.49-.68-.49H42.1c-.72,0-.72,0-.72,1.88,0,1.35,0,1.49.17,1.65a.77.77,0,0,0,.59.17h3c.91,0,1,0,1.22-.17a3.55,3.55,0,0,0,.31-.38c.18-.24.5-.68.6-.68a5.73,5.73,0,0,1,1.64,1.45c0,.24-.35.25-1.08.25H42.14c-.76,0-.76.38-.76,1.13,0,2.3,0,2.54.21,2.73a.72.72,0,0,0,.53.16h4.67c.8,0,1,0,1.13-.18a2.67,2.67,0,0,0,.35-.42c.19-.24.5-.64.61-.64a4.8,4.8,0,0,1,1.68,1.45c0,.24-.36.25-1.1.25H34.66a24,24,0,0,0-2.75.06h0l-.22,0Zm10.65-12.39c-.74,0-.74.36-.74,1.43,0,1.54,0,1.74.74,1.74h2.8c.74,0,.74-.23.74-2,0-.79,0-1.18-.72-1.18Zm-5.74,0c-.7,0-.7.25-.7,1.18,0,1.52,0,1.67.14,1.82a.7.7,0,0,0,.56.17h2.88c.7,0,.7-.25.7-1.16,0-1.53,0-1.7-.14-1.84a.7.7,0,0,0-.56-.17ZM42.16,100c-.74,0-.74.3-.74,2,0,1.14,0,1.41.74,1.41H45c.74,0,.74-.22.74-1.92,0-1.13,0-1.44-.74-1.44Zm-5.78,0c-.68,0-.7.25-.7,1.54,0,1.61,0,1.82.7,1.82h2.86c.7,0,.7-.17.7-1.52,0-1.59,0-1.84-.7-1.84Z"/><path class="cls-1" d="M35.25,94.74c-.66,0-.66-.34-.66-.55s.08-1.18.1-1.37v-2.2a30.34,30.34,0,0,0-.12-3.36,3.6,3.6,0,0,1-.11-.48s.08-.07.12-.07a6,6,0,0,1,1,.43l.08,0a5.23,5.23,0,0,0,1.8.29h6.42c.79,0,.9-.08,1.12-.26.57-.43.71-.47.74-.47a4.09,4.09,0,0,1,1.41,1.18c0,.1,0,.11-.44.48a6,6,0,0,0-.13,1.65c0,.44.05,1.09.09,1.72,0,.87.08,1.69.08,1.89,0,.82-.94.84-1,.84-.21,0-.72-.05-.72-.59,0-.29,0-.72-.65-.72H37.06c-.2,0-.74,0-.74.59C36.32,94.15,36.32,94.74,35.25,94.74Zm1.6-6.82c-.7,0-.7.12-.7,2,0,1.57,0,2.4.05,2.46a.59.59,0,0,0,.63.36h7.64c.68,0,.68-.11.68-2,0-.88,0-2.36,0-2.46a.59.59,0,0,0-.63-.35Zm-3.33-3c-.06,0-.09,0-.15-.11l-.4-.48-.07-.08v0h0l.49,0,.43,0c1,.06,1.8.08,2.86.08h2.65c.22,0,.63,0,.63-.63v-2.5c0-.45-.21-.64-.68-.64H35c-1.66,0-2.34,0-2.63.06h0l-.22,0-.21,0c-.05,0-.06,0-.11-.06l0-.05-.4-.47c-.07-.09-.07-.09-.07-.12l.5,0,.43,0h.37c.87,0,1.63.07,2.49.07h4.19c.23,0,.7,0,.7-.61a20.76,20.76,0,0,0-.15-2.44,4,4,0,0,0-.12-.41c0-.15-.1-.34-.1-.37s.13-.07.13-.07,1.8.31,2,.35.52.12.52.35a1.65,1.65,0,0,1-.37.49,1.48,1.48,0,0,0-.31.41c-.05.14-.09,1.48-.09,1.69,0,.61.49.61.7.61h3.92c1,0,1.07,0,1.38-.37l.07-.08c.52-.62.57-.68.72-.68a7.23,7.23,0,0,1,1.91,1.33c0,.23-.35.24-1.07.24h-7c-.21,0-.7,0-.7.61,0,.21,0,.77,0,1.33s0,1,0,1.2c0,.63.47.63.7.63h3.21a2.1,2.1,0,0,0,.67,0,2.27,2.27,0,0,0,.63-.64,2.33,2.33,0,0,1,.4-.44c.17,0,1.75,1,1.75,1.34s-.19.22-.67.22H36.58c-1.66,0-2.35,0-2.63.07h0l-.22,0Z"/><path class="cls-1" d="M31.74,162.14s-.07,0-.15-.11l-.39-.48c-.08-.09-.08-.09-.08-.11l.5,0,.43,0c1,.06,1.82.08,2.89.08h4.28c.17,0,.56,0,.67-.32s.09-2.12.09-2.34c0-.88,0-1.24-.66-1.24H37.26c-1.4,0-2.09,0-2.42,0h-.22l-.44.06s-.07,0-.13-.11l-.43-.5,0-.05,0,0h0c.19,0,.78.06.93.08,1.08.05,1.93.07,2.87.07h2a.53.53,0,0,0,.59-.33,18.39,18.39,0,0,0,.09-2.73c0-.54-.47-.54-.7-.54H36.5c-.22,0-.52,0-.61.29-.14.45-.25.8-.79.8s-.7-.28-.7-.91c0-.32,0-1.21.06-2.07s0-1.62,0-1.9a39.63,39.63,0,0,0-.13-4.08,3.09,3.09,0,0,0-.1-.34,2.17,2.17,0,0,1-.13-.4c0-.05,0-.05.06-.05a8,8,0,0,1,1.09.53l.11.06a2.75,2.75,0,0,0,1.66.39h7.66a1.24,1.24,0,0,0,.83-.18,1.79,1.79,0,0,0,.18-.19,2.48,2.48,0,0,1,.37-.34c.16,0,1.47,1,1.47,1.24s-.12.26-.41.43-.27.29-.27,1.09c0,.44,0,1.65,0,2.81s0,2.19,0,2.56a1.13,1.13,0,0,1-1.1,1.27c-.36,0-.38-.18-.42-.53s-.45-.48-.66-.48H42.06c-.7,0-.7,0-.7,1.83,0,1.31,0,1.44.16,1.61a.79.79,0,0,0,.58.16H45c.89,0,1,0,1.19-.16s.17-.21.3-.38.49-.65.58-.65a5.44,5.44,0,0,1,1.6,1.41c0,.23-.34.24-1.06.24H42.1c-.74,0-.74.36-.74,1.09,0,2.24,0,2.47.21,2.65a.67.67,0,0,0,.51.16h4.53c.78,0,.94,0,1.1-.18a2,2,0,0,0,.34-.4c.18-.23.49-.63.59-.63a4.75,4.75,0,0,1,1.64,1.41c0,.23-.35.24-1.08.24H34.83a25.56,25.56,0,0,0-2.66.06h0l-.22,0Zm10.34-12c-.72,0-.72.35-.72,1.39,0,1.49,0,1.68.72,1.68H44.8c.72,0,.72-.22.72-1.93,0-.76,0-1.14-.7-1.14Zm-5.58,0c-.68,0-.68.24-.68,1.14,0,1.48,0,1.63.14,1.77a.69.69,0,0,0,.54.16h2.8c.68,0,.68-.23.68-1.11,0-1.5,0-1.65-.14-1.8a.67.67,0,0,0-.54-.16Zm5.62-3.72c-.72,0-.72.29-.72,1.9,0,1.1,0,1.36.72,1.36h2.72c.72,0,.72-.21.72-1.87,0-1.09,0-1.39-.72-1.39Zm-5.62,0c-.66,0-.68.24-.68,1.5,0,1.56,0,1.76.68,1.76h2.78c.68,0,.68-.16.68-1.47,0-1.55,0-1.79-.68-1.79Z"/><path class="cls-1" d="M32.71,186.35c-.48,0-.52-.45-.52-.91s0-2.07,0-3.64.05-3.33.05-3.94c0-1,0-6.42-.06-7.58l0-.41c0-.65-.12-1.74-.12-2s0-.18.11-.18.23.05,1,.45a1.94,1.94,0,0,0,1.17.3H46.42a.75.75,0,0,0,.71-.31c.51-.55.55-.57.69-.57s1.51,1.08,1.51,1.41c0,.11,0,.12-.32.36l-.07.06c-.2.14-.21,1.16-.21,1.17s.13,10.88.15,11.49c0,.22,0,1,0,1.73,0,.53,0,1,0,1.1,0,.44,0,1.45-1.16,1.45-.53,0-.55-.28-.59-.76s-.28-.36-.66-.36H34.4c-.55,0-.57,0-.66.52S33,186.35,32.71,186.35Zm1.73-17.5c-.71,0-.74.35-.74.91s0,1.69,0,2.88,0,2.21,0,2.59c0,.7,0,2.62,0,4.49s.05,3.48.05,4.07,0,.93.74.93h12c.74,0,.74-.19.74-1.66,0-.59,0-2.23,0-3.8s0-2.95,0-3.45,0-1.64,0-2.81,0-2.2,0-2.57a5.69,5.69,0,0,0,0-1.27.66.66,0,0,0-.68-.31Zm1,13.53s-.08,0-.14-.11l-.4-.5-.1-.1h0c.19,0,.82.06.93.08.36,0,1.6.07,2.77.07h.65c.12,0,.51,0,.63-.31s.09-3.41.09-3.44c0-1.25-.05-1.45-.75-1.45-1.07,0-1.93,0-2.55.06h0l-.22,0-.21,0s-.07,0-.15-.11l-.4-.48c-.07-.08-.07-.08-.07-.11l.5,0,.43,0c.32,0,1.71.08,2.78.08.64,0,.64-.31.64-1.77a8,8,0,0,0-.27-2.5.64.64,0,0,0-.48-.16h-.52c-.83,0-1.94,0-2.53.06h0l-.25,0-.18,0c-.06,0-.08,0-.15-.11l-.42-.48,0-.08s0,0,0,0l.46,0,.46,0H36c.49,0,1.65.08,2.68.08h4a.8.8,0,0,0,.84-.38l.06-.11c.36-.56.39-.61.52-.61a5.9,5.9,0,0,1,1.7,1.36c0,.17-.05.18-1.06.18H42c-.68,0-.75.17-.75,2.06s0,2.16.26,2.28.22.09.74.09.66,0,.8-.16l.2-.19c.18-.18.56-.57.67-.57a3.86,3.86,0,0,1,1.53,1.2c0,.13-.24.16-.91.16H41.91c-.7,0-.7.25-.7,1.32,0,.41,0,3.24.11,3.52s.5.36.72.36h.52c.7,0,1.16,0,1.38-.38.42-.67.45-.71.58-.71a5.64,5.64,0,0,1,1.7,1.35c0,.19,0,.19-1,.19H38.49c-.48,0-1.92,0-2.66,0A3.18,3.18,0,0,1,35.4,182.38Zm9.5-2.09c-.35,0-.41-.09-1-1l-.12-.16a5,5,0,0,0-.93-1.08l-.05-.05c-.16-.15-.3-.27-.3-.33s.13-.09.24-.09c.41,0,2.73.67,2.87,1.85a.71.71,0,0,1-.18.57A.74.74,0,0,1,44.9,180.29Z"/><path class="cls-1" d="M61.21,45.49a29.21,29.21,0,0,1-6.45-2.58,27.9,27.9,0,0,1-2.49-1.57,26.63,26.63,0,0,1-3.75-3.19,27.59,27.59,0,0,1-3.12-3.81,28.81,28.81,0,0,1-4-9,28,28,0,0,1-.67-3.56A30.33,30.33,0,0,1,40,25.34a28.53,28.53,0,0,1-4,9,27.08,27.08,0,0,1-6.87,7,28.76,28.76,0,0,1-8.94,4.14,29.36,29.36,0,0,1-10,1,27.13,27.13,0,0,0,10.16-.1,26.41,26.41,0,0,0,9.52-3.89,24.76,24.76,0,0,0,4-3.26,26.62,26.62,0,0,0,3.36-4,29,29,0,0,0,3.41-6.7,28.94,28.94,0,0,0,3.4,6.7,26.62,26.62,0,0,0,3.36,4,24.41,24.41,0,0,0,4,3.26,25.62,25.62,0,0,0,4.57,2.42l1.21.46,1.23.39c.41.14.83.24,1.25.34s.83.22,1.25.28a27.19,27.19,0,0,0,10.17.1c-.37,0-.89.06-1.51.08A29.65,29.65,0,0,1,61.21,45.49Z"/><path class="cls-1" d="M64,61.54c-.41-.09-1.2-.28-2.18-.56a34,34,0,0,1-5-1.79c-1.4-.64-2.41-1.23-2.71-1.4a28.06,28.06,0,0,1-4.3-3.15c-.32-.29-.76-.7-1.27-1.21a26.09,26.09,0,0,1-2.31-2.66c-.61-.79-1-1.42-1.15-1.62s-.53-.83-1-1.73a32.35,32.35,0,0,1-1.74-3.88c-.27-.7-.47-1.28-.58-1.62-.31-.93-.54-1.71-.69-2.27s-.23-.91-.3-1.23c-.08.32-.18.74-.31,1.23s-.35,1.28-.75,2.45c-.5,1.51-1,2.62-1.11,2.93-.43,1-.78,1.7-.9,1.93-.28.55-.51.95-.57,1-.5.87-.93,1.51-1.15,1.82-.08.13-.44.65-1,1.31a27.05,27.05,0,0,1-2,2.29c-.55.55-1,1-1.29,1.23a27.53,27.53,0,0,1-2.82,2.2c-.64.44-1.16.75-1.43.91s-.89.52-1.85,1c-.27.13-.85.42-1.59.73s-1.15.46-1.29.51l-.39.14-1.4.47c-.76.23-1.34.39-1.94.55l-1.5.37c-1.28.29-2.33.46-2.92.55-.32,0-1.09.15-2.09.24s-1.55.11-2,.13c-1,0-1.82,0-2,0-.65,0-1.21,0-1.66-.08a36,36,0,0,0,10.91,0A32,32,0,0,0,28,58.91a27.44,27.44,0,0,0,8.5-7.15,28.63,28.63,0,0,0,4.18-7.48,28.85,28.85,0,0,0,4.18,7.49,27.42,27.42,0,0,0,8.49,7.15,32.3,32.3,0,0,0,10.47,3.43,36.61,36.61,0,0,0,10.91,0c-.82.05-1.52.07-2.07.07s-1.12,0-1.93,0c-.13,0-.78,0-1.65-.11-1.43-.12-2.52-.3-2.88-.36S65.09,61.8,64,61.54Z"/><path class="cls-1" d="M59.45,28.13a31.73,31.73,0,0,1-5.74-2.89,30.71,30.71,0,0,1-3.64-2.75,29.76,29.76,0,0,1-4.61-5.14,30.15,30.15,0,0,1-4-8c-.17-.48-.33-1-.48-1.51-.09-.34-.18-.68-.26-1h0c-.08.33-.17.67-.27,1-.15.53-.31,1-.47,1.51a30.45,30.45,0,0,1-4,8,29.72,29.72,0,0,1-4.62,5.14,30.71,30.71,0,0,1-3.64,2.75,31.18,31.18,0,0,1-5.73,2.89,32.6,32.6,0,0,1-8.85,2,29.22,29.22,0,0,0,9.12-1.23,33.29,33.29,0,0,0,4.34-1.69c.68-.36,1.39-.69,2.05-1.11l1-.61,1-.67.49-.33.46-.36.92-.73c.6-.51,1.18-1,1.73-1.59a30.54,30.54,0,0,0,3.07-3.55,31.28,31.28,0,0,0,3.47-6.18h0a30.74,30.74,0,0,0,3.46,6.18,30.54,30.54,0,0,0,3.07,3.55c.55.56,1.14,1.08,1.73,1.59l.93.73.46.36.48.33,1,.67,1,.61c.65.42,1.36.75,2.05,1.11a32.75,32.75,0,0,0,4.34,1.69,29.18,29.18,0,0,0,9.12,1.23A32.41,32.41,0,0,1,59.45,28.13Z"/></svg>