<svg id="レイヤー_1" data-name="レイヤー 1" xmlns="http://www.w3.org/2000/svg" viewBox="0 0 29.91 80.81"><defs><style>.cls-1{fill:#231815;}</style></defs><path class="cls-1" d="M23.48,6c-.08,0-.15,0-.16.1v.79c0,.11,0,.13.05.13s.49-.17.52-.17h0a2.32,2.32,0,0,1-.4.29c-.19.12-.19.17-.19.35s0,1,0,1.16,0,.59,0,.63a.29.29,0,0,1-.27.18c-.08,0-.12,0-.12-.13,0-.28,0-1.5,0-1.75,0,0,0-.07,0-.07a2.65,2.65,0,0,0-.48.3c0,.08-.05.09-.07.09s-.32-.41-.32-.43,0,0,.12,0a2.58,2.58,0,0,0,.77-.29A.18.18,0,0,0,23,7V6.18c0-.06,0-.15-.15-.15H22.5c-.12,0-.13,0-.2.18a1.72,1.72,0,0,1-.26.42s0,0,0,0,.12-.5.14-.6a4.82,4.82,0,0,0,.09-.81s0-.12,0-.14,0-.06.05-.06.4.1.4.19a2.12,2.12,0,0,1-.11.21,4.21,4.21,0,0,0-.12.42s0,.06.07.06h.29c.09,0,.15,0,.15-.14s0-.55,0-.76,0-.29,0-.35,0,0,0,0,.49.1.49.2,0,0-.09.13,0,.07-.05.32v.53s0,.11.07.11a.17.17,0,0,0,.14-.08c.12-.17.13-.18.18-.18s.36.25.36.33S24,6,23.79,6Zm2-.47c-.16,0-.16.09-.16.21,0,.68,0,.69.15.69H26a.73.73,0,0,0,.26,0c.05,0,.18-.27.24-.27s.44.29.44.37,0,.06-.29.06H24.05l-.22,0s0,0-.06,0l-.1-.12s0,0,0,0h0l.23,0c.35,0,.56,0,.74,0h.22c.14,0,.15-.07.15-.18s0-.57,0-.62a.14.14,0,0,0-.15-.1h-.44l-.33,0s0,0-.06,0l-.09-.11s0,0,0,0l0,0,.22,0,.66,0c.11,0,.2,0,.2-.15s0-.31,0-.39,0-.22,0-.24,0-.06,0-.06l.43.12s.06,0,.06,0-.12.13-.13.16,0,.27,0,.35,0,.16.15.16H26s.15-.25.19-.25.39.25.39.33-.11.08-.29.08Zm.48,2c-.14,0-.16.05-.16.4,0,.16,0,.88,0,1,0,.49-.38.49-.44.49s-.11,0-.14-.13-.12-.18-.24-.23-.15-.06-.15-.08.05,0,.06,0h.35c.11,0,.21,0,.21-.24s0-1,0-1,0-.22-.15-.22h-.63c-.16,0-.36,0-.57,0h-.22s0,0-.05,0l-.11-.11,0,0s0,0,0,0H24c.35,0,.55,0,.73,0h.6c.15,0,.15-.1.15-.16s0-.4,0-.47,0,0,.05,0l.36.06c.05,0,.1,0,.1.08s-.09.11-.1.14a.6.6,0,0,0,0,.24c0,.15.09.15.2.15a.18.18,0,0,0,.18-.11c0-.06.1-.15.15-.15s.4.25.4.33-.11.07-.29.07Zm-1.75.36c.07,0,.55.13.55.5,0,.19-.09.3-.21.3s-.1,0-.19-.33a1.51,1.51,0,0,0-.18-.4s0,0,0,0S24.23,7.92,24.25,7.92Z"/><path class="cls-1" d="M23.63,13.05a5.58,5.58,0,0,0-.68,0h-.11s0,0-.05,0l-.1-.13,0,0,0,0,.24,0,.74,0h1.45c.24,0,.29,0,.35-.09s.14-.21.19-.21.47.26.47.36-.1.08-.3.08h-1c-.15,0-.15.06-.15.5s0,.47.15.47h.37c.23,0,.28,0,.34-.1s.11-.17.16-.17.39.27.39.34,0,.06-.09.07H24.8c-.16,0-.16,0-.16.36,0,.18,0,.79,0,.81s.07.05.13.05l.6,0a7,7,0,0,0,1.43-.16,1.15,1.15,0,0,1,.17-.06s0,0,0,0-.33.26-.38.33a1,1,0,0,0-.09.21c0,.07-.25.08-.33.08-2.16,0-2.41-.31-2.76-.72a1.17,1.17,0,0,1-.24-.39s0,0,0,0,0,0-.08.09c-.5.8-1,.92-1,.92s0,0,0,0l.09-.1a3.42,3.42,0,0,0,.92-1.89c0-.24,0-.26.05-.26s.47.12.47.2-.11.11-.12.14-.13.45-.16.52l-.09.29c0,.27.69.74,1,.74.07,0,.07-.07.07-.11,0-.3,0-1.65,0-1.93,0-.13,0-.21-.17-.21Zm-.81-1c-.07,0-.1,0-.13.1-.1.32-.27.44-.4.44s-.18,0-.18-.15,0-.1.16-.24a1.42,1.42,0,0,0,.27-.48c0-.06,0-.09.05-.09s.08.08.11.19.06.09.13.09h1.28c.13,0,.14-.08.14-.17s0-.32,0-.41a2.7,2.7,0,0,1,0-.28s0,0,0,0l.55.12a.08.08,0,0,1,0,.06s-.13.12-.14.15a1.34,1.34,0,0,0,0,.35c0,.19,0,.21.17.21h1.05c.15,0,.17,0,.24-.07a.35.35,0,0,1,.19-.11s.5.28.5.42-.13.11-.16.11l-.28,0a.57.57,0,0,0-.3.08,1.19,1.19,0,0,1-.16.08,0,0,0,0,1,0,0s.13-.24.13-.29,0,0-.11,0Z"/><path class="cls-1" d="M23.55,18.65c.14,0,.16-.07.16-.17s0-.45,0-.61a1.57,1.57,0,0,1,0-.23,0,0,0,0,1,0,0s.49.07.49.17-.07.09-.07.11,0,1.55,0,1.77,0,.64,0,.77,0,.08.05.08.38-.09.4-.09,0,0,0,0-.32.18-.39.2S24,20.7,24,21a2,2,0,0,1-1.43,1.41s0,0,0,0,0,0,.06-.06a2.54,2.54,0,0,0,.56-.43,2,2,0,0,0,.51-1c0-.06,0-.06,0-.06s-1.16.41-1.17.42-.09.11-.12.11-.26-.47-.26-.5,0,0,.19,0a6.44,6.44,0,0,0,1.42-.26A1.82,1.82,0,0,0,23.7,20c0-.12,0-.16-.16-.16H22.37a0,0,0,0,1-.05,0l-.11-.12s0,0,0,0h0l.23,0,.74,0h.37c.12,0,.17,0,.17-.14V19c0-.1,0-.19-.17-.19h-1.2s0,0,0,0l-.11-.12,0,0s0,0,0,0l.24,0,.73,0Zm1.79,1.2c-.11,0-.17,0-.17.15s0,.66,0,.7.1.09.16.09h.6a.91.91,0,0,0,.27,0c.05,0,.22-.26.28-.26a1,1,0,0,1,.4.35c0,.07-.11.07-.29.07H25.34c-.16,0-.17.07-.17.24s0,.79,0,.94,0,.27-.28.27-.16-.12-.16-.2,0-.43,0-.51c0-.79,0-2.08,0-2.86,0-.39,0-.66,0-.92,0,0,0-.19,0-.23s0-.06,0-.06a2.68,2.68,0,0,1,.42.09s.08,0,.08.09-.09.11-.1.14,0,.09,0,.55c0,.08,0,.18.17.18h.52a.87.87,0,0,0,.27,0s.22-.26.28-.26a1,1,0,0,1,.4.35c0,.07-.11.07-.29.07H25.35c-.06,0-.17,0-.18.12v.54c0,.19,0,.26.15.26h.31a.83.83,0,0,0,.26,0c.05,0,.22-.26.28-.26a1,1,0,0,1,.41.35c0,.07-.12.07-.29.07Z"/><path class="cls-1" d="M24.68,25.2c.24,0,.27,0,.51-.42a3.89,3.89,0,0,0,.32-.71c0-.09,0-.1,0-.1s.51.3.51.39,0,.06-.18.08-.14,0-.46.36c-.07.07-.29.29-.29.34s0,.06.13.06H26c.17,0,.18,0,.23,0s.11-.11.14-.11.51.32.51.49-.07.12-.14.12h-.17c-.08,0-.17,0-.35.19s-.11.1-.14.1,0,0,0,0,.14-.42.14-.5,0-.08-.2-.08H22.83c-.19,0-.22,0-.24.14-.07.37-.24.53-.38.53a.19.19,0,0,1-.2-.21c0-.08,0-.11.19-.39a1.2,1.2,0,0,0,.16-.49c0-.05,0-.07,0-.07s.13.23.16.27.05.07.25.07Zm-1,2.2c.11,0,.19,0,.26-.12a1.36,1.36,0,0,0,.1-.41c0-.09-.05-.09-.18-.09h-.32c-.12,0-.12,0-.16.12s-.2.11-.24.11a.15.15,0,0,1-.17-.12c0-.05,0-.34,0-.41v-.57s0-.14,0-.17,0-.06.05-.06a2.2,2.2,0,0,1,.31.15.56.56,0,0,0,.2,0h1.67c.23,0,.25,0,.29,0s.16-.2.21-.2A.69.69,0,0,1,26,26s0,.06-.09.1-.07.06-.07.3a2.68,2.68,0,0,1,0,.42.29.29,0,0,1-.26.16c-.08,0-.09,0-.12-.11s-.07-.06-.13-.06h-.6a.25.25,0,0,0-.23.09,2.19,2.19,0,0,0-.35.47c0,.06.07.06.15.06h1.34a.83.83,0,0,0,.26,0s.15-.15.19-.15.33.18.33.28,0,.06-.09.12a.32.32,0,0,0,0,.14c0,.09,0,.52,0,.62s0,.19-.08.27a.39.39,0,0,1-.25.12c-.11,0-.11-.07-.12-.17s-.08-.07-.14-.07H23.13c-.09,0-.11,0-.13.11a.27.27,0,0,1-.27.19.15.15,0,0,1-.17-.17s0-.7,0-.84,0-.45,0-.54,0-.07.05-.07a1.75,1.75,0,0,1,.35.13.42.42,0,0,0,.25,0Zm-1-3.26c.57,0,1,.34,1,.6a.24.24,0,0,1-.23.25c-.13,0-.18-.11-.22-.21a1.27,1.27,0,0,0-.47-.52c-.11-.07-.12-.08-.11-.1S22.63,24.14,22.65,24.14Zm.52,3.41c-.07,0-.12,0-.15.05a3.83,3.83,0,0,0,0,.61c0,.1,0,.18.16.18h2.52c.14,0,.16-.07.16-.15s0-.59,0-.62-.11-.07-.15-.07ZM23.52,26c-.07,0-.18,0-.18.16,0,.48,0,.48.17.48h1.74c.17,0,.17,0,.17-.33s0-.31-.18-.31Zm1.23-1.32c0,.14-.08.22-.18.22s-.21-.15-.25-.24a1.58,1.58,0,0,0-.32-.56.31.31,0,0,1-.09-.11s0,0,.05,0C24.14,24,24.75,24.24,24.75,24.67Z"/><path class="cls-1" d="M23,32h-.68l-.12,0s0,0,0,0l-.11-.12s0,0,0,0l0,0,.34,0h.71c.16,0,.16,0,.16-.33,0-.07,0-.51,0-.53s-.07-.07-.14-.07l-.72,0c-.1,0-.11,0-.11,0s0,0,.13,0a5.34,5.34,0,0,0,1.33-.36c.19-.08.21-.09.26-.09s.5.21.5.29,0,0-.33.08c-.57.06-.57.07-.57.27s0,.68,0,.7a.14.14,0,0,0,.15.09h.1c.13,0,.16,0,.22-.09s.17-.2.22-.2a1.55,1.55,0,0,1,.47.36c0,.07-.11.07-.29.07h-.72c-.16,0-.17,0-.17.41,0,.16.06.17.1.18.23,0,.79.18.79.59,0,.2-.12.27-.18.27s-.13,0-.26-.38a.67.67,0,0,0-.41-.41s0,0,0,.08c0,.21,0,1.73,0,1.93s0,.29,0,.31c0,.21-.25.27-.32.27s-.11-.07-.11-.15c0-.27,0-1.42,0-1.66,0,0,0-.27,0-.32s0-.09-.07-.09,0,0-.09.08a5.71,5.71,0,0,1-1,1,.21.21,0,0,1-.09.05s0,0,0,0,.34-.4.38-.46a6.28,6.28,0,0,0,.93-1.56c0-.06,0-.08-.07-.08Zm2.43.39c0,.94,0,1,0,1.28,0,0,0,.21,0,.24s-.08.26-.3.26-.13-.06-.13-.1S25,34,25,34c0-.17,0-.79,0-1.53,0-.24,0-.89,0-1.25a.75.75,0,0,1,0-.11s0-.05,0-.05.56.1.56.2a.05.05,0,0,1,0,.05c-.1.1-.12.12-.14.2S25.44,31.93,25.44,32.43Zm1,.11c0,.32,0,1.73,0,2s0,.49-.11.56a.85.85,0,0,1-.38.17c-.08,0-.09,0-.11-.11s-.41-.32-.47-.34,0,0,0,0,0,0,0,0l.42,0c.26,0,.26,0,.26-.47s0-3.11,0-3.49c0-.06,0-.35,0-.36a.05.05,0,0,1,.05-.05l.49.08s.09,0,.09.08,0,.07-.09.11a.27.27,0,0,0-.08.16C26.5,31,26.49,32.26,26.49,32.54Z"/><path class="cls-1" d="M22.12,38.18c.17,0,.66.18.66.5a.2.2,0,0,1-.18.21c-.05,0-.1,0-.15-.15a1.78,1.78,0,0,0-.41-.52S22.08,38.18,22.12,38.18Zm0,2.15a.34.34,0,0,0,.34-.21,8.3,8.3,0,0,0,.64-1.67s.06-.15.08-.15a0,0,0,0,1,0,.05s-.07.42-.08.46c-.05.24-.34,1.28-.34,1.5a3.29,3.29,0,0,0,.17.84,1.3,1.3,0,0,1,.05.28.23.23,0,0,1-.22.25c-.27,0-.27-.32-.27-.46,0-.51-.08-.66-.33-.78,0,0-.17,0-.17-.07S22.11,40.33,22.14,40.33ZM22.63,37c.07,0,.73.14.73.52a.2.2,0,0,1-.19.21c-.05,0-.11,0-.18-.14a3,3,0,0,0-.38-.51l0,0S22.6,37,22.63,37Zm2.2,2.7c.16,0,.16-.1.16-.16v-.76a.14.14,0,0,0-.16-.11h-.37a5.43,5.43,0,0,0-.68,0h-.11s0,0-.05,0l-.1-.12,0,0h0l.24,0c.26,0,.48,0,.74,0h.33c.06,0,.17,0,.17-.14v-.61c0-.07,0-.15-.13-.15l-.48.06a5.25,5.25,0,0,1-.53,0c-.08,0-.13,0-.13,0s.21-.06.25-.07a6.08,6.08,0,0,0,1.69-.51c.05,0,.25-.16.26-.16s.52.33.52.4-.05.06-.14.06a8,8,0,0,0-.79.12c-.1,0-.16,0-.16.17s0,.74,0,.78.11.06.13.06h.43c.24,0,.27,0,.34-.09s.15-.2.2-.2a1.6,1.6,0,0,1,.42.35c0,.08-.11.08-.29.08H25.51c-.08,0-.16,0-.16.16v.77a.15.15,0,0,0,.16.1h.34c.07,0,.1,0,.19-.1s.11-.12.14-.12.4.3.4.38,0,0-.09.12a.25.25,0,0,0-.07.2c0,.2,0,1.22,0,1.23a.27.27,0,0,1-.3.29c-.13,0-.15-.06-.17-.18s0-.09-.14-.09H24.46c-.14,0-.15,0-.18.15a.25.25,0,0,1-.27.16c-.1,0-.17,0-.17-.12s0-.31,0-.37,0-1,0-1.18,0-.26,0-.36,0-.1,0-.12,0-.05,0-.05.05,0,.24.1a.56.56,0,0,0,.31.06Zm1,1.58c.09,0,.16,0,.16-.15s0-1,0-1.12,0-.17-.16-.17H24.43c-.09,0-.16,0-.16.15v1.11c0,.09,0,.18.16.18Z"/><path class="cls-1" d="M23.72,44.63c-.15,0-.15.1-.15.22,0,.28,0,.32.16.32h.37a.26.26,0,0,0,.18-.05.2.2,0,0,1,.13-.08c.08,0,.37.17.37.24s-.1.13-.12.16,0,.11,0,.28,0,.64,0,.74-.25.22-.27.22-.07,0-.09-.12a.09.09,0,0,0-.09,0h-.46c-.16,0-.16.09-.16.2,0,.28,0,.32.17.32h.14c.21,0,.23,0,.33-.09s.12-.13.17-.13.35.27.35.3,0,.07-.28.07h-.69c-.13,0-.19,0-.19.18s0,.23.07.23.9-.15,1-.15a0,0,0,0,1,0,0s-.21.09-.28.11c-.55.18-1,.28-1.68.44a1.41,1.41,0,0,0-.33.11s-.1.08-.12.08S22,47.8,22,47.8s0,0,.05,0a6.13,6.13,0,0,0,.94-.1l.23,0s0-.06,0-.1a1.78,1.78,0,0,0,0-.26c0-.1-.09-.1-.22-.1-.47,0-.67,0-.7,0h-.11s0,0-.05,0l-.11-.12,0,0s0,0,0,0l.23,0h.8c.17,0,.17,0,.17-.33,0-.1,0-.19-.15-.19h-.39c-.09,0-.1,0-.1.09a.21.21,0,0,1-.21.16c-.15,0-.15-.11-.15-.16,0-.39,0-1,0-1.16s0-.32,0-.37,0,0,.05,0a1.61,1.61,0,0,1,.27.1.47.47,0,0,0,.23,0h.33c.16,0,.16-.07.16-.26s0-.28-.16-.28h-.8l-.11,0a.07.07,0,0,1-.05,0L22,44.5l0,0h0l.24,0,.68,0h.14c.17,0,.17-.08.17-.22,0-.32,0-.36-.07-.36l-.15,0-.64,0c-.05,0-.07,0-.07,0s0,0,.14-.06a5.56,5.56,0,0,0,1.46-.5l.12-.06a1.37,1.37,0,0,1,.42.32s0,0-.12.05l-.68.13c-.08,0-.09.05-.09.13a2.8,2.8,0,0,0,0,.47.11.11,0,0,0,.11.06c.31,0,.34,0,.41-.09s.15-.18.22-.18a1.09,1.09,0,0,1,.39.34c0,.07,0,.07-.29.07Zm-.63,1.15c.16,0,.16-.08.16-.25s0-.22-.16-.22h-.33c-.17,0-.17.08-.17.26s0,.21.17.21Zm0,.6c.16,0,.16-.07.16-.23s0-.22-.16-.22h-.33c-.16,0-.16.07-.16.19s0,.26.17.26Zm.64-1.07c-.16,0-.16.09-.16.24s0,.23.16.23h.39c.17,0,.17-.08.17-.24s0-.23-.17-.23Zm0,.62c-.16,0-.16.08-.16.22s0,.23.16.23h.39c.17,0,.17-.09.17-.22s0-.23-.17-.23ZM25.8,44.6c-.15,0-.15.07-.16.27-.05,1.8-.22,2.38-.85,3a1.75,1.75,0,0,1-.57.4s0,0,0,0,.12-.13.14-.15c.73-.72,1-1.33,1-3.35,0-.09,0-.12-.1-.12l-.29,0s0,0-.05,0l-.1-.13s0,0,0,0h0l.46,0c.06,0,.09,0,.09-.09,0-.34,0-.57,0-.7a2.56,2.56,0,0,1-.05-.27s0-.07.05-.07.52.09.52.15-.08.09-.09.1a2.64,2.64,0,0,0-.05.64c0,.23,0,.25.15.25H26a.23.23,0,0,0,.19-.07c.11-.12.12-.13.16-.13s.4.22.4.3,0,.06-.1.14a.2.2,0,0,0-.08.19,15.21,15.21,0,0,1-.11,2.84c-.14.48-.48.49-.54.49s-.1,0-.16-.18-.15-.19-.31-.27-.14-.06-.14-.1,0,0,0,0,.49.09.58.09.26-.41.29-.67,0-1.76,0-2.17c0-.24,0-.3-.16-.3Z"/><path class="cls-1" d="M22,51.22c.37,0,.76.24.76.54a.23.23,0,0,1-.21.24c-.08,0-.12-.06-.19-.22a1.51,1.51,0,0,0-.35-.45l-.09-.08S22,51.22,22,51.22Zm.33,2.09a5.34,5.34,0,0,0,.9-1.68l.19-.39c0-.09,0-.1.07-.1s0,0,0,0-.52,1.46-.59,1.63a1.44,1.44,0,0,0-.17.61,1.56,1.56,0,0,0,.17.7.85.85,0,0,1,.05.21.26.26,0,0,1-.24.26c-.19,0-.26-.19-.26-.36a.88.88,0,0,0-.2-.72s-.16-.1-.16-.13S22.27,53.32,22.3,53.31Zm0-3.29s0,0,0,0a2,2,0,0,1,.44.09.5.5,0,0,1,.35.44c0,.11-.06.24-.18.24s-.11-.05-.19-.19a1.74,1.74,0,0,0-.45-.53Zm1.89,2.4c-.12,0-.49,0-.68,0h-.11s0,0-.05,0l-.1-.12,0,0h0l.24,0,.74,0h.4c.09,0,.15,0,.16-.11s0-.74,0-.86,0-.16-.15-.16h-.15c-.12,0-.49,0-.67,0h-.12s0,0,0,0l-.1-.12s0,0,0,0h0l.24,0,.74,0h.12c.05,0,.15,0,.15-.16s0-.5,0-.67,0-.26,0-.27,0,0,0,0,.53.09.53.18-.1.12-.1.15a.44.44,0,0,0,0,.17c0,.09,0,.49,0,.49s.11.15.17.15h.3c.22,0,.25,0,.3,0s.16-.24.2-.24a1.57,1.57,0,0,1,.42.34c0,.08-.1.08-.29.08h-.93c-.06,0-.17,0-.17.14v.89c0,.09.09.1.17.1h.51c.22,0,.25,0,.29,0s.18-.24.23-.24a1.33,1.33,0,0,1,.41.34c0,.08-.11.08-.29.08H25s0,0,0,0,.2.23.2.28,0,.05-.14.08-.07,0-.21.25a7,7,0,0,1-.56.75c-.08.09-.08.1-.08.11s0,0,0,0l1.7-.08c.14,0,.18,0,.18-.09s-.29-.72-.3-.78h0a2.09,2.09,0,0,1,.92,1.3.28.28,0,0,1-.27.31c-.11,0-.12-.05-.21-.45,0-.14-.06-.23-.17-.23s-.74.15-.87.17-1.16.17-1.35.22a1.24,1.24,0,0,0-.26.1s-.11.07-.13.07-.23-.54-.23-.57h0l.26,0,.37,0c.13,0,.15-.05.37-.47a5.47,5.47,0,0,0,.44-1c0-.09-.1-.09-.16-.09Z"/><path class="cls-1" d="M24.52,56.8a5.92,5.92,0,0,0,.78,2.46,3.11,3.11,0,0,0,1.53,1.35s.05,0,.05,0,0,0-.18.06a.93.93,0,0,0-.37.16c-.11.08-.12.09-.14.09A3.49,3.49,0,0,1,25,59.4a6,6,0,0,1-.51-2.09c0-.05,0-.06,0-.06s0,0-.05.22a6.37,6.37,0,0,1-.69,2.3,3,3,0,0,1-1.57,1.28,0,0,0,0,1,0,0s0,0,.07-.06a4.09,4.09,0,0,0,1.28-1.39A6.76,6.76,0,0,0,24,56.81a1.57,1.57,0,0,0,0-.33.43.43,0,0,1,0-.11,0,0,0,0,1,0,0l.31.09c.26.07.37.1.37.2s0,.07-.1.08-.06,0-.08,0A.14.14,0,0,0,24.52,56.8Z"/><path class="cls-1" d="M5.85,46.53c-.44,0-.44-.23-.44-.37s.06-.8.07-.92V43.77a20.59,20.59,0,0,0-.08-2.26l-.07-.31s0-.05.08-.05a3.25,3.25,0,0,1,.66.29l.06,0a3.45,3.45,0,0,0,1.21.19h4.3c.53,0,.6,0,.75-.17.38-.29.47-.31.49-.31a2.71,2.71,0,0,1,.95.78c0,.07,0,.07-.3.33a3.94,3.94,0,0,0-.08,1.1c0,.29,0,.73.05,1.15,0,.58.06,1.13.06,1.27,0,.55-.63.56-.63.56-.15,0-.49,0-.49-.39,0-.2,0-.49-.44-.49H7.07c-.14,0-.5,0-.5.4C6.57,46.13,6.57,46.53,5.85,46.53ZM6.93,42c-.47,0-.47.07-.47,1.35,0,1,0,1.61,0,1.65a.4.4,0,0,0,.43.24H12c.46,0,.46-.08.46-1.36,0-.59,0-1.58,0-1.65A.41.41,0,0,0,12,42Zm-2.24-2s-.05,0-.09-.07l-.27-.32a.12.12,0,0,0,0,0v0h0l.32,0,.29,0c.64,0,1.21.06,1.92.06H8.59c.15,0,.43,0,.43-.43V37.47c0-.3-.14-.43-.45-.43H5.66c-1.11,0-1.57,0-1.77,0H3.75l-.15,0s0,0-.07,0l0,0-.26-.32c-.05-.06-.05-.06-.05-.08l.33,0,.29,0h.25c.59,0,1.09,0,1.67,0H8.54c.15,0,.47,0,.47-.42s0-1.4-.1-1.63c0,0-.05-.15-.08-.27s-.07-.23-.08-.25.09,0,.1,0l1.31.24c.19,0,.36.08.36.23s-.15.21-.25.33a1.06,1.06,0,0,0-.22.28c0,.09-.05,1-.05,1.12,0,.42.33.42.47.42h2.62c.64,0,.72,0,.93-.25l0-.06c.35-.41.39-.45.49-.45a5.13,5.13,0,0,1,1.28.89c0,.15-.24.16-.72.16H10.45c-.14,0-.47,0-.47.41,0,.14,0,.52,0,.89s0,.69,0,.8c0,.43.31.43.46.43h2.16a1.39,1.39,0,0,0,.45,0c.09,0,.22-.19.42-.43a2.49,2.49,0,0,1,.26-.3c.12,0,1.18.71,1.18.9s-.13.15-.45.15H6.75c-1.11,0-1.57,0-1.77,0H5l-.14,0Z"/><path class="cls-1" d="M3.33,30.34s0,0-.1-.08L3,29.94c0-.07,0-.07,0-.08l.34,0,.3,0c.66,0,1.25.06,2,.06h3c.11,0,.38,0,.46-.23S9,28.28,9,28.13c0-.61,0-.86-.45-.86H7.13c-1,0-1.43,0-1.66,0H5.32l-.3.05s-.06,0-.1-.08l-.29-.34,0,0,0,0h0c.13,0,.54,0,.64.05.74,0,1.33.05,2,.05H8.56A.38.38,0,0,0,9,26.73,13,13,0,0,0,9,24.85c0-.37-.33-.37-.49-.37H6.62c-.16,0-.36,0-.43.2s-.17.55-.54.55-.48-.19-.48-.63c0-.22,0-.83,0-1.43s0-1.11,0-1.3a27.39,27.39,0,0,0-.09-2.82.89.89,0,0,0-.07-.23A1.25,1.25,0,0,1,5,18.54s0,0,0,0a4.37,4.37,0,0,1,.75.37l.08,0A1.87,1.87,0,0,0,7,19.18h5.29a.89.89,0,0,0,.57-.12l.12-.13a1.68,1.68,0,0,1,.26-.24c.1,0,1,.7,1,.86s-.08.18-.28.3-.19.2-.19.75c0,.3,0,1.13,0,1.93s0,1.51,0,1.77a.77.77,0,0,1-.75.87c-.25,0-.27-.12-.29-.36s-.31-.33-.46-.33H10.44c-.48,0-.48,0-.48,1.26,0,.9,0,1,.11,1.11a.56.56,0,0,0,.4.11h2c.61,0,.69,0,.81-.11a1.87,1.87,0,0,0,.21-.26c.12-.16.34-.45.4-.45a3.68,3.68,0,0,1,1.1,1c0,.16-.23.16-.72.16H10.47c-.51,0-.51.26-.51.76,0,1.54,0,1.7.14,1.83a.49.49,0,0,0,.36.11h3.12c.54,0,.65,0,.76-.13a2.11,2.11,0,0,0,.24-.28c.12-.16.33-.43.4-.43a3.28,3.28,0,0,1,1.13,1c0,.16-.24.17-.74.17H5.46a18.16,18.16,0,0,0-1.83,0h0l-.15,0Zm7.13-8.29c-.5,0-.5.24-.5,1,0,1,0,1.15.5,1.15h1.87c.5,0,.5-.15.5-1.33,0-.52,0-.78-.48-.78Zm-3.84,0c-.47,0-.47.16-.47.78,0,1,0,1.13.09,1.22a.49.49,0,0,0,.38.11H8.54C9,24.16,9,24,9,23.39c0-1,0-1.13-.09-1.23a.49.49,0,0,0-.38-.11Zm3.87-2.56c-.5,0-.5.19-.5,1.3,0,.76,0,.94.5.94h1.87c.5,0,.5-.15.5-1.29,0-.75,0-1-.5-1Zm-3.87,0c-.46,0-.47.16-.47,1,0,1.08,0,1.22.47,1.22H8.53c.47,0,.47-.11.47-1,0-1.07,0-1.23-.47-1.23Z"/><path class="cls-1" d="M5.86,15.94c-.44,0-.44-.23-.44-.37s0-.79.07-.91V13.19a18.24,18.24,0,0,0-.09-2.26c-.06-.25-.07-.3-.07-.31s0,0,.08,0a3.56,3.56,0,0,1,.67.29l.06,0a3.35,3.35,0,0,0,1.2.2h4.3c.53,0,.6-.06.75-.18.37-.29.47-.31.49-.31a2.6,2.6,0,0,1,.94.79c0,.06,0,.07-.29.32a3.6,3.6,0,0,0-.08,1.1c0,.29,0,.73.05,1.15,0,.58.06,1.13.06,1.27,0,.54-.63.56-.64.56s-.48,0-.48-.4c0-.19,0-.48-.44-.48H7.07c-.13,0-.49,0-.49.4C6.58,15.55,6.58,15.94,5.86,15.94Zm1.07-4.56c-.47,0-.47.07-.47,1.35a16.31,16.31,0,0,0,0,1.65.39.39,0,0,0,.42.24H12c.45,0,.45-.08.45-1.36,0-.59,0-1.58,0-1.65a.4.4,0,0,0-.42-.23Zm-2.23-2s-.06,0-.1-.07L4.34,9l0-.05v0h0l.33,0,.29,0C5.54,9,6.12,9,6.82,9H8.59C8.74,9,9,9,9,8.57V6.89c0-.3-.14-.43-.45-.43H5.66c-1.11,0-1.57,0-1.76,0H3.61s0,0-.07,0l0,0-.26-.32,0-.07.33,0a1.94,1.94,0,0,0,.29,0l.25,0c.58,0,1.09,0,1.66,0H8.54c.15,0,.47,0,.47-.41s0-1.4-.1-1.63l-.08-.28c0-.1-.07-.22-.07-.24s.08,0,.09,0l1.31.24c.19,0,.35.07.35.23a1.34,1.34,0,0,1-.24.33,1.08,1.08,0,0,0-.22.27c0,.09-.05,1-.05,1.13,0,.41.33.41.47.41h2.62c.63,0,.72,0,.92-.25l.05,0c.35-.41.38-.45.48-.45a4.76,4.76,0,0,1,1.28.88c0,.16-.23.16-.72.16H10.45c-.14,0-.47,0-.47.42,0,.13,0,.51,0,.88s0,.69,0,.81c0,.42.31.42.46.42h2.15A1.29,1.29,0,0,0,13,9c.1,0,.23-.19.42-.43a1.6,1.6,0,0,1,.27-.29c.12,0,1.17.7,1.17.9s-.13.14-.45.14H6.75c-1.11,0-1.57,0-1.76.05H4.7Z"/><path class="cls-1" d="M3.51,61.05s0,0-.1-.07l-.26-.32c0-.06,0-.06,0-.08l.33,0,.29,0c.64,0,1.22.06,1.93.06H8.52c.11,0,.37,0,.45-.22S9,59.05,9,58.9c0-.59,0-.83-.44-.83H7.2c-.93,0-1.39,0-1.61,0H5.44l-.29,0s-.06,0-.09-.07l-.29-.34,0,0,0,0h0c.13,0,.52,0,.62,0,.72,0,1.3,0,1.92,0H8.59A.36.36,0,0,0,9,57.55,12.49,12.49,0,0,0,9,55.72c0-.36-.32-.36-.47-.36H6.7c-.15,0-.35,0-.41.19s-.17.54-.53.54-.47-.19-.47-.61c0-.22,0-.81,0-1.39s0-1.08,0-1.27c0-.63,0-2.31-.08-2.73l-.07-.23a1.37,1.37,0,0,1-.08-.27s0,0,0,0a4.12,4.12,0,0,1,.73.36L6,50a1.84,1.84,0,0,0,1.11.25h5.13a.84.84,0,0,0,.55-.12l.12-.12c.08-.08.21-.23.25-.23s1,.67,1,.83-.09.17-.28.29-.19.19-.19.73c0,.3,0,1.1,0,1.88s0,1.46,0,1.71A.75.75,0,0,1,13,56c-.25,0-.26-.12-.29-.35s-.3-.32-.44-.32H10.42c-.47,0-.47,0-.47,1.22,0,.88,0,1,.11,1.08a.56.56,0,0,0,.39.1h1.91c.6,0,.67,0,.79-.1a1.87,1.87,0,0,0,.21-.26c.11-.15.32-.43.39-.43a3.7,3.7,0,0,1,1.06.94c0,.15-.22.16-.7.16H10.45c-.5,0-.5.25-.5.74,0,1.49,0,1.65.14,1.77a.43.43,0,0,0,.34.11h3c.52,0,.62,0,.73-.12a2.92,2.92,0,0,0,.23-.27c.12-.16.32-.43.39-.43a3.11,3.11,0,0,1,1.1,1c0,.15-.23.16-.72.16H5.58A17.13,17.13,0,0,0,3.8,61h0l-.15,0Zm6.92-8c-.48,0-.48.23-.48.93,0,1,0,1.12.48,1.12h1.82c.48,0,.48-.15.48-1.29,0-.51,0-.76-.47-.76ZM6.7,53c-.46,0-.46.16-.46.76,0,1,0,1.09.1,1.18a.45.45,0,0,0,.36.11H8.57c.46,0,.46-.16.46-.75,0-1,0-1.1-.1-1.2a.48.48,0,0,0-.36-.1Zm3.76-2.49c-.48,0-.48.19-.48,1.26,0,.74,0,.92.48.92h1.82c.48,0,.48-.14.48-1.25,0-.74,0-.93-.48-.93Zm-3.76,0c-.44,0-.46.16-.46,1,0,1,0,1.18.46,1.18H8.56c.45,0,.45-.11.45-1,0-1,0-1.19-.45-1.19Z"/><path class="cls-1" d="M4.16,77.25c-.32,0-.34-.3-.34-.61s0-1.38,0-2.43,0-2.23,0-2.64c0-.66,0-4.29,0-5.07l0-.27c0-.44-.08-1.17-.08-1.36s0-.12.08-.12.15,0,.67.3a1.26,1.26,0,0,0,.78.2h8.08a.51.51,0,0,0,.47-.21c.34-.36.37-.38.46-.38s1,.72,1,1c0,.07,0,.08-.22.24l-.05,0c-.13.09-.14.77-.14.78S15,74,15,74.35c0,.15,0,.7,0,1.17s0,.67,0,.73c0,.29,0,1-.77,1-.36,0-.37-.19-.4-.51s-.19-.24-.44-.24H5.29c-.37,0-.38,0-.44.35S4.34,77.25,4.16,77.25ZM5.32,65.54c-.48,0-.5.23-.5.61s0,1.13,0,1.93v1.73c0,.47,0,1.76,0,3s0,2.33,0,2.72,0,.62.49.62h8c.49,0,.49-.12.49-1.11,0-.39,0-1.49,0-2.54s0-2,0-2.31,0-1.1,0-1.88,0-1.47,0-1.72a3.42,3.42,0,0,0,0-.85.43.43,0,0,0-.45-.21ZM6,74.6s0,0-.09-.08l-.27-.33-.07-.07h0c.13,0,.54,0,.62.06.24,0,1.08,0,1.85,0h.44c.08,0,.34,0,.42-.2s.06-2.29.06-2.31c0-.83,0-1-.5-1-.71,0-1.29,0-1.7,0h0l-.15,0H6.43s0,0-.1-.07l-.26-.32C6,70.36,6,70.36,6,70.34l.33,0,.29,0c.21,0,1.15.06,1.86.06.43,0,.43-.21.43-1.18a5.32,5.32,0,0,0-.18-1.68.44.44,0,0,0-.32-.1H8.08c-.56,0-1.3,0-1.69,0H6.1s-.06,0-.1-.06l-.28-.33,0,0s0,0,0,0l.31,0,.31,0h.05c.33,0,1.11,0,1.79,0h2.71c.23,0,.42,0,.57-.25l0-.08c.24-.37.26-.41.34-.41s1.14.76,1.14.92,0,.12-.7.12H10.36c-.45,0-.49.11-.49,1.37s0,1.45.17,1.53.15.06.49.06.44,0,.54-.11l.13-.12c.12-.13.38-.39.45-.39a2.51,2.51,0,0,1,1,.81c0,.09-.16.1-.6.1H10.32c-.47,0-.47.17-.47.89,0,.27,0,2.16.07,2.35s.34.24.48.24h.35c.47,0,.78,0,.93-.25.28-.45.3-.48.39-.48a3.72,3.72,0,0,1,1.13.91c0,.12,0,.13-.7.13H8c-.32,0-1.29,0-1.78,0Zm6.36-1.4c-.23,0-.28-.06-.68-.64l-.08-.11a3.14,3.14,0,0,0-.62-.72l0,0c-.11-.1-.21-.19-.21-.23s.09-.06.16-.06c.28,0,1.83.45,1.93,1.24a.49.49,0,0,1-.12.38A.47.47,0,0,1,12.32,73.2Z"/></svg>