<svg id="レイヤー_1" data-name="レイヤー 1" xmlns="http://www.w3.org/2000/svg" viewBox="0 0 91.49 83.95"><defs><style>.cls-1{fill:#fff;}</style></defs><path class="cls-1" d="M66.71,52.86a29.89,29.89,0,0,1-6.59-2.64,28.19,28.19,0,0,1-2.55-1.6,27.05,27.05,0,0,1-3.82-3.26,27.6,27.6,0,0,1-3.19-3.89,29.44,29.44,0,0,1-4.13-9.2,27.93,27.93,0,0,1-.69-3.63,29.75,29.75,0,0,1-.69,3.63,29.56,29.56,0,0,1-4.12,9.19,27.9,27.9,0,0,1-3.19,3.9,28.56,28.56,0,0,1-3.83,3.27,29.53,29.53,0,0,1-9.14,4.23,30.23,30.23,0,0,1-10.18,1A27.73,27.73,0,0,0,25,53.74a27.09,27.09,0,0,0,9.72-4,24.9,24.9,0,0,0,4.13-3.33,26.61,26.61,0,0,0,3.43-4.06,29.65,29.65,0,0,0,3.48-6.85,29.65,29.65,0,0,0,3.48,6.85,27.79,27.79,0,0,0,3.43,4.07,24.91,24.91,0,0,0,4.14,3.32,26.12,26.12,0,0,0,4.67,2.48l1.24.47,1.26.4c.41.14.84.24,1.27.34s.84.23,1.28.29a27.47,27.47,0,0,0,10.38.1c-.37,0-.9.06-1.54.08A30.34,30.34,0,0,1,66.71,52.86Z"/><path class="cls-1" d="M69.53,69.26c-.42-.1-1.22-.29-2.22-.57a33.93,33.93,0,0,1-5.16-1.84,28.72,28.72,0,0,1-2.76-1.43A28,28,0,0,1,55,62.21c-.34-.3-.79-.72-1.3-1.24a28.94,28.94,0,0,1-2.37-2.71c-.62-.81-1-1.46-1.17-1.66s-.54-.85-1-1.76a30.64,30.64,0,0,1-1.78-4c-.28-.72-.48-1.31-.6-1.65-.31-1-.54-1.76-.69-2.33s-.24-.93-.32-1.25c-.07.32-.18.75-.31,1.25s-.36,1.31-.76,2.51c-.52,1.54-1,2.67-1.14,3-.44,1-.8,1.74-.92,2-.29.56-.52,1-.58,1.07-.51.89-1,1.55-1.17,1.87-.09.12-.46.65-1,1.33A29.83,29.83,0,0,1,37.78,61c-.55.56-1,1-1.32,1.25a27.73,27.73,0,0,1-2.88,2.25c-.65.44-1.18.76-1.45.92s-.91.54-1.9,1c-.27.13-.86.42-1.62.74s-1.18.48-1.32.53l-.39.14c-.23.08-.8.28-1.44.47s-1.37.4-2,.57-.92.24-1.53.38c-1.31.3-2.38.47-3,.56-.33.05-1.12.16-2.14.25-.87.07-1.58.11-2.08.13-1.06,0-1.86,0-2.1,0-.66,0-1.23,0-1.7-.08a36.94,36.94,0,0,0,11.15,0,32.86,32.86,0,0,0,10.69-3.51,28,28,0,0,0,8.68-7.31,29.18,29.18,0,0,0,4.27-7.65A29.76,29.76,0,0,0,50,59.27a28.11,28.11,0,0,0,8.68,7.31,32.94,32.94,0,0,0,10.69,3.51,37.89,37.89,0,0,0,11.15,0c-.83,0-1.55.06-2.12.07s-1.14,0-2,0c-.14,0-.8,0-1.69-.11-1.46-.13-2.57-.31-2.94-.37S70.68,69.52,69.53,69.26Z"/><path class="cls-1" d="M64.91,35.13a32.53,32.53,0,0,1-5.86-3,32,32,0,0,1-3.72-2.8,31.26,31.26,0,0,1-4.72-5.26A31.09,31.09,0,0,1,46.5,16c-.17-.49-.33-1-.48-1.54-.1-.35-.19-.7-.28-1h0c-.08.33-.17.68-.27,1C45.32,15,45.16,15.5,45,16a31,31,0,0,1-8.84,13.38,32.55,32.55,0,0,1-3.71,2.8,32.89,32.89,0,0,1-5.86,3,33.66,33.66,0,0,1-9,2.07,29.87,29.87,0,0,0,9.32-1.26,33.54,33.54,0,0,0,4.43-1.72c.71-.37,1.43-.71,2.1-1.14l1-.62,1-.68.49-.34.47-.37.95-.75c.6-.51,1.2-1.05,1.77-1.62a31,31,0,0,0,3.13-3.63,31.1,31.1,0,0,0,3.54-6.32h0a31.59,31.59,0,0,0,3.54,6.32,30.17,30.17,0,0,0,3.14,3.63c.56.57,1.16,1.11,1.77,1.62l.94.75.47.37.5.34,1,.68,1,.62c.68.43,1.4.77,2.1,1.14a34.09,34.09,0,0,0,4.43,1.72A29.87,29.87,0,0,0,74,37.2,33.67,33.67,0,0,1,64.91,35.13Z"/></svg>