<svg id="レイヤー_1" data-name="レイヤー 1" xmlns="http://www.w3.org/2000/svg" viewBox="0 0 84.09 86.99"><defs><style>.cls-1{fill:#231815;}</style></defs><path class="cls-1" d="M63,54.38a29.51,29.51,0,0,1-6.58-2.64,26.79,26.79,0,0,1-2.55-1.6,27.6,27.6,0,0,1-3.83-3.26,29,29,0,0,1-8-16.73,30.2,30.2,0,0,1-.7,3.64,28.87,28.87,0,0,1-7.3,13.09,29,29,0,0,1-3.84,3.26,29.33,29.33,0,0,1-9.14,4.24,30.19,30.19,0,0,1-10.18,1,27.93,27.93,0,0,0,10.39-.1,27.09,27.09,0,0,0,9.72-4A25.49,25.49,0,0,0,35.14,48a26.72,26.72,0,0,0,3.42-4.07A29.23,29.23,0,0,0,42.05,37a29.58,29.58,0,0,0,3.48,6.84A26.22,26.22,0,0,0,49,48a25,25,0,0,0,4.13,3.33,26.16,26.16,0,0,0,4.68,2.47l1.23.47c.42.15.84.27,1.26.4s.84.25,1.27.35.85.22,1.28.29a27.94,27.94,0,0,0,10.39.1c-.37,0-.91.06-1.55.08A30.71,30.71,0,0,1,63,54.38Z"/><path class="cls-1" d="M65.84,70.78c-.43-.1-1.23-.29-2.23-.57a35.43,35.43,0,0,1-5.15-1.84,29.41,29.41,0,0,1-2.77-1.43,28.27,28.27,0,0,1-4.39-3.22c-.33-.29-.78-.71-1.3-1.23a30.56,30.56,0,0,1-2.37-2.71c-.61-.82-1-1.46-1.17-1.67s-.54-.84-1-1.76a33.66,33.66,0,0,1-1.78-4c-.27-.72-.48-1.31-.59-1.66-.32-.95-.55-1.75-.7-2.32s-.24-.93-.31-1.26c-.08.33-.18.76-.32,1.26s-.35,1.31-.76,2.51c-.52,1.54-1,2.67-1.14,3-.44,1-.8,1.73-.92,2-.29.56-.52,1-.58,1.07-.51.89-.95,1.55-1.17,1.86-.09.13-.46.66-1,1.34a27.8,27.8,0,0,1-2.07,2.34c-.56.56-1,1-1.32,1.25A28.5,28.5,0,0,1,29.89,66c-.66.45-1.19.77-1.46.93s-.91.54-1.89,1c-.28.13-.87.42-1.62.74s-1.18.47-1.33.52l-.39.14c-.23.08-.8.28-1.43.48s-1.37.4-2,.56-.93.25-1.53.38c-1.32.31-2.39.48-3,.56-.33,0-1.11.16-2.13.25s-1.59.12-2.09.13c-1.05,0-1.86,0-2.09,0-.66,0-1.24,0-1.7-.07A36.93,36.93,0,0,0,18.4,71.6a32.76,32.76,0,0,0,10.7-3.51,27.93,27.93,0,0,0,8.67-7.3,29.5,29.5,0,0,0,4.28-7.65,29.18,29.18,0,0,0,4.27,7.65A27.83,27.83,0,0,0,55,68.09,32.4,32.4,0,0,0,65.69,71.6a37.88,37.88,0,0,0,11.15.06c-.84,0-1.56.06-2.12.07s-1.14,0-2,0c-.14,0-.79,0-1.68-.11-1.46-.12-2.57-.3-2.94-.36S67,71,65.84,70.78Z"/><path class="cls-1" d="M61.21,36.64a32.21,32.21,0,0,1-5.86-3,30.54,30.54,0,0,1-8.43-8A30.89,30.89,0,0,1,42.8,17.5c-.17-.48-.33-1-.48-1.53-.1-.36-.19-.7-.27-1h0c-.09.34-.18.68-.28,1-.15.53-.31,1-.48,1.53a31.13,31.13,0,0,1-4.11,8.13,30.36,30.36,0,0,1-8.44,8.05,31.86,31.86,0,0,1-5.86,3,33.23,33.23,0,0,1-9,2.08,30.47,30.47,0,0,0,9.32-1.26,32.77,32.77,0,0,0,4.43-1.73c.7-.37,1.42-.71,2.1-1.14l1-.62,1-.68.5-.34.47-.37.94-.74c.61-.52,1.21-1.05,1.77-1.62a30.27,30.27,0,0,0,3.14-3.64,31.51,31.51,0,0,0,3.54-6.31h0a30.56,30.56,0,0,0,3.54,6.31,31.11,31.11,0,0,0,3.13,3.64c.57.57,1.16,1.1,1.77,1.62l.95.74.47.37.49.34,1,.68,1,.62c.67.43,1.39.77,2.1,1.14a32.26,32.26,0,0,0,4.43,1.73,30.47,30.47,0,0,0,9.32,1.26A33.23,33.23,0,0,1,61.21,36.64Z"/></svg>