<svg id="レイヤー_1" data-name="レイヤー 1" xmlns="http://www.w3.org/2000/svg" viewBox="0 0 263.91 255.06"><defs><style>.cls-1{fill:none;stroke:#a7c993;stroke-miterlimit:10;stroke-width:0.74px;stroke-dasharray:2.09 4.17;}.cls-2{fill:#91ac52;}.cls-3{fill:#fff;}.cls-4{fill:#f08437;}.cls-5{fill:#008cc2;}</style></defs><circle class="cls-1" cx="131.93" cy="141.56" r="97.61" transform="translate(-61.46 134.75) rotate(-45)"/><circle class="cls-2" cx="131.93" cy="46.2" r="46.2"/><path class="cls-3" d="M99.1,40a15.15,15.15,0,0,1-2,1.48c-.07.06-.2-.1-.14-.17a19.63,19.63,0,0,0,2.88-4.2,10.09,10.09,0,0,0,.73-1.9c1.7.73,1.93.85,1.93,1s-.14.26-.62.39a12,12,0,0,1-1.57,2.16c.74.12.86.19.86.37s-.12.27-.47.43v7.49c0,.51-.31.74-.93.74-.4,0-.76-.14-.76-.62s.11-1.87.11-4.71Zm2.64-7.2a12.87,12.87,0,0,1-4.41,3.71c-.07,0-.2-.11-.13-.18a14.9,14.9,0,0,0,2.27-3.07,9.29,9.29,0,0,0,.83-1.91c1.42.5,2.2.89,2.2,1.13S102.27,32.77,101.74,32.79ZM105.87,40c1.24.35,1.64.53,1.64.72s-.1.25-.72.41l-.3.44h3c.64-.63.78-.74.92-.74s.32.11,1,.69c.32.28.43.41.43.55s-.18.34-.84.48a12.89,12.89,0,0,1-2.28,2.21,12.59,12.59,0,0,0,5.1,1c.09,0,.09.18,0,.22a1.66,1.66,0,0,0-1,1.31c-.05.28-.12.37-.26.37a4.18,4.18,0,0,1-.89-.21,12.83,12.83,0,0,1-3.88-2,16,16,0,0,1-6.57,2.19c-.09,0-.18-.17-.09-.21a19.23,19.23,0,0,0,5.76-2.83,9.85,9.85,0,0,1-1.31-1.85,9.94,9.94,0,0,1-4.08,2.63c-.09,0-.17-.11-.1-.16a13.15,13.15,0,0,0,3.34-3.49,5.64,5.64,0,0,0,.82-1.72h-.28c0,.44-.34.62-.89.62s-.73-.18-.73-.52.06-1,.06-2.88c0-.36,0-.77,0-1.21A8.42,8.42,0,0,1,102.48,37c-.07.06-.19,0-.14-.12a17.27,17.27,0,0,0,1.72-3.77,9.65,9.65,0,0,0,.46-1.79c1.77.53,2.18.71,2.18,1s-.11.29-.75.41c-.14.29-.3.55-.46.83h5.09c.87-1,1.08-1.18,1.2-1.18s.34.14,1.17.83c.36.3.5.46.5.58s-.06.18-.23.18h-8c-.25.37-.5.73-.77,1.06a6.85,6.85,0,0,1,.82.48h4.62c.55-.62.69-.72.84-.72s.33.1,1,.6c.28.23.39.35.39.5s-.12.28-.5.49v.57c0,1.49.06,2.5.06,2.83,0,.5-.29.73-.92.73-.41,0-.66-.14-.71-.53Zm4.18-4.06h-4.8v1.56h4.8Zm0,2h-4.8v1.68h4.8ZM106.18,42a6.38,6.38,0,0,1-.42.51A7.72,7.72,0,0,0,107.51,44,12,12,0,0,0,109.46,42Z"/><path class="cls-3" d="M117.05,38.66c-.43,0-.59-.27-.93-1a3.6,3.6,0,0,0-1.22-1.56c-.07,0,0-.14.07-.14,1.9.16,2.94.78,2.94,1.79A.86.86,0,0,1,117.05,38.66Zm.69,3.72a6.2,6.2,0,0,0-.27,1.2c0,.92.71,1.67.71,2.61A1.16,1.16,0,0,1,117,47.44c-.57,0-.85-.32-.85-.94s.14-1.15.14-1.73c0-1.15-.14-1.33-1.38-1.79-.09,0-.06-.28,0-.27a7.29,7.29,0,0,0,.73.09.83.83,0,0,0,.8-.49,58.46,58.46,0,0,0,3-6.24c0-.09.25,0,.22.09C119.06,38.23,118.41,40.3,117.74,42.38Zm.67-7.67c-.52,0-.64-.25-1-1.08a3.79,3.79,0,0,0-1.26-1.6c-.07-.05,0-.14.07-.14,1.9.14,3,.81,3,1.84C119.21,34.39,118.8,34.71,118.41,34.71Zm5.77,3h-3a8.67,8.67,0,0,0-1.25.1l-.2-.65a8.27,8.27,0,0,0,1.45.14h3V34.09a28.81,28.81,0,0,1-4,.31c-.08,0-.08-.23,0-.24a27.93,27.93,0,0,0,6.15-1.81,8.65,8.65,0,0,0,2-1.1c1.11.87,1.56,1.28,1.56,1.47s-.15.29-.89.2a22.85,22.85,0,0,1-3.14.86v3.53h2.48c.91-1.08,1.12-1.22,1.24-1.22s.34.14,1.19.85c.37.32.51.48.51.6s0,.18-.22.18h-5.2v3.65h2c.64-.76.78-.87.92-.87s.32.11,1,.64c.31.26.41.39.41.53s0,.19-.51.58V43c0,2,0,3.31,0,3.75s-.35.69-1,.69-.71-.19-.71-.56v-.54h-5.72v.54c0,.46-.34.67-1,.67s-.71-.14-.71-.53c0-.59.07-1.22.07-3.62a26.57,26.57,0,0,0-.12-2.94,10.66,10.66,0,0,1,1.89.91h1.79Zm3.76,4.05h-5.72v4.17h5.72Z"/><path class="cls-3" d="M141.05,36.21a7.22,7.22,0,0,1-.39,1.88,12.34,12.34,0,0,1-1.12,2.55,14.22,14.22,0,0,1-2,3,2,2,0,0,1-1.47.73,1.8,1.8,0,0,1-1.35-.7,4.38,4.38,0,0,1-1-3.22,5.47,5.47,0,0,1,.76-2.69,6.86,6.86,0,0,1,2.39-2.48,7.87,7.87,0,0,1,4.29-1.15,6.77,6.77,0,0,1,4.39,1.38,5.43,5.43,0,0,1,2.07,4.5,4.8,4.8,0,0,1-1.63,3.65,7.68,7.68,0,0,1-2.62,1.57,12.63,12.63,0,0,1-3.63.68c-.27,0-.39,0-.39-.18s.11-.18.34-.23a8.79,8.79,0,0,0,4.55-2.32A5.25,5.25,0,0,0,145.9,39a3.87,3.87,0,0,0-1.55-3.33,5.61,5.61,0,0,0-2.84-1,7.1,7.1,0,0,0-1.12,0A2.42,2.42,0,0,1,141.05,36.21Zm-4.3.07a5.39,5.39,0,0,0-1.51,2.18,4.55,4.55,0,0,0-.3,1.68,3.5,3.5,0,0,0,.44,1.92,1.15,1.15,0,0,0,.78.58c.28,0,.55-.18,1.22-1.13a21.47,21.47,0,0,0,2.38-4.34,4.06,4.06,0,0,0,.37-1.51.87.87,0,0,0-.32-.79A6,6,0,0,0,136.75,36.28Z"/><path class="cls-3" d="M155.1,44.56c0,1.2,0,1.87,0,2.48,0,.42-.31.6-.94.6-.41,0-.64-.14-.64-.48s.09-2.34.1-3.86a10.45,10.45,0,0,1-3.52,2.81c-.07,0-.2-.14-.12-.19A13.62,13.62,0,0,0,153.38,41h-1.65a5.93,5.93,0,0,0-1,.11l-.2-.66a4.71,4.71,0,0,0,1.15.15h2V40c0-.62,0-1.15-.07-1.76,1.43.09,2.09.23,2.09.47s-.13.31-.55.49v1.37h.81c.57-.71.78-.85.91-.85s.35.14.94.6c.25.19.39.35.39.48s-.06.17-.23.17H155.1v1.05c1.59.19,2.62.85,2.62,1.7a.74.74,0,0,1-.72.8.65.65,0,0,1-.66-.52,3.43,3.43,0,0,0-1.24-1.68Zm4.18-10.3A8.56,8.56,0,0,0,162,35.89a15.77,15.77,0,0,0,4.37,1c.09,0,.07.18,0,.21a1.87,1.87,0,0,0-1.06,1c-.19.49-.32.62-.46.62a2.84,2.84,0,0,1-.9-.28,17.49,17.49,0,0,1-2.57-1.48,10.84,10.84,0,0,1-2.16-2.21c0,1.52.07,2.85.07,3.63,0,.46-.39.62-1,.62s-.71-.17-.71-.53.06-1.72.08-2.92a15.73,15.73,0,0,1-6.68,3.45c-.09,0-.16-.14-.09-.17a16.47,16.47,0,0,0,5.76-4.49h-3.8a8.07,8.07,0,0,0-1.18.11l-.2-.66a6.18,6.18,0,0,0,1.31.15h4.82V33c0-.64,0-1.1-.07-1.65,2.07.22,2.25.3,2.25.57s-.16.34-.58.51v1.39h3.66c.91-1.1,1.12-1.24,1.24-1.24s.36.12,1.21.85c.41.33.57.49.57.62s-.06.17-.24.17Zm3,10.33c0,1,.06,1.79.06,2.37s-.31.64-.91.64-.67-.16-.67-.51,0-2.27.09-4a12.47,12.47,0,0,1-4.4,3.35c-.07,0-.19-.16-.12-.21A13.28,13.28,0,0,0,160.4,41h-.93a5.53,5.53,0,0,0-1,.11l-.19-.66a5.06,5.06,0,0,0,1.18.15h1.32v-.73c0-.51,0-1.06-.07-1.67,1.54.11,2.1.23,2.1.48s-.14.3-.53.5v1.42h1.53c.67-.84.88-1,1-1s.35.14,1.06.67c.32.27.46.41.46.54s0,.17-.23.17h-3.65a7.57,7.57,0,0,0,1.81,2.22,7.77,7.77,0,0,0,2.62,1.41.1.1,0,0,1,0,.18,1.91,1.91,0,0,0-1,1.14c-.07.21-.14.28-.28.28s-.22-.07-.45-.27a10.25,10.25,0,0,1-1.5-1.7,11.32,11.32,0,0,1-1.35-2.83Z"/><path class="cls-3" d="M123.69,67.49c0,.79,0,1.52,0,2.14a1.62,1.62,0,0,1-.31,1,1.87,1.87,0,0,1-1.63.64c-.32,0-.34,0-.43-.5s-.57-.92-2.09-1.29c-.09,0-.09-.25,0-.25.87,0,1.77.11,2.53.11.18,0,.23-.09.23-.27V67.49h-4.09a6.3,6.3,0,0,0-1.2.12l-.2-.66a7.83,7.83,0,0,0,1.35.13H122V65.5h-5.45a12,12,0,0,0-1.47.11l-.2-.66a8.75,8.75,0,0,0,1.58.14H122V63.55h-3.89a7,7,0,0,0-1.35.14l-.19-.69a7.54,7.54,0,0,0,1.47.15h4V61.66h-3.17v.1c0,.39-.32.59-.9.59s-.73-.16-.73-.52.06-.81.06-2a15.54,15.54,0,0,0-.06-1.66,9.43,9.43,0,0,1,1.79.78h3V57.48h-5a9.69,9.69,0,0,0-1.51.12l-.19-.67a9.78,9.78,0,0,0,1.59.14H122v-.3a13.59,13.59,0,0,0-.09-1.9c2.27.32,2.27.32,2.27.62s-.12.27-.55.43v1.15h4.2c.87-1,1.08-1.1,1.21-1.1s.35.14,1.13.78c.35.28.5.42.5.55s-.06.18-.23.18h-6.81v1.45h3c.59-.66.73-.76.87-.76s.32.1.92.6c.27.23.37.35.37.5s-.05.21-.42.46v.32c0,.83,0,1.41,0,1.59,0,.41-.35.6-1,.6-.44,0-.65-.14-.65-.48v-.1h-3.16v1.49H127c.59-.62.73-.73.87-.73s.34.11,1,.57c.3.23.41.35.41.49s-.05.18-.49.48v1.13H129c.53-.79.74-.93.87-.93s.35.14,1,.67c.26.21.41.37.41.49s-.06.18-.23.18h-2.32c0,1.22.07,2.07.07,2.39,0,.52-.38.71-1.08.71-.45,0-.66-.18-.66-.57v-.54ZM122,59.34h-3.17v1.91H122Zm4.79,1.91V59.34h-3.16v1.91Zm.28,3.84V63.55h-3.44v1.54Zm0,2V65.5h-3.44c0,.41,0,.83,0,1.58Z"/><path class="cls-3" d="M141.44,66a11,11,0,0,0,2.89,1.74,15,15,0,0,0,4.66,1c.09,0,.09.15,0,.19-.66.25-.82.39-1.3,1.47a.3.3,0,0,1-.26.2,3.33,3.33,0,0,1-.83-.27,13.18,13.18,0,0,1-3.12-1.72,10.77,10.77,0,0,1-2.27-2.34c0,2.27.11,3.94.11,4.41s-.29.68-1,.68c-.48,0-.69-.2-.69-.59s.09-2.14.12-3.7a12.78,12.78,0,0,1-7,3.6c-.09,0-.18-.13-.09-.16A14.85,14.85,0,0,0,138.5,66h-4.18a8.7,8.7,0,0,0-1.24.11l-.2-.66a6.61,6.61,0,0,0,1.37.14h5.4V63.91h-3.47a8.9,8.9,0,0,0-1.26.1l-.19-.65a7.6,7.6,0,0,0,1.4.14h3.52V61.89h-4.39A9.16,9.16,0,0,0,134,62l-.19-.65a7.78,7.78,0,0,0,1.41.14h2.91c-.23-.07-.35-.3-.5-.81a3.39,3.39,0,0,0-.88-1.53c-.07,0,0-.16.1-.14,1.6.25,2.41.8,2.41,1.61a.9.9,0,0,1-.62.87h2.86a12.87,12.87,0,0,0,.74-1.52,7.12,7.12,0,0,0,.35-1.12c1.44.55,2,.83,2,1s-.12.26-.78.3a10.62,10.62,0,0,1-1.73,1.29H145c.83-.92,1-1.06,1.17-1.06s.35.14,1.13.74c.34.28.48.43.48.55s-.05.18-.23.18h-6.32V63.5H144c.76-.85,1-1,1.1-1s.35.14,1,.69c.3.25.44.41.44.53s-.06.18-.23.18h-5.1v1.64h4.39c.9-1,1.12-1.15,1.24-1.15s.34.15,1.15.8c.36.28.5.46.5.59s-.06.17-.23.17Zm-3.31-9.76a7.22,7.22,0,0,0-.09-1.29c2,.19,2.2.33,2.2.55s-.15.25-.57.44v2.52h1.47V56.2a7.22,7.22,0,0,0-.09-1.29c2,.21,2.22.33,2.22.55s-.13.25-.59.44v2.52h.73a18.26,18.26,0,0,0,1-2,7.16,7.16,0,0,0,.39-1.19c1.56.66,2.11.94,2.11,1.16s-.13.31-.82.33A11.7,11.7,0,0,1,144,58.42H146c.8-.89,1-1,1.13-1s.36.14,1.1.71c.34.28.48.42.48.55s-.05.17-.23.17H134.27a10.14,10.14,0,0,0-1.32.11l-.19-.66a7.43,7.43,0,0,0,1.45.15h3.92Zm-1.9,1.9c-.41,0-.56-.16-.74-.69a3.47,3.47,0,0,0-1-1.74c-.07-.05,0-.18.09-.16,1.67.28,2.53.87,2.53,1.7A.92.92,0,0,1,136.23,58.1Z"/><circle class="cls-4" cx="46.2" cy="208.86" r="46.2"/><path class="cls-3" d="M15.44,201.68c.74-.23,1.49-.5,2.13-.75.08,0,.16.16.08.21a21,21,0,0,1-4.62,2.8c0,.55-.14.77-.39.77s-.46-.48-1.08-2.15a11.77,11.77,0,0,0,1.52-.26l.8-.2v-5.84H12.69a4,4,0,0,0-.83.1l-.19-.65a3.69,3.69,0,0,0,.95.14h1.26v-2.61a24.86,24.86,0,0,0-.09-2.51c2.07.19,2.29.39,2.29.58s-.14.3-.64.53v4h.35c.46-.8.68-.94.8-.94s.34.14.9.65c.24.23.38.39.38.52s-.06.18-.23.18h-2.2Zm6.34-8.35a26.84,26.84,0,0,0-.1-2.82c1.93.24,2.17.32,2.17.59s-.12.27-.51.44v4.08l1.81-.66c.46-.81.56-.92.71-.92s.31.09,1,.55c.28.19.41.32.41.51s-.07.29-.43.59a23.75,23.75,0,0,1-.44,5.29,1.88,1.88,0,0,1-.73,1.09,2.1,2.1,0,0,1-1.09.23c-.27,0-.32-.06-.36-.41a1.2,1.2,0,0,0-.85-1.15c0,.83,0,1.45,0,1.82,0,.55-.3.76-1.05.76-.46,0-.69-.17-.69-.6s.07-2.39.09-6.09l-1.77.63V204c0,.77.19.8,2.6.8s3-.09,3.32-.35A5.28,5.28,0,0,0,27,201.89c0-.09.25,0,.25,0,0,.62,0,1.23,0,1.85,0,.44,0,.49.35.63s.48.31.48.61c0,.46-.26.78-.9,1a14,14,0,0,1-3.93.35c-4.27,0-4.8-.25-4.8-2,0-2.75,0-4.73,0-6.47l-.86.32a8.18,8.18,0,0,0-1.05.48l-.37-.55a7.36,7.36,0,0,0,1.26-.32l1-.37v-1.76a24.9,24.9,0,0,0-.12-3.22c1.72.18,2.21.3,2.21.58s-.1.3-.51.5v3.33l1.77-.66Zm1.58,3.19c0,1.29,0,2.59,0,3.88a8.18,8.18,0,0,0,1.23.09c.33,0,.4-.16.49-.76a35.85,35.85,0,0,0,.2-4.4l-1.95.71Z"/><path class="cls-3" d="M32.77,201.62c.6-.25,1.22-.51,1.73-.76.09,0,.2.18.13.23a17.42,17.42,0,0,1-4.1,3c0,.5-.12.71-.37.71s-.23,0-1.08-2.07a11.46,11.46,0,0,0,1.31-.3l.78-.25v-6h-.69a4.55,4.55,0,0,0-.89.1l-.19-.65a4.26,4.26,0,0,0,1,.14h.74V193.3c0-1,0-1.79-.09-2.47,2.08.2,2.27.39,2.27.57s-.21.28-.58.48v4c.51-.85.72-1,.85-1s.32.14.87.69c.21.23.35.41.35.53s-.05.18-.23.18H32.77Zm2.41,3c-.06.48-.18.7-.41.7s-.27,0-1-2.13a8.22,8.22,0,0,0,1.35-.16,41.43,41.43,0,0,0,4.6-1.13c.09,0,.16.16.09.21A19.22,19.22,0,0,1,35.18,204.63Zm6.39-10.22a25.29,25.29,0,0,0,.55,5.65,10.76,10.76,0,0,0,.58-1.59,15.87,15.87,0,0,0,.52-2.41c1.5.55,2,.78,2,1s-.15.26-.54.35a18.2,18.2,0,0,1-2,4.27,11,11,0,0,0,.78,1.58c.37.62.62.88.82.88s.39-.26,1.15-1.73c0-.07.21,0,.19.05a23.9,23.9,0,0,0-.42,2.37c0,.2,0,.22.28.61a.86.86,0,0,1,.18.51.78.78,0,0,1-.82.78c-.64,0-1.56-.8-2.35-2a10.07,10.07,0,0,1-.91-1.63,13.47,13.47,0,0,1-5.31,3.56c-.09,0-.2-.18-.13-.23a15.25,15.25,0,0,0,5-4.56,29.33,29.33,0,0,1-1-7.51H35.87a9.88,9.88,0,0,0-1.33.11l-.2-.66a8.12,8.12,0,0,0,1.53.15H40c0-.45,0-.91,0-1.39a17.44,17.44,0,0,0-.09-2c2,.3,2.17.41,2.17.61s-.11.21-.52.39c0,.88,0,1.68,0,2.41h1.67c.62-.86.83-1,.95-1s.34.14,1,.69c.29.25.43.41.43.54s-.06.17-.23.17Zm-5.08,6v.71c0,.43-.27.61-.87.61-.41,0-.62-.15-.62-.48,0-.68,0-1.49,0-3.65,0-.87,0-1.38,0-1.9a13.41,13.41,0,0,1,1.57.82h1.26c.55-.68.69-.78.83-.78s.32.1.87.58c.25.23.36.36.36.5s-.13.32-.45.55v.55c0,1.43,0,2.42,0,2.74s-.34.57-.92.57c-.37,0-.57-.14-.57-.48v-.34Zm1.5-3.48h-1.5V200H38Zm5.6-3.88c-.27,0-.37-.11-.53-.52a2.77,2.77,0,0,0-.8-1.22c-.07,0,0-.16.09-.16,1.29.11,2,.5,2,1.15A.73.73,0,0,1,43.59,193Z"/><path class="cls-3" d="M49.21,200.68c0-1,0-2.19,0-3.66,0-1.31,0-1.83-.09-3.46a11.46,11.46,0,0,1,1.87,1h3.21v-2.67H48.94a13.12,13.12,0,0,0-1.65.11l-.19-.66a11.86,11.86,0,0,0,1.84.14H60.21c.92-1.08,1.13-1.22,1.26-1.22s.37.14,1.31.85c.42.34.56.48.56.6s-.05.18-.23.18H56v2.67h3.31c.64-.74.78-.85.92-.85s.32.11,1,.66c.31.27.41.39.41.53s-.1.27-.46.53v5.26h.11c.71-1,.92-1.17,1-1.17s.32.15,1,.82c.28.28.43.46.43.58s-.06.18-.23.18H61.11c0,3.12,0,3.33,0,3.69,0,.81-.17,1.17-.67,1.47a2.73,2.73,0,0,1-1.34.37c-.47,0-.5,0-.57-.5-.16-.67-.71-1-2.23-1.31-.09,0-.09-.23,0-.21a21.87,21.87,0,0,0,2.8.18c.24,0,.31-.09.31-.34v-3.35H50.87V206c0,.5-.32.75-1,.75s-.74-.18-.74-.68c0-.92,0-1.94.07-4.94h-.3c-.55,0-1.09,0-1.81.11l-.2-.66a13.29,13.29,0,0,0,2,.14ZM50.87,195v2.52h3.35V195Zm3.35,5.72v-2.8H50.87v2.8ZM59.46,195H56v2.52h3.5Zm0,2.92H56v2.8h3.5Z"/><path class="cls-3" d="M73.78,199.82H76.4c.89-1.14,1.1-1.28,1.22-1.28s.34.14,1.21.89c.39.33.53.49.53.62s0,.17-.23.17H73.78v4.95h3.86c1-1.19,1.22-1.33,1.35-1.33s.35.14,1.29.92c.43.35.57.51.57.64s-.06.17-.23.17H67a16.34,16.34,0,0,0-1.7.11L65.1,205a12.29,12.29,0,0,0,1.88.15h5.08v-4.95H69a12.75,12.75,0,0,0-1.49.11l-.19-.66a8.88,8.88,0,0,0,1.59.15h3.17v-4.19H68.87a10.09,10.09,0,0,1-3.42,3.83c-.07,0-.23-.07-.17-.14a16.12,16.12,0,0,0,2.62-5.44,17,17,0,0,0,.42-2c1.65.42,2.29.67,2.29.95s-.2.32-.71.46a17.21,17.21,0,0,1-.82,2h3v-2.16a21.61,21.61,0,0,0-.11-2.52c2.25.21,2.48.43,2.48.64s-.21.35-.65.49v3.55h3c.9-1.17,1.11-1.31,1.24-1.31s.33.14,1.24.9c.4.34.53.51.53.64s-.06.17-.23.17H73.78Z"/><path class="cls-3" d="M38.12,226.52c0,.8,0,1.52,0,2.14a1.57,1.57,0,0,1-.32,1,1.86,1.86,0,0,1-1.63.64c-.32,0-.33,0-.42-.49s-.57-.92-2.09-1.3c-.09,0-.09-.24,0-.24.87.05,1.77.1,2.53.1.18,0,.23-.09.23-.26v-1.58H32.36a6.32,6.32,0,0,0-1.21.12L31,226a7.72,7.72,0,0,0,1.35.12h4.14v-1.58H31a12.29,12.29,0,0,0-1.47.11l-.19-.65a9.76,9.76,0,0,0,1.58.14h5.54v-1.54h-3.9a6.29,6.29,0,0,0-1.34.14L31,222a8.48,8.48,0,0,0,1.47.14h4v-1.49H33.28v.11c0,.39-.32.58-.9.58s-.73-.16-.73-.51.05-.82.05-2c0-.62,0-1-.05-1.67a10.44,10.44,0,0,1,1.79.78h3v-1.45h-5a11,11,0,0,0-1.5.12l-.2-.67a9,9,0,0,0,1.6.14h5.08v-.3a15.15,15.15,0,0,0-.09-1.89c2.27.31,2.27.31,2.27.62s-.12.26-.55.42v1.15h4.2c.87-.95,1.08-1.1,1.21-1.1s.35.15,1.13.78c.35.29.49.43.49.55s0,.18-.23.18h-6.8V218h3c.58-.65.73-.76.87-.76s.32.11.92.6c.27.23.37.36.37.5s-.05.21-.42.46v.32c0,.83,0,1.42,0,1.59,0,.41-.35.61-1,.61-.44,0-.65-.15-.65-.48v-.11H38.08v1.49h3.35c.58-.62.73-.73.87-.73s.33.11,1,.57c.3.23.41.35.41.49s0,.18-.5.48v1.14h.29c.53-.8.74-.94.86-.94s.36.14,1,.67c.26.21.4.37.4.5s0,.17-.23.17H43.18c0,1.23.07,2.08.07,2.4,0,.51-.37.7-1.08.7-.44,0-.65-.17-.65-.56v-.55Zm-1.67-8.15H33.28v1.91h3.17Zm4.79,1.91v-1.91H38.08v1.91Zm.28,3.85v-1.54H38.08v1.54Zm0,2v-1.58H38.08c0,.41,0,.84,0,1.58Z"/><path class="cls-3" d="M55.87,225a11,11,0,0,0,2.89,1.73,14.67,14.67,0,0,0,4.65,1c.09,0,.09.16,0,.19-.65.25-.81.39-1.29,1.47-.07.15-.16.2-.26.2a3.36,3.36,0,0,1-.84-.27,12.84,12.84,0,0,1-3.12-1.72,10.91,10.91,0,0,1-2.26-2.33c0,2.26.1,3.93.1,4.41s-.28.67-1,.67c-.48,0-.69-.19-.69-.58s.09-2.15.12-3.71a12.78,12.78,0,0,1-7,3.6c-.09,0-.18-.12-.09-.16a14.83,14.83,0,0,0,5.9-4.53H48.75a8.44,8.44,0,0,0-1.24.1l-.2-.65a7.38,7.38,0,0,0,1.37.14h5.4v-1.65H50.61a9,9,0,0,0-1.26.11l-.2-.66a7,7,0,0,0,1.4.14h3.53v-1.61H49.69a9.21,9.21,0,0,0-1.28.11l-.19-.66a7,7,0,0,0,1.41.14h2.91c-.23-.07-.36-.3-.5-.81a3.39,3.39,0,0,0-.88-1.53c-.08,0,0-.15.1-.14,1.6.25,2.41.8,2.41,1.62a.89.89,0,0,1-.62.86H55.9a11.67,11.67,0,0,0,.75-1.52,7.93,7.93,0,0,0,.35-1.12c1.44.55,2,.84,2,1s-.12.26-.78.3a10.62,10.62,0,0,1-1.73,1.29h2.94c.83-.92,1-1.06,1.17-1.06s.35.14,1.13.74c.34.29.48.43.48.55s-.06.18-.23.18H55.67v1.61h2.77c.76-.85,1-1,1.1-1s.35.14,1,.69c.3.25.45.41.45.53s-.06.18-.23.18H55.67v1.65h4.4c.9-1,1.11-1.15,1.24-1.15s.33.14,1.15.79c.35.29.49.46.49.59s-.05.18-.23.18Zm-3.31-9.77a7.22,7.22,0,0,0-.09-1.29c2,.2,2.19.34,2.19.55s-.14.25-.56.44v2.52h1.47v-2.22a7.22,7.22,0,0,0-.09-1.29c2,.21,2.21.34,2.21.55s-.12.25-.58.44v2.52h.72a16.81,16.81,0,0,0,1-2,8.54,8.54,0,0,0,.39-1.18c1.56.65,2.1.94,2.1,1.15s-.12.32-.81.34a11.72,11.72,0,0,1-2.13,1.68h2.08c.79-.89,1-1,1.13-1s.35.14,1.1.71c.34.28.48.42.48.55s-.06.18-.23.18H48.69a9.67,9.67,0,0,0-1.31.1l-.19-.65a8.19,8.19,0,0,0,1.45.14h3.92Zm-1.9,1.9c-.41,0-.57-.16-.74-.69a3.59,3.59,0,0,0-1-1.74c-.07,0,0-.17.09-.16,1.66.29,2.53.87,2.53,1.7A.92.92,0,0,1,50.66,217.13Z"/><circle class="cls-5" cx="217.71" cy="208.55" r="46.2"/><path class="cls-3" d="M186.18,196.51a24.8,24.8,0,0,1-.5,4.79,12.93,12.93,0,0,0,2-3,12.19,12.19,0,0,0,.61-1.57c1.86.63,2.16.78,2.16,1s-.16.34-.83.45l-.55.71H192a10.14,10.14,0,0,0,.39-1,5.9,5.9,0,0,0,.25-1.19c1.7.48,2.16.68,2.16.92s-.18.29-.85.3a5.09,5.09,0,0,1-1.19.93h2.66c.9-1,1-1.07,1.19-1.07s.33.11,1.11.73c.37.3.48.42.48.57s-.07.17-.26.17h-4.54V201h1.82c.68-.73.89-.87,1-.87s.38.14,1,.6c.3.23.44.38.44.5s-.05.18-.23.18h-4.07v1.75h1.9c.69-.74.9-.89,1-.89s.37.15,1,.64c.28.22.43.36.43.48s-.06.18-.23.18h-4.15v1.88h2.25c.85-.85,1.06-1,1.19-1s.37.15,1.17.71c.35.25.49.39.49.52s-.05.17-.23.17h-9.49v.25c0,.52-.27.69-1,.69-.46,0-.63-.14-.63-.51s.07-1,.07-3c0-.89,0-1.79,0-2.71a12.92,12.92,0,0,1-1.52,1,.08.08,0,0,1-.11,0,9.58,9.58,0,0,1-2.89,5c-.07.06-.17-.09-.14-.16a14.23,14.23,0,0,0,1.58-5.08,47.68,47.68,0,0,0,.3-6.13,23.57,23.57,0,0,0-.11-2.59,16.07,16.07,0,0,1,2.11,1h9.09c.67-.73.82-.84,1-.84s.33.11,1,.61c.29.21.39.33.39.47s-.1.34-.49.54V195c0,.58.07,1.13.07,1.4,0,.47-.36.74-1,.74-.51,0-.67-.12-.67-.58v-.06Zm9.57-4.91c.93-1,1.15-1.16,1.27-1.16s.37.14,1.29.81c.43.32.57.46.57.59s0,.17-.23.17H184.71a10.84,10.84,0,0,0-1.38.11l-.2-.66a8.35,8.35,0,0,0,1.54.14Zm0,2.41H186.2v.75c0,.46,0,.92,0,1.34h9.57Zm-3.9,7v-1.74h-3.08V201Zm-3.08,2.16h3.08v-1.75h-3.08Zm0,2.29h3.08V203.6h-3.08Z"/><path class="cls-3" d="M203.77,200.13a14.15,14.15,0,0,1-.3,1.84,8.11,8.11,0,0,1-2.83,4.71c-.07,0-.22-.07-.18-.14a11.83,11.83,0,0,0,1.52-4.62,50.48,50.48,0,0,0,.29-6.42c0-2.16-.06-3.38-.13-4.48a8.11,8.11,0,0,1,2,1h9.38c.72-.72.86-.83,1-.83s.32.11,1,.62c.3.27.41.39.41.53s-.06.21-.48.51v1.95c0,8.17.07,8.81.07,9.92,0,.91-.21,1.14-.64,1.46a2.57,2.57,0,0,1-1.36.42c-.3,0-.36-.16-.41-.48-.14-.79-.66-1-2-1.32-.09,0-.09-.22,0-.22.83.07,1.54.09,2.3.09.25,0,.3-.07.3-.3v-4.23h-4.11c0,2.26,0,4.39,0,5.29,0,.53-.3.73-1,.73-.57,0-.78-.2-.78-.71,0-.25.05-1,.05-2.62v-2.69Zm.21-4c0,1.18-.07,2.37-.17,3.56h4.05v-3.56Zm3.88-.41v-3.33H204v.83c0,.84,0,1.67,0,2.5Zm5.83-3.33h-4.11v3.33h4.11Zm0,3.74h-4.11v3.56h4.11Z"/><path class="cls-3" d="M220.66,202.75a8.58,8.58,0,0,1-2.5,3.22c-.07.06-.23-.05-.18-.12a12.09,12.09,0,0,0,1.67-4.38,22.16,22.16,0,0,0,.26-3.82c0-.66,0-1.07,0-2.18a13.64,13.64,0,0,1,1.68.78h4c.47-.59.62-.69.76-.69s.32.1.92.58c.26.23.37.35.37.5s-.11.23-.41.46v1c0,.94,0,1.53,0,2.41,0,.48-.32.66-.89.66s-.67-.16-.67-.52v-.17h-4.43a9.87,9.87,0,0,1-.23,1.18c.48.22.67.31,1.26.61h3.43c.52-.61.66-.71.8-.71s.34.1.92.56c.27.22.38.34.38.48s-.08.2-.41.46v.48c0,1.28.05,2.15.05,2.43s-.32.58-.92.58-.67-.14-.67-.49v-.32h-3.69v.53c0,.39-.3.58-.88.58-.43,0-.68-.15-.68-.44,0-.44.06-.9.06-2.74Zm.79-8.33a12.08,12.08,0,0,1-3.27,1.76c-.09,0-.2-.13-.13-.18a14.54,14.54,0,0,0,3.62-3.54,10.15,10.15,0,0,0,1-2c1.77.67,2,.78,2,1s-.19.28-.71.28l-.07.09c2.71.62,3.88,1.29,3.88,2.25a.68.68,0,0,1-.62.76c-.26,0-.48-.14-.8-.55a8.14,8.14,0,0,0-2.65-2.19,13.31,13.31,0,0,1-2.25,2.25,3.75,3.75,0,0,0,.87.12H224c.48-.66.69-.8.82-.8s.35.14.92.57c.24.19.39.34.39.46s-.06.18-.23.18h-3.49a3,3,0,0,0-.73.1Zm0,4.08c0,.51-.07,1-.13,1.52h4.38V198.5Zm4.25-1.85h-4.22c0,.52,0,1,0,1.44h4.24Zm.18,6h-3.69v2.66h3.69Zm4.46-8c0,3.83.09,6.47.09,7.34,0,.49-.3.72-.92.72s-.71-.19-.71-.63.07-2.06.07-5.18c0-2.76,0-3.31-.07-4.67,1.77.17,2.07.25,2.07.53s-.12.28-.53.44Zm1.7-2.23a8.44,8.44,0,0,0-.11-1.49c2.1.27,2.13.29,2.13.55s-.12.34-.46.5v6.48c0,3.23.09,5.62.09,6.43s-.14,1.1-.57,1.4a2.32,2.32,0,0,1-1.29.43c-.41,0-.53-.09-.59-.44-.08-.68-.39-.89-1.8-1.33-.09,0-.09-.25,0-.25.78.07,1.63.12,2.32.12.23,0,.28-.05.28-.25Z"/><path class="cls-3" d="M244.91,198v7.13h4.61v-3.3a10.29,10.29,0,0,0-.13-1.84c2.13.19,2.5.28,2.5.6s-.21.39-.67.55v.83c0,2.2.08,3.71.08,4.2s-.33.73-1,.73c-.53,0-.74-.16-.74-.59v-.78H238.73v.64c0,.53-.3.76-1,.76-.55,0-.78-.17-.78-.65s.09-1.6.09-4a16.56,16.56,0,0,0-.09-2.24c1.91.16,2.41.31,2.41.57s-.18.36-.6.55v4h4.46V198h-3.72v.38c0,.46-.32.65-1.06.65-.53,0-.73-.19-.73-.57s.11-1.38.11-3.54a20.56,20.56,0,0,0-.11-2.6c2.16.23,2.43.3,2.43.58s-.18.37-.64.55v4.15h3.72V193.2a22.76,22.76,0,0,0-.11-2.52c2.29.22,2.52.43,2.52.64s-.23.41-.69.57v5.67h3.84v-3.35a13.51,13.51,0,0,0-.1-1.91c2,.19,2.37.3,2.37.62s-.16.33-.57.49v.8c0,2.11.09,3.52.09,4s-.32.73-1,.73-.77-.2-.77-.59V198Z"/><path class="cls-3" d="M209.32,226.71c0,.79,0,1.52,0,2.14a1.57,1.57,0,0,1-.32,1,1.86,1.86,0,0,1-1.63.64c-.31,0-.33,0-.42-.5s-.57-.92-2.09-1.29c-.09,0-.09-.25,0-.25.87.05,1.77.11,2.53.11.18,0,.23-.09.23-.27v-1.57h-4.09a6.39,6.39,0,0,0-1.21.12l-.19-.66a7.83,7.83,0,0,0,1.35.13h4.14v-1.58H202.2a12.3,12.3,0,0,0-1.48.11l-.19-.66a8.75,8.75,0,0,0,1.58.14h5.54v-1.54h-3.9a7,7,0,0,0-1.34.14l-.2-.69a7.69,7.69,0,0,0,1.47.15h4v-1.49h-3.17v.1c0,.39-.32.59-.9.59s-.73-.16-.73-.52.05-.81.05-2c0-.62,0-1-.05-1.66a9.43,9.43,0,0,1,1.79.78h3V216.7h-5a9.57,9.57,0,0,0-1.5.12l-.2-.67a10,10,0,0,0,1.6.14h5.08V216a15.32,15.32,0,0,0-.09-1.9c2.27.32,2.27.32,2.27.62s-.12.27-.55.43v1.15h4.2c.87-1,1.08-1.1,1.2-1.1s.36.14,1.14.78c.35.28.49.42.49.55s-.05.18-.23.18h-6.8v1.45h3c.59-.66.73-.76.87-.76s.32.1.92.6c.27.23.37.35.37.5s-.05.21-.42.46v.31c0,.84,0,1.42,0,1.6,0,.41-.35.6-1,.6-.44,0-.66-.14-.66-.48v-.1h-3.15v1.49h3.35c.58-.62.73-.73.87-.73s.33.11,1,.57c.3.23.41.35.41.49s0,.18-.5.48v1.13h.29c.53-.79.74-.93.87-.93s.35.14,1,.67c.26.21.4.37.4.49s-.05.18-.23.18h-2.32c0,1.22.07,2.07.07,2.39,0,.52-.37.71-1.08.71-.44,0-.65-.18-.65-.57v-.54Zm-1.67-8.15h-3.17v1.91h3.17Zm4.78,1.91v-1.91h-3.15v1.91Zm.29,3.84v-1.54h-3.44v1.54Zm0,2v-1.58h-3.44c0,.41,0,.83,0,1.58Z"/><path class="cls-3" d="M227.07,225.18a10.79,10.79,0,0,0,2.89,1.74,15,15,0,0,0,4.66,1c.08,0,.08.15,0,.19-.66.25-.82.39-1.3,1.47a.3.3,0,0,1-.26.2,3.36,3.36,0,0,1-.84-.27,13.31,13.31,0,0,1-3.11-1.72,10.77,10.77,0,0,1-2.27-2.34c0,2.27.1,3.94.1,4.41s-.28.68-1,.68c-.48,0-.69-.2-.69-.59s.09-2.14.12-3.7a12.78,12.78,0,0,1-7,3.6c-.09,0-.18-.13-.09-.16a14.85,14.85,0,0,0,5.9-4.54H220a8.7,8.7,0,0,0-1.24.11l-.2-.66a6.61,6.61,0,0,0,1.37.14h5.4v-1.64h-3.47a8.9,8.9,0,0,0-1.26.1l-.2-.65a7.76,7.76,0,0,0,1.4.14h3.53v-1.61h-4.39a9.05,9.05,0,0,0-1.28.1l-.19-.65a7.78,7.78,0,0,0,1.41.14h2.91c-.23-.07-.36-.3-.5-.82a3.41,3.41,0,0,0-.88-1.52c-.07-.05,0-.16.1-.14,1.6.25,2.41.8,2.41,1.61a.9.9,0,0,1-.62.87h2.85a11.67,11.67,0,0,0,.75-1.52,8.36,8.36,0,0,0,.35-1.12c1.44.55,2,.83,2,1.05s-.12.26-.78.3a10.62,10.62,0,0,1-1.73,1.29h2.94c.83-.92,1-1.06,1.17-1.06s.35.14,1.13.74c.34.28.48.43.48.55s-.05.18-.23.18h-6.33v1.61h2.77c.76-.85,1-1,1.1-1s.35.14,1,.69c.3.25.45.41.45.53s-.06.18-.23.18h-5.11v1.64h4.4c.9-1,1.11-1.15,1.24-1.15s.33.14,1.15.8c.35.28.5.46.5.59s-.06.17-.23.17Zm-3.31-9.76a7.22,7.22,0,0,0-.09-1.29c2,.19,2.19.33,2.19.55s-.14.24-.56.44v2.51h1.47v-2.21a7.22,7.22,0,0,0-.09-1.29c2,.21,2.21.33,2.21.55s-.12.24-.58.44v2.51H229a17.34,17.34,0,0,0,1-2,8.22,8.22,0,0,0,.39-1.19c1.56.66,2.11.94,2.11,1.16s-.13.31-.82.33a10.9,10.9,0,0,1-2.13,1.68h2.08c.79-.88,1-1,1.13-1s.36.14,1.1.71c.34.28.48.42.48.55s-.06.17-.23.17H219.89a9.87,9.87,0,0,0-1.31.11l-.19-.66a7.34,7.34,0,0,0,1.45.14h3.92Zm-1.9,1.9c-.41,0-.57-.16-.74-.69a3.55,3.55,0,0,0-1-1.74c-.07,0,0-.18.09-.16,1.66.28,2.53.87,2.53,1.7A.92.92,0,0,1,221.86,217.32Z"/><path class="cls-2" d="M75.89,119.86c-.17,0-.24,0-.3-.2s0-.25.16-.32c1-.37,2.59-1,3.78-1.59.12,0,.28.09.28.21,0,1.42-.07,2.48-.07,3.91v5.55c0,1.75,0,2,.19,2.36s.76.39,1.51.46c.12,0,.16.07.16.26s0,.25-.16.25c-.82,0-1.79-.05-2.62-.05s-1.86,0-2.7.05c-.14,0-.17,0-.17-.25s0-.25.17-.26c.75-.06,1.33-.07,1.51-.46a7.12,7.12,0,0,0,.18-2.36v-6.34a3.06,3.06,0,0,0-.18-1.37c-.12-.19-.5-.21-1,0Z"/><path class="cls-2" d="M91.7,124.43c0,4.07-1.47,6.64-3.94,6.64s-4-2.45-4-6.54,1.46-6.69,4-6.69S91.7,120.39,91.7,124.43Zm-5.83,0c0,3.68.37,6,1.89,6s1.86-2.36,1.86-6-.35-6.09-1.86-6.09S85.87,120.78,85.87,124.48Z"/><path class="cls-2" d="M100.94,124.43c0,4.07-1.47,6.64-3.93,6.64s-4-2.45-4-6.54,1.46-6.69,4-6.69S100.94,120.39,100.94,124.43Zm-5.82,0c0,3.68.37,6,1.89,6s1.86-2.36,1.86-6-.35-6.09-1.86-6.09S95.12,120.78,95.12,124.48Z"/><path class="cls-2" d="M114.46,127c1-1.17,1.19-1.31,1.31-1.31s.36.14,1.3.9c.42.36.56.52.56.64s0,.18-.23.18h-6.16c0,1.89.05,3.61.05,4.37,0,.54-.35.76-1.06.76-.52,0-.78-.15-.78-.62s.07-1.82.07-4.51h-6.24a9.67,9.67,0,0,0-1.31.1l-.19-.65a8.19,8.19,0,0,0,1.45.14h1.56V124.6c0-.88,0-1.77-.07-2.65a11,11,0,0,1,1.86.85h2.94v-3.26h-3.28a12,12,0,0,1-4,3.88c-.08,0-.25-.09-.18-.16a15.55,15.55,0,0,0,3.06-5.07,9.32,9.32,0,0,0,.57-2c1.88.55,2.36.76,2.36,1.07s-.22.31-.77.39c-.26.55-.53,1-.81,1.52H114c.92-1.08,1.13-1.22,1.26-1.22s.35.14,1.26.85c.4.33.55.48.55.6s-.06.18-.23.18h-5.62v3.26h2.09c.9-1,1-1.14,1.19-1.14s.33.11,1.2.78c.41.32.52.44.52.59s-.08.17-.27.17h-4.73v.64c0,1,0,2.13,0,3.19Zm-4.94-3.83h-3.07V127h3.07Z"/><path class="cls-2" d="M121.37,125a13,13,0,0,1-2,1.38c-.07,0-.23-.12-.16-.19a20.14,20.14,0,0,0,3.07-4.07,13.25,13.25,0,0,0,.87-2c1.79.85,2,1,2,1.24s-.22.37-.77.37a21.25,21.25,0,0,1-1.64,2c.58.12.69.19.69.35s-.13.25-.48.41v7.42c0,.52-.3.75-.92.75-.39,0-.76-.16-.76-.68s.1-1.86.1-4.66Zm2.75-7.28a12.68,12.68,0,0,1-4.68,3.72c-.09,0-.19-.12-.12-.17a14.3,14.3,0,0,0,2.58-3.18,8.07,8.07,0,0,0,.91-1.91c1.57.66,2.14,1,2.14,1.22S124.77,117.69,124.12,117.71Zm3.68,5.62a27.09,27.09,0,0,0,2.71-3.7,13.06,13.06,0,0,0,.87-1.69c1.38.57,2.07.92,2.07,1.08s-.17.3-.7.27a22.79,22.79,0,0,1-4.2,4c1.52,0,3-.09,4.55-.2a7.4,7.4,0,0,0-1-1.34c-.07,0,.07-.21.16-.18,2,.71,3.17,1.67,3.17,2.61a1,1,0,0,1-1,1.06c-.48,0-.62-.14-.81-.83a6.29,6.29,0,0,0-.38-.93,48.62,48.62,0,0,1-5.63.94c1.12.34,1.36.48,1.36.73s-.05.21-.54.34c-.11.17-.23.33-.34.49h3.08c.66-.56.8-.67.94-.67s.32.11,1,.64c.28.25.39.37.39.51s-.09.3-.78.51a13.1,13.1,0,0,1-2,2.34,14,14,0,0,0,5.26,1.28c.09,0,.07.19,0,.21-.53.16-.74.46-1,1.45a.27.27,0,0,1-.23.22,3,3,0,0,1-.75-.16,12.67,12.67,0,0,1-3.93-2,2.3,2.3,0,0,1-.28-.23,14.37,14.37,0,0,1-6.38,2.48c-.09,0-.12-.23,0-.24a14.83,14.83,0,0,0,5.55-3.11,15.7,15.7,0,0,1-1.54-2.25,10,10,0,0,1-3.92,3c-.09,0-.19-.12-.12-.18a11.9,11.9,0,0,0,3.19-3.79,6.48,6.48,0,0,0,.63-1.49l-1.59.16c-.11.45-.23.61-.42.61s-.38-.27-.78-2c1,.07,1.5.09,2.39.09Zm.06-5.64a8.87,8.87,0,0,0,.39-1.43c1.43.44,2.09.73,2.09.94s-.2.3-.71.3a17.77,17.77,0,0,1-2.09,2c.71.39,1,.85,1,1.38a.93.93,0,0,1-.83,1c-.34,0-.53-.16-.69-.62a5.2,5.2,0,0,0-1.65-2.37c-.07-.06,0-.18.11-.16a9.49,9.49,0,0,1,1.63.58A15.77,15.77,0,0,0,127.86,117.69Zm-.2,9a9.39,9.39,0,0,0,1.91,2,10.83,10.83,0,0,0,1.67-2.2h-3.4Z"/><path class="cls-2" d="M145.52,121.15a7.3,7.3,0,0,1-.39,1.88,12.58,12.58,0,0,1-1.12,2.55,15.06,15.06,0,0,1-2,3,2,2,0,0,1-1.47.72,1.79,1.79,0,0,1-1.35-.69,4.39,4.39,0,0,1-1-3.22,5.47,5.47,0,0,1,.76-2.69,6.81,6.81,0,0,1,2.39-2.49A8,8,0,0,1,145.7,119a6.72,6.72,0,0,1,4.39,1.39,5.43,5.43,0,0,1,2.07,4.5,4.77,4.77,0,0,1-1.63,3.64,7.56,7.56,0,0,1-2.62,1.58,12.34,12.34,0,0,1-3.63.67c-.27,0-.39,0-.39-.17s.11-.18.34-.23a8.79,8.79,0,0,0,4.55-2.32,5.27,5.27,0,0,0,1.59-4.11,3.86,3.86,0,0,0-1.56-3.33,5.54,5.54,0,0,0-2.83-1,7.08,7.08,0,0,0-1.12,0A2.4,2.4,0,0,1,145.52,121.15Zm-4.31.07a5.46,5.46,0,0,0-1.5,2.18,4.55,4.55,0,0,0-.3,1.68,3.45,3.45,0,0,0,.44,1.91,1.14,1.14,0,0,0,.78.59c.28,0,.55-.18,1.22-1.13a22.26,22.26,0,0,0,2.38-4.34,4.27,4.27,0,0,0,.37-1.51.9.9,0,0,0-.32-.8A6,6,0,0,0,141.21,121.22Z"/><path class="cls-2" d="M159.57,129.49c0,1.21,0,1.88,0,2.48,0,.43-.3.6-.94.6-.4,0-.63-.14-.63-.47s.09-2.34.1-3.86a10.55,10.55,0,0,1-3.52,2.81c-.07,0-.2-.14-.13-.19a13.61,13.61,0,0,0,3.37-4.91H156.2a6.14,6.14,0,0,0-1,.11l-.19-.66a4.65,4.65,0,0,0,1.15.14h2V125c0-.62,0-1.16-.07-1.76,1.43.09,2.09.23,2.09.46s-.13.32-.55.5v1.36h.81c.57-.71.78-.85.91-.85s.35.14.94.6c.24.2.39.36.39.48s-.06.18-.24.18h-2.81v1c1.59.2,2.62.86,2.62,1.71a.73.73,0,0,1-.73.79.64.64,0,0,1-.65-.51,3.49,3.49,0,0,0-1.24-1.68Zm4.18-10.29a8.62,8.62,0,0,0,2.67,1.63,15.92,15.92,0,0,0,4.38,1c.09,0,.07.17,0,.21a1.84,1.84,0,0,0-1.06,1c-.2.49-.32.62-.46.62a2.78,2.78,0,0,1-.91-.29,17.34,17.34,0,0,1-2.56-1.47,11.13,11.13,0,0,1-2.17-2.21c0,1.52.08,2.85.08,3.63,0,.46-.39.62-1,.62s-.71-.18-.71-.53.06-1.72.07-2.92a15.8,15.8,0,0,1-6.67,3.45c-.09,0-.16-.14-.09-.18a16.2,16.2,0,0,0,5.75-4.48h-3.79a8,8,0,0,0-1.18.11l-.2-.66a6.1,6.1,0,0,0,1.31.14H162V118c0-.64,0-1.1-.07-1.65,2.07.21,2.25.3,2.25.57s-.16.33-.59.51v1.38h3.67c.91-1.1,1.12-1.24,1.24-1.24s.36.13,1.21.85c.4.34.56.5.56.62s-.05.18-.23.18Zm3,10.33c0,1,.05,1.79.05,2.37s-.3.64-.9.64-.67-.16-.67-.51,0-2.27.09-4a12.58,12.58,0,0,1-4.4,3.35c-.07,0-.19-.16-.12-.21a13.28,13.28,0,0,0,4.06-5.23h-.93a5.53,5.53,0,0,0-1,.11l-.19-.66a5,5,0,0,0,1.18.14h1.31v-.72a16.44,16.44,0,0,0-.07-1.67c1.54.11,2.11.23,2.11.48s-.14.3-.53.49v1.42h1.52c.68-.83.89-1,1-1s.36.14,1.07.67c.32.27.46.41.46.53s-.06.18-.23.18h-3.65a7.66,7.66,0,0,0,1.8,2.21,8.11,8.11,0,0,0,2.63,1.42.1.1,0,0,1,0,.18,1.87,1.87,0,0,0-1,1.13c-.07.22-.14.29-.28.29s-.22-.07-.45-.27a10.25,10.25,0,0,1-1.5-1.7,11.23,11.23,0,0,1-1.35-2.84Z"/><path class="cls-2" d="M185,121.34a3.67,3.67,0,0,1,1.42.45c.83.42,1,.87,1,1.2s-.23.53-.62.57a5.09,5.09,0,0,0-1,.25,19.53,19.53,0,0,0-2.62,1.11c-.59.3-1.24.62-1.67.87,0,.44,0,1,0,1.35a6.52,6.52,0,0,1-.05,1.56.69.69,0,0,1-.65.46c-.52,0-.78-.25-.78-.85,0-.32,0-.75.05-1.7-.43.24-.71.44-.92.58-1,.66-1.44,1.2-1.44,2s.75,1.25,2.41,1.25a14.83,14.83,0,0,0,2.41-.12,4.76,4.76,0,0,0,1-.3,2.23,2.23,0,0,1,.72-.14,1.71,1.71,0,0,1,1.05.3.91.91,0,0,1,.37.65.69.69,0,0,1-.3.54,8,8,0,0,1-3.45.44,8.36,8.36,0,0,1-3.81-.53,2.07,2.07,0,0,1-1.23-2,3.1,3.1,0,0,1,1.23-2.3,12.71,12.71,0,0,1,1.93-1.38c0-.32,0-.59,0-.84,0-.93-.24-1.52-.87-1.52a2.87,2.87,0,0,0-2,1.22,18.18,18.18,0,0,0-1.26,1.81,1.13,1.13,0,0,1-.8.51.74.74,0,0,1-.55-.19.71.71,0,0,1-.19-.57,1.1,1.1,0,0,1,.28-.72c.18-.16.43-.39.62-.59a17.21,17.21,0,0,0,2.59-3.51l-1.28.13a2,2,0,0,1-2.12-1.44.88.88,0,0,1-.09-.4c0-.09,0-.16.1-.16s.14.07.2.16a2.07,2.07,0,0,0,1.77.72,9.75,9.75,0,0,0,2.05-.28,8.34,8.34,0,0,0,.59-1.45,2.28,2.28,0,0,0,.09-.48.41.41,0,0,0-.16-.3,1.32,1.32,0,0,0-.43-.25,2.78,2.78,0,0,0-.37-.13c-.09,0-.11,0-.11-.08a.28.28,0,0,1,.13-.2,1,1,0,0,1,.65-.21,3.84,3.84,0,0,1,1.79.46.72.72,0,0,1,.43.65.62.62,0,0,1-.25.45,2.2,2.2,0,0,0-.48.49c-.1.15-.39.55-.53.78a3.17,3.17,0,0,0,1.42-.65,1.05,1.05,0,0,1,.64-.2c.67,0,1.15.27,1.15.66a.68.68,0,0,1-.5.62,20.66,20.66,0,0,1-3.38.9c-.18.27-.37.53-.62.94a14,14,0,0,1-.92,1.38,3.38,3.38,0,0,1,1.93-.74,1.64,1.64,0,0,1,1.5.69,2.72,2.72,0,0,1,.32,1.5c1.42-.86,2.18-1.32,3-1.86.36-.22.64-.39.64-.53a.5.5,0,0,0-.19-.35,1.18,1.18,0,0,0-.52-.27s-.07,0-.07-.14S184.6,121.34,185,121.34Z"/><path class="cls-2" d="M83.57,142.7c.73-.85.87-1,1-1s.32.11,1.37,1c.49.46.6.58.6.72s-.21.39-.71.39-.57,0-.81.16a10,10,0,0,1-1.62,1c-.07,0-.21-.06-.17-.15a10.48,10.48,0,0,0,.53-1.79H73c.11,1.44-.46,2.45-1.4,2.45a.88.88,0,0,1-.9-.94.83.83,0,0,1,.57-.85,2,2,0,0,0,1.29-2c0-.09.18-.1.19,0,.09.31.16.62.22.92h4.48v-1.38c0-.55,0-1,0-1.44,2.17.21,2.37.41,2.37.6s-.2.34-.59.5v1.72Zm-1.72,6.37c0,1.79.06,4.06.06,5a2,2,0,0,1-.41,1.34,2.22,2.22,0,0,1-1.74.57c-.3,0-.39-.09-.42-.41-.11-.78-.55-1.08-2.2-1.5-.09,0-.09-.27,0-.25,1,.1,2,.16,2.87.16.13,0,.18-.09.18-.25v-6.18H72.32a8.4,8.4,0,0,0-1.22.1l-.19-.65a8,8,0,0,0,1.43.14h7.85v-.82a21,21,0,0,0-.12-2.33c2,.17,2.35.26,2.35.51s-.12.27-.57.48v2.16h1.53c.85-1,1.06-1.15,1.18-1.15s.36.14,1.17.81c.36.29.5.44.5.57s0,.18-.23.18H81.85Zm-5.58,3.41c-.44,0-.67-.2-.83-.78A5.93,5.93,0,0,0,74,149c-.07-.05,0-.18.11-.16,2,.44,3.15,1.4,3.15,2.54A1,1,0,0,1,76.27,152.48Z"/><path class="cls-2" d="M93.92,148.56a5.56,5.56,0,0,1,3.6-1.49,4.47,4.47,0,0,1,3.13,1.07,3.4,3.4,0,0,1,1.17,2.53,4,4,0,0,1-1.79,3.49,6.1,6.1,0,0,1-3.51,1,4.44,4.44,0,0,1-2.44-.53,1.89,1.89,0,0,1-.91-1.63,1.6,1.6,0,0,1,.62-1.26,2.41,2.41,0,0,1,1.48-.42,3,3,0,0,1,2,.9,5.65,5.65,0,0,1,.9,1.47,3,3,0,0,0,1.24-.9,3.28,3.28,0,0,0,.64-2.14,2.92,2.92,0,0,0-.87-2.13,3,3,0,0,0-2-.67c-2.06,0-3.53,1.31-4.89,3.22-.36.5-.61.71-.87.71a.75.75,0,0,1-.51-.21.89.89,0,0,1-.32-.66,1,1,0,0,1,.33-.79,73.91,73.91,0,0,0,6.15-7.25c.12-.18.2-.27.2-.35s-.09-.16-.22-.13a12.53,12.53,0,0,0-1.86.75c-.44.21-.71.35-1,.51a.94.94,0,0,1-1.52-.07,2.37,2.37,0,0,1-.69-1.35c0-.26.16-.65.28-.65s.18.12.32.32c.3.38.51.51.74.51a11.51,11.51,0,0,0,3-.71,1.64,1.64,0,0,0,.85-.46.69.69,0,0,1,.48-.23,3.08,3.08,0,0,1,1.6.74.78.78,0,0,1,.33.62.47.47,0,0,1-.28.46,4.29,4.29,0,0,0-.69.45,24.36,24.36,0,0,0-2.43,2.58c-.81.94-1.45,1.62-2.32,2.63Zm2,4a1.63,1.63,0,0,0-1.11-.52,1.06,1.06,0,0,0-.82.3.85.85,0,0,0-.17.57,1,1,0,0,0,.51.9,3.23,3.23,0,0,0,1.66.34,5.3,5.3,0,0,0,.77,0A3.2,3.2,0,0,0,96,152.55Z"/><path class="cls-2" d="M114.47,143.32a1.56,1.56,0,0,1,.8.16.59.59,0,0,1,.39.53c0,.26-.18.49-.55.64-.75.3-2,.65-2.94.9-.29.74-.85,2.34-1.24,3.4s-1.05,2.75-2,5.14c-.26.67-.58.9-1,.9a.87.87,0,0,1-.51-.26.82.82,0,0,1-.19-.64,3,3,0,0,1,.47-1.24,62.63,62.63,0,0,0,3.16-7.07,10.84,10.84,0,0,1-1.93.25,2,2,0,0,1-1.7-.69,1.71,1.71,0,0,1-.48-.92c0-.11,0-.16.09-.16s.17.07.3.16a2.15,2.15,0,0,0,1.45.46,11.32,11.32,0,0,0,2.71-.43,11.81,11.81,0,0,0,.55-2.32.61.61,0,0,0-.37-.62,3.68,3.68,0,0,0-.66-.21c-.12,0-.19-.07-.19-.14s0-.2.25-.31a1.83,1.83,0,0,1,.83-.21,3.4,3.4,0,0,1,1.82.71.67.67,0,0,1,.27.5.87.87,0,0,1-.25.53,4.54,4.54,0,0,0-.85,1.73,4,4,0,0,0,1.08-.51A1.5,1.5,0,0,1,114.47,143.32Zm-.34,7.38a3.49,3.49,0,0,0-.16,1.08c0,1,.84,1.69,2.7,1.69a7.67,7.67,0,0,0,1.79-.14,2.53,2.53,0,0,1,.92-.13,2.25,2.25,0,0,1,.88.23.84.84,0,0,1,.45.75c0,.46-.43.67-1,.76a13.65,13.65,0,0,1-2,.09,9,9,0,0,1-2.36-.3,2.64,2.64,0,0,1-2.12-2.52,3.3,3.3,0,0,1,.49-1.72c.09-.16.23-.3.32-.3s.11.05.11.14A1.66,1.66,0,0,1,114.13,150.7ZM116,147a6.22,6.22,0,0,0-2,.69.28.28,0,0,1-.16.05.14.14,0,0,1-.16-.16c0-.07.06-.14.13-.23a5.33,5.33,0,0,1,3.88-1.5,4.86,4.86,0,0,1,2,.39.9.9,0,0,1,.61.87.58.58,0,0,1-.63.53,3.26,3.26,0,0,1-.69-.09,3.56,3.56,0,0,0-.65-.05,6.28,6.28,0,0,0-2.5,1,.36.36,0,0,1-.26.09c-.09,0-.08-.07-.08-.12a17.66,17.66,0,0,1,1.71-1.49A5.52,5.52,0,0,0,116,147Z"/><path class="cls-2" d="M136.47,145.71a4.3,4.3,0,0,1,1.63,1.7,4,4,0,0,1,.46,2,4.29,4.29,0,0,1-1.56,3.28,7.74,7.74,0,0,1-3.22,1.59,16.53,16.53,0,0,1-2.82.45c-.16,0-.3-.07-.3-.18s.11-.16.32-.21a10.13,10.13,0,0,0,4-1.67,4.63,4.63,0,0,0,1.84-3.61,3.21,3.21,0,0,0-1-2.64,3.54,3.54,0,0,0-2.43-.92,39.84,39.84,0,0,1-3,4.67,3.55,3.55,0,0,0,.32.41,1.25,1.25,0,0,1,.42.87c0,.37-.21.69-.49.69s-.6-.14-1.21-.87a12.42,12.42,0,0,1-1.1,1.1,4.31,4.31,0,0,1-.81.58,1.86,1.86,0,0,1-1,.25,1.36,1.36,0,0,1-1.11-.56,2.87,2.87,0,0,1-.43-1.56,5.83,5.83,0,0,1,2.45-4.47c-.06-.25-.11-.51-.22-1s-.16-.74-.24-1a3,3,0,0,0-.91-1.42c-.12-.1-.18-.12-.18-.21s.08-.14.16-.14a3.89,3.89,0,0,1,1.46.65,2,2,0,0,1,.92,1.31c.05.36,0,.52.1,1.16a10.69,10.69,0,0,1,3.71-1.12,6.17,6.17,0,0,0,.32-.78,4.33,4.33,0,0,0,.28-1.26.26.26,0,0,0-.16-.28,2.33,2.33,0,0,0-.89-.18c-.15,0-.23-.09-.23-.16s.06-.12.16-.21a1.42,1.42,0,0,1,.87-.35,3.55,3.55,0,0,1,1.76.65.84.84,0,0,1,.44.73.78.78,0,0,1-.29.58,8.61,8.61,0,0,0-.77,1.33A5.16,5.16,0,0,1,136.47,145.71Zm-10.24,4.75a2.2,2.2,0,0,0,.16,1,.45.45,0,0,0,.43.28c.44,0,1.11-.44,2-1.42a12.24,12.24,0,0,1-1.15-2.83A4.36,4.36,0,0,0,126.23,150.46Zm3.55-1.28a20.92,20.92,0,0,0,2.16-3.65,7,7,0,0,0-3.21,1.17A7.77,7.77,0,0,0,129.78,149.18Z"/><path class="cls-2" d="M149.69,144.68a7.22,7.22,0,0,1-.39,1.88,12.58,12.58,0,0,1-1.12,2.55,14.63,14.63,0,0,1-2,3,2,2,0,0,1-1.47.72,1.79,1.79,0,0,1-1.35-.69,4.38,4.38,0,0,1-1-3.22,5.47,5.47,0,0,1,.76-2.69,6.86,6.86,0,0,1,2.39-2.48,7.89,7.89,0,0,1,4.29-1.15,6.77,6.77,0,0,1,4.39,1.38,5.43,5.43,0,0,1,2.07,4.5,4.8,4.8,0,0,1-1.63,3.65,7.68,7.68,0,0,1-2.62,1.57,12.63,12.63,0,0,1-3.63.68c-.27,0-.39,0-.39-.18s.11-.18.34-.23a8.79,8.79,0,0,0,4.55-2.32,5.27,5.27,0,0,0,1.59-4.11,3.86,3.86,0,0,0-1.55-3.33,5.61,5.61,0,0,0-2.84-1,7.08,7.08,0,0,0-1.12,0A2.42,2.42,0,0,1,149.69,144.68Zm-4.31.07a5.46,5.46,0,0,0-1.5,2.18,4.55,4.55,0,0,0-.3,1.68,3.5,3.5,0,0,0,.44,1.92,1.15,1.15,0,0,0,.78.58c.28,0,.55-.18,1.22-1.13a22,22,0,0,0,2.38-4.34,4.27,4.27,0,0,0,.37-1.51.93.93,0,0,0-.32-.8A6.07,6.07,0,0,0,145.38,144.75Z"/><path class="cls-2" d="M167.76,152.42c0,.8,0,1.53,0,2.15a1.67,1.67,0,0,1-.32,1,1.89,1.89,0,0,1-1.63.64c-.32,0-.34,0-.43-.5s-.56-.92-2.09-1.29c-.09,0-.09-.25,0-.25.87.05,1.77.11,2.54.11.17,0,.23-.09.23-.27v-1.58H162a6.4,6.4,0,0,0-1.2.13l-.2-.66A7.83,7.83,0,0,0,162,152h4.15v-1.58h-5.46a11.94,11.94,0,0,0-1.47.1l-.2-.65a8.75,8.75,0,0,0,1.58.14h5.55v-1.54h-3.9a7,7,0,0,0-1.35.14l-.19-.69a7.46,7.46,0,0,0,1.47.14h4v-1.49h-3.18v.11c0,.39-.31.58-.9.58s-.73-.15-.73-.51.06-.81.06-2a15.44,15.44,0,0,0-.06-1.66,9.43,9.43,0,0,1,1.79.78h3v-1.46h-5a9.82,9.82,0,0,0-1.51.13l-.19-.68A8.88,8.88,0,0,0,161,142h5.09v-.31a15.25,15.25,0,0,0-.09-1.89c2.26.32,2.26.32,2.26.62s-.12.27-.54.42V142h4.19c.87-1,1.08-1.1,1.21-1.1s.35.14,1.13.78c.36.28.5.42.5.55s-.06.17-.23.17h-6.8v1.46h3c.59-.66.73-.77.87-.77s.32.11.92.61c.27.23.38.35.38.49s-.06.22-.43.46V145c0,.84,0,1.42,0,1.6,0,.4-.36.6-1,.6-.44,0-.65-.14-.65-.48v-.11h-3.15v1.49h3.34c.59-.62.73-.72.87-.72s.34.1,1,.56c.3.23.4.36.4.5s0,.18-.49.48V150h.28c.53-.8.74-.94.87-.94s.35.14,1,.68c.27.21.41.37.41.49s0,.18-.23.18h-2.32c0,1.22.07,2.07.07,2.39,0,.51-.37.71-1.08.71-.45,0-.66-.18-.66-.57v-.55Zm-1.66-8.15h-3.18v1.92h3.18Zm4.78,1.92v-1.92h-3.15v1.92Zm.28,3.84v-1.54h-3.43V150Zm0,2v-1.58h-3.43c0,.41,0,.83,0,1.58Z"/><path class="cls-2" d="M185.51,150.9a11.22,11.22,0,0,0,2.89,1.74,14.73,14.73,0,0,0,4.66,1c.09,0,.09.16,0,.2-.66.25-.82.39-1.29,1.47a.29.29,0,0,1-.27.19,3.28,3.28,0,0,1-.83-.26,13.18,13.18,0,0,1-3.12-1.72,11,11,0,0,1-2.27-2.34c.05,2.27.11,3.93.11,4.41s-.28.67-1,.67c-.47,0-.69-.19-.69-.58s.09-2.14.13-3.7a12.84,12.84,0,0,1-7,3.59c-.09,0-.18-.12-.09-.16a14.83,14.83,0,0,0,5.9-4.53h-4.18a7.54,7.54,0,0,0-1.24.11l-.19-.66a6.46,6.46,0,0,0,1.36.14h5.4v-1.65h-3.47A9.08,9.08,0,0,0,179,149l-.19-.66a7,7,0,0,0,1.4.15h3.52v-1.62h-4.39a9.34,9.34,0,0,0-1.28.11l-.19-.65a7.88,7.88,0,0,0,1.42.14h2.9c-.23-.07-.35-.3-.49-.82a3.41,3.41,0,0,0-.89-1.52c-.07-.05,0-.16.11-.14,1.59.25,2.41.79,2.41,1.61a.91.91,0,0,1-.62.87h2.85a11.52,11.52,0,0,0,.74-1.53,8.37,8.37,0,0,0,.36-1.11c1.43.55,2,.83,2,1s-.13.27-.78.3a10.78,10.78,0,0,1-1.74,1.3h2.94c.83-.92,1-1.07,1.17-1.07s.35.15,1.13.75c.34.28.48.42.48.55s-.05.17-.23.17h-6.32v1.62h2.76c.76-.85,1-1,1.1-1s.35.14,1,.69c.3.24.44.4.44.53s-.05.17-.23.17h-5.1v1.65h4.39c.9-1,1.12-1.15,1.24-1.15s.34.14,1.15.8c.36.28.5.46.5.58s0,.18-.23.18Zm-3.31-9.76a7.36,7.36,0,0,0-.09-1.3c2,.2,2.2.34,2.2.55s-.14.25-.57.45v2.51h1.47v-2.21a7.36,7.36,0,0,0-.09-1.3c2,.22,2.22.34,2.22.55s-.13.25-.59.45v2.51h.73a18.2,18.2,0,0,0,1-2,7.81,7.81,0,0,0,.39-1.19c1.56.66,2.11.94,2.11,1.15s-.13.32-.82.34a10.87,10.87,0,0,1-2.12,1.68h2.07c.8-.88,1-1,1.13-1s.36.15,1.1.71c.34.29.48.43.48.55s-.05.18-.23.18H178.34a9.87,9.87,0,0,0-1.31.11l-.2-.66a7.41,7.41,0,0,0,1.45.14h3.92ZM180.3,143c-.4,0-.56-.16-.74-.69a3.48,3.48,0,0,0-1-1.73c-.07-.06,0-.18.09-.16,1.67.28,2.54.87,2.54,1.7A.92.92,0,0,1,180.3,143Z"/></svg>