<svg id="レイヤー_1" data-name="レイヤー 1" xmlns="http://www.w3.org/2000/svg" viewBox="0 0 279.75 83.76"><defs><style>.cls-1{fill:#231815;}</style></defs><path class="cls-1" d="M112,70.06c-.08,0-.21,0-.21-.14s.12-.13.25-.13.37-.15.37-.28a.49.49,0,0,0,0-.19c0-.07-.9-1.46-1-1.63-.46-.73-.51-.82-.6-.82s-.24.13-.43.34c-.34.37-.38.46-.38.78V69.2c0,.59.46.59.72.59.08,0,.17,0,.17.13s-.13.14-.2.14h-2c-.08,0-.21,0-.21-.14s.12-.13.24-.13a.56.56,0,0,0,.64-.59V64.7c0-.58-.46-.58-.72-.58a.14.14,0,0,1-.16-.14c0-.15.13-.15.2-.15h2c.09,0,.22,0,.22.15s-.13.14-.24.14c-.27,0-.65.09-.65.58v2.19c0,.08,0,.17.1.17s.08,0,.1,0l1.63-1.78c.55-.6.62-.67.62-.83s-.34-.28-.59-.28c0,0-.17,0-.17-.14s.13-.15.23-.15H114c.11,0,.24,0,.24.15s-.12.14-.29.14a1.67,1.67,0,0,0-1,.31c-.18.14-1.11,1.16-1.46,1.56a.39.39,0,0,0-.14.26.67.67,0,0,0,.13.31l1.78,2.82a1.24,1.24,0,0,0,.94.41c.16,0,.16.12.16.13s-.12.14-.2.14Z"/><path class="cls-1" d="M116.2,70.06c-.11,0-.23,0-.23-.14s.06-.13.4-.13.65,0,.74-.45c0-.14,0-2.11,0-2.36s0-2.28,0-2.43c-.09-.43-.39-.43-1-.43-.05,0-.18,0-.18-.14s.12-.15.24-.15h2.51c.11,0,.23,0,.23.15s-.07.13-.39.13-.62,0-.73.39c0,.12,0,2,0,2.43a19.25,19.25,0,0,0,0,2.41c.08.45.38.45,1,.45,0,0,.17,0,.17.13s-.12.14-.23.14Z"/><path class="cls-1" d="M123.5,63.83c.41,0,2.36.05,2.36,1.48a1.68,1.68,0,0,1-1.14,1.5c-.3.14-.33.16-.33.25a13.62,13.62,0,0,0,.89,2,1.07,1.07,0,0,0,1,.69c.09,0,.26,0,.26.13s-.17.14-.21.14h-1.07a.41.41,0,0,1-.4-.25c0-.08-.66-1.41-.75-1.62-.47-1-.53-1.17-.83-1.17h-.47a.23.23,0,0,0-.2.1c0,.09,0,1.21,0,1.41,0,1,0,1.26.78,1.26.06,0,.18,0,.18.13s-.15.14-.25.14h-2.11c-.08,0-.21,0-.21-.14s.12-.13.24-.13c.59,0,.67-.28.7-.59s0-2.64,0-3a13.42,13.42,0,0,0-.07-1.73c-.11-.31-.48-.31-.68-.31s-.23,0-.23-.16.16-.13.26-.13Zm-.31.29c-.61,0-.61.38-.61,1.26,0,1.34,0,1.37.23,1.37h.69A1.38,1.38,0,0,0,125,65.4c0-.6-.32-1.28-1.43-1.28Z"/><path class="cls-1" d="M128.33,70.06c-.11,0-.23,0-.23-.14s.06-.13.4-.13.65,0,.74-.45c0-.14,0-2.11,0-2.36s0-2.28,0-2.43c-.09-.43-.39-.43-1-.43-.05,0-.18,0-.18-.14s.12-.15.24-.15h2.51c.11,0,.23,0,.23.15s-.07.13-.39.13-.62,0-.73.39c0,.12,0,2,0,2.43a19.25,19.25,0,0,0,0,2.41c.08.45.38.45,1,.45,0,0,.17,0,.17.13s-.12.14-.23.14Z"/><path class="cls-1" d="M136.49,70.06c-.08,0-.21,0-.21-.14s.12-.13.25-.13.36-.15.36-.28a.5.5,0,0,0,0-.19c0-.07-.9-1.46-1-1.63-.46-.73-.51-.82-.61-.82s-.24.13-.42.34c-.35.37-.38.46-.38.78V69.2c0,.59.46.59.72.59.08,0,.17,0,.17.13s-.13.14-.21.14h-2c-.09,0-.21,0-.21-.14s.12-.13.24-.13a.57.57,0,0,0,.64-.59V64.7c0-.58-.47-.58-.72-.58a.14.14,0,0,1-.16-.14c0-.15.12-.15.2-.15h2c.09,0,.22,0,.22.15s-.13.14-.24.14c-.27,0-.65.09-.65.58v2.19c0,.08,0,.17.1.17s.08,0,.1,0,1.37-1.5,1.63-1.78c.54-.6.61-.67.61-.83s-.33-.28-.58-.28c0,0-.17,0-.17-.14s.13-.15.22-.15h2.11c.11,0,.23,0,.23.15s-.12.14-.28.14a1.67,1.67,0,0,0-1,.31c-.18.14-1.11,1.16-1.47,1.56a.38.38,0,0,0-.13.26.67.67,0,0,0,.13.31l1.78,2.82a1.22,1.22,0,0,0,.94.41c.16,0,.16.12.16.13s-.13.14-.2.14Z"/><path class="cls-1" d="M140.76,70.06c-.12,0-.24,0-.24-.14s.06-.13.4-.13.66,0,.74-.45c0-.14,0-2.11,0-2.36s0-2.28,0-2.43c-.08-.43-.39-.43-1-.43,0,0-.18,0-.18-.14s.12-.15.24-.15h2.51c.11,0,.24,0,.24.15s-.08.13-.4.13-.62,0-.73.39c0,.12,0,2,0,2.43a19.25,19.25,0,0,0,0,2.41c.08.45.38.45,1,.45,0,0,.18,0,.18.13s-.13.14-.24.14Z"/><path class="cls-1" d="M148.05,63.83c.41,0,2.36.05,2.36,1.48a1.68,1.68,0,0,1-1.14,1.5c-.3.14-.33.16-.33.25a14.74,14.74,0,0,0,.89,2,1.07,1.07,0,0,0,1,.69c.09,0,.26,0,.26.13s-.17.14-.21.14h-1.07a.41.41,0,0,1-.4-.25c0-.08-.66-1.41-.75-1.62-.47-1-.53-1.17-.83-1.17h-.47a.23.23,0,0,0-.2.1c0,.09,0,1.21,0,1.41,0,1,0,1.26.78,1.26.06,0,.18,0,.18.13s-.15.14-.24.14h-2.11c-.09,0-.22,0-.22-.14s.12-.13.24-.13c.59,0,.68-.28.7-.59s0-2.64,0-3a13.42,13.42,0,0,0-.07-1.73c-.11-.31-.48-.31-.67-.31s-.23,0-.23-.16.15-.13.25-.13Zm-.31.29c-.61,0-.61.38-.61,1.26,0,1.34,0,1.37.23,1.37h.69a1.39,1.39,0,0,0,1.55-1.35c0-.6-.33-1.28-1.44-1.28Z"/><path class="cls-1" d="M153.18,70.06c-.11,0-.23,0-.23-.14s.06-.13.4-.13.66,0,.74-.45c0-.14,0-2.11,0-2.36s0-2.28,0-2.43c-.08-.43-.39-.43-1-.43,0,0-.18,0-.18-.14s.12-.15.24-.15h2.51c.11,0,.23,0,.23.15s-.07.13-.39.13-.62,0-.73.39c0,.12,0,2,0,2.43a19.25,19.25,0,0,0,0,2.41c.08.45.38.45,1,.45,0,0,.17,0,.17.13s-.12.14-.23.14Z"/><path class="cls-1" d="M158.54,67.09c-.16,0-.35,0-.35-.28s.28-.27.35-.27h1.28c.34,0,.34.23.34.27,0,.28-.25.28-.34.28Z"/><path class="cls-1" d="M166,70.06c-.08,0-.21,0-.21-.14s.12-.13.24-.13c.28,0,.37-.15.37-.28a.84.84,0,0,0,0-.19c0-.07-.9-1.46-1-1.63-.46-.73-.51-.82-.61-.82s-.24.13-.42.34c-.35.37-.38.46-.38.78V69.2c0,.59.46.59.72.59.07,0,.17,0,.17.13s-.13.14-.21.14h-2c-.09,0-.21,0-.21-.14s.12-.13.23-.13a.56.56,0,0,0,.64-.59V64.7c0-.58-.46-.58-.71-.58a.14.14,0,0,1-.16-.14c0-.15.12-.15.2-.15h2c.09,0,.22,0,.22.15s-.13.14-.24.14c-.27,0-.65.09-.65.58v2.19c0,.08,0,.17.1.17s.08,0,.1,0,1.37-1.5,1.63-1.78c.54-.6.61-.67.61-.83s-.33-.28-.58-.28c0,0-.17,0-.17-.14s.13-.15.22-.15H168c.1,0,.23,0,.23.15s-.12.14-.28.14a1.67,1.67,0,0,0-1,.31c-.18.14-1.11,1.16-1.47,1.56a.38.38,0,0,0-.13.26.76.76,0,0,0,.12.31l1.79,2.82a1.22,1.22,0,0,0,.94.41c.16,0,.16.12.16.13s-.13.14-.2.14Z"/><path class="cls-1" d="M172.37,70.22c-1.65,0-2.79-1.35-2.79-3.27s1.13-3.28,2.79-3.28S175.15,65,175.15,67,174,70.22,172.37,70.22Zm2-3.35c0-.78-.22-2.92-2-2.92-1.91,0-2,2.51-2,3.08,0,.82.25,2.91,2,2.91C174.28,69.94,174.34,67.45,174.34,66.87Z"/><path class="cls-1" d="M180.25,70.06c-.09,0-.22,0-.22-.14s.12-.13.25-.13.37-.15.37-.28a.49.49,0,0,0,0-.19c0-.07-.89-1.46-1-1.63-.46-.73-.51-.82-.6-.82s-.24.13-.43.34c-.34.37-.37.46-.37.78V69.2c0,.59.46.59.71.59.08,0,.17,0,.17.13s-.12.14-.2.14h-2c-.09,0-.22,0-.22-.14s.12-.13.24-.13a.56.56,0,0,0,.64-.59V64.7c0-.58-.46-.58-.72-.58a.14.14,0,0,1-.16-.14c0-.15.13-.15.21-.15h2c.1,0,.22,0,.22.15s-.12.14-.24.14-.64.09-.64.58v2.19c0,.08,0,.17.1.17s.07,0,.09,0L180,65.23c.55-.6.62-.67.62-.83s-.34-.28-.58-.28c0,0-.17,0-.17-.14s.12-.15.22-.15h2.11c.1,0,.23,0,.23.15s-.12.14-.28.14a1.65,1.65,0,0,0-1,.31c-.18.14-1.11,1.16-1.47,1.56a.39.39,0,0,0-.14.26.67.67,0,0,0,.13.31l1.78,2.82a1.26,1.26,0,0,0,.94.41c.17,0,.17.12.17.13s-.13.14-.21.14Z"/><path class="cls-1" d="M189.32,63.83c.11,0,.24,0,.24.15s-.12.14-.27.14c-.6,0-.65.48-.65.75s0,2.54,0,3a2.34,2.34,0,0,1-.55,1.79,2,2,0,0,1-1.44.54,2,2,0,0,1-2.17-1.89c0-.47,0-2.8,0-3.32s0-.89-.79-.89c-.05,0-.19,0-.19-.14s.13-.15.26-.15h2.09c.1,0,.23,0,.23.15s-.11.14-.27.14a.58.58,0,0,0-.63.38c0,.13,0,1.75,0,2,0,1.88,0,2,.15,2.42a1.49,1.49,0,0,0,1.46.93,1.52,1.52,0,0,0,1.33-.67c.29-.43.29-.79.29-2.77s0-1.93-.12-2.09a.65.65,0,0,0-.61-.25.15.15,0,0,1-.17-.14c0-.15.13-.15.21-.15Z"/><path class="cls-1" d="M110.36,15.93c-.11,0-.2,0-.21.15s0,1,0,1.07,0,.18.07.18.66-.24.71-.24,0,0,0,0a2.91,2.91,0,0,1-.55.4.42.42,0,0,0-.26.48c0,.25,0,1.36,0,1.58s0,.8,0,.85a.41.41,0,0,1-.37.25c-.12,0-.17,0-.17-.17,0-.38.06-2,.06-2.38,0,0,0-.1-.07-.1a4.15,4.15,0,0,0-.66.4c0,.11-.06.13-.1.13s-.42-.56-.42-.59,0-.06.15-.07a3.3,3.3,0,0,0,1.06-.39.26.26,0,0,0,.05-.18V16.14c0-.08,0-.21-.2-.21H109c-.17,0-.18,0-.28.25a2.11,2.11,0,0,1-.35.57s0,0,0,0,.16-.68.18-.81a6.47,6.47,0,0,0,.13-1.12s0-.16,0-.19,0-.07.07-.07.55.13.55.25a2.64,2.64,0,0,1-.15.29s-.17.52-.17.57,0,.08.1.08h.39c.13,0,.21-.06.21-.19s0-.74,0-1c0-.07,0-.39,0-.47a.05.05,0,0,1,.06-.06s.66.13.66.26,0,.07-.11.18,0,.09-.07.44c0,.11,0,.62,0,.72s0,.16.11.16a.26.26,0,0,0,.19-.11c.16-.24.17-.26.23-.26s.49.35.49.45-.12.12-.39.12Zm2.78-.64c-.22,0-.22.13-.22.29,0,.93,0,.94.21.94h.62a1.39,1.39,0,0,0,.36,0c.07,0,.24-.37.31-.37s.61.39.61.5,0,.08-.4.08H111.9c-.21,0-.49,0-.76,0l-.31,0s0,0-.08-.06l-.13-.15s0,0,0-.05a0,0,0,0,1,0,0l.33,0c.47,0,.75,0,1,0h.3c.18,0,.21-.1.21-.24s0-.77,0-.85-.15-.14-.21-.14h-.6l-.44,0s0,0-.08-.07l-.13-.14,0,0a0,0,0,0,1,0,0l.3,0,.9,0c.14,0,.27,0,.27-.22s0-.41,0-.52,0-.3,0-.33,0-.08,0-.08l.59.16s.08,0,.08.08-.16.17-.17.21a3.47,3.47,0,0,0,0,.47c0,.11,0,.23.21.23h.31c.26,0,.32,0,.36,0s.21-.33.27-.33.52.34.52.45-.14.1-.39.1Zm.65,2.74c-.19,0-.22.06-.22.54,0,.22,0,1.2,0,1.4,0,.66-.52.66-.6.66s-.15-.05-.19-.18-.16-.23-.32-.3-.2-.09-.2-.12,0,0,.08,0l.46,0c.15,0,.3,0,.3-.33s0-1.33,0-1.37,0-.29-.21-.29h-1.63l-.3,0s0,0-.07,0l-.15-.16,0,0a0,0,0,0,1,0,0l.33,0,1,0h.81c.21,0,.21-.14.21-.23s0-.54,0-.63,0-.06.07-.06l.49.08c.07,0,.13,0,.13.1s-.12.16-.13.19a.85.85,0,0,0,0,.34c0,.21.13.21.28.21s.18-.06.24-.17.14-.19.2-.19.54.34.54.44-.14.11-.38.11Zm-2.38.49c.1,0,.75.17.75.67,0,.26-.12.4-.28.4s-.14,0-.27-.44a1.71,1.71,0,0,0-.25-.54s0-.05,0-.07S111.38,18.52,111.41,18.52Z"/><path class="cls-1" d="M119.36,16.71c-.65,0-.85,0-.93,0h-.15a.08.08,0,0,1-.07,0l-.14-.17s0,0,0-.05,0,0,0,0l.32,0c.36,0,.66,0,1,0h2c.31,0,.39,0,.47-.13s.19-.29.26-.29.63.37.63.5-.13.11-.4.11h-1.41c-.2,0-.2.07-.2.68s0,.63.2.63h.51c.31,0,.38,0,.46-.13s.15-.24.22-.24a1.34,1.34,0,0,1,.53.47c0,.05-.05.08-.11.09H121c-.22,0-.22,0-.22.48,0,.25,0,1.08,0,1.11s.09.06.17.07.44,0,.82,0a8.5,8.5,0,0,0,2-.23,2.09,2.09,0,0,1,.23-.08s0,0,0,0-.44.36-.52.45a2.52,2.52,0,0,0-.12.29c0,.1-.34.1-.44.1-2.94,0-3.29-.41-3.77-1a1.72,1.72,0,0,1-.31-.53s0-.06,0-.06,0,0-.11.13c-.69,1.09-1.32,1.25-1.37,1.25s0,0,0,0a.8.8,0,0,1,.13-.13,4.77,4.77,0,0,0,1.25-2.58c0-.33,0-.36.07-.36s.63.17.63.27-.14.16-.16.19-.17.62-.21.72-.13.37-.13.39c0,.37,1,1,1.34,1,.1,0,.1-.1.1-.15,0-.41,0-2.25,0-2.63,0-.18,0-.28-.21-.28Zm-1.1-1.33c-.1,0-.14,0-.19.13-.14.44-.36.61-.54.61s-.24-.06-.24-.2,0-.14.21-.33a1.94,1.94,0,0,0,.37-.66c0-.08,0-.12.07-.12s.11.12.16.26.07.12.16.12H120c.17,0,.2-.1.2-.23s0-.44,0-.55-.05-.33-.05-.39,0,0,0,0l.75.17a.09.09,0,0,1,0,.07s-.17.17-.19.22a1.75,1.75,0,0,0,0,.47c0,.26.06.28.23.28h1.44c.19,0,.23,0,.33-.09s.17-.15.25-.15.68.37.68.57-.17.15-.22.15l-.38,0a.88.88,0,0,0-.41.1,1.13,1.13,0,0,1-.22.11l0,0c0-.06.18-.33.18-.41s0,0-.15,0Z"/><path class="cls-1" d="M128,15.54c.2,0,.22-.1.22-.23s0-.61,0-.84a2.65,2.65,0,0,1-.06-.3c0-.06.05-.06.07-.06s.66.1.66.22-.09.14-.09.17,0,2.1,0,2.41-.05.87-.05,1,0,.11.07.11.52-.12.54-.12.06,0,.06,0-.44.23-.54.27-.17.09-.27.44a2.77,2.77,0,0,1-1.94,1.93s-.06,0-.06,0,0-.07.08-.08a3.82,3.82,0,0,0,.77-.6,2.68,2.68,0,0,0,.69-1.28c0-.09,0-.09-.06-.09s-1.57.56-1.58.57-.13.15-.17.15-.35-.64-.35-.68,0,0,.26,0a9.58,9.58,0,0,0,1.93-.35,2.23,2.23,0,0,0,.1-.78c0-.17-.07-.22-.22-.22h-.53c-.17,0-.66,0-.92,0l-.15,0s-.05,0-.07-.05l-.15-.17s0,0,0,0,0,0,0,0l.32,0c.21,0,.59,0,1,0h.5c.17,0,.23-.05.23-.18V16c0-.14,0-.26-.23-.26h-.55c-.18,0-.67,0-.92,0h-.16s0,0-.06,0l-.14-.17s0,0,0-.05,0,0,0,0l.32,0c.21,0,.59,0,1,0Zm2.43,1.63c-.15,0-.23.06-.23.2s0,.91,0,1,.14.13.22.13h.82a1.07,1.07,0,0,0,.36,0c.06,0,.3-.35.38-.35a1.4,1.4,0,0,1,.55.47c0,.1-.16.1-.39.1h-1.72c-.21,0-.23.09-.23.31s0,1.09,0,1.29,0,.37-.38.37c-.2,0-.21-.16-.21-.27s0-.59,0-.7c0-1.08.05-2.83.05-3.89,0-.54,0-.91,0-1.25,0,0,0-.26,0-.32s0-.08.07-.08a4.49,4.49,0,0,1,.56.12c.06,0,.12,0,.12.12s-.12.15-.14.19-.05.12-.05.75c0,.11,0,.25.23.25h.71a1,1,0,0,0,.36,0c.06,0,.3-.36.39-.36a1.42,1.42,0,0,1,.55.48c0,.1-.17.1-.4.1h-1.6c-.09,0-.22,0-.24.16s0,.59,0,.74,0,.35.22.35h.41a1,1,0,0,0,.35,0c.07,0,.31-.35.39-.35a1.33,1.33,0,0,1,.55.47c0,.1-.16.1-.39.1Z"/><path class="cls-1" d="M138.37,15.67c.32,0,.37,0,.69-.57a4.9,4.9,0,0,0,.44-1c0-.13,0-.14.06-.14s.68.41.68.53-.05.08-.23.11-.19,0-.64.49c-.09.1-.39.4-.39.47s.06.08.18.08h1c.23,0,.26,0,.31,0s.16-.17.19-.17.7.45.7.68a.17.17,0,0,1-.19.17l-.23,0c-.11,0-.23.05-.47.27s-.15.14-.19.14,0,0,0-.05.2-.58.2-.69-.05-.11-.27-.11h-4.3c-.27,0-.3,0-.34.2-.1.5-.32.73-.51.73a.27.27,0,0,1-.28-.29c0-.11,0-.15.26-.53a1.56,1.56,0,0,0,.22-.68s0-.08,0-.08.18.31.22.36.07.1.34.1Zm-1.41,3c.16,0,.27,0,.36-.16a1.74,1.74,0,0,0,.13-.55c0-.14-.06-.14-.24-.14h-.44c-.15,0-.16,0-.21.16s-.28.16-.32.16-.22,0-.24-.16,0-.47,0-.56v-.78s0-.19,0-.23,0-.08.05-.08a4.28,4.28,0,0,1,.44.2.61.61,0,0,0,.26,0H139c.31,0,.34,0,.39-.05s.22-.27.29-.27a1,1,0,0,1,.42.48c0,.06,0,.09-.13.14s-.08.08-.08.41a3.37,3.37,0,0,1,0,.58.39.39,0,0,1-.35.21c-.11,0-.13-.05-.16-.15a.17.17,0,0,0-.18-.09h-.82a.34.34,0,0,0-.31.13,2.73,2.73,0,0,0-.47.64c0,.08.09.08.19.08h1.83a1.58,1.58,0,0,0,.36,0s.2-.21.25-.21.45.24.45.38,0,.08-.12.17a.38.38,0,0,0,0,.19c0,.12,0,.7,0,.83s0,.28-.11.38a.56.56,0,0,1-.34.16c-.15,0-.15-.09-.17-.24s-.11-.09-.18-.09h-3.44c-.14,0-.16.05-.19.15a.36.36,0,0,1-.37.26.2.2,0,0,1-.22-.23c0-.06,0-1,0-1.14s0-.62,0-.73,0-.11.07-.11a2.1,2.1,0,0,1,.48.19.61.61,0,0,0,.34.06Zm-1.35-4.44c.77,0,1.32.47,1.32.82a.33.33,0,0,1-.32.34c-.17,0-.24-.15-.3-.28a1.6,1.6,0,0,0-.63-.71c-.15-.1-.17-.11-.15-.14S135.58,14.22,135.61,14.22Zm.7,4.64c-.1,0-.15,0-.21.07s0,.71,0,.84,0,.24.21.24h3.43c.19,0,.22-.09.22-.21s0-.79,0-.84-.15-.1-.2-.1Zm.48-2.12c-.1,0-.24,0-.24.22,0,.66,0,.66.22.66h2.38c.22,0,.22-.06.22-.46s0-.42-.23-.42ZM138.46,15c0,.18-.1.3-.25.3s-.28-.21-.32-.34a2.44,2.44,0,0,0-.45-.75.57.57,0,0,1-.11-.16s0,0,.06,0C137.63,14,138.46,14.36,138.46,15Z"/><path class="cls-1" d="M144.88,16.19c-.16,0-.66,0-.92,0l-.15,0s0,0-.07-.05L143.6,16l0,0s0,0,0,0l.46,0,1,0c.23,0,.23-.06.23-.45,0-.1,0-.69,0-.73a.18.18,0,0,0-.19-.09l-1,0c-.13,0-.14,0-.14,0s0,0,.17-.07a7.24,7.24,0,0,0,1.81-.48c.27-.12.3-.13.35-.13s.69.28.69.39,0,.08-.44.12c-.78.08-.78.1-.78.37,0,.09,0,.92,0,1a.2.2,0,0,0,.21.12h.13a.31.31,0,0,0,.3-.12c.21-.25.23-.27.3-.27a2.19,2.19,0,0,1,.63.48c0,.1-.14.1-.39.1h-1c-.21,0-.22,0-.22.56,0,.21.07.23.13.24.31.06,1.07.25,1.07.81,0,.26-.16.36-.24.36s-.17-.05-.36-.51a.91.91,0,0,0-.55-.56c-.06,0-.06.05-.06.11,0,.28,0,2.35,0,2.63s0,.39,0,.42c0,.28-.33.37-.42.37s-.15-.1-.15-.21c0-.36,0-1.94,0-2.26,0-.07,0-.37,0-.43s0-.13-.09-.13,0,0-.13.11a7.8,7.8,0,0,1-1.4,1.32c-.06.05-.09.07-.12.07a0,0,0,0,1,0,0s.47-.54.53-.63a9.07,9.07,0,0,0,1.27-2.12.1.1,0,0,0-.1-.11Zm3.31.52c0,1.29,0,1.43,0,1.76,0,.05,0,.27,0,.32s-.11.36-.4.36-.18-.09-.18-.14,0-.18,0-.21c0-.23,0-1.07,0-2.08,0-.33,0-1.21-.06-1.7a.69.69,0,0,1,0-.15s0-.07.06-.07.76.13.76.27a.13.13,0,0,1,0,.08c-.15.13-.17.16-.19.26S148.19,16,148.19,16.71Zm1.44.16c0,.44,0,2.36,0,2.75s0,.67-.16.76a1.13,1.13,0,0,1-.51.24c-.1,0-.12,0-.15-.16-.09-.27-.55-.43-.63-.46s-.07,0-.07-.05,0,0,0,0,.48.06.57.06c.35,0,.35-.06.35-.63s0-4.24,0-4.75c0-.08-.07-.48-.07-.5s0-.07.08-.07l.67.12s.11,0,.11.11,0,.09-.12.15-.09.14-.11.22S149.63,16.49,149.63,16.87Z"/><path class="cls-1" d="M152.47,15.76c.23,0,.9.24.9.68a.27.27,0,0,1-.24.28c-.08,0-.14,0-.22-.2a2.24,2.24,0,0,0-.55-.71S152.41,15.76,152.47,15.76Zm0,2.93a.46.46,0,0,0,.46-.29,12.39,12.39,0,0,0,.88-2.28s.07-.2.1-.2A.07.07,0,0,1,154,16s-.1.58-.11.63c-.07.32-.46,1.74-.46,2a4.5,4.5,0,0,0,.24,1.15,1.73,1.73,0,0,1,.07.37.32.32,0,0,1-.3.34c-.37,0-.38-.44-.38-.63,0-.69-.1-.89-.45-1.06,0,0-.23-.06-.23-.09S152.46,18.69,152.5,18.69Zm.67-4.58c.09,0,1,.19,1,.71a.28.28,0,0,1-.27.29c-.06,0-.14,0-.24-.19a3.88,3.88,0,0,0-.51-.7s0,0,0-.05A.06.06,0,0,1,153.17,14.11Zm3,3.67c.22,0,.22-.13.22-.22s0-1,0-1-.07-.14-.21-.14h-.5c-.65,0-.86,0-.93,0h-.15s0,0-.07,0l-.14-.17s0,0,0-.05a0,0,0,0,1,0,0l.33,0c.35,0,.65,0,1,0h.45c.09,0,.24,0,.24-.19v-.82c0-.1,0-.21-.19-.21s-.54.07-.64.07a7.06,7.06,0,0,1-.73,0c-.1,0-.18,0-.18-.05s.29-.08.35-.1a8.92,8.92,0,0,0,2.3-.68c.06,0,.34-.22.36-.22s.71.45.71.54-.07.08-.2.08a9.23,9.23,0,0,0-1.08.17c-.14,0-.22.06-.22.22s0,1,0,1.07.15.08.18.08h.58c.34,0,.38,0,.47-.12s.21-.27.27-.27a1.92,1.92,0,0,1,.57.48c0,.11-.14.11-.38.11h-1.49c-.12,0-.23,0-.23.21s0,1,0,1,.13.13.22.13h.45c.1,0,.14,0,.27-.13s.15-.16.19-.16.55.41.55.51,0,.06-.13.17a.34.34,0,0,0-.09.27c0,.27,0,1.66,0,1.67a.37.37,0,0,1-.4.4c-.18,0-.2-.09-.23-.24s0-.13-.2-.13h-1.88c-.19,0-.2,0-.25.2a.33.33,0,0,1-.36.23c-.13,0-.22,0-.22-.16s0-.44,0-.52c0-.28,0-1.39,0-1.59s0-.36,0-.49a1.11,1.11,0,0,1,0-.17s0-.08,0-.08.07,0,.33.14a.74.74,0,0,0,.41.08Zm1.38,2.16a.19.19,0,0,0,.22-.21V18.21c0-.1,0-.24-.22-.24h-1.92c-.13,0-.22.05-.22.21V19.7c0,.12,0,.24.22.24Z"/><path class="cls-1" d="M163.43,15.75c-.2,0-.2.14-.2.31,0,.37,0,.43.23.43h.5a.31.31,0,0,0,.24-.08.29.29,0,0,1,.18-.11c.1,0,.5.25.5.34s-.14.18-.16.21,0,.16,0,.38,0,.88,0,1-.33.3-.36.3-.11,0-.13-.17-.09-.06-.12-.06h-.62c-.23,0-.23.13-.23.28,0,.37,0,.44.23.44h.2c.29,0,.32,0,.44-.13s.18-.18.23-.18.49.37.49.41,0,.09-.39.09h-.94c-.17,0-.25,0-.25.25s0,.31.09.31,1.22-.2,1.32-.2.06,0,.06.05-.29.13-.38.16c-.75.23-1.37.37-2.29.59a2,2,0,0,0-.45.15s-.13.12-.16.12-.34-.59-.34-.59,0,0,.06,0a9.67,9.67,0,0,0,1.29-.12s.3,0,.3-.05.06-.08.06-.13a3.44,3.44,0,0,0,0-.36c0-.14-.13-.14-.3-.14-.64,0-.91,0-1,0h-.16s0,0-.06,0l-.15-.17,0,0s0,0,0,0l.31,0,1.08,0c.24,0,.24-.06.24-.46,0-.13,0-.26-.21-.26h-.52c-.12,0-.14,0-.15.12s-.15.22-.27.22-.22-.14-.22-.22V16.86c0-.08-.05-.43-.05-.5s0-.06.07-.06a2.38,2.38,0,0,1,.36.13.76.76,0,0,0,.32.06h.45c.22,0,.22-.1.22-.36s0-.38-.22-.38h-.23c-.6,0-.84,0-.86,0h-.15a.08.08,0,0,1-.07,0l-.14-.17s0,0,0-.05h0l.32,0c.06,0,.58,0,.93,0h.19c.23,0,.23-.11.23-.3,0-.44,0-.49-.09-.49l-.21,0c-.19,0-.71.06-.88.06s-.09,0-.09,0,0,0,.2-.08a7.29,7.29,0,0,0,2-.68c.13-.07.14-.08.17-.08a2,2,0,0,1,.56.43s0,0-.16.07l-.92.18c-.12,0-.12.07-.12.17a5.47,5.47,0,0,0,0,.65c0,.06.1.08.15.08.41,0,.46,0,.56-.13s.2-.24.29-.24a1.32,1.32,0,0,1,.54.47c0,.09,0,.09-.4.09Zm-.85,1.57c.22,0,.22-.11.22-.35s0-.29-.22-.29h-.45c-.23,0-.23.11-.23.35s0,.29.23.29Zm0,.81c.22,0,.22-.1.22-.32s0-.3-.22-.3h-.44c-.22,0-.23.11-.23.27s0,.35.23.35Zm.87-1.45c-.22,0-.22.12-.22.33s0,.31.22.31H164c.23,0,.23-.11.23-.33s0-.31-.23-.31Zm0,.83c-.22,0-.22.11-.22.3s0,.32.22.32H164c.23,0,.23-.12.23-.3s0-.32-.23-.32Zm2.83-1.8c-.21,0-.22.09-.22.37-.07,2.44-.3,3.24-1.16,4.06a2.6,2.6,0,0,1-.78.54s0,0,0,0,.17-.17.2-.2c1-1,1.31-1.82,1.31-4.57,0-.11,0-.16-.14-.16l-.39,0s0,0-.07-.05l-.14-.16a.08.08,0,0,1,0-.06h0l.61,0c.09,0,.13,0,.13-.13a8.28,8.28,0,0,0-.05-1c0-.06-.06-.31-.06-.37s0-.1.06-.1.72.12.72.21-.12.12-.13.14a4,4,0,0,0-.06.87c0,.31,0,.34.21.34h.24a.3.3,0,0,0,.25-.09c.15-.17.17-.19.22-.19s.55.3.55.42,0,.07-.14.18a.27.27,0,0,0-.11.26,20.67,20.67,0,0,1-.15,3.87c-.18.65-.64.67-.73.67s-.14,0-.21-.25-.21-.26-.44-.37-.18-.08-.18-.13,0,0,0,0,.66.12.79.12c.28,0,.35-.56.39-.92s0-2.39,0-3c0-.32,0-.4-.22-.4Z"/><path class="cls-1" d="M169.85,15.94c.5,0,1,.32,1,.72a.32.32,0,0,1-.29.34c-.1,0-.15-.09-.25-.3a2,2,0,0,0-.48-.62l-.13-.11S169.82,15.94,169.85,15.94Zm.45,2.83a7.13,7.13,0,0,0,1.22-2.27c.07-.16.19-.39.26-.55s.05-.12.09-.12,0,0,0,0-.71,2-.8,2.23c-.21.53-.24.59-.24.83a2.21,2.21,0,0,0,.23,1,.75.75,0,0,1,.07.28.35.35,0,0,1-.32.35c-.27,0-.36-.26-.36-.49a1.23,1.23,0,0,0-.27-1s-.22-.13-.22-.16S170.26,18.8,170.3,18.77Zm0-4.47s0,0,.06,0a2.87,2.87,0,0,1,.59.11.7.7,0,0,1,.49.6c0,.16-.09.33-.25.33s-.16-.07-.26-.25a2.45,2.45,0,0,0-.61-.74S170.35,14.31,170.35,14.3Zm2.58,3.26c-.17,0-.68,0-.93,0h-.16s0,0-.06,0l-.14-.17s0,0,0-.05,0,0,0,0l.33,0c.33,0,.66,0,1,0h.54c.12,0,.2,0,.22-.15s0-1,0-1.16,0-.22-.21-.22h-.2c-.17,0-.67,0-.92,0h-.17s0,0-.05,0l-.15-.17,0-.05s0,0,0,0l.33,0c.33,0,.66,0,1,0h.16c.06,0,.21,0,.21-.22s0-.68,0-.92c0-.06,0-.34,0-.36s0-.05,0-.05.73.12.73.23-.13.17-.14.21a.56.56,0,0,0,0,.24c0,.11,0,.66,0,.66,0,.21.15.21.22.21h.42c.3,0,.34,0,.41-.06s.21-.32.27-.32a2,2,0,0,1,.57.46c0,.11-.14.11-.39.11h-1.28c-.08,0-.23,0-.23.19s0,1.16,0,1.2.11.14.23.14h.69c.31,0,.34,0,.4-.05s.25-.33.31-.33.56.38.56.47-.15.1-.4.1H174s0,0,0,0,.28.31.28.38-.05.08-.2.11-.09.05-.28.34a10.21,10.21,0,0,1-.76,1c-.11.12-.11.13-.11.15a0,0,0,0,0,0,0c.2,0,2-.1,2.31-.12s.25,0,.25-.12-.4-1-.41-1.06h0a2.84,2.84,0,0,1,1.25,1.77.38.38,0,0,1-.36.42c-.15,0-.17-.06-.29-.62-.05-.18-.08-.3-.24-.3s-1,.2-1.18.23-1.57.23-1.83.29a1.94,1.94,0,0,0-.37.14.54.54,0,0,1-.16.1c-.11,0-.32-.74-.32-.77s0,0,0,0,.3.05.35.06a4.46,4.46,0,0,0,.5,0c.18,0,.21-.07.51-.63a8.16,8.16,0,0,0,.6-1.33c0-.13-.13-.13-.22-.13Z"/><path class="cls-1" d="M182.12,14.74a7.81,7.81,0,0,0,1.06,3.35,4.18,4.18,0,0,0,2.08,1.83s.07,0,.07,0,0,0-.25.09a1.48,1.48,0,0,0-.51.22c-.14.11-.16.13-.18.13a4.72,4.72,0,0,1-1.67-2.13,8.15,8.15,0,0,1-.71-2.84c0-.08,0-.09,0-.09s0,0-.08.3a8.43,8.43,0,0,1-.93,3.13,4.07,4.07,0,0,1-2.14,1.74s0,0,0,0,0,0,.1-.09a5.54,5.54,0,0,0,1.73-1.88,9.18,9.18,0,0,0,.84-3.77,2,2,0,0,0,0-.45.7.7,0,0,1,0-.14.06.06,0,0,1,.06-.06s.36.1.42.12c.35.09.5.14.5.27s-.06.1-.12.11-.1,0-.12.05S182.12,14.69,182.12,14.74Z"/><path class="cls-1" d="M112.85,56.43c-1,0-1-.51-1-.82s.13-1.77.16-2V50.29a42.61,42.61,0,0,0-.19-5,5.34,5.34,0,0,1-.15-.71c0-.08.11-.1.17-.1a7.34,7.34,0,0,1,1.48.64l.13.06a7.56,7.56,0,0,0,2.68.45h9.57c1.18,0,1.34-.13,1.66-.39.85-.65,1.06-.7,1.1-.7a5.83,5.83,0,0,1,2.1,1.75c0,.15,0,.16-.65.72a8.6,8.6,0,0,0-.19,2.46c0,.64.08,1.62.13,2.56.06,1.29.12,2.51.12,2.81,0,1.22-1.4,1.26-1.41,1.26-.32,0-1.07-.09-1.07-.89,0-.42,0-1.07-1-1.07h-11c-.3,0-1.1,0-1.1.89C114.45,55.55,114.45,56.43,112.85,56.43Zm2.39-10.16c-1,0-1,.17-1,3,0,2.34,0,3.58.07,3.67a.88.88,0,0,0,.94.54h11.38c1,0,1-.17,1-3,0-1.31,0-3.52-.07-3.67a.88.88,0,0,0-.94-.51Zm-5-4.51c-.08,0-.12,0-.22-.15l-.59-.72a.76.76,0,0,0-.1-.12l0,0h0l.72,0,.65,0c1.41.09,2.69.12,4.26.12h3.94c.33,0,1,0,1-.94V36.28c0-.66-.31-1-1-1h-6.46c-2.48,0-3.5.05-3.93.09h0l-.33,0-.31,0c-.07,0-.09,0-.17-.1l-.06-.06-.58-.71c-.11-.13-.11-.13-.11-.17l.74.07.64,0,.56,0c1.3.06,2.42.11,3.7.11h6.25c.34,0,1,0,1-.92a32,32,0,0,0-.22-3.63,5,5,0,0,0-.18-.61,5.23,5.23,0,0,1-.16-.55c0-.11.19-.11.2-.11s2.69.47,2.94.53c.41.07.78.17.78.51,0,.13-.32.48-.56.74a2.29,2.29,0,0,0-.47.61c-.06.2-.12,2.2-.12,2.51,0,.92.73.92,1,.92H129c1.41,0,1.59,0,2.05-.56l.1-.12c.78-.92.86-1,1.08-1A10.7,10.7,0,0,1,135,35c0,.34-.52.36-1.6.36H123.08c-.32,0-1,0-1,.91,0,.31,0,1.15,0,2s0,1.54,0,1.8c0,.94.71.94,1,.94h4.79a3.81,3.81,0,0,0,1-.06c.21-.07.51-.43.94-1a4.42,4.42,0,0,1,.59-.66c.26,0,2.61,1.58,2.61,2,0,.23-.29.33-1,.33H114.84c-2.47,0-3.5,0-3.92.09h0l-.32,0Z"/><path class="cls-1" d="M138.8,54.72c-.06,0-.1,0-.22-.16l-.59-.71c-.1-.13-.1-.13-.1-.17l.73.07.65,0c1.42.09,2.7.12,4.29.12h6.37c.25,0,.83,0,1-.48.08-.25.13-3.15.13-3.48,0-1.31,0-1.85-1-1.85H147c-2.08,0-3.1,0-3.59,0h-.33a4.5,4.5,0,0,1-.65.1c-.08,0-.12,0-.2-.17l-.64-.74-.06-.07,0-.07h0c.28,0,1.16.08,1.38.11,1.6.07,2.88.1,4.27.1h2.92a.8.8,0,0,0,.88-.48,27.91,27.91,0,0,0,.13-4.08c0-.79-.7-.79-1-.79h-4.16c-.33,0-.78,0-.91.43-.22.66-.38,1.19-1.17,1.19s-1-.42-1-1.35c0-.48,0-1.81.08-3.09s.07-2.41.07-2.82a60,60,0,0,0-.19-6.07,4.33,4.33,0,0,0-.15-.5,4.53,4.53,0,0,1-.19-.61.07.07,0,0,1,.08-.08,12.25,12.25,0,0,1,1.63.8l.17.1a4.07,4.07,0,0,0,2.46.56h11.4a1.88,1.88,0,0,0,1.23-.26,1.84,1.84,0,0,0,.27-.28c.17-.17.47-.5.56-.51s2.19,1.5,2.19,1.85c0,.19-.19.38-.62.65s-.41.42-.41,1.62c0,.65,0,2.44.07,4.17s.05,3.25.05,3.81a1.67,1.67,0,0,1-1.63,1.88c-.54,0-.57-.26-.63-.77-.07-.72-.66-.72-1-.72h-4.07c-1,0-1,0-1,2.72,0,1.94,0,2.15.24,2.39a1.2,1.2,0,0,0,.87.24h4.26c1.32,0,1.49,0,1.76-.24a4.73,4.73,0,0,0,.45-.56c.25-.34.72-1,.86-1a8.28,8.28,0,0,1,2.38,2.09c0,.35-.51.36-1.57.36h-8.14c-1.11,0-1.11.55-1.11,1.63,0,3.33,0,3.67.31,4a1.06,1.06,0,0,0,.77.23h6.74c1.16,0,1.39,0,1.64-.26a5.1,5.1,0,0,0,.5-.6c.27-.35.72-.94.88-.94a6.92,6.92,0,0,1,2.44,2.1c0,.34-.52.36-1.6.36H143.4a33,33,0,0,0-4,.09h0l-.31,0Zm15.39-17.9c-1.08,0-1.08.52-1.08,2.07,0,2.21,0,2.5,1.08,2.5h4c1.07,0,1.07-.33,1.07-2.88,0-1.12,0-1.69-1-1.69Zm-8.3,0c-1,0-1,.36-1,1.69,0,2.2,0,2.43.21,2.64a1,1,0,0,0,.8.24h4.16c1,0,1-.35,1-1.66,0-2.23,0-2.46-.21-2.67a1,1,0,0,0-.8-.24Zm8.36-5.53c-1.07,0-1.07.43-1.07,2.81,0,1.65,0,2,1.07,2h4c1.07,0,1.07-.32,1.07-2.79,0-1.63,0-2.06-1.07-2.06Zm-8.36,0c-1,0-1,.35-1,2.22,0,2.33,0,2.63,1,2.63H150c1,0,1-.25,1-2.2,0-2.3,0-2.65-1-2.65Z"/><path class="cls-1" d="M175,56.43c-1,0-1-.51-1-.82s.13-1.77.16-2V50.29a42.61,42.61,0,0,0-.19-5c-.14-.58-.16-.69-.16-.71s.12-.1.17-.1a7.16,7.16,0,0,1,1.49.64l.13.06a7.54,7.54,0,0,0,2.67.45h9.58c1.17,0,1.34-.13,1.66-.39.84-.65,1.06-.7,1.1-.7a5.83,5.83,0,0,1,2.1,1.75c0,.15,0,.16-.66.72a9,9,0,0,0-.18,2.46c0,.64.08,1.62.12,2.56.07,1.29.13,2.51.13,2.81,0,1.22-1.4,1.26-1.41,1.26-.33,0-1.08-.09-1.08-.89,0-.42,0-1.07-1-1.07h-11c-.3,0-1.1,0-1.1.89C176.61,55.55,176.61,56.43,175,56.43Zm2.39-10.16c-1,0-1,.17-1,3,0,2.34,0,3.58.07,3.67a.87.87,0,0,0,.94.54h11.38c1,0,1-.17,1-3,0-1.31,0-3.52-.07-3.67a.89.89,0,0,0-.94-.51Zm-5-4.51c-.08,0-.12,0-.22-.15l-.59-.72-.1-.12,0,0h0l.72,0,.65,0c1.41.09,2.69.12,4.25.12h3.95c.33,0,1,0,1-.94V36.28c0-.66-.31-1-1-1h-6.47c-2.47,0-3.49.05-3.92.09h0l-.33,0-.31,0c-.07,0-.09,0-.17-.1l-.06-.06-.58-.71c-.11-.13-.11-.13-.11-.17l.74.07.64,0,.55,0c1.3.06,2.43.11,3.71.11H181c.34,0,1,0,1-.92a32,32,0,0,0-.22-3.63c0-.09-.1-.34-.18-.61a5.23,5.23,0,0,1-.16-.55c0-.11.19-.11.2-.11s2.69.47,2.93.53c.42.07.78.17.78.51,0,.13-.31.48-.55.74a2.29,2.29,0,0,0-.47.61c-.07.2-.13,2.2-.13,2.51,0,.92.73.92,1.05.92h5.84c1.41,0,1.59,0,2-.56l.1-.12c.78-.92.86-1,1.08-1a10.86,10.86,0,0,1,2.85,2c0,.34-.52.36-1.6.36H185.23c-.31,0-1,0-1,.91,0,.31,0,1.15,0,2s0,1.54,0,1.8c0,.94.7.94,1,.94H190a3.81,3.81,0,0,0,1-.06c.21-.07.5-.42.93-1a4.94,4.94,0,0,1,.6-.66c.26,0,2.61,1.58,2.61,2,0,.23-.29.33-1,.33H177c-2.48,0-3.5,0-3.93.09h0l-.32,0Z"/><path class="cls-1" d="M201,54.72c-.06,0-.1,0-.22-.16l-.59-.71c-.11-.13-.11-.13-.11-.17l.74.07.65,0c1.42.09,2.7.12,4.29.12h6.37c.25,0,.83,0,1-.48.07-.25.13-3.15.13-3.48,0-1.31,0-1.85-1-1.85h-3.07c-2.08,0-3.1,0-3.59,0h-.33a4.5,4.5,0,0,1-.65.1c-.08,0-.12,0-.2-.17l-.65-.74-.05-.07,0-.07h0c.28,0,1.16.08,1.38.11,1.6.07,2.88.1,4.27.1h2.92a.8.8,0,0,0,.88-.48,27.91,27.91,0,0,0,.13-4.08c0-.79-.7-.79-1-.79h-4.16c-.33,0-.78,0-.92.43-.21.66-.37,1.19-1.17,1.19s-1-.42-1-1.35c0-.48,0-1.81.08-3.09s.08-2.41.08-2.82a60,60,0,0,0-.19-6.07,3.26,3.26,0,0,0-.16-.5,5.92,5.92,0,0,1-.18-.61.07.07,0,0,1,.08-.08,11.73,11.73,0,0,1,1.62.8l.17.1a4.12,4.12,0,0,0,2.47.56h11.4a1.89,1.89,0,0,0,1.23-.26,1.84,1.84,0,0,0,.27-.28c.17-.17.47-.5.56-.51s2.18,1.5,2.18,1.85c0,.19-.18.38-.61.65s-.41.42-.41,1.62c0,.65,0,2.44.06,4.17s.06,3.25.06,3.81A1.67,1.67,0,0,1,222,43.56c-.54,0-.57-.26-.63-.77-.07-.72-.67-.72-1-.72h-4.08c-1,0-1,0-1,2.72,0,1.94,0,2.15.24,2.39a1.18,1.18,0,0,0,.87.24h4.25c1.32,0,1.49,0,1.77-.24a4.73,4.73,0,0,0,.45-.56c.25-.34.72-1,.86-1a8.28,8.28,0,0,1,2.38,2.09c0,.35-.51.36-1.57.36h-8.14c-1.11,0-1.11.55-1.11,1.63,0,3.33,0,3.67.31,4a1.06,1.06,0,0,0,.77.23h6.74c1.16,0,1.39,0,1.64-.26a5.1,5.1,0,0,0,.5-.6c.27-.35.72-.94.87-.94a6.92,6.92,0,0,1,2.44,2.1c0,.34-.52.36-1.6.36H205.56a33,33,0,0,0-4,.09h0l-.31,0Zm15.39-17.9c-1.08,0-1.08.52-1.08,2.07,0,2.21,0,2.5,1.08,2.5h4c1.07,0,1.07-.33,1.07-2.88,0-1.12,0-1.69-1-1.69Zm-8.3,0c-1,0-1,.36-1,1.69,0,2.2,0,2.43.21,2.64a1,1,0,0,0,.8.24h4.16c1,0,1-.35,1-1.66,0-2.23,0-2.46-.21-2.67a1,1,0,0,0-.8-.24Zm8.36-5.53c-1.08,0-1.08.43-1.08,2.81,0,1.65,0,2,1.08,2h4c1.07,0,1.07-.32,1.07-2.79,0-1.63,0-2.06-1.07-2.06Zm-8.36,0c-1,0-1,.35-1,2.22,0,2.33,0,2.63,1,2.63h4.13c1,0,1-.25,1-2.2,0-2.3,0-2.65-1-2.65Z"/><path class="cls-1" d="M235.71,56.77c-.71,0-.76-.67-.76-1.35s0-3.08.06-5.42.06-5,.06-5.86c0-1.47,0-9.56-.09-11.29l0-.6c-.07-1-.18-2.6-.18-3,0-.23,0-.26.17-.26s.33.06,1.49.67a2.85,2.85,0,0,0,1.74.45h18a1.14,1.14,0,0,0,1.05-.46c.75-.82.82-.85,1-.85.42,0,2.25,1.6,2.25,2.1,0,.16,0,.18-.48.53l-.11.09c-.29.21-.31,1.72-.31,1.74s.19,16.19.22,17.1c0,.33,0,1.54.05,2.58,0,.8,0,1.49,0,1.64,0,.65,0,2.16-1.72,2.16-.79,0-.82-.43-.89-1.13,0-.55-.41-.55-1-.55H238.22c-.81,0-.84,0-1,.78S236.12,56.77,235.71,56.77Zm2.58-26c-1,0-1.11.51-1.11,1.35,0,.67,0,2.51,0,4.29s0,3.3,0,3.85c0,1,0,3.91.08,6.69s.08,5.18.08,6.06,0,1.38,1.1,1.38h17.87c1.11,0,1.11-.28,1.11-2.47,0-.88,0-3.31.06-5.66s.06-4.39.06-5.13,0-2.44,0-4.18,0-3.28,0-3.84a7.28,7.28,0,0,0-.07-1.89,1,1,0,0,0-1-.45Zm1.43,20.14c-.08,0-.12-.06-.21-.17l-.6-.74c-.08-.08-.14-.13-.14-.15h0c.28,0,1.21.1,1.39.13.52,0,2.38.09,4.11.09h1c.19,0,.77,0,.94-.46.11-.24.13-5.07.13-5.12,0-1.86-.07-2.16-1.1-2.16-1.6,0-2.88,0-3.8.09h0l-.33,0-.32,0c-.06,0-.1,0-.22-.16l-.59-.71c-.1-.13-.1-.13-.1-.17l.73.07.65,0c.47,0,2.55.13,4.13.13.95,0,.95-.45.95-2.63,0-.56,0-3.38-.4-3.72a.93.93,0,0,0-.7-.24h-.78c-1.24,0-2.89,0-3.77.09h0l-.37,0-.27,0c-.09,0-.13,0-.22-.15l-.63-.72a.48.48,0,0,0-.08-.12s0,0,0,0l.67,0,.69.05h.12c.74,0,2.46.12,4,.12h6c.52,0,.92,0,1.25-.57l.11-.16c.52-.84.57-.92.76-.92s2.53,1.68,2.53,2-.07.27-1.57.27h-4.19c-1,0-1.11.26-1.11,3.06s0,3.22.39,3.4c.23.13.33.13,1.09.13s1-.06,1.2-.24l.29-.28c.27-.28.84-.85,1-.85a5.7,5.7,0,0,1,2.28,1.79c0,.19-.35.23-1.35.23h-3.89c-1,0-1,.38-1,2,0,.61.06,4.82.16,5.24s.74.53,1.07.53h.78c1,0,1.72,0,2.05-.57.62-1,.67-1.05.87-1.05a8.46,8.46,0,0,1,2.53,2c0,.28-.06.29-1.57.29h-9.94c-.71,0-2.87,0-4,.06A3.69,3.69,0,0,1,239.72,50.87Zm14.14-3.11c-.52,0-.61-.14-1.5-1.42l-.18-.26a8.2,8.2,0,0,0-1.39-1.6l-.07-.07c-.24-.22-.45-.41-.45-.49s.19-.14.35-.14c.62,0,4.07,1,4.28,2.76a1.07,1.07,0,0,1-.26.85A1.11,1.11,0,0,1,253.86,47.76Z"/><path class="cls-1" d="M81.62,54.05a33.66,33.66,0,0,1-7.36-2.95,30.92,30.92,0,0,1-2.85-1.79,30.59,30.59,0,0,1-4.28-3.64A32.33,32.33,0,0,1,59,31,33.5,33.5,0,0,1,58.18,27,33.5,33.5,0,0,1,57.41,31,33.23,33.23,0,0,1,52.8,41.31a32.42,32.42,0,0,1-3.56,4.35A31.7,31.7,0,0,1,45,49.32a33,33,0,0,1-10.21,4.73,34,34,0,0,1-11.39,1.1A31.11,31.11,0,0,0,35,55a30.08,30.08,0,0,0,10.86-4.45,28,28,0,0,0,4.63-3.71,31.39,31.39,0,0,0,3.83-4.55,33.41,33.41,0,0,0,3.89-7.65,33.05,33.05,0,0,0,3.9,7.65,29.69,29.69,0,0,0,3.83,4.55,28,28,0,0,0,4.62,3.72,29,29,0,0,0,5.23,2.76l1.38.53c.46.16.94.29,1.41.44a13.52,13.52,0,0,0,1.42.39c.47.11.94.25,1.43.33A31.06,31.06,0,0,0,93,55.15c-.41,0-1,.07-1.72.08A33.7,33.7,0,0,1,81.62,54.05Z"/><path class="cls-1" d="M84.78,72.38c-.47-.1-1.37-.31-2.49-.63a40.29,40.29,0,0,1-5.76-2c-1.6-.73-2.76-1.41-3.09-1.6a32.09,32.09,0,0,1-4.91-3.6c-.37-.33-.88-.8-1.45-1.38a31.23,31.23,0,0,1-2.65-3c-.69-.9-1.16-1.62-1.31-1.85s-.6-.95-1.15-2a36,36,0,0,1-2-4.43c-.31-.81-.54-1.47-.67-1.86-.35-1.06-.61-2-.78-2.59s-.26-1-.35-1.41c-.08.37-.2.85-.35,1.41s-.4,1.46-.85,2.8c-.58,1.72-1.12,3-1.27,3.35-.5,1.14-.9,1.93-1,2.2-.32.62-.58,1.08-.65,1.19-.57,1-1.07,1.74-1.31,2.09-.1.14-.51.73-1.11,1.49a30.42,30.42,0,0,1-2.33,2.62c-.62.63-1.14,1.11-1.47,1.4A32.67,32.67,0,0,1,44.59,67c-.73.5-1.33.85-1.63,1s-1,.61-2.12,1.15c-.3.15-1,.47-1.81.83s-1.32.53-1.48.59l-.43.15c-.26.09-.9.32-1.61.54s-1.53.44-2.22.63c-.51.13-1,.27-1.71.42-1.46.34-2.66.53-3.33.63-.37,0-1.25.17-2.39.28-1,.08-1.77.12-2.33.14-1.18,0-2.08,0-2.34,0-.74,0-1.38,0-1.9-.08a41.36,41.36,0,0,0,12.46-.06,36.69,36.69,0,0,0,12-3.93,31.26,31.26,0,0,0,9.71-8.16,32.79,32.79,0,0,0,4.77-8.55A33.11,33.11,0,0,0,63,61.22a31.37,31.37,0,0,0,9.7,8.17,37,37,0,0,0,12,3.92,42.31,42.31,0,0,0,12.46.06c-.94,0-1.74.07-2.37.08s-1.27,0-2.19,0c-.16,0-.9,0-1.89-.12-1.64-.14-2.88-.34-3.29-.41S86.06,72.67,84.78,72.38Z"/><path class="cls-1" d="M79.61,34.22a35.62,35.62,0,0,1-6.55-3.31,33,33,0,0,1-4.15-3.13,34,34,0,0,1-5.28-5.87A34.87,34.87,0,0,1,59,12.83c-.19-.55-.37-1.12-.54-1.73-.11-.39-.21-.77-.31-1.15h0c-.09.38-.19.76-.3,1.15-.17.61-.35,1.18-.54,1.73a34.87,34.87,0,0,1-4.6,9.08,34,34,0,0,1-5.28,5.87,33.74,33.74,0,0,1-4.15,3.13,35.46,35.46,0,0,1-6.56,3.31,37.21,37.21,0,0,1-10.11,2.32,33.86,33.86,0,0,0,10.42-1.4,38.28,38.28,0,0,0,5-1.93c.78-.42,1.59-.8,2.34-1.28l1.15-.69,1.1-.76.55-.38.53-.42,1.05-.83c.68-.58,1.35-1.17,2-1.81A35.74,35.74,0,0,0,54.23,23a34.94,34.94,0,0,0,4-7.06h0a35.47,35.47,0,0,0,4,7.06A34.77,34.77,0,0,0,65.65,27c.63.64,1.3,1.23,2,1.81l1.05.83.53.42.55.38,1.1.76,1.14.69c.75.48,1.56.86,2.35,1.28a38.71,38.71,0,0,0,5,1.93,33.9,33.9,0,0,0,10.42,1.4A37.3,37.3,0,0,1,79.61,34.22Z"/></svg>