<svg id="レイヤー_1" data-name="レイヤー 1" xmlns="http://www.w3.org/2000/svg" viewBox="0 0 270 83.33"><defs><style>.cls-1{fill:#fff;}</style></defs><path class="cls-1" d="M107.11,69.84c-.09,0-.22,0-.22-.13s.12-.14.25-.14c.28,0,.37-.15.37-.27a.68.68,0,0,0,0-.19c0-.08-.9-1.46-1-1.63-.46-.74-.52-.82-.61-.82s-.24.12-.43.33c-.34.38-.37.46-.37.79V69c0,.59.46.59.71.59.08,0,.18,0,.18.14s-.13.13-.21.13h-2c-.09,0-.22,0-.22-.13s.12-.14.24-.14c.3,0,.64-.11.64-.59V64.49c0-.59-.46-.59-.71-.59-.07,0-.17,0-.17-.14s.13-.14.21-.14h2c.1,0,.23,0,.23.14s-.13.14-.24.14c-.28,0-.65.09-.65.59v2.18c0,.08,0,.17.1.17a.15.15,0,0,0,.09,0L106.89,65c.55-.6.62-.67.62-.83s-.33-.28-.58-.28c0,0-.17,0-.17-.14s.13-.14.22-.14h2.11c.1,0,.23,0,.23.14s-.12.14-.28.14a1.65,1.65,0,0,0-1,.31c-.18.14-1.11,1.17-1.47,1.56a.39.39,0,0,0-.14.26.63.63,0,0,0,.13.31c.33.51.47.74,1.79,2.83a1.22,1.22,0,0,0,.94.4c.16,0,.16.12.16.14s-.13.13-.21.13Z"/><path class="cls-1" d="M111.33,69.84c-.11,0-.24,0-.24-.13s.07-.14.4-.14.66,0,.74-.45c0-.14,0-2.11,0-2.35s0-2.28,0-2.44c-.08-.43-.39-.43-1-.43,0,0-.19,0-.19-.14s.13-.14.25-.14h2.51c.1,0,.23,0,.23.14s-.08.13-.39.13-.63,0-.74.39c0,.12,0,2,0,2.44,0,2.26,0,2.27,0,2.4.08.45.39.45,1,.45,0,0,.18,0,.18.14s-.13.13-.23.13Z"/><path class="cls-1" d="M118.62,63.62c.41,0,2.36,0,2.36,1.47a1.68,1.68,0,0,1-1.13,1.5c-.3.14-.34.16-.34.25a15.36,15.36,0,0,0,.89,2,1.06,1.06,0,0,0,1,.68c.08,0,.25,0,.25.14s-.17.13-.21.13h-1.07a.42.42,0,0,1-.4-.25c0-.08-.66-1.41-.75-1.62-.47-1-.53-1.17-.83-1.17h-.47c-.06,0-.17,0-.19.1s0,1.22,0,1.41c0,1,0,1.26.79,1.26.06,0,.18,0,.18.14s-.16.13-.25.13h-2.11c-.09,0-.21,0-.21-.13s.12-.14.24-.14c.58,0,.67-.27.7-.59s0-2.64,0-3a13.5,13.5,0,0,0-.07-1.73c-.11-.31-.47-.31-.67-.31,0,0-.23,0-.23-.16s.15-.12.26-.12Zm-.3.28c-.62,0-.62.38-.62,1.26,0,1.34,0,1.37.23,1.37h.69a1.38,1.38,0,0,0,1.55-1.35c0-.6-.32-1.28-1.44-1.28Z"/><path class="cls-1" d="M123.46,69.84c-.11,0-.24,0-.24-.13s.07-.14.4-.14.66,0,.74-.45c0-.14,0-2.11,0-2.35s0-2.28,0-2.44c-.08-.43-.39-.43-1-.43,0,0-.19,0-.19-.14s.13-.14.25-.14H126c.1,0,.23,0,.23.14s-.08.13-.39.13-.63,0-.74.39c0,.12,0,2,0,2.44,0,2.26,0,2.27,0,2.4.08.45.39.45,1,.45,0,0,.18,0,.18.14s-.13.13-.23.13Z"/><path class="cls-1" d="M131.62,69.84c-.09,0-.22,0-.22-.13s.12-.14.25-.14.37-.15.37-.27a.41.41,0,0,0,0-.19c0-.08-.89-1.46-1-1.63-.47-.74-.52-.82-.61-.82s-.24.12-.43.33c-.34.38-.37.46-.37.79V69c0,.59.46.59.71.59.08,0,.17,0,.17.14s-.12.13-.2.13h-2c-.09,0-.22,0-.22-.13s.12-.14.24-.14c.3,0,.64-.11.64-.59V64.49c0-.59-.46-.59-.72-.59a.15.15,0,0,1-.16-.14c0-.14.13-.14.21-.14h2c.1,0,.22,0,.22.14s-.12.14-.24.14a.56.56,0,0,0-.64.59v2.18c0,.08,0,.17.1.17s.07,0,.09,0L131.4,65c.55-.6.62-.67.62-.83s-.33-.28-.58-.28c0,0-.17,0-.17-.14s.12-.14.22-.14h2.11c.1,0,.23,0,.23.14s-.12.14-.28.14a1.65,1.65,0,0,0-1,.31c-.18.14-1.11,1.17-1.47,1.56a.39.39,0,0,0-.14.26.63.63,0,0,0,.13.31l1.78,2.83a1.26,1.26,0,0,0,.94.4c.17,0,.17.12.17.14s-.13.13-.21.13Z"/><path class="cls-1" d="M135.88,69.84c-.11,0-.24,0-.24-.13s.07-.14.4-.14.66,0,.75-.45c0-.14,0-2.11,0-2.35s0-2.28,0-2.44c-.09-.43-.4-.43-1-.43-.05,0-.19,0-.19-.14s.13-.14.25-.14h2.51c.1,0,.23,0,.23.14s-.08.13-.39.13-.63,0-.74.39c0,.12,0,2,0,2.44,0,2.26,0,2.27,0,2.4.08.45.39.45,1,.45,0,0,.18,0,.18.14s-.13.13-.23.13Z"/><path class="cls-1" d="M143.18,63.62c.41,0,2.35,0,2.35,1.47a1.66,1.66,0,0,1-1.13,1.5c-.3.14-.34.16-.34.25a15.36,15.36,0,0,0,.89,2,1.06,1.06,0,0,0,1,.68c.08,0,.26,0,.26.14s-.18.13-.22.13h-1.07a.42.42,0,0,1-.4-.25c-.05-.08-.65-1.41-.75-1.62-.47-1-.53-1.17-.83-1.17h-.47c-.06,0-.17,0-.19.1s0,1.22,0,1.41c0,1,0,1.26.79,1.26.06,0,.18,0,.18.14s-.16.13-.25.13h-2.11c-.08,0-.21,0-.21-.13s.12-.14.24-.14c.59,0,.67-.27.7-.59s0-2.64,0-3a15.73,15.73,0,0,0-.06-1.73c-.11-.31-.48-.31-.68-.31s-.23,0-.23-.16.15-.12.26-.12Zm-.31.28c-.62,0-.62.38-.62,1.26,0,1.34,0,1.37.23,1.37h.7a1.38,1.38,0,0,0,1.54-1.35c0-.6-.32-1.28-1.43-1.28Z"/><path class="cls-1" d="M148.31,69.84c-.11,0-.24,0-.24-.13s.07-.14.4-.14.66,0,.75-.45c0-.14,0-2.11,0-2.35s0-2.28,0-2.44c-.09-.43-.4-.43-1-.43,0,0-.19,0-.19-.14s.13-.14.25-.14h2.51c.1,0,.23,0,.23.14s-.08.13-.39.13-.63,0-.74.39c0,.12,0,2,0,2.44,0,2.26,0,2.27,0,2.4.08.45.39.45,1,.45,0,0,.18,0,.18.14s-.13.13-.23.13Z"/><path class="cls-1" d="M153.67,66.87c-.17,0-.36-.05-.36-.27s.29-.28.36-.28H155c.34,0,.34.23.34.28,0,.27-.25.27-.34.27Z"/><path class="cls-1" d="M161.17,69.84c-.09,0-.22,0-.22-.13s.12-.14.25-.14.37-.15.37-.27a.41.41,0,0,0,0-.19c0-.08-.89-1.46-1-1.63-.46-.74-.51-.82-.6-.82s-.24.12-.43.33c-.34.38-.37.46-.37.79V69c0,.59.46.59.71.59.08,0,.17,0,.17.14s-.13.13-.2.13h-2c-.08,0-.21,0-.21-.13s.12-.14.24-.14c.3,0,.64-.11.64-.59V64.49c0-.59-.46-.59-.72-.59a.14.14,0,0,1-.16-.14c0-.14.13-.14.21-.14h2c.09,0,.22,0,.22.14s-.13.14-.24.14a.56.56,0,0,0-.64.59v2.18c0,.08,0,.17.1.17s.07,0,.09,0L161,65c.55-.6.62-.67.62-.83s-.34-.28-.58-.28c0,0-.17,0-.17-.14s.12-.14.22-.14h2.11c.1,0,.23,0,.23.14s-.12.14-.28.14a1.65,1.65,0,0,0-1,.31c-.18.14-1.11,1.17-1.47,1.56a.39.39,0,0,0-.14.26.63.63,0,0,0,.13.31l1.78,2.83a1.26,1.26,0,0,0,.94.4c.17,0,.17.12.17.14s-.13.13-.21.13Z"/><path class="cls-1" d="M167.5,70c-1.65,0-2.8-1.35-2.8-3.27s1.14-3.28,2.8-3.28,2.78,1.35,2.78,3.28S169.14,70,167.5,70Zm2-3.34c0-.79-.22-2.92-2-2.92-1.92,0-2,2.51-2,3.07,0,.82.24,2.91,2,2.91C169.4,69.72,169.47,67.24,169.47,66.66Z"/><path class="cls-1" d="M175.37,69.84c-.08,0-.21,0-.21-.13s.12-.14.25-.14.36-.15.36-.27a.44.44,0,0,0,0-.19c0-.08-.9-1.46-1-1.63-.46-.74-.51-.82-.61-.82s-.24.12-.42.33c-.35.38-.38.46-.38.79V69c0,.59.46.59.72.59.08,0,.17,0,.17.14s-.13.13-.21.13h-2c-.09,0-.21,0-.21-.13s.12-.14.24-.14a.56.56,0,0,0,.64-.59V64.49c0-.59-.47-.59-.72-.59a.14.14,0,0,1-.16-.14c0-.14.12-.14.2-.14h2c.09,0,.22,0,.22.14s-.13.14-.24.14c-.27,0-.65.09-.65.59v2.18c0,.08,0,.17.1.17s.08,0,.1,0L175.16,65c.54-.6.61-.67.61-.83s-.33-.28-.58-.28c0,0-.17,0-.17-.14s.13-.14.22-.14h2.11c.11,0,.23,0,.23.14s-.12.14-.28.14a1.67,1.67,0,0,0-1,.31c-.18.14-1.11,1.17-1.47,1.56a.38.38,0,0,0-.13.26.63.63,0,0,0,.13.31l1.78,2.83a1.22,1.22,0,0,0,.94.4c.16,0,.16.12.16.14s-.13.13-.2.13Z"/><path class="cls-1" d="M184.44,63.62c.11,0,.24,0,.24.14s-.12.14-.26.14c-.61,0-.65.48-.66.75,0,.43,0,2.54,0,3a2.36,2.36,0,0,1-.55,1.8,2.2,2.2,0,0,1-3.61-1.35c0-.48,0-2.8,0-3.33s0-.89-.8-.89c-.05,0-.18,0-.18-.14s.13-.14.25-.14H181c.1,0,.23,0,.23.14s-.11.14-.28.14a.56.56,0,0,0-.62.38c0,.13,0,1.75,0,2a7,7,0,0,0,.14,2.43,1.51,1.51,0,0,0,1.46.92,1.53,1.53,0,0,0,1.34-.67c.29-.42.29-.78.29-2.76s0-1.93-.12-2.1a.68.68,0,0,0-.61-.25c-.09,0-.17,0-.17-.14s.13-.14.2-.14Z"/><path class="cls-1" d="M105.48,15.71c-.11,0-.19,0-.21.15s0,1,0,1.08,0,.17.08.17.66-.24.71-.24,0,0,0,0a3.49,3.49,0,0,1-.55.39c-.27.16-.27.24-.27.48s0,1.36,0,1.59,0,.79,0,.85a.4.4,0,0,1-.37.25c-.11,0-.16,0-.16-.18,0-.38.05-2,.05-2.38,0,0,0-.1-.06-.1a3.51,3.51,0,0,0-.66.41c-.06.11-.07.12-.1.12s-.43-.56-.43-.59,0-.06.16-.07a3.33,3.33,0,0,0,1-.39.26.26,0,0,0,0-.18c0-.22,0-.91,0-1.17,0-.08,0-.21-.21-.21h-.45c-.16,0-.18,0-.28.25a2.11,2.11,0,0,1-.35.57s0,0,0,0,.16-.68.19-.81a6.57,6.57,0,0,0,.12-1.11s0-.17,0-.2,0-.07.06-.07.56.13.56.25a1.64,1.64,0,0,1-.16.29s-.16.52-.16.58,0,.08.1.08h.39c.13,0,.2-.06.2-.19s0-.75,0-1c0-.08,0-.4,0-.47s0-.07.06-.07.67.13.67.26,0,.07-.12.18,0,.1-.06.45c0,.1,0,.61,0,.71s0,.16.1.16a.24.24,0,0,0,.19-.11c.16-.24.18-.26.24-.26s.49.35.49.46-.13.11-.4.11Zm2.78-.63c-.21,0-.21.12-.21.28,0,.93,0,.95.2.95h.63a.88.88,0,0,0,.35,0c.07,0,.25-.37.32-.37s.6.4.6.5,0,.09-.4.09h-3.49l-.3,0s0,0-.08-.05l-.13-.16s0,0,0-.05h0l.32,0,1,0h.3c.18,0,.2-.11.2-.24s0-.78,0-.85a.17.17,0,0,0-.2-.14h-.6l-.44,0s0,0-.08-.06l-.13-.15,0-.05s0,0,0,0l.29,0,.9,0c.15,0,.27,0,.27-.21s0-.41,0-.53,0-.3,0-.33,0-.07,0-.07a5,5,0,0,1,.59.16s.08,0,.08.07-.15.18-.17.21a3.54,3.54,0,0,0,0,.47c0,.11,0,.23.21.23h.32a1.17,1.17,0,0,0,.36,0c.06,0,.2-.34.26-.34s.53.34.53.45-.15.11-.39.11Zm.65,2.73c-.19,0-.21.06-.21.54,0,.22,0,1.2,0,1.4,0,.67-.51.67-.59.67s-.16-.05-.19-.19a.48.48,0,0,0-.32-.3c-.19-.08-.21-.08-.21-.11s.06,0,.08,0H108c.15,0,.29,0,.29-.33s0-1.32,0-1.37,0-.29-.2-.29H106.4l-.3,0s0,0-.07-.06l-.15-.16a.05.05,0,0,1,0,0s0,0,0,0l.33,0,1,0H108c.2,0,.2-.14.2-.23s0-.54,0-.63,0-.06.07-.06l.49.08c.07,0,.13,0,.13.11a1.07,1.07,0,0,1-.13.19,1,1,0,0,0,0,.33c0,.21.13.21.28.21s.18-.06.25-.16.13-.2.2-.2.54.34.54.45-.15.1-.39.1Zm-2.38.49c.1,0,.76.17.76.67,0,.26-.13.41-.29.41s-.14-.05-.26-.45a1.92,1.92,0,0,0-.25-.53s0-.06,0-.08S106.51,18.3,106.53,18.3Z"/><path class="cls-1" d="M114.48,16.49c-.64,0-.85,0-.92,0l-.16,0s0,0-.06-.05l-.14-.17s0,0,0,0h0l.32,0c.36,0,.66,0,1,0h2c.32,0,.39,0,.47-.12s.19-.3.27-.3.63.37.63.5-.14.11-.4.11h-1.41c-.21,0-.21.07-.21.68s0,.63.21.63h.5c.32,0,.38,0,.46-.12s.16-.24.22-.24a1.32,1.32,0,0,1,.53.46c0,.05,0,.08-.11.09h-1.58c-.23,0-.23,0-.23.48,0,.25,0,1.08,0,1.12s.09.06.18.06.44,0,.81,0a8.7,8.7,0,0,0,2-.23,2,2,0,0,1,.22-.08s0,0,0,0-.45.36-.52.45a2.24,2.24,0,0,0-.12.29c-.05.1-.34.11-.45.11-2.94,0-3.29-.42-3.76-1a1.5,1.5,0,0,1-.32-.53s0-.06-.05-.06,0,0-.11.13c-.68,1.09-1.32,1.25-1.37,1.25s0,0,0,0l.12-.13a4.6,4.6,0,0,0,1.25-2.58c0-.33,0-.36.08-.36s.63.17.63.27-.15.17-.16.2-.18.61-.22.71-.12.38-.12.39c0,.37.94,1,1.34,1,.1,0,.1-.1.1-.15,0-.41,0-2.25,0-2.62,0-.19,0-.29-.22-.29Zm-1.1-1.33c-.09,0-.14,0-.18.14-.14.44-.37.6-.54.6s-.25-.05-.25-.2,0-.14.22-.33a2,2,0,0,0,.36-.65c0-.09.05-.13.08-.13s.11.12.15.26.07.12.17.12h1.74c.18,0,.2-.1.2-.22s0-.44,0-.56,0-.33,0-.39,0,0,0,0l.74.17a.1.1,0,0,1,.06.08s-.17.17-.2.21a2.42,2.42,0,0,0,0,.47c0,.26.06.28.23.28h1.43c.2,0,.24,0,.33-.08s.18-.16.26-.16.67.38.67.57-.17.15-.21.15l-.38,0a.94.94,0,0,0-.42.1,1.43,1.43,0,0,1-.21.11s0,0,0,0,.17-.33.17-.4,0-.06-.15-.06Z"/><path class="cls-1" d="M123.16,15.32c.2,0,.22-.1.22-.23s0-.61,0-.83c0,0-.06-.26-.06-.31s.06-.06.07-.06.66.1.66.23-.09.13-.09.16,0,2.1,0,2.41-.06.87-.06,1,0,.11.07.11.52-.12.55-.12.05,0,.05,0-.43.23-.53.27-.17.1-.27.44a2.77,2.77,0,0,1-1.95,1.93s-.05,0-.05,0,0-.06.08-.08a3.68,3.68,0,0,0,.76-.59,2.74,2.74,0,0,0,.69-1.29c0-.08,0-.09-.06-.09s-1.56.56-1.58.57-.13.15-.17.15-.35-.64-.35-.68,0,0,.27,0a9.39,9.39,0,0,0,1.92-.36,2.23,2.23,0,0,0,.11-.78c0-.17-.07-.22-.22-.22h-.53c-.18,0-.67,0-.92,0l-.16,0s0,0-.06,0l-.15-.16s0,0,0-.06h0l.31,0c.22,0,.6,0,1,0h.5c.17,0,.23-.05.23-.18v-.81c0-.14,0-.26-.23-.26h-.55c-.17,0-.66,0-.92,0l-.15,0s-.05,0-.07-.05l-.14-.17s0,0,0-.05h0l.33,0c.21,0,.59,0,1,0ZM125.6,17c-.15,0-.23.06-.23.21s0,.9,0,.95.14.13.22.13h.82a1,1,0,0,0,.36,0c.07,0,.3-.35.38-.35a1.29,1.29,0,0,1,.55.48c0,.09-.15.09-.39.09H125.6c-.21,0-.22.09-.22.32s0,1.08,0,1.29,0,.36-.38.36c-.21,0-.22-.16-.22-.27s0-.59,0-.7c0-1.08,0-2.83,0-3.89,0-.54,0-.9,0-1.25,0,0,0-.26,0-.31s0-.09.07-.09a4.93,4.93,0,0,1,.57.12c.06,0,.12.06.12.12s-.13.16-.14.19-.05.13-.05.76c0,.11,0,.24.22.24h.71a1,1,0,0,0,.36,0c.07,0,.3-.35.39-.35a1.33,1.33,0,0,1,.55.47c0,.1-.16.1-.4.1h-1.6c-.08,0-.22,0-.23.17s0,.58,0,.73,0,.35.21.35H126a1,1,0,0,0,.36,0c.07,0,.3-.35.39-.35s.55.38.55.48-.16.09-.4.09Z"/><path class="cls-1" d="M133.49,15.45c.33,0,.38,0,.7-.57a5.58,5.58,0,0,0,.44-1c0-.12,0-.14.05-.14s.69.41.69.53-.06.08-.24.12-.19,0-.63.49c-.1.09-.4.39-.4.46s.07.08.18.08h1a.92.92,0,0,0,.32,0s.15-.16.19-.16.7.44.7.67-.09.17-.2.17l-.22,0c-.11,0-.24,0-.48.26s-.14.14-.19.14,0,0,0,0,.2-.57.2-.68,0-.11-.27-.11H131c-.26,0-.3,0-.34.2-.09.49-.31.72-.5.72a.27.27,0,0,1-.28-.29c0-.11,0-.15.26-.53a1.72,1.72,0,0,0,.22-.67q0-.09,0-.09c.07,0,.19.31.22.36s.08.1.35.1Zm-1.4,3c.16,0,.27,0,.36-.17a1.74,1.74,0,0,0,.13-.55c0-.13-.06-.13-.24-.13h-.44c-.16,0-.16,0-.22.16s-.27.15-.32.15-.21,0-.23-.16a5.23,5.23,0,0,1,0-.56c0-.05,0-.58,0-.77,0,0,0-.2,0-.24s0-.08.06-.08a4.25,4.25,0,0,1,.43.21.67.67,0,0,0,.27,0h2.27c.31,0,.34,0,.4-.05s.22-.28.28-.28a.89.89,0,0,1,.42.49c0,.06,0,.08-.12.13s-.09.09-.09.42a3.32,3.32,0,0,1,0,.57.38.38,0,0,1-.34.21c-.11,0-.13,0-.17-.15s-.09-.08-.18-.08h-.82a.34.34,0,0,0-.3.12c-.11.13-.48.54-.48.65s.1.08.2.08h1.83a1,1,0,0,0,.35,0c.05,0,.21-.21.26-.21s.44.24.44.38,0,.08-.11.17a.38.38,0,0,0-.05.19c0,.12,0,.71,0,.84s0,.27-.11.37a.47.47,0,0,1-.33.16c-.15,0-.16-.09-.17-.23s-.11-.1-.19-.1h-3.44c-.13,0-.15.05-.18.16a.37.37,0,0,1-.38.25.2.2,0,0,1-.22-.23c0-.05,0-1,0-1.14s0-.61,0-.73,0-.1.06-.1a2.56,2.56,0,0,1,.49.18.58.58,0,0,0,.33.07ZM130.73,14c.78,0,1.32.47,1.32.83a.32.32,0,0,1-.31.33c-.17,0-.25-.15-.3-.28a1.67,1.67,0,0,0-.64-.71c-.15-.1-.16-.1-.15-.14S130.7,14,130.73,14Zm.71,4.64c-.1,0-.16,0-.21.08a7,7,0,0,0,0,.83c0,.13,0,.24.21.24h3.43c.2,0,.22-.09.22-.21s0-.79,0-.83-.16-.11-.21-.11Zm.47-2.11c-.09,0-.23,0-.23.21,0,.66,0,.66.22.66h2.38c.22,0,.22-.06.22-.46s0-.41-.24-.41Zm1.68-1.8c0,.19-.1.3-.25.3s-.29-.21-.33-.33a2,2,0,0,0-.45-.76.72.72,0,0,1-.11-.15s.05,0,.06,0C132.75,13.76,133.59,14.15,133.59,14.73Z"/><path class="cls-1" d="M140,16h-.93l-.15,0s0,0-.07-.05l-.13-.17,0,0s0,0,0,0l.46,0c.53,0,.55,0,1,0,.22,0,.22-.06.22-.45,0-.09,0-.69,0-.72s-.09-.1-.19-.1l-1,0c-.13,0-.15,0-.15,0s0,0,.18-.06A7.87,7.87,0,0,0,141,14c.26-.11.29-.13.35-.13s.69.29.69.4,0,.07-.45.11c-.77.08-.77.1-.77.37,0,.1,0,.92,0,.95a.18.18,0,0,0,.2.12h.14a.31.31,0,0,0,.3-.12c.2-.25.22-.27.29-.27a2.11,2.11,0,0,1,.64.48c0,.11-.15.11-.39.11h-1c-.21,0-.23,0-.23.55,0,.22.07.23.13.25.31,0,1.08.24,1.08.8,0,.27-.16.36-.25.36s-.17-.05-.35-.5a.94.94,0,0,0-.56-.57c-.06,0-.06.05-.06.11,0,.29,0,2.35.05,2.63s0,.4,0,.43c0,.27-.34.36-.43.36s-.15-.1-.15-.21c0-.36,0-1.93,0-2.26,0-.07,0-.36,0-.43s0-.12-.09-.12,0,0-.13.11a7.82,7.82,0,0,1-1.4,1.32c-.06,0-.09.06-.11.06s0,0,0,0l.53-.63a8.67,8.67,0,0,0,1.26-2.12c0-.08-.05-.1-.09-.1Zm3.31.52c0,1.28,0,1.43,0,1.75,0,.05,0,.28,0,.32,0,.21-.11.36-.4.36s-.19-.09-.19-.14,0-.18,0-.2c0-.24,0-1.07,0-2.09,0-.32,0-1.2-.06-1.69,0-.1,0-.15,0-.16s0-.06.06-.06.76.13.76.26a.12.12,0,0,1,0,.08c-.15.13-.17.16-.19.26S143.32,15.82,143.32,16.5Zm1.43.15c0,.44.05,2.36.05,2.75s0,.67-.16.76a1.15,1.15,0,0,1-.52.24c-.1,0-.11,0-.15-.16s-.55-.43-.63-.45-.07,0-.07-.06,0,0,.06,0,.48.07.56.07c.36,0,.36-.07.36-.64s0-4.24,0-4.75c0-.08-.06-.48-.06-.5s0-.06.08-.06l.66.11c.05,0,.11,0,.11.11s0,.09-.11.15a.33.33,0,0,0-.11.22C144.76,14.53,144.75,16.27,144.75,16.65Z"/><path class="cls-1" d="M147.6,15.55c.22,0,.89.24.89.67a.27.27,0,0,1-.24.28c-.07,0-.14-.05-.21-.19a2.17,2.17,0,0,0-.56-.72S147.54,15.55,147.6,15.55Zm0,2.92a.45.45,0,0,0,.45-.29A11.06,11.06,0,0,0,149,15.9s.07-.2.1-.2.05,0,.05.07-.09.58-.11.63c-.06.32-.46,1.75-.46,2a4.5,4.5,0,0,0,.24,1.15,2,2,0,0,1,.07.37.33.33,0,0,1-.3.35c-.37,0-.37-.44-.37-.63,0-.7-.11-.9-.45-1.07,0,0-.23-.05-.23-.09S147.58,18.47,147.63,18.47Zm.66-4.58c.1,0,1,.2,1,.71a.28.28,0,0,1-.26.29c-.07,0-.14,0-.24-.19a3.75,3.75,0,0,0-.52-.69l0,0S148.24,13.89,148.29,13.89Zm3,3.68c.22,0,.22-.13.22-.22v-1c0-.08-.08-.14-.22-.14h-.5c-.64,0-.85,0-.93,0h-.15s0,0-.07,0L149.5,16s0,0,0-.05h0l.32,0c.36,0,.66,0,1,0h.46c.09,0,.23,0,.23-.2V15c0-.1,0-.21-.18-.21s-.55.07-.65.08a6.55,6.55,0,0,1-.72,0c-.1,0-.18,0-.18,0s.29-.08.35-.09a8.74,8.74,0,0,0,2.3-.69l.35-.22s.71.45.71.54-.07.08-.2.08-.84.13-1.07.17-.22.06-.22.23,0,1,0,1.06a.19.19,0,0,0,.18.09h.58c.33,0,.37,0,.47-.13s.2-.27.27-.27a2.08,2.08,0,0,1,.57.49c0,.1-.15.1-.39.1h-1.49c-.11,0-.22,0-.22.22v1a.2.2,0,0,0,.22.14h.46c.09,0,.14,0,.26-.13s.16-.17.19-.17.55.41.55.52,0,.06-.12.16a.34.34,0,0,0-.1.28c0,.26,0,1.65,0,1.67a.37.37,0,0,1-.4.39c-.19,0-.21-.09-.24-.24s0-.13-.2-.13h-1.87c-.19,0-.2,0-.25.2a.34.34,0,0,1-.37.23c-.12,0-.22,0-.22-.16s0-.43,0-.51c0-.29,0-1.39,0-1.6a4.1,4.1,0,0,0,0-.49s0-.14,0-.17,0-.07,0-.07.06,0,.32.14a.77.77,0,0,0,.42.08Zm1.38,2.15c.12,0,.22,0,.22-.2s0-1.31,0-1.53,0-.23-.22-.23h-1.93c-.12,0-.22,0-.22.2v1.52c0,.12,0,.24.22.24Z"/><path class="cls-1" d="M158.56,15.53c-.21,0-.21.14-.21.31,0,.37,0,.43.23.43h.51a.32.32,0,0,0,.23-.07c.06-.06.11-.11.18-.11s.5.24.5.33-.13.18-.15.21,0,.16,0,.39,0,.87,0,1-.34.3-.37.3-.1,0-.13-.17-.08-.06-.12-.06h-.62c-.23,0-.23.13-.23.28,0,.37,0,.44.24.44h.2c.28,0,.31,0,.44-.12s.17-.19.23-.19.48.38.48.41,0,.1-.39.1h-.93c-.17,0-.26,0-.26.24s0,.31.1.31,1.22-.19,1.31-.19.06,0,.06,0-.28.13-.38.16c-.74.24-1.36.38-2.28.6a2.12,2.12,0,0,0-.46.14s-.13.12-.16.12-.34-.59-.34-.59,0,0,.06,0a9.56,9.56,0,0,0,1.29-.13l.31-.05s0-.07,0-.13a3.55,3.55,0,0,0,0-.36c0-.13-.12-.13-.3-.13-.63,0-.91,0-1,0h-.15s0,0-.07,0l-.15-.17s0,0,0-.05h0l.31,0,1.09,0c.24,0,.24-.06.24-.45,0-.14,0-.27-.21-.27h-.52c-.13,0-.14,0-.15.13a.26.26,0,0,1-.28.22c-.21,0-.21-.15-.21-.22,0-.53,0-1.38,0-1.59s0-.43,0-.5a.05.05,0,0,1,.06-.06,2.41,2.41,0,0,1,.37.13.57.57,0,0,0,.31.06h.46c.22,0,.22-.09.22-.36s0-.38-.22-.38h-.24c-.6,0-.83,0-.85,0l-.16,0s0,0-.06-.05l-.14-.17s0,0,0,0h0l.32,0c.07,0,.59,0,.93,0h.19c.23,0,.23-.11.23-.3,0-.44,0-.49-.09-.49l-.21,0c-.18,0-.71.06-.87.06s-.1,0-.1,0,0,0,.2-.08a7.8,7.8,0,0,0,2-.68c.12-.08.14-.09.17-.09a1.89,1.89,0,0,1,.56.44s0,0-.16.06l-.92.18c-.12,0-.13.07-.13.17a2.82,2.82,0,0,0,0,.66c0,.06.09.07.15.07.41,0,.45,0,.56-.12s.19-.25.29-.25.53.41.53.47,0,.09-.39.09Zm-.86,1.57c.23,0,.23-.1.23-.35s0-.29-.23-.29h-.45c-.22,0-.22.11-.22.35s0,.29.22.29Zm0,.81c.23,0,.23-.09.23-.31s0-.3-.23-.3h-.44c-.22,0-.23.1-.23.26s0,.35.24.35Zm.87-1.45c-.22,0-.22.12-.22.33s0,.31.22.31h.55c.22,0,.22-.11.22-.32s0-.32-.22-.32Zm0,.84c-.22,0-.22.11-.22.3s0,.31.22.31h.54c.22,0,.22-.12.22-.3s0-.31-.22-.31Zm2.83-1.81c-.2,0-.21.09-.22.37-.06,2.45-.3,3.25-1.16,4.06a2.41,2.41,0,0,1-.77.54s-.05,0-.05,0,.17-.17.2-.2c1-1,1.31-1.81,1.31-4.57,0-.11,0-.16-.14-.16l-.38,0a.08.08,0,0,1-.07,0l-.14-.17s0,0,0-.05l0,0,.62,0c.09,0,.12,0,.12-.13,0-.46,0-.77,0-.95s-.06-.31-.06-.36,0-.11.06-.11.72.13.72.22-.12.11-.14.13a4.91,4.91,0,0,0-.05.88c0,.3,0,.33.2.33h.24a.33.33,0,0,0,.26-.09c.15-.16.17-.18.21-.18s.56.3.56.41,0,.08-.15.19a.26.26,0,0,0-.1.25,21.67,21.67,0,0,1-.15,3.87c-.19.65-.65.67-.74.67s-.14,0-.21-.24-.2-.27-.43-.38-.18-.08-.18-.12,0,0,0,0,.66.12.78.12c.29,0,.35-.55.39-.92s0-2.39,0-3c0-.33,0-.41-.22-.41Z"/><path class="cls-1" d="M165,15.72c.5,0,1,.32,1,.73a.31.31,0,0,1-.28.33c-.11,0-.16-.08-.26-.3a2,2,0,0,0-.48-.62l-.12-.1S164.94,15.72,165,15.72Zm.44,2.84a7.31,7.31,0,0,0,1.23-2.28c.06-.16.19-.39.25-.54s0-.13.1-.13a0,0,0,0,1,0,.05c0,.06-.71,2-.8,2.22a1.9,1.9,0,0,0-.23.83,2.21,2.21,0,0,0,.23,1,1,1,0,0,1,.06.29.36.36,0,0,1-.32.35c-.26,0-.35-.27-.35-.5a1.2,1.2,0,0,0-.27-1s-.22-.13-.22-.17S165.39,18.58,165.42,18.56Zm.06-4.47s0,0,.05,0a2.54,2.54,0,0,1,.6.12.68.68,0,0,1,.48.59c0,.16-.08.33-.24.33s-.16-.07-.26-.25a2.53,2.53,0,0,0-.61-.73Zm2.57,3.26c-.16,0-.67,0-.93,0H167s0,0-.07,0l-.14-.17s0,0,0-.05,0,0,0,0l.33,0c.33,0,.66,0,1,0h.54c.13,0,.21,0,.23-.16s0-1,0-1.16,0-.22-.2-.22h-.21c-.16,0-.66,0-.92,0l-.16,0s0,0-.06-.05l-.15-.17s0,0,0,0h0l.33,0c.33,0,.66,0,1,0h.16c.07,0,.21,0,.21-.21s0-.69,0-.93c0-.06,0-.34,0-.36s0,0,0,0,.72.12.72.24-.13.17-.14.2a.58.58,0,0,0,0,.24c0,.11,0,.66,0,.66,0,.21.16.21.23.21H170c.31,0,.34,0,.41-.06s.22-.32.28-.32a2,2,0,0,1,.57.47c0,.1-.15.1-.4.1H169.6c-.08,0-.23,0-.23.2V17c0,.12.12.14.24.14h.69c.3,0,.34,0,.4-.06s.24-.32.31-.32a1.85,1.85,0,0,1,.55.46c0,.11-.14.11-.39.11h-2.08s0,0,0,0,.28.31.28.39-.06.07-.2.1-.1.05-.28.34a9.2,9.2,0,0,1-.77,1c-.1.12-.11.13-.11.15a0,0,0,0,0,0,0c.2,0,2-.1,2.32-.12.18,0,.25,0,.25-.11a10.86,10.86,0,0,0-.42-1.07h0a2.87,2.87,0,0,1,1.24,1.77.38.38,0,0,1-.36.43c-.15,0-.16-.07-.29-.63,0-.18-.08-.3-.23-.3s-1,.2-1.18.23-1.58.23-1.83.29a2.48,2.48,0,0,0-.37.14.75.75,0,0,1-.17.1c-.11,0-.31-.74-.31-.77s0,0,0,0l.35,0a4.46,4.46,0,0,0,.5,0c.17,0,.21-.07.5-.63a8.16,8.16,0,0,0,.6-1.33c0-.12-.13-.12-.22-.12Z"/><path class="cls-1" d="M177.24,14.52a8,8,0,0,0,1.06,3.35,4.33,4.33,0,0,0,2.08,1.84s.08,0,.08.05,0,0-.26.09a1.12,1.12,0,0,0-.5.22c-.14.1-.17.12-.19.12a4.72,4.72,0,0,1-1.67-2.13,8,8,0,0,1-.7-2.84c0-.08,0-.09,0-.09s0,0-.07.3a8.32,8.32,0,0,1-.94,3.13A4,4,0,0,1,174,20.31a0,0,0,0,1,0,0s0-.05.09-.09a5.36,5.36,0,0,0,1.74-1.88,9.28,9.28,0,0,0,.83-3.77,1.89,1.89,0,0,0,0-.44s0-.13,0-.15a.06.06,0,0,1,.06-.06s.36.1.43.12c.35.09.5.14.5.27s-.06.1-.13.12a.15.15,0,0,0-.12,0A.2.2,0,0,0,177.24,14.52Z"/><path class="cls-1" d="M108,56.21c-1,0-1-.51-1-.82s.12-1.76.15-2V50.08a45.05,45.05,0,0,0-.18-5,4.7,4.7,0,0,1-.16-.7c0-.09.11-.11.17-.11a7.4,7.4,0,0,1,1.49.64l.12.07a7.6,7.6,0,0,0,2.68.44h9.57c1.18,0,1.34-.13,1.67-.39.84-.65,1-.7,1.1-.7a5.94,5.94,0,0,1,2.1,1.76c0,.14,0,.15-.66.71a8.61,8.61,0,0,0-.18,2.46c0,.65.07,1.62.12,2.56.07,1.29.13,2.51.13,2.81,0,1.23-1.4,1.26-1.42,1.26-.32,0-1.07-.08-1.07-.88,0-.43,0-1.08-1-1.08h-11c-.3,0-1.1,0-1.1.89C109.58,55.33,109.58,56.21,108,56.21Zm2.39-10.16c-1,0-1,.17-1,3,0,2.34,0,3.58.07,3.67a.87.87,0,0,0,.94.54h11.37c1,0,1-.17,1-3,0-1.3,0-3.52-.06-3.66a.89.89,0,0,0-1-.52Zm-5-4.51c-.09,0-.13,0-.22-.15l-.59-.72-.11-.12,0,0h0l.72,0,.64,0c1.42.09,2.69.13,4.26.13h3.95c.33,0,1,0,1-1V36.06c0-.66-.32-1-1-1h-6.47c-2.47,0-3.5,0-3.92.09h0l-.33,0-.32,0c-.06,0-.08,0-.16-.11l-.06-.06-.59-.71c-.1-.13-.1-.13-.1-.17l.73.07.65,0,.55,0c1.3,0,2.42.1,3.71.1h6.24c.34,0,1,0,1-.92a34.18,34.18,0,0,0-.22-3.62c0-.09-.1-.35-.18-.62a5.23,5.23,0,0,1-.16-.55c0-.1.19-.1.2-.1s2.68.46,2.93.52c.41.08.78.17.78.52,0,.12-.32.47-.55.73a2.13,2.13,0,0,0-.47.62c-.07.2-.13,2.19-.13,2.5,0,.92.73.92,1,.92h5.85c1.41,0,1.59,0,2-.56l.1-.12c.77-.91.85-1,1.08-1a11.12,11.12,0,0,1,2.84,2c0,.34-.52.36-1.6.36H118.2c-.31,0-1,0-1,.92,0,.3,0,1.15,0,2s0,1.53,0,1.79c0,1,.7,1,1,1h4.79a3.87,3.87,0,0,0,1-.06,3.6,3.6,0,0,0,.93-1,4,4,0,0,1,.59-.66c.27,0,2.62,1.57,2.62,2,0,.23-.29.33-1,.33H110c-2.48,0-3.5,0-3.93.09h0l-.33,0Z"/><path class="cls-1" d="M133.93,54.5c-.06,0-.11,0-.23-.16l-.58-.71c-.11-.13-.11-.13-.11-.17l.74.07.64,0c1.43.09,2.71.13,4.29.13h6.37c.25,0,.84,0,1-.49.07-.25.13-3.15.13-3.48,0-1.3,0-1.85-1-1.85h-3.08c-2.07,0-3.1,0-3.59.06h-.32a6.42,6.42,0,0,1-.66.09c-.07,0-.11,0-.2-.17l-.64-.74-.05-.07-.06-.07h0c.28,0,1.16.09,1.38.12,1.6.06,2.87.09,4.27.09h2.92a.81.81,0,0,0,.88-.48,27.82,27.82,0,0,0,.13-4.07c0-.8-.7-.8-1-.8H141c-.32,0-.77,0-.91.43-.21.67-.38,1.19-1.17,1.19s-1-.42-1-1.35c0-.48,0-1.8.08-3.09s.08-2.41.08-2.82a60,60,0,0,0-.19-6.07,5,5,0,0,0-.16-.5,3.79,3.79,0,0,1-.18-.61c0-.07,0-.07.07-.07a10.16,10.16,0,0,1,1.63.8l.17.09a4.06,4.06,0,0,0,2.46.57h11.41a1.84,1.84,0,0,0,1.23-.27l.27-.27a2.72,2.72,0,0,1,.55-.52c.23.07,2.19,1.5,2.19,1.85,0,.19-.18.38-.61.65s-.41.43-.41,1.62c0,.65,0,2.44.06,4.17s.06,3.26.06,3.82A1.68,1.68,0,0,1,155,43.35c-.54,0-.58-.26-.64-.78-.07-.72-.66-.72-1-.72h-4.07c-1,0-1,.06-1,2.72,0,2,0,2.15.24,2.39a1.17,1.17,0,0,0,.86.24h4.26c1.32,0,1.49,0,1.76-.24a3.88,3.88,0,0,0,.45-.56c.26-.34.73-1,.87-1a8.17,8.17,0,0,1,2.38,2.1c0,.34-.51.35-1.57.35h-8.15c-1.1,0-1.1.55-1.1,1.64,0,3.32,0,3.67.31,3.94a1,1,0,0,0,.76.24h6.75c1.16,0,1.39-.06,1.63-.27a4.24,4.24,0,0,0,.51-.6c.27-.35.72-.94.87-.94a7,7,0,0,1,2.44,2.1c0,.34-.52.36-1.6.36H138.53a36.51,36.51,0,0,0-4,.09h0l-.32,0Zm15.38-17.9c-1.07,0-1.07.52-1.07,2.07,0,2.22,0,2.5,1.07,2.5h4c1.07,0,1.07-.33,1.07-2.87,0-1.13,0-1.7-1-1.7Zm-8.3,0c-1,0-1,.36-1,1.7,0,2.19,0,2.42.21,2.63a1,1,0,0,0,.8.24h4.17c1,0,1-.35,1-1.66,0-2.23,0-2.46-.21-2.67a1,1,0,0,0-.8-.24Zm8.36-5.53c-1.07,0-1.07.43-1.07,2.81,0,1.65,0,2,1.07,2h4c1.08,0,1.08-.32,1.08-2.78,0-1.63,0-2.07-1.08-2.07Zm-8.36,0c-1,0-1,.35-1,2.22,0,2.33,0,2.63,1,2.63h4.14c1,0,1-.25,1-2.19,0-2.31,0-2.66-1-2.66Z"/><path class="cls-1" d="M170.13,56.21c-1,0-1-.51-1-.82s.12-1.76.15-2V50.08a42.7,42.7,0,0,0-.19-5,5.11,5.11,0,0,1-.15-.7c0-.09.11-.11.17-.11a7.11,7.11,0,0,1,1.48.64l.13.07a7.6,7.6,0,0,0,2.68.44H183c1.18,0,1.34-.13,1.67-.39.84-.65,1.05-.7,1.1-.7a5.94,5.94,0,0,1,2.1,1.76c0,.14,0,.15-.66.71a8.61,8.61,0,0,0-.18,2.46c0,.65.07,1.62.12,2.56.06,1.29.12,2.51.12,2.81,0,1.23-1.39,1.26-1.41,1.26-.32,0-1.07-.08-1.07-.88,0-.43,0-1.08-1-1.08h-11c-.3,0-1.1,0-1.1.89C171.74,55.33,171.74,56.21,170.13,56.21Zm2.4-10.16c-1,0-1,.17-1,3,0,2.34,0,3.58.07,3.67a.87.87,0,0,0,.94.54h11.37c1,0,1-.17,1-3,0-1.3,0-3.52-.06-3.66a.89.89,0,0,0-.95-.52Zm-5-4.51c-.08,0-.12,0-.21-.15l-.6-.72a.69.69,0,0,0-.1-.12l0,0h0l.73,0,.64,0c1.42.09,2.69.13,4.26.13h3.95c.33,0,.94,0,.94-1V36.06c0-.66-.31-1-1-1H169.7c-2.47,0-3.5,0-3.92.09h0l-.32,0-.32,0c-.07,0-.08,0-.16-.11l-.06-.06-.59-.71c-.11-.13-.11-.13-.11-.17l.74.07.65,0,.55,0c1.3,0,2.42.1,3.7.1h6.25c.34,0,1,0,1-.92a31.71,31.71,0,0,0-.22-3.62,5,5,0,0,0-.18-.62c-.07-.22-.15-.5-.16-.55s.2-.1.21-.1,2.68.46,2.93.52c.41.08.78.17.78.52,0,.12-.32.47-.55.73a2.13,2.13,0,0,0-.47.62c-.07.2-.13,2.19-.13,2.5,0,.92.73.92,1,.92h5.84c1.41,0,1.6,0,2.05-.56l.11-.12c.77-.91.85-1,1.08-1a11.12,11.12,0,0,1,2.84,2c0,.34-.52.36-1.6.36H180.36c-.31,0-1,0-1,.92,0,.3,0,1.15,0,2s0,1.53,0,1.79c0,1,.7,1,1,1h4.78a4,4,0,0,0,1-.06,3.76,3.76,0,0,0,.93-1,4,4,0,0,1,.59-.66c.26,0,2.62,1.57,2.62,2,0,.23-.3.33-1,.33h-17.1c-2.47,0-3.5,0-3.92.09h0l-.33,0Z"/><path class="cls-1" d="M196.09,54.5c-.06,0-.11,0-.23-.16l-.58-.71c-.11-.13-.11-.13-.11-.17l.74.07.64,0c1.42.09,2.71.13,4.29.13h6.37c.25,0,.83,0,1-.49.07-.25.13-3.15.13-3.48,0-1.3,0-1.85-1-1.85h-3.08c-2.07,0-3.1,0-3.59.06h-.33a5.91,5.91,0,0,1-.65.09c-.07,0-.11,0-.2-.17l-.64-.74,0-.07-.06-.07h0c.28,0,1.16.09,1.38.12,1.6.06,2.87.09,4.27.09h2.92a.81.81,0,0,0,.88-.48,29.63,29.63,0,0,0,.13-4.07c0-.8-.71-.8-1-.8h-4.17c-.32,0-.77,0-.91.43-.21.67-.38,1.19-1.17,1.19s-1-.42-1-1.35c0-.48,0-1.8.08-3.09s.07-2.41.07-2.82c0-1.4,0-5.13-.18-6.07a5,5,0,0,0-.16-.5,3.79,3.79,0,0,1-.18-.61c0-.07,0-.07.07-.07a10.16,10.16,0,0,1,1.63.8l.17.09a4.06,4.06,0,0,0,2.46.57h11.41a1.84,1.84,0,0,0,1.23-.27l.27-.27a2.72,2.72,0,0,1,.55-.52c.23.07,2.19,1.5,2.19,1.85,0,.19-.18.38-.62.65s-.41.43-.41,1.62c0,.65,0,2.44.07,4.17s.06,3.26.06,3.82a1.68,1.68,0,0,1-1.63,1.88c-.55,0-.58-.26-.64-.78-.07-.72-.66-.72-1-.72h-4.07c-1,0-1,.06-1,2.72,0,2,0,2.15.24,2.39a1.17,1.17,0,0,0,.86.24h4.26c1.32,0,1.49,0,1.76-.24a3.88,3.88,0,0,0,.45-.56c.25-.34.73-1,.87-1a8.13,8.13,0,0,1,2.37,2.1c0,.34-.51.35-1.57.35H211.5c-1.1,0-1.1.55-1.1,1.64,0,3.32,0,3.67.3,3.94a1,1,0,0,0,.77.24h6.74c1.16,0,1.4-.06,1.64-.27a5.05,5.05,0,0,0,.51-.6c.26-.35.71-.94.87-.94a7,7,0,0,1,2.44,2.1c0,.34-.52.36-1.6.36H200.69a36.34,36.34,0,0,0-4,.09h0l-.32,0Zm15.38-17.9c-1.07,0-1.07.52-1.07,2.07,0,2.22,0,2.5,1.07,2.5h4c1.07,0,1.07-.33,1.07-2.87,0-1.13,0-1.7-1-1.7Zm-8.3,0c-1,0-1,.36-1,1.7,0,2.19,0,2.42.21,2.63a1,1,0,0,0,.8.24h4.17c1,0,1-.35,1-1.66,0-2.23,0-2.46-.21-2.67a1,1,0,0,0-.8-.24Zm8.36-5.53c-1.07,0-1.07.43-1.07,2.81,0,1.65,0,2,1.07,2h4c1.08,0,1.08-.32,1.08-2.78,0-1.63,0-2.07-1.08-2.07Zm-8.36,0c-1,0-1,.35-1,2.22,0,2.33,0,2.63,1,2.63h4.14c1,0,1-.25,1-2.19,0-2.31,0-2.66-1-2.66Z"/><path class="cls-1" d="M230.83,56.56c-.7,0-.76-.67-.76-1.36s0-3.07.06-5.41.07-5,.07-5.87c0-1.46,0-9.55-.1-11.28l0-.6c-.07-1-.18-2.61-.18-3,0-.23,0-.26.17-.26s.34.07,1.49.67a2.91,2.91,0,0,0,1.75.45h18a1.13,1.13,0,0,0,1.05-.46c.76-.82.83-.85,1-.85.43,0,2.26,1.6,2.26,2.1,0,.16,0,.18-.48.53l-.11.09c-.3.21-.31,1.73-.31,1.74s.18,16.2.21,17.1c0,.33,0,1.54.06,2.58,0,.8,0,1.5,0,1.64,0,.65,0,2.16-1.73,2.16-.78,0-.82-.42-.88-1.13,0-.55-.41-.55-1-.55H233.35c-.81,0-.85,0-1,.78S231.25,56.56,230.83,56.56Zm2.58-26c-1,0-1.1.51-1.1,1.35,0,.68,0,2.52,0,4.3s0,3.29,0,3.85c0,1,0,3.91.08,6.68s.07,5.18.07,6.06,0,1.38,1.11,1.38h17.87c1.1,0,1.1-.28,1.1-2.47,0-.88,0-3.31.07-5.66s0-4.38,0-5.12,0-2.45,0-4.19,0-3.27,0-3.83a8.47,8.47,0,0,0-.06-1.89,1,1,0,0,0-1-.46Zm1.43,20.14c-.07,0-.12,0-.2-.17l-.61-.73-.14-.15h0c.29,0,1.22.09,1.39.12.53,0,2.39.09,4.12.09h1c.19,0,.77,0,.95-.45.1-.25.13-5.08.13-5.13,0-1.86-.08-2.16-1.11-2.16-1.59,0-2.87,0-3.79.1h0l-.32,0-.32,0c-.06,0-.11,0-.23-.17l-.58-.71c-.11-.13-.11-.13-.11-.16l.74.06.64,0c.47,0,2.55.12,4.14.12.95,0,.95-.45.95-2.63,0-.56,0-3.38-.4-3.72a.93.93,0,0,0-.71-.24h-.77c-1.25,0-2.9,0-3.77.09h0l-.37,0-.28,0c-.08,0-.12,0-.22-.16l-.62-.72-.08-.12s0,0,0,0l.68,0,.69,0h.11c.74,0,2.46.12,4,.12h6c.51,0,.92,0,1.25-.57l.1-.16c.52-.84.58-.92.76-.92s2.54,1.68,2.54,2-.08.26-1.57.26h-4.2c-1,0-1.1.26-1.1,3.06s0,3.22.39,3.4c.22.13.32.13,1.08.13s1-.06,1.2-.24a3.3,3.3,0,0,0,.29-.28c.28-.27.85-.85,1-.85a5.64,5.64,0,0,1,2.28,1.79c0,.2-.35.23-1.35.23h-3.88c-1,0-1,.38-1,2,0,.61.06,4.81.15,5.24s.75.52,1.07.52h.78c1,0,1.72,0,2.06-.56.62-1,.67-1,.86-1a8.47,8.47,0,0,1,2.54,2c0,.28-.06.29-1.57.29h-9.95c-.71,0-2.86,0-3.95.07A5.07,5.07,0,0,1,234.84,50.65ZM249,47.54c-.51,0-.61-.13-1.5-1.42l-.17-.25a8.38,8.38,0,0,0-1.39-1.61l-.07-.07c-.25-.22-.46-.41-.46-.49s.2-.14.36-.14c.62,0,4.06,1,4.27,2.76a1,1,0,0,1-.26.85A1.07,1.07,0,0,1,249,47.54Z"/><path class="cls-1" d="M76.75,53.84a33.15,33.15,0,0,1-7.37-3,32.94,32.94,0,0,1-2.85-1.78,32.18,32.18,0,0,1-4.27-3.65,30.49,30.49,0,0,1-3.57-4.36,32.57,32.57,0,0,1-5.38-14.34,33.49,33.49,0,0,1-.78,4.06,32.87,32.87,0,0,1-4.61,10.28,30.56,30.56,0,0,1-3.56,4.36,30.93,30.93,0,0,1-4.28,3.65,33.19,33.19,0,0,1-10.22,4.74,33.86,33.86,0,0,1-11.38,1.09,31.06,31.06,0,0,0,11.61-.11A30.31,30.31,0,0,0,41,50.37a28,28,0,0,0,4.62-3.72,29.69,29.69,0,0,0,3.83-4.55,32.85,32.85,0,0,0,3.9-7.65A33.21,33.21,0,0,0,57.2,42.1,30.36,30.36,0,0,0,61,46.65a28.07,28.07,0,0,0,4.63,3.72,29,29,0,0,0,5.22,2.76l1.38.53c.47.16.94.3,1.41.45s.94.27,1.42.38,1,.26,1.43.33a31.11,31.11,0,0,0,11.62.11c-.42,0-1,.07-1.73.09A34.38,34.38,0,0,1,76.75,53.84Z"/><path class="cls-1" d="M79.91,72.17c-.48-.11-1.37-.32-2.49-.64a39.13,39.13,0,0,1-5.77-2,33.21,33.21,0,0,1-3.08-1.6,32.53,32.53,0,0,1-4.92-3.6c-.37-.33-.87-.8-1.45-1.38a31,31,0,0,1-2.64-3c-.7-.91-1.17-1.63-1.31-1.86s-.61-.95-1.16-2a36.86,36.86,0,0,1-2-4.43c-.31-.81-.53-1.46-.66-1.85-.36-1.07-.61-2-.78-2.6s-.27-1-.35-1.41c-.09.37-.2.85-.35,1.41s-.4,1.47-.85,2.8c-.59,1.72-1.12,3-1.28,3.35-.49,1.15-.89,1.94-1,2.2-.32.62-.58,1.08-.64,1.2-.57,1-1.07,1.73-1.32,2.08-.09.15-.51.74-1.11,1.49a30.14,30.14,0,0,1-2.32,2.62c-.62.63-1.15,1.11-1.47,1.4a32.6,32.6,0,0,1-3.23,2.52c-.73.5-1.32.86-1.62,1s-1,.6-2.12,1.14c-.31.15-1,.48-1.81.84s-1.32.52-1.48.58l-.44.16c-.26.09-.9.31-1.61.53s-1.52.45-2.21.63c-.51.13-1,.27-1.71.43-1.47.33-2.67.52-3.34.62-.37,0-1.24.18-2.39.28-1,.09-1.77.13-2.32.15-1.19,0-2.08,0-2.35,0-.74,0-1.38,0-1.9-.09a41.43,41.43,0,0,0,12.47-.06,36.75,36.75,0,0,0,12-3.92A31.37,31.37,0,0,0,48.53,61a32.66,32.66,0,0,0,4.78-8.55A32.79,32.79,0,0,0,58.08,61a31.4,31.4,0,0,0,9.71,8.17,36.43,36.43,0,0,0,11.95,3.92,42.31,42.31,0,0,0,12.46.06c-.93,0-1.73.07-2.36.08s-1.28,0-2.2,0c-.16,0-.89,0-1.89-.12-1.63-.14-2.87-.34-3.28-.41S81.19,72.46,79.91,72.17Z"/><path class="cls-1" d="M74.74,34a36.48,36.48,0,0,1-6.56-3.31A35.46,35.46,0,0,1,64,27.56a34.42,34.42,0,0,1-5.28-5.87,34.87,34.87,0,0,1-4.6-9.08c-.18-.55-.37-1.12-.54-1.72-.11-.4-.21-.78-.3-1.16h0c-.09.38-.2.76-.31,1.16-.17.6-.35,1.17-.53,1.72a35.26,35.26,0,0,1-4.61,9.08,34.46,34.46,0,0,1-5.27,5.87,34.93,34.93,0,0,1-4.16,3.14A36.28,36.28,0,0,1,31.88,34a36.89,36.89,0,0,1-10.11,2.31,33.6,33.6,0,0,0,10.42-1.4,38.71,38.71,0,0,0,5-1.93c.79-.42,1.6-.79,2.35-1.28L40.63,31l1.1-.76.55-.38.53-.41,1.06-.83c.68-.58,1.34-1.18,2-1.82a34.77,34.77,0,0,0,3.51-4.06,35.2,35.2,0,0,0,4-7.06h0a34.71,34.71,0,0,0,4,7.06,34.68,34.68,0,0,0,3.5,4.06c.63.64,1.3,1.24,2,1.82l1,.83.53.41.55.38L66,31l1.14.69c.75.49,1.56.86,2.34,1.28a39.43,39.43,0,0,0,5,1.93,33.6,33.6,0,0,0,10.42,1.4A36.89,36.89,0,0,1,74.74,34Z"/></svg>