<svg id="レイヤー_1" data-name="レイヤー 1" xmlns="http://www.w3.org/2000/svg" viewBox="0 0 82.97 202.12"><defs><style>.cls-1{fill:#fff;}</style></defs><path class="cls-1" d="M19.15,84.31s0-.13.08-.13.09.07.09.15.09.23.17.23l.11,0s.91-.56,1-.62c.46-.29.51-.32.51-.38s-.08-.15-.21-.26-.28-.24-.49-.24h-.75c-.36,0-.36.29-.36.45s0,.1-.09.1-.08-.08-.08-.12V82.21c0-.06,0-.14.08-.14s.09.08.09.15.07.4.36.4h2.8c.37,0,.37-.29.37-.45a.09.09,0,0,1,.09-.1c.09,0,.09.08.09.13v1.26c0,.05,0,.13-.09.13s-.09-.08-.09-.14-.06-.41-.37-.41H21.12c-.05,0-.11,0-.11.07s0,0,0,0l1.11,1c.37.34.41.38.52.38s.17-.2.17-.36a.09.09,0,0,1,.09-.1c.09,0,.09.07.09.13v1.32c0,.06,0,.14-.09.14s-.09-.07-.09-.17a1,1,0,0,0-.2-.63c-.08-.11-.72-.69-1-.91a.26.26,0,0,0-.17-.09.43.43,0,0,0-.19.08l-1.76,1.12a.74.74,0,0,0-.25.58.09.09,0,0,1-.09.1c-.08,0-.08-.08-.08-.13Z"/><path class="cls-1" d="M19.15,86.94c0-.07,0-.15.08-.15s.09,0,.09.25,0,.41.27.47h3c.27-.06.27-.25.27-.6,0,0,0-.12.09-.12s.09.08.09.16v1.56c0,.07,0,.15-.09.15s-.08,0-.08-.25,0-.39-.25-.46c-.07,0-1.27,0-1.52,0a11.29,11.29,0,0,0-1.5,0c-.27,0-.27.24-.27.59,0,0,0,.12-.09.12s-.08-.08-.08-.15Z"/><path class="cls-1" d="M23,91.49c0,.25,0,1.47-.92,1.47a1,1,0,0,1-.94-.71c-.09-.19-.1-.21-.16-.21a10.62,10.62,0,0,0-1.27.55.67.67,0,0,0-.42.63c0,.06,0,.16-.09.16s-.08-.1-.08-.13v-.67a.26.26,0,0,1,.15-.25l1-.46c.65-.3.73-.33.73-.52v-.29a.16.16,0,0,0-.06-.13c-.06,0-.76,0-.88,0-.64,0-.78,0-.78.49,0,0,0,.11-.09.11s-.08-.09-.08-.15V90.05c0-.06,0-.14.08-.14s.09.08.09.15c0,.37.17.42.36.44h1.9a9,9,0,0,0,1.07,0c.2-.07.2-.3.2-.42s0-.15.1-.15.08.1.08.16Zm-.18-.19c0-.39-.24-.39-.79-.39-.83,0-.85,0-.85.15v.43a.86.86,0,0,0,.84,1c.38,0,.8-.2.8-.89Z"/><path class="cls-1" d="M19.15,94.5c0-.07,0-.15.08-.15s.09,0,.09.25,0,.41.27.46c.09,0,1.32,0,1.47,0s1.42,0,1.52,0c.27,0,.27-.24.27-.59,0,0,0-.12.09-.12s.09.08.09.15v1.57c0,.06,0,.14-.09.14s-.08,0-.08-.24,0-.39-.25-.46c-.07,0-1.27,0-1.52,0a11.29,11.29,0,0,0-1.5,0c-.27,0-.27.24-.27.59,0,0,0,.11-.09.11s-.08-.08-.08-.14Z"/><path class="cls-1" d="M19.15,99.58s0-.13.08-.13.09.07.09.15.09.23.17.23l.11,0s.91-.56,1-.62c.46-.29.51-.32.51-.38s-.08-.15-.21-.27-.28-.23-.49-.23h-.75c-.36,0-.36.29-.36.45s0,.1-.09.1-.08-.08-.08-.12V97.47s0-.13.08-.13.09.08.09.15.07.4.36.4h2.8c.37,0,.37-.29.37-.45a.09.09,0,0,1,.09-.1c.09,0,.09.08.09.13v1.26s0,.13-.09.13-.09-.08-.09-.14-.06-.41-.37-.41H21.12c-.05,0-.11,0-.11.06s0,0,0,.06l1.11,1c.37.34.41.38.52.38s.17-.2.17-.36,0-.11.09-.11.09.08.09.14v1.32c0,.06,0,.14-.09.14s-.09-.07-.09-.17a1,1,0,0,0-.2-.63c-.08-.11-.72-.69-1-.91a.26.26,0,0,0-.17-.09.43.43,0,0,0-.19.08l-1.76,1.11a.78.78,0,0,0-.25.59.09.09,0,0,1-.09.1c-.08,0-.08-.08-.08-.13Z"/><path class="cls-1" d="M19.15,102.24c0-.07,0-.15.08-.15s.09,0,.09.25,0,.41.27.46c.09,0,1.32,0,1.47,0s1.42,0,1.52,0c.27,0,.27-.24.27-.59,0,0,0-.12.09-.12s.09.08.09.15v1.57c0,.06,0,.14-.09.14s-.08,0-.08-.24,0-.39-.25-.46c-.07,0-1.27,0-1.52,0h-1.5c-.27.05-.27.24-.27.6,0,0,0,.11-.09.11s-.08-.08-.08-.14Z"/><path class="cls-1" d="M23,106.78c0,.26,0,1.47-.92,1.47a1,1,0,0,1-.94-.71c-.09-.18-.1-.2-.16-.2a9.21,9.21,0,0,0-1.27.55.67.67,0,0,0-.42.63s0,.16-.09.16-.08-.11-.08-.13v-.67a.26.26,0,0,1,.15-.25l1-.47c.65-.29.73-.33.73-.51v-.3a.16.16,0,0,0-.06-.12c-.06,0-.76,0-.88,0-.64,0-.78,0-.78.49,0,0,0,.11-.09.11s-.08-.1-.08-.15v-1.32s0-.13.08-.13.09.07.09.15c0,.36.17.42.36.43h1.9a9,9,0,0,0,1.07,0c.2-.07.2-.3.2-.42s0-.14.1-.14.08.09.08.16Zm-.18-.19c0-.38-.24-.38-.79-.38-.83,0-.85,0-.85.14v.43a.86.86,0,0,0,.84,1c.38,0,.8-.21.8-.9Z"/><path class="cls-1" d="M19.15,110c0-.07,0-.15.08-.15s.09,0,.09.25,0,.41.27.47h3c.27-.06.27-.25.27-.6,0,0,0-.12.09-.12s.09.08.09.16v1.56c0,.07,0,.15-.09.15s-.08,0-.08-.25,0-.39-.25-.46c-.07,0-1.27,0-1.52,0a11.29,11.29,0,0,0-1.5,0c-.27.05-.27.24-.27.59,0,0,0,.12-.09.12s-.08-.08-.08-.15Z"/><path class="cls-1" d="M21,113.32c0-.1,0-.22.17-.22s.17.18.17.22v.8c0,.21-.14.21-.17.21s-.17-.15-.17-.21Z"/><path class="cls-1" d="M19.15,118s0-.13.08-.13.09.07.09.15.09.23.17.23l.11,0s.91-.56,1-.62c.46-.29.51-.32.51-.38s-.08-.15-.21-.27-.28-.23-.49-.23h-.75c-.36,0-.36.29-.36.45s0,.1-.09.1-.08-.08-.08-.12v-1.27s0-.13.08-.13.09.08.09.15.07.4.36.4h2.8c.37,0,.37-.29.37-.45a.09.09,0,0,1,.09-.1c.09,0,.09.08.09.13v1.26s0,.13-.09.13-.09-.08-.09-.14-.06-.41-.37-.41H21.12c-.05,0-.11,0-.11.06s0,0,0,.06l1.11,1c.37.34.41.38.52.38s.17-.2.17-.36c0,0,0-.11.09-.11s.09.08.09.14v1.32c0,.06,0,.14-.09.14s-.09-.07-.09-.17a1,1,0,0,0-.2-.63c-.08-.11-.72-.69-1-.91a.26.26,0,0,0-.17-.09.43.43,0,0,0-.19.08l-1.76,1.11a.78.78,0,0,0-.25.59.09.09,0,0,1-.09.1c-.08,0-.08-.08-.08-.13Z"/><path class="cls-1" d="M19,121.94a1.83,1.83,0,0,1,2-1.74,1.76,1.76,0,1,1,0,3.47A1.83,1.83,0,0,1,19,121.94Zm2.09,1.23c.49,0,1.82-.14,1.82-1.23S21.39,120.7,21,120.7c-.51,0-1.82.16-1.82,1.24S20.77,123.17,21.13,123.17Z"/><path class="cls-1" d="M19.15,126.84s0-.13.08-.13.09.07.09.15.09.23.17.23l.11,0s.91-.56,1-.62c.46-.29.51-.32.51-.38s-.08-.15-.21-.26-.28-.24-.49-.24h-.75c-.36,0-.36.29-.36.45s0,.1-.09.1-.08-.08-.08-.12v-1.26c0-.06,0-.14.08-.14s.09.08.09.15.07.4.36.4h2.8c.37,0,.37-.29.37-.45a.09.09,0,0,1,.09-.1c.09,0,.09.08.09.13V126c0,.05,0,.13-.09.13s-.09-.08-.09-.14-.06-.41-.37-.41H21.12c-.05,0-.11,0-.11.06s0,.05,0,.06l1.11,1c.37.34.41.38.52.38s.17-.2.17-.36,0-.11.09-.11.09.08.09.14v1.32c0,.06,0,.14-.09.14s-.09-.07-.09-.17a1,1,0,0,0-.2-.63c-.08-.11-.72-.69-1-.91a.26.26,0,0,0-.17-.09.43.43,0,0,0-.19.08l-1.76,1.12a.74.74,0,0,0-.25.58.09.09,0,0,1-.09.1c-.08,0-.08-.08-.08-.13Z"/><path class="cls-1" d="M23,132.5c0,.06,0,.14-.09.14s-.09-.07-.09-.16c0-.38-.3-.4-.47-.41H20.5a1.48,1.48,0,0,1-1.12-.34,1.23,1.23,0,0,1-.34-.9,1.25,1.25,0,0,1,1.18-1.35h2.07c.41,0,.56,0,.56-.49,0,0,0-.12.09-.12s.09.08.09.16v1.3c0,.07,0,.15-.09.15s-.09-.07-.09-.17a.35.35,0,0,0-.24-.39c-.08,0-1.09,0-1.28,0-1.17,0-1.26,0-1.51.09a1,1,0,0,0-.16,1.74c.27.18.49.18,1.73.18s1.2,0,1.3-.07a.4.4,0,0,0,.16-.38c0-.06,0-.1.09-.1s.09.08.09.12Z"/><path class="cls-1" d="M61.74,83.8c-.09,0-.16,0-.17.12s0,.78,0,.87,0,.14.06.14.54-.2.58-.2h0a2.28,2.28,0,0,1-.44.32c-.22.13-.22.2-.22.39s0,1.1,0,1.28,0,.64,0,.69a.32.32,0,0,1-.29.2c-.1,0-.14,0-.14-.14,0-.31,0-1.65,0-1.92,0,0,0-.08-.06-.08a3.55,3.55,0,0,0-.53.32c-.05.09-.05.1-.08.1s-.34-.45-.34-.47,0-.05.12-.06a2.74,2.74,0,0,0,.85-.31s0-.08,0-.15,0-.73,0-1c0-.06,0-.16-.17-.16h-.36c-.13,0-.15,0-.23.2a1.9,1.9,0,0,1-.28.46s0,0,0,0,.13-.55.15-.65a5.83,5.83,0,0,0,.1-.9s0-.13,0-.16,0,0,0,0,.45.1.45.2a1.67,1.67,0,0,1-.12.23,3.5,3.5,0,0,0-.14.46c0,.06,0,.07.08.07H61a.14.14,0,0,0,.16-.15c0-.22,0-.61,0-.84,0-.06,0-.32,0-.38s0-.06,0-.06.54.11.54.22,0,0-.09.14,0,.08-.06.36v.58s0,.12.08.12a.18.18,0,0,0,.15-.09c.13-.18.15-.2.19-.2s.4.28.4.36-.1.1-.32.1ZM64,83.28c-.17,0-.17.1-.17.23,0,.76,0,.77.17.77h.5a.62.62,0,0,0,.29,0S65,84,65,84s.49.32.49.4,0,.07-.32.07H62.37l-.24,0s0,0-.07,0l-.1-.12s0,0,0,0,0,0,0,0h.26l.81,0h.24c.15,0,.17-.09.17-.2s0-.62,0-.68a.14.14,0,0,0-.16-.12h-.49l-.35,0s0,0-.07,0l-.1-.12s0,0,0,0a0,0,0,0,1,0,0l.24,0,.72,0c.12,0,.22,0,.22-.17s0-.33,0-.42,0-.25,0-.27,0-.06,0-.06l.48.13s.06,0,.06.06-.12.14-.14.17,0,.3,0,.38,0,.18.17.18h.54s.17-.28.21-.28.43.28.43.37-.12.08-.31.08Zm.53,2.21c-.15,0-.17.05-.17.44,0,.18,0,1,0,1.13,0,.54-.42.54-.48.54s-.13,0-.16-.15-.13-.19-.26-.24-.16-.08-.16-.1.05,0,.06,0h.38c.12,0,.24,0,.24-.27s0-1.07,0-1.1,0-.24-.17-.24H62.48l-.24,0s0,0-.06,0l-.12-.13a.08.08,0,0,1,0,0,0,0,0,0,1,0,0l.27,0,.8,0h.66c.16,0,.16-.12.16-.19s0-.43,0-.51,0,0,0,0l.4.06c.06,0,.11,0,.11.08s-.1.14-.11.16a.8.8,0,0,0,0,.27c0,.17.1.17.22.17a.21.21,0,0,0,.2-.13c0-.06.11-.16.16-.16s.44.27.44.36-.12.08-.31.08Zm-1.92.4c.08,0,.61.13.61.54,0,.21-.1.33-.23.33s-.12,0-.22-.37a1.34,1.34,0,0,0-.2-.43s0,0,0-.06Z"/><path class="cls-1" d="M61.91,91.52a6.66,6.66,0,0,0-.75,0H61a0,0,0,0,1,0,0l-.12-.14,0,0s0,0,0,0h.26c.29,0,.53,0,.81,0h1.6c.25,0,.31,0,.38-.1s.15-.24.21-.24.51.3.51.4-.11.09-.32.09H63.18c-.17,0-.17.06-.17.55s0,.51.17.51h.41c.25,0,.31,0,.37-.1s.12-.2.18-.2a1.1,1.1,0,0,1,.42.38s0,.07-.09.07H63.2c-.19,0-.19,0-.19.39s0,.87,0,.9.07,0,.14,0a6.28,6.28,0,0,0,.66,0,7.15,7.15,0,0,0,1.58-.19,1.27,1.27,0,0,1,.18-.06s0,0,0,0-.36.29-.42.36a2.34,2.34,0,0,0-.09.24c0,.08-.28.08-.37.08-2.37,0-2.65-.34-3-.78a1.42,1.42,0,0,1-.26-.43s0,0,0,0,0,0-.09.1c-.55.88-1.06,1-1.11,1s0,0,0,0,.09-.09.1-.11a3.78,3.78,0,0,0,1-2.08c0-.26,0-.29.06-.29s.51.14.51.22-.12.13-.13.15-.14.5-.17.58-.1.31-.1.32c0,.29.76.81,1.08.81.08,0,.08-.08.08-.12,0-.33,0-1.82,0-2.12s0-.23-.18-.23ZM61,90.45c-.08,0-.11,0-.15.11-.11.35-.29.49-.43.49s-.2,0-.2-.17,0-.11.17-.26a1.73,1.73,0,0,0,.3-.53c0-.07,0-.1.06-.1s.09.09.12.21.06.1.14.1h1.4c.15,0,.16-.09.16-.19s0-.35,0-.45a2.87,2.87,0,0,1,0-.31s0,0,0,0l.6.14s0,0,0,.06-.13.13-.15.17a1.54,1.54,0,0,0,0,.38c0,.21,0,.23.18.23h1.16c.16,0,.19,0,.27-.07s.14-.13.21-.13.54.3.54.46-.14.12-.17.12l-.31,0a.7.7,0,0,0-.34.09.7.7,0,0,1-.17.09,0,0,0,0,1,0,0s.15-.27.15-.33,0,0-.12,0Z"/><path class="cls-1" d="M61.82,97.67c.16,0,.18-.07.18-.18s0-.49,0-.68c0,0,0-.2,0-.24a0,0,0,0,1,0,0s.53.08.53.18-.07.11-.07.13,0,1.7,0,2,0,.7,0,.84,0,.09.05.09.42-.1.45-.1,0,0,0,0-.35.19-.43.21-.14.08-.22.36a2.25,2.25,0,0,1-1.57,1.56s0,0,0,0,0-.06.07-.07a2.67,2.67,0,0,0,.62-.48,2.21,2.21,0,0,0,.55-1c0-.06,0-.07,0-.07s-1.27.45-1.28.46-.11.13-.14.13-.28-.53-.28-.55,0,0,.21,0a8,8,0,0,0,1.56-.29,1.91,1.91,0,0,0,.08-.63c0-.14-.05-.18-.18-.18h-.42c-.14,0-.54,0-.75,0h-.12a.07.07,0,0,1-.06,0l-.11-.14,0,0s0,0,0,0h.25c.17,0,.48,0,.82,0h.4c.14,0,.18,0,.18-.15V98c0-.11,0-.21-.18-.21H60.63l-.12,0s0,0-.06,0l-.11-.14a.05.05,0,0,1,0,0s0,0,0,0l.27,0,.81,0Zm2,1.32c-.12,0-.18.05-.18.17s0,.72,0,.77.11.1.18.1h.66a1,1,0,0,0,.29,0c.05,0,.24-.29.31-.29a1,1,0,0,1,.44.39c0,.08-.12.08-.31.08H63.79c-.17,0-.18.07-.18.25s0,.88,0,1,0,.3-.3.3-.18-.13-.18-.22,0-.48,0-.57c0-.87,0-2.28,0-3.14,0-.43,0-.73,0-1,0,0,0-.21,0-.25s0-.07.06-.07a3.62,3.62,0,0,1,.45.1c.05,0,.1,0,.1.09s-.1.13-.11.16,0,.1,0,.61c0,.09,0,.19.18.19h.57a1,1,0,0,0,.29,0c.06,0,.24-.29.32-.29s.44.31.44.39-.13.08-.32.08h-1.3c-.06,0-.17,0-.18.13s0,.48,0,.59,0,.29.17.29h.33a.67.67,0,0,0,.29,0c.06,0,.24-.28.32-.28a1.16,1.16,0,0,1,.44.38c0,.08-.13.08-.32.08Z"/><path class="cls-1" d="M63.06,104.88c.26,0,.3,0,.56-.47a3.8,3.8,0,0,0,.36-.78c0-.1,0-.11,0-.11s.56.33.56.43,0,.06-.19.09-.16,0-.52.4a1.67,1.67,0,0,0-.32.37c0,.07.06.07.15.07h.8c.19,0,.21,0,.25,0s.13-.13.16-.13.56.36.56.54-.07.14-.16.14l-.18,0c-.09,0-.19,0-.38.21s-.12.12-.16.12,0,0,0,0a5.55,5.55,0,0,0,.16-.55c0-.08,0-.08-.22-.08H61c-.21,0-.24,0-.27.15-.08.41-.25.59-.41.59a.22.22,0,0,1-.22-.24c0-.08,0-.11.2-.42a1.21,1.21,0,0,0,.18-.55s0-.07,0-.07.15.26.18.3.06.08.28.08Zm-1.13,2.41c.13,0,.21,0,.29-.13a1.6,1.6,0,0,0,.1-.45c0-.1,0-.1-.19-.1h-.36c-.12,0-.13,0-.17.13s-.22.12-.26.12-.17,0-.19-.13,0-.38,0-.45v-.62s0-.16,0-.19,0-.07.05-.07a2.81,2.81,0,0,1,.35.17.59.59,0,0,0,.21,0h1.84c.25,0,.27,0,.32,0s.18-.22.23-.22a.73.73,0,0,1,.34.39s0,.07-.1.11-.07.07-.07.33a3.28,3.28,0,0,1,0,.47.32.32,0,0,1-.28.17c-.09,0-.11,0-.14-.12s-.07-.07-.14-.07H63a.28.28,0,0,0-.25.1,2.34,2.34,0,0,0-.39.52c0,.06.08.06.16.06h1.77s.16-.17.2-.17.36.19.36.3,0,.07-.09.14a.37.37,0,0,0,0,.15c0,.1,0,.57,0,.68s0,.22-.09.3a.4.4,0,0,1-.27.13c-.12,0-.13-.07-.14-.19s-.09-.08-.15-.08H61.36c-.1,0-.12,0-.14.13a.3.3,0,0,1-.31.2c-.17,0-.17-.13-.17-.19s0-.76,0-.91,0-.5,0-.59,0-.09.06-.09a1.85,1.85,0,0,1,.39.15.47.47,0,0,0,.27.05Zm-1.1-3.59c.63,0,1.07.38,1.07.67a.26.26,0,0,1-.26.27c-.13,0-.19-.12-.24-.23a1.38,1.38,0,0,0-.51-.57c-.12-.08-.14-.08-.12-.11S60.81,103.7,60.83,103.7Zm.57,3.75c-.08,0-.12,0-.17.06s0,.57,0,.68,0,.19.17.19h2.77c.16,0,.18-.07.18-.17s0-.64,0-.67-.13-.09-.17-.09Zm.38-1.71c-.07,0-.19,0-.19.18,0,.53,0,.53.18.53h1.92c.18,0,.18,0,.18-.37s0-.34-.19-.34Zm1.36-1.44c0,.14-.08.24-.2.24s-.23-.17-.27-.27a1.77,1.77,0,0,0-.36-.61.51.51,0,0,1-.09-.13s0,0,.05,0C62.46,103.51,63.14,103.82,63.14,104.3Z"/><path class="cls-1" d="M61.22,112.4h-.74l-.13,0s0,0-.05,0l-.11-.14s0,0,0,0h0l.37,0h.78c.19,0,.19,0,.19-.36a5.34,5.34,0,0,0,0-.59c0-.07-.08-.07-.15-.07l-.8,0c-.1,0-.11,0-.11,0s0,0,.14-.06a5.42,5.42,0,0,0,1.46-.39c.21-.09.23-.1.28-.1s.56.23.56.31,0,.06-.36.1c-.63.06-.63.08-.63.29s0,.75,0,.77a.16.16,0,0,0,.17.1h.1c.14,0,.18,0,.25-.1s.18-.22.23-.22a1.61,1.61,0,0,1,.52.4c0,.08-.12.08-.32.08h-.79c-.17,0-.18,0-.18.45,0,.17.06.18.1.19.25,0,.87.2.87.65,0,.22-.13.29-.2.29s-.13,0-.28-.41a.76.76,0,0,0-.45-.45c-.05,0-.05,0-.05.09,0,.23,0,1.9,0,2.12s0,.32,0,.34c0,.23-.28.3-.35.3s-.12-.08-.12-.17c0-.29,0-1.56,0-1.82,0-.06,0-.3,0-.35s0-.1-.07-.1,0,0-.11.09a5.83,5.83,0,0,1-1.13,1.06.14.14,0,0,1-.09,0,0,0,0,0,1,0,0s.37-.43.42-.5a7.18,7.18,0,0,0,1-1.72.07.07,0,0,0-.08-.08Zm2.68.42c0,1,0,1.15,0,1.41,0,0,0,.23,0,.26s-.09.29-.33.29-.14-.07-.14-.11,0-.14,0-.17c0-.19,0-.86,0-1.68,0-.26,0-1,0-1.37a.56.56,0,0,1,0-.12s0-.06,0-.06.62.11.62.22,0,0,0,.06-.14.13-.16.22S63.9,112.27,63.9,112.82Zm1.15.12c0,.36,0,1.91,0,2.22s0,.54-.13.61a.88.88,0,0,1-.41.2c-.09,0-.1,0-.13-.13s-.44-.35-.51-.37,0,0,0,0,0,0,0,0,.39.06.46.06c.29,0,.29-.06.29-.51s0-3.43,0-3.84c0-.07-.06-.39-.06-.4s0-.06.07-.06l.54.1s.09,0,.09.09,0,.07-.1.11a.28.28,0,0,0-.09.18C65.06,111.23,65.05,112.63,65.05,112.94Z"/><path class="cls-1" d="M60.25,119.15c.19,0,.72.19.72.54a.21.21,0,0,1-.19.23c-.06,0-.11,0-.17-.16a1.88,1.88,0,0,0-.45-.58S60.2,119.15,60.25,119.15Zm0,2.36a.37.37,0,0,0,.36-.24,8.93,8.93,0,0,0,.71-1.83s.06-.17.08-.17a.06.06,0,0,1,0,.06s-.08.47-.09.51c-.06.26-.38,1.41-.38,1.64a3.72,3.72,0,0,0,.2.93,1.54,1.54,0,0,1,0,.3A.25.25,0,0,1,61,123c-.29,0-.3-.36-.3-.51,0-.56-.08-.72-.36-.86,0,0-.19,0-.19-.07S60.24,121.51,60.28,121.51Zm.53-3.7c.08,0,.8.16.8.57a.23.23,0,0,1-.21.24s-.11,0-.2-.15a2.92,2.92,0,0,0-.41-.57s0,0,0,0S60.77,117.81,60.81,117.81Zm2.42,3c.17,0,.17-.11.17-.18v-.83c0-.07-.06-.12-.17-.12h-.41a6.66,6.66,0,0,0-.75,0H62s0,0-.05,0l-.12-.13s0,0,0-.05h0l.26,0c.29,0,.53,0,.81,0h.37c.07,0,.18,0,.18-.16v-.66a.14.14,0,0,0-.14-.16c-.09,0-.45,0-.52.06l-.59,0c-.08,0-.15,0-.15,0a1.37,1.37,0,0,1,.29-.07,6.79,6.79,0,0,0,1.85-.56s.28-.18.29-.18a2.57,2.57,0,0,1,.57.44s0,.07-.16.07-.68.1-.87.13-.18.05-.18.19,0,.81,0,.85.12.07.15.07h.46c.28,0,.3,0,.38-.1s.17-.21.22-.21a1.59,1.59,0,0,1,.46.39c0,.08-.12.08-.31.08H64c-.1,0-.19,0-.19.18s0,.81,0,.84a.16.16,0,0,0,.18.11h.36c.08,0,.12,0,.22-.11s.12-.13.15-.13.44.33.44.42,0,0-.1.13a.29.29,0,0,0-.07.22c0,.21,0,1.34,0,1.35a.3.3,0,0,1-.33.32c-.15,0-.16-.07-.19-.2s0-.1-.16-.1H62.82c-.15,0-.16,0-.2.16a.27.27,0,0,1-.3.19c-.1,0-.18,0-.18-.13s0-.35,0-.42c0-.23,0-1.12,0-1.29s0-.29,0-.39a.78.78,0,0,1,0-.14s0-.06,0-.06,0,0,.26.11a.57.57,0,0,0,.34.07Zm1.11,1.74c.1,0,.18,0,.18-.17v-1.23c0-.08,0-.19-.18-.19H62.79c-.1,0-.18,0-.18.17v1.22c0,.1,0,.2.18.2Z"/><path class="cls-1" d="M62,126.23c-.16,0-.16.11-.16.25,0,.3,0,.35.18.35h.41a.25.25,0,0,0,.19-.06c.05,0,.09-.09.15-.09s.4.19.4.27-.11.14-.13.17a.7.7,0,0,0,0,.31c0,.13,0,.7,0,.82s-.27.24-.3.24-.08,0-.1-.14-.07,0-.1,0H62c-.18,0-.18.1-.18.22,0,.3,0,.36.19.36h.16c.23,0,.25,0,.35-.1s.14-.15.19-.15.39.3.39.33,0,.08-.31.08h-.76c-.14,0-.21,0-.21.19s0,.25.08.25l1.06-.15s.05,0,.05,0-.23.11-.31.13c-.6.19-1.1.3-1.84.48a1.31,1.31,0,0,0-.37.12s-.1.09-.13.09-.27-.47-.27-.47,0,0,0,0a7.46,7.46,0,0,0,1-.1l.25,0s0-.06,0-.11a2.27,2.27,0,0,0,0-.29c0-.1-.1-.1-.24-.1h-.77l-.12,0s0,0-.06,0l-.11-.14,0,0s0,0,0,0l.24,0,.88,0c.19,0,.19,0,.19-.37,0-.11,0-.21-.17-.21H60.9c-.1,0-.11,0-.12.1s-.12.17-.22.17-.17-.11-.17-.17c0-.43,0-1.12,0-1.28s0-.35,0-.41a0,0,0,0,1,0,0,2,2,0,0,1,.3.11.47.47,0,0,0,.25,0h.37c.17,0,.17-.08.17-.29s0-.31-.17-.31h-.19c-.49,0-.68,0-.69,0h-.13s0,0-.05,0l-.11-.13s0,0,0,0h.28c.05,0,.47,0,.75,0h.15c.19,0,.19-.09.19-.25,0-.35,0-.39-.07-.39l-.17,0-.71.05s-.08,0-.08,0,0,0,.16-.07a5.91,5.91,0,0,0,1.61-.55c.1-.06.11-.07.13-.07a1.65,1.65,0,0,1,.46.35s0,0-.13.06l-.75.14c-.09,0-.1.06-.1.14a3.64,3.64,0,0,0,0,.53.15.15,0,0,0,.13.06c.33,0,.37,0,.45-.1s.16-.2.24-.2a1.15,1.15,0,0,1,.43.38c0,.07,0,.07-.32.07Zm-.69,1.27c.18,0,.18-.09.18-.28s0-.24-.18-.24H61c-.18,0-.18.09-.18.29s0,.23.18.23Zm0,.65c.18,0,.18-.07.18-.25s0-.24-.18-.24H61c-.18,0-.19.08-.19.21s0,.28.19.28ZM62,127c-.17,0-.17.1-.17.27s0,.25.17.25h.44c.19,0,.19-.09.19-.26s0-.26-.19-.26Zm0,.68c-.17,0-.17.08-.17.24s0,.25.17.25h.44c.18,0,.18-.09.18-.24s0-.25-.18-.25Zm2.29-1.46c-.17,0-.17.07-.18.3-.05,2-.24,2.62-.93,3.27a2,2,0,0,1-.63.44s0,0,0,0,.14-.14.16-.16c.8-.8,1.06-1.47,1.06-3.69,0-.09,0-.13-.11-.13l-.31,0s0,0-.06,0l-.11-.13s0,0,0,0h0l.5,0c.07,0,.1,0,.1-.11,0-.37,0-.62,0-.76s-.05-.25-.05-.3,0-.08.05-.08.58.1.58.17-.1.09-.11.11a3.16,3.16,0,0,0-.05.7c0,.25,0,.28.17.28h.19a.25.25,0,0,0,.21-.08c.12-.13.14-.15.17-.15s.45.24.45.34,0,.06-.12.15a.22.22,0,0,0-.08.2,18,18,0,0,1-.12,3.13.64.64,0,0,1-.6.54c-.1,0-.11,0-.17-.2s-.16-.21-.35-.3-.14-.07-.14-.1,0,0,0,0,.53.1.63.1.29-.44.32-.74,0-1.93,0-2.38c0-.26,0-.33-.18-.33Z"/><path class="cls-1" d="M60.09,133.48c.4,0,.82.26.82.59a.26.26,0,0,1-.23.27c-.08,0-.12-.07-.2-.24a1.65,1.65,0,0,0-.39-.51l-.1-.08S60.06,133.48,60.09,133.48Zm.36,2.29a6.11,6.11,0,0,0,1-1.84c.06-.12.16-.31.21-.44s0-.1.08-.1,0,0,0,0-.57,1.61-.64,1.8c-.17.43-.19.47-.19.66a1.8,1.8,0,0,0,.18.78.65.65,0,0,1,.06.23.28.28,0,0,1-.26.28c-.22,0-.29-.21-.29-.4a1,1,0,0,0-.22-.79s-.17-.11-.17-.14S60.42,135.79,60.45,135.77Zm0-3.61s0,0,0,0a2.4,2.4,0,0,1,.47.09.56.56,0,0,1,.4.48c0,.13-.07.27-.2.27s-.13-.06-.21-.2a1.93,1.93,0,0,0-.49-.59Zm2.08,2.63c-.14,0-.54,0-.75,0H61.7l-.06,0-.11-.14,0,0s0,0,0,0l.27,0,.81,0H63c.1,0,.16,0,.18-.12s0-.81,0-.94,0-.18-.16-.18H62.9c-.13,0-.54,0-.74,0H62s0,0-.05,0l-.12-.13s0,0,0,0,0,0,0,0l.27,0,.81,0h.13s.17,0,.17-.17,0-.55,0-.74,0-.28,0-.29,0,0,0,0,.59.09.59.19-.11.13-.11.16a.4.4,0,0,0,0,.2c0,.08,0,.53,0,.53,0,.16.13.16.19.16h.33c.25,0,.28,0,.33,0s.18-.26.23-.26a1.53,1.53,0,0,1,.46.38c0,.08-.12.08-.32.08h-1c-.07,0-.19,0-.19.16v1c0,.1.1.11.19.11h.56c.25,0,.28,0,.33,0s.19-.26.24-.26.45.31.45.38-.12.08-.32.08H63.41s0,0,0,0,.23.26.23.31,0,.06-.16.09-.08,0-.23.28a7.29,7.29,0,0,1-.62.82c-.08.1-.09.11-.09.13s0,0,0,0l1.87-.1c.14,0,.2,0,.2-.09s-.33-.79-.34-.86h0a2.32,2.32,0,0,1,1,1.43.31.31,0,0,1-.29.34c-.12,0-.13-.05-.24-.5,0-.15-.06-.24-.18-.24s-.81.16-1,.18-1.27.18-1.48.24a1.83,1.83,0,0,0-.29.11s-.11.08-.14.08-.25-.6-.25-.62a0,0,0,0,1,0,0l.29,0a2.75,2.75,0,0,0,.4,0c.14,0,.17-.05.41-.51a5.94,5.94,0,0,0,.48-1.07c0-.1-.11-.1-.18-.1Z"/><path class="cls-1" d="M62.89,139.61a6.4,6.4,0,0,0,.86,2.71,3.39,3.39,0,0,0,1.68,1.47s.06,0,.06.05,0,0-.21.07a1.09,1.09,0,0,0-.41.17c-.11.09-.13.1-.15.1a3.83,3.83,0,0,1-1.35-1.72,6.43,6.43,0,0,1-.56-2.28c0-.07,0-.08,0-.08s0,0-.06.24a6.77,6.77,0,0,1-.76,2.53,3.3,3.3,0,0,1-1.72,1.41s0,0,0,0,0,0,.08-.07a4.38,4.38,0,0,0,1.4-1.52,7.39,7.39,0,0,0,.68-3,1.27,1.27,0,0,0,0-.36s0-.1,0-.12a.05.05,0,0,1,0,0l.34.1c.28.07.4.11.4.22s0,.08-.1.09-.07,0-.09,0A.1.1,0,0,0,62.89,139.61Z"/><path class="cls-1" d="M36,144.89c-.66,0-.66-.35-.66-.56s.08-1.18.11-1.37v-2.2a28.27,28.27,0,0,0-.13-3.37,2.39,2.39,0,0,1-.1-.47c0-.06.07-.07.11-.07a5,5,0,0,1,1,.43l.08,0a5,5,0,0,0,1.8.3h6.43c.79,0,.9-.09,1.12-.26.57-.44.71-.47.74-.47A3.89,3.89,0,0,1,48,138.07c0,.1,0,.1-.44.48a5.57,5.57,0,0,0-.12,1.65c0,.44,0,1.09.08,1.72,0,.87.08,1.69.08,1.89,0,.82-.94.85-.95.85-.21,0-.72-.06-.72-.6,0-.28,0-.72-.65-.72H37.86c-.21,0-.75,0-.75.6C37.11,144.29,37.11,144.89,36,144.89Zm1.61-6.83c-.7,0-.7.11-.7,2,0,1.58,0,2.41,0,2.47a.59.59,0,0,0,.64.36h7.64c.68,0,.68-.11.68-2,0-.88,0-2.37-.05-2.46a.59.59,0,0,0-.63-.35Zm-3.34-3c-.06,0-.09,0-.15-.1l-.4-.48-.07-.09v0h0l.49,0,.43,0c1,.05,1.81.08,2.86.08h2.65c.22,0,.64,0,.64-.64v-2.5c0-.44-.21-.64-.68-.64H35.75c-1.67,0-2.35,0-2.64.06h0l-.22,0-.21,0s-.06,0-.11-.06l0-.05-.4-.47c-.07-.09-.07-.09-.07-.12s.3,0,.5,0l.43,0h.37c.88,0,1.63.07,2.49.07h4.2c.22,0,.7,0,.7-.61a23.16,23.16,0,0,0-.15-2.44,4,4,0,0,0-.12-.41,3.39,3.39,0,0,1-.11-.37c0-.07.13-.07.14-.07l2,.35c.28,0,.52.12.52.35a1.65,1.65,0,0,1-.37.49,1.6,1.6,0,0,0-.32.41c0,.14-.08,1.48-.08,1.69,0,.61.49.61.7.61h3.92c.95,0,1.07,0,1.38-.37l.07-.08c.52-.62.57-.68.73-.68a7.57,7.57,0,0,1,1.91,1.33c0,.23-.35.24-1.08.24h-7c-.21,0-.7,0-.7.62,0,.2,0,.77,0,1.32s0,1,0,1.2c0,.64.47.64.7.64h3.21a2.55,2.55,0,0,0,.67,0c.14,0,.34-.29.63-.65a3.32,3.32,0,0,1,.4-.44c.18,0,1.76,1.06,1.76,1.35s-.2.22-.68.22H37.38c-1.67,0-2.36,0-2.64.06h0l-.22,0Z"/><path class="cls-1" d="M32.27,120.7s-.07,0-.15-.11l-.41-.49c-.07-.09-.07-.09-.07-.12l.51,0,.44,0c1,.06,1.88.08,3,.08H40c.17,0,.58,0,.7-.33s.09-2.18.09-2.41c0-.91,0-1.28-.68-1.28H38c-1.44,0-2.14,0-2.48,0h-.23l-.45.07s-.08,0-.14-.12l-.45-.51,0,0s0,0,0,0h0c.19,0,.8.06,1,.08,1.11,0,2,.07,3,.07h2a.56.56,0,0,0,.61-.34,19.42,19.42,0,0,0,.09-2.81c0-.55-.49-.55-.72-.55H37.17c-.22,0-.53,0-.63.29-.14.46-.26.83-.81.83s-.72-.29-.72-.94c0-.33,0-1.25.06-2.13s0-1.67,0-2a42,42,0,0,0-.13-4.2,2.41,2.41,0,0,0-.11-.35,3,3,0,0,1-.12-.42s0,0,.05,0a8,8,0,0,1,1.12.55l.12.07a2.83,2.83,0,0,0,1.71.39h7.89a1.31,1.31,0,0,0,.85-.18l.19-.19a2,2,0,0,1,.38-.36c.16,0,1.52,1,1.52,1.28s-.13.26-.43.45-.28.29-.28,1.12c0,.45,0,1.69,0,2.89s0,2.25,0,2.64a1.15,1.15,0,0,1-1.13,1.3c-.37,0-.39-.18-.44-.54s-.46-.49-.68-.49H42.9c-.72,0-.72,0-.72,1.88,0,1.34,0,1.48.16,1.65a.81.81,0,0,0,.6.17h3c.91,0,1,0,1.22-.17a3,3,0,0,0,.31-.39c.17-.23.5-.67.6-.67a5.73,5.73,0,0,1,1.64,1.45c0,.24-.35.25-1.08.25H42.94c-.76,0-.76.38-.76,1.13,0,2.3,0,2.54.21,2.73a.72.72,0,0,0,.53.16h4.67c.8,0,1,0,1.13-.18a4.39,4.39,0,0,0,.35-.42c.18-.24.49-.64.6-.64a4.83,4.83,0,0,1,1.69,1.45c0,.23-.36.24-1.11.24H35.45a22,22,0,0,0-2.74.07h0l-.22,0Zm10.65-12.39c-.74,0-.74.36-.74,1.43,0,1.54,0,1.73.74,1.73h2.79c.75,0,.75-.22.75-2,0-.78,0-1.17-.72-1.17Zm-5.75,0c-.69,0-.69.25-.69,1.17,0,1.52,0,1.68.14,1.83a.72.72,0,0,0,.55.16h2.89c.7,0,.7-.24.7-1.15,0-1.54,0-1.7-.15-1.84a.67.67,0,0,0-.55-.17ZM43,104.48c-.74,0-.74.3-.74,2,0,1.14,0,1.41.74,1.41h2.8c.74,0,.74-.22.74-1.93,0-1.12,0-1.43-.74-1.43Zm-5.79,0c-.67,0-.69.25-.69,1.54,0,1.61,0,1.82.69,1.82H40c.7,0,.7-.17.7-1.52,0-1.59,0-1.84-.7-1.84Z"/><path class="cls-1" d="M36,99.19c-.65,0-.65-.34-.65-.55s.08-1.19.1-1.37v-2.2a30.61,30.61,0,0,0-.12-3.37,3.37,3.37,0,0,1-.11-.47s.08-.07.12-.07a5,5,0,0,1,1,.43l.09,0a4.9,4.9,0,0,0,1.79.3h6.43c.79,0,.9-.08,1.12-.26.56-.43.71-.47.74-.47a4,4,0,0,1,1.4,1.18c0,.1,0,.1-.44.48a5.92,5.92,0,0,0-.12,1.65c0,.43,0,1.09.08,1.72,0,.87.09,1.68.09,1.89,0,.82-.94.84-.95.84-.22,0-.72-.06-.72-.59,0-.29,0-.72-.66-.72H37.86c-.2,0-.74,0-.74.59C37.12,98.6,37.12,99.19,36,99.19Zm1.61-6.82c-.7,0-.7.11-.7,2,0,1.58,0,2.4,0,2.47a.58.58,0,0,0,.63.36h7.63c.68,0,.68-.11.68-2,0-.88,0-2.37,0-2.46a.6.6,0,0,0-.64-.35Zm-3.34-3c-.05,0-.08,0-.14-.1l-.4-.48-.07-.08,0,0h0l.48,0,.43,0c1,.06,1.81.08,2.86.08h2.65c.22,0,.64,0,.64-.63V85.66c0-.44-.21-.63-.68-.63H35.75c-1.66,0-2.35,0-2.63.06h0l-.22,0-.22,0s0,0-.1-.07l0,0-.39-.47c-.07-.09-.07-.09-.07-.12l.5,0,.43,0h.37c.87,0,1.63.07,2.49.07h4.19c.23,0,.7,0,.7-.62a20.72,20.72,0,0,0-.15-2.43,4,4,0,0,0-.12-.41,3.39,3.39,0,0,1-.11-.37c0-.07.13-.07.14-.07s1.8.31,2,.35.52.12.52.35a1.65,1.65,0,0,1-.37.49,1.6,1.6,0,0,0-.32.41c0,.14-.08,1.48-.08,1.68,0,.62.49.62.7.62h3.92c.95,0,1.07,0,1.38-.37l.06-.08c.53-.62.58-.68.73-.68a7.39,7.39,0,0,1,1.91,1.33c0,.23-.35.24-1.08.24H42.91c-.21,0-.7,0-.7.61,0,.21,0,.77,0,1.32s0,1,0,1.21c0,.63.47.63.69.63h3.22a2.55,2.55,0,0,0,.67,0,2.27,2.27,0,0,0,.63-.64,2.4,2.4,0,0,1,.39-.44c.18,0,1.76,1,1.76,1.34s-.2.22-.68.22H37.38c-1.66,0-2.35,0-2.64.06h0l-.21,0Z"/><path class="cls-1" d="M32.54,166.58s-.07,0-.15-.11L32,166c-.07-.09-.07-.09-.07-.12l.5.05.43,0c1,.06,1.82.08,2.88.08H40c.16,0,.55,0,.67-.33.05-.16.09-2.11.09-2.33,0-.88,0-1.25-.66-1.25H38.05c-1.39,0-2.08,0-2.41,0h-.22l-.44.06s-.08,0-.13-.11l-.43-.5,0,0,0-.05h0c.19,0,.78.06.93.08,1.07,0,1.93.07,2.87.07h2a.54.54,0,0,0,.59-.33,18.47,18.47,0,0,0,.09-2.74c0-.53-.47-.53-.7-.53H37.3c-.22,0-.52,0-.61.29-.15.45-.26.8-.79.8s-.7-.28-.7-.91c0-.32,0-1.21.06-2.07s.05-1.62.05-1.9a39.63,39.63,0,0,0-.13-4.08c0-.06-.06-.19-.11-.34a3.41,3.41,0,0,1-.12-.4c0-.06,0-.06,0-.06a6.82,6.82,0,0,1,1.09.54l.12.06a2.71,2.71,0,0,0,1.65.39h7.67a1.27,1.27,0,0,0,.83-.18l.18-.19a1.86,1.86,0,0,1,.37-.35c.15,0,1.47,1,1.47,1.25s-.12.25-.41.43-.28.29-.28,1.09c0,.44,0,1.64.05,2.81s0,2.18,0,2.56a1.13,1.13,0,0,1-1.1,1.26c-.37,0-.39-.17-.43-.52s-.44-.48-.66-.48H42.86c-.7,0-.7,0-.7,1.83,0,1.31,0,1.44.16,1.6a.75.75,0,0,0,.58.17h2.86c.89,0,1,0,1.18-.16a3.36,3.36,0,0,0,.31-.38c.17-.23.48-.66.58-.66a5.59,5.59,0,0,1,1.6,1.41c0,.23-.35.24-1.06.24H42.9c-.74,0-.74.37-.74,1.1,0,2.24,0,2.47.2,2.65a.69.69,0,0,0,.52.16h4.53c.78,0,.93,0,1.1-.18a3.63,3.63,0,0,0,.34-.4c.18-.24.48-.63.59-.63a4.65,4.65,0,0,1,1.64,1.41c0,.23-.35.24-1.08.24H35.63a22.22,22.22,0,0,0-2.66.06h0l-.21,0Zm10.34-12c-.72,0-.72.35-.72,1.39,0,1.49,0,1.68.72,1.68h2.71c.72,0,.72-.22.72-1.93,0-.76,0-1.14-.7-1.14Zm-5.58,0c-.68,0-.68.24-.68,1.14,0,1.48,0,1.63.14,1.77a.68.68,0,0,0,.54.16h2.8c.68,0,.68-.23.68-1.12,0-1.49,0-1.65-.14-1.79a.68.68,0,0,0-.54-.16Zm5.62-3.72c-.72,0-.72.29-.72,1.89,0,1.11,0,1.37.72,1.37h2.71c.73,0,.73-.21.73-1.87,0-1.09,0-1.39-.73-1.39Zm-5.62,0c-.66,0-.68.24-.68,1.5,0,1.56,0,1.76.68,1.76h2.78c.68,0,.68-.17.68-1.47,0-1.55,0-1.79-.68-1.79Z"/><path class="cls-1" d="M33.5,190.79c-.47,0-.51-.44-.51-.9s0-2.07,0-3.64,0-3.33,0-3.94c0-1,0-6.42-.06-7.58l0-.41c-.05-.65-.12-1.74-.12-2s0-.18.11-.18.22,0,1,.45a1.94,1.94,0,0,0,1.17.3H47.22a.77.77,0,0,0,.71-.31c.5-.55.55-.57.69-.57s1.51,1.08,1.51,1.41c0,.11,0,.12-.32.36l-.08.06c-.19.14-.2,1.16-.2,1.17s.12,10.88.14,11.48c0,.23,0,1,0,1.74,0,.53,0,1,0,1.1,0,.44,0,1.45-1.15,1.45-.53,0-.55-.28-.6-.76s-.27-.37-.66-.37H35.19c-.54,0-.57,0-.65.53S33.78,190.79,33.5,190.79Zm1.74-17.49c-.71,0-.75.34-.75.91s0,1.68,0,2.88,0,2.21,0,2.59c0,.7,0,2.62.06,4.49s0,3.48,0,4.07,0,.93.74.93h12c.75,0,.75-.19.75-1.66,0-.59,0-2.23,0-3.81s0-2.94,0-3.44,0-1.64,0-2.81,0-2.2,0-2.58a4.51,4.51,0,0,0,0-1.26.64.64,0,0,0-.67-.31Zm1,13.53c-.05,0-.08,0-.14-.11l-.41-.5-.09-.1h0c.19,0,.81.06.93.08.35,0,1.6.06,2.76.06h.65c.13,0,.52,0,.64-.3s.08-3.41.08-3.44c0-1.25-.05-1.46-.74-1.46-1.07,0-1.93,0-2.55.07h0l-.22,0-.21,0s-.07,0-.16-.11l-.39-.48c-.07-.09-.07-.09-.07-.11l.5,0,.43,0c.31,0,1.71.09,2.78.09.63,0,.63-.31.63-1.77a7.72,7.72,0,0,0-.27-2.5.61.61,0,0,0-.47-.16h-.52c-.84,0-1.94,0-2.53.06h0l-.25,0H36.4s-.08,0-.14-.1l-.42-.48a.18.18,0,0,0-.06-.08s0,0,0,0l.45,0,.47,0h.08c.49,0,1.65.08,2.67.08h4.05c.35,0,.62,0,.84-.38l.07-.11c.35-.56.39-.61.51-.61A5.94,5.94,0,0,1,46.65,176c0,.17,0,.18-1.06.18H42.77c-.68,0-.74.17-.74,2.06s0,2.16.26,2.28.22.09.73.09.67,0,.81-.16l.19-.19c.19-.19.57-.57.67-.57a3.82,3.82,0,0,1,1.54,1.2c0,.13-.24.15-.91.15H42.71c-.7,0-.7.26-.7,1.33,0,.41,0,3.24.11,3.52s.5.35.72.35h.52c.69,0,1.15,0,1.38-.38.41-.66.45-.7.58-.7a5.74,5.74,0,0,1,1.7,1.34c0,.19,0,.2-1.05.2H39.29c-.48,0-1.93,0-2.66,0A2.26,2.26,0,0,1,36.2,186.83Zm9.5-2.09c-.35,0-.41-.09-1-1l-.12-.17a5.92,5.92,0,0,0-.93-1.08l0,0c-.16-.15-.31-.28-.31-.33s.13-.09.24-.09c.42,0,2.73.67,2.87,1.85a.68.68,0,0,1-.17.57A.76.76,0,0,1,45.7,184.74Z"/><path class="cls-1" d="M62,49.94a29,29,0,0,1-6.45-2.58c-1.16-.65-2-1.25-2.5-1.57a26.66,26.66,0,0,1-3.74-3.19,27.22,27.22,0,0,1-3.12-3.82,28.65,28.65,0,0,1-4.05-9,29.5,29.5,0,0,1-.67-3.55,27.94,27.94,0,0,1-.68,3.55,28.9,28.9,0,0,1-4,9,27.26,27.26,0,0,1-6.87,7A28.82,28.82,0,0,1,21,49.94a29.42,29.42,0,0,1-10,1,27.19,27.19,0,0,0,10.17-.1,26.38,26.38,0,0,0,9.51-3.9,24.35,24.35,0,0,0,4-3.25,26.62,26.62,0,0,0,3.36-4,29.14,29.14,0,0,0,3.4-6.7,29.58,29.58,0,0,0,3.41,6.7,26.62,26.62,0,0,0,3.36,4,24.76,24.76,0,0,0,4,3.26,26.05,26.05,0,0,0,4.58,2.42l1.21.46,1.23.39c.41.14.83.24,1.24.34s.83.22,1.26.28A27.18,27.18,0,0,0,72,50.9c-.37,0-.89.06-1.52.07A29.47,29.47,0,0,1,62,49.94Z"/><path class="cls-1" d="M64.77,66c-.41-.09-1.2-.28-2.18-.56a34.06,34.06,0,0,1-5.05-1.79c-1.39-.64-2.41-1.23-2.7-1.4a28.79,28.79,0,0,1-4.3-3.15c-.32-.29-.77-.7-1.27-1.21A29.29,29.29,0,0,1,47,55.22c-.6-.79-1-1.42-1.14-1.62s-.53-.83-1-1.73A29.42,29.42,0,0,1,43.06,48c-.27-.71-.47-1.28-.59-1.62-.31-.93-.53-1.72-.68-2.27s-.23-.91-.31-1.23c-.07.32-.17.74-.3,1.23s-.35,1.28-.75,2.45c-.51,1.51-1,2.62-1.11,2.93-.44,1-.79,1.7-.91,1.93-.28.54-.5.94-.56,1.05-.5.87-.94,1.51-1.15,1.82-.09.13-.45.64-1,1.31a29.6,29.6,0,0,1-2,2.29c-.54.55-1,1-1.29,1.22a26.79,26.79,0,0,1-2.82,2.21c-.64.43-1.16.75-1.42.91s-.89.52-1.86,1c-.26.13-.84.41-1.58.73s-1.16.46-1.3.51L23,64.6l-1.41.47c-.75.23-1.34.39-1.94.54-.44.12-.9.24-1.49.38-1.29.29-2.34.46-2.92.55-.33,0-1.09.15-2.09.24-.85.08-1.56.11-2,.13-1,0-1.82,0-2.06,0-.64,0-1.2-.05-1.66-.08a36.35,36.35,0,0,0,10.91,0,32.08,32.08,0,0,0,10.47-3.44,27.29,27.29,0,0,0,8.49-7.15,28.63,28.63,0,0,0,4.18-7.48,28.63,28.63,0,0,0,4.18,7.48,27.3,27.3,0,0,0,8.5,7.15A32.1,32.1,0,0,0,64.62,66.8a37.35,37.35,0,0,0,10.92,0c-.82.05-1.52.06-2.08.07s-1.11,0-1.92,0c-.14,0-.78,0-1.65-.11-1.43-.13-2.52-.3-2.88-.36S65.89,66.24,64.77,66Z"/><path class="cls-1" d="M60.25,32.58a30.88,30.88,0,0,1-5.74-2.9,29.84,29.84,0,0,1-3.64-2.74,30.11,30.11,0,0,1-4.62-5.14,30.61,30.61,0,0,1-4-8c-.16-.48-.32-1-.47-1.51-.1-.34-.18-.68-.27-1h0c-.08.33-.17.67-.26,1-.15.53-.31,1-.47,1.51a30.61,30.61,0,0,1-4,8,30.54,30.54,0,0,1-4.62,5.14,29.84,29.84,0,0,1-3.64,2.74,30.88,30.88,0,0,1-5.74,2.9,32.41,32.41,0,0,1-8.85,2A29.44,29.44,0,0,0,23,33.38a32.22,32.22,0,0,0,4.34-1.69c.69-.36,1.4-.69,2.06-1.12l1-.6,1-.67.48-.33.47-.36.92-.73c.59-.51,1.18-1,1.73-1.59A29.83,29.83,0,0,0,38,22.73a30.2,30.2,0,0,0,3.46-6.18h0A30.72,30.72,0,0,0,45,22.73,29.83,29.83,0,0,0,48,26.29c.55.56,1.14,1.08,1.73,1.59l.92.73.47.36.48.33,1,.67,1,.6c.66.43,1.37.76,2.06,1.12A32.62,32.62,0,0,0,60,33.38a29.54,29.54,0,0,0,9.13,1.23A32.41,32.41,0,0,1,60.25,32.58Z"/></svg>