<svg id="レイヤー_1" data-name="レイヤー 1" xmlns="http://www.w3.org/2000/svg" viewBox="0 0 93.94 86.2"><defs><style>.cls-1{fill:#fff;}.cls-2{fill:#c7000b;}</style></defs><path class="cls-1" d="M67.94,45.61A29.45,29.45,0,0,1,61.35,43a26.79,26.79,0,0,1-2.55-1.6A27.6,27.6,0,0,1,55,38.11a28,28,0,0,1-3.18-3.9A29.2,29.2,0,0,1,47.65,25,29.76,29.76,0,0,1,47,21.39a30.47,30.47,0,0,1-.7,3.63,29.44,29.44,0,0,1-4.12,9.19A28,28,0,0,1,39,38.11a27.58,27.58,0,0,1-3.84,3.26A29.24,29.24,0,0,1,26,45.61a30.23,30.23,0,0,1-10.18,1,27.88,27.88,0,0,0,10.38-.1,27,27,0,0,0,9.72-4,25.49,25.49,0,0,0,4.14-3.33,26.78,26.78,0,0,0,3.43-4.07A29.58,29.58,0,0,0,47,28.27a29.85,29.85,0,0,0,3.48,6.85,26.61,26.61,0,0,0,3.43,4.06A24.4,24.4,0,0,0,58,42.51,26.16,26.16,0,0,0,62.69,45l1.23.47c.42.15.84.27,1.26.4s.84.25,1.27.35.85.22,1.28.29a27.94,27.94,0,0,0,10.39.1c-.37,0-.9.06-1.54.08A30.3,30.3,0,0,1,67.94,45.61Z"/><path class="cls-1" d="M70.76,62c-.42-.1-1.23-.29-2.23-.57a35.43,35.43,0,0,1-5.15-1.84,29.41,29.41,0,0,1-2.77-1.43A28.27,28.27,0,0,1,56.22,55c-.33-.29-.78-.71-1.3-1.23A28.43,28.43,0,0,1,52.56,51c-.62-.82-1-1.46-1.17-1.67s-.55-.84-1-1.76a33.66,33.66,0,0,1-1.78-4C48.3,42.9,48.1,42.31,48,42c-.32-1-.55-1.75-.7-2.32S47,38.71,47,38.38c-.08.33-.18.76-.32,1.26s-.35,1.31-.76,2.51c-.52,1.54-1,2.67-1.14,3-.44,1-.8,1.73-.92,2-.28.56-.52,1-.58,1.07A21.36,21.36,0,0,1,42.08,50c-.09.13-.46.66-1,1.34A30.38,30.38,0,0,1,39,53.72c-.56.56-1,1-1.32,1.25a27.73,27.73,0,0,1-2.88,2.26c-.65.44-1.19.76-1.45.92s-.92.54-1.9,1c-.27.13-.86.42-1.62.74s-1.18.47-1.33.53l-.39.13c-.23.09-.8.28-1.43.48s-1.37.4-2,.56-.92.25-1.53.39c-1.32.3-2.39.47-3,.56-.33,0-1.11.15-2.13.24-.87.08-1.59.12-2.08.14-1.06,0-1.86,0-2.1,0-.66,0-1.24,0-1.7-.08a37,37,0,0,0,11.15-.06A32.71,32.71,0,0,0,34,59.32,28,28,0,0,0,42.7,52,29.46,29.46,0,0,0,47,44.37,29.18,29.18,0,0,0,51.24,52a27.83,27.83,0,0,0,8.68,7.3,32.65,32.65,0,0,0,10.69,3.52,38.23,38.23,0,0,0,11.15,0c-.84,0-1.56.06-2.12.07s-1.14,0-2,0c-.14,0-.8,0-1.69-.12-1.46-.12-2.57-.3-2.94-.36S71.9,62.27,70.76,62Z"/><path class="cls-1" d="M66.14,27.87a32.21,32.21,0,0,1-5.87-2.95,31.16,31.16,0,0,1-3.71-2.81,30.69,30.69,0,0,1-4.72-5.25,31.31,31.31,0,0,1-4.12-8.12c-.16-.49-.33-1-.48-1.54-.1-.36-.19-.7-.27-1h0c-.08.34-.17.68-.27,1-.16.53-.32,1-.49,1.54a31.24,31.24,0,0,1-4.11,8.12,30.69,30.69,0,0,1-4.72,5.25,30.65,30.65,0,0,1-3.72,2.81,32,32,0,0,1-5.86,2.95,33,33,0,0,1-9,2.08,30.17,30.17,0,0,0,9.32-1.26A34.09,34.09,0,0,0,32.51,27c.7-.38,1.43-.71,2.1-1.15l1-.62,1-.68.49-.34.47-.37.94-.74c.61-.52,1.21-1.05,1.77-1.62a30.27,30.27,0,0,0,3.14-3.64A31.51,31.51,0,0,0,47,11.5h0a31,31,0,0,0,3.54,6.31,30.27,30.27,0,0,0,3.14,3.64c.56.57,1.16,1.1,1.77,1.62l.94.74.47.37.49.34,1,.68,1,.62c.67.44,1.4.77,2.1,1.15a34.09,34.09,0,0,0,4.43,1.72A30.17,30.17,0,0,0,75.18,30,33,33,0,0,1,66.14,27.87Z"/><path class="cls-2" d="M69.26,53.27H68.19s0,0-.07,0l-.14-.1s0,0,0,0h0l.33,0,1,0h1.47c.08,0,.23,0,.23-.13a3.12,3.12,0,0,0,0-.55l-.08-.18s0,0,.06,0l.7.08c.08,0,.2,0,.2.09s-.23.17-.25.21,0,.33,0,.38.15.13.22.13h1.38c.33,0,.36,0,.47-.08s.22-.18.29-.18a2.9,2.9,0,0,1,.69.31c0,.07-.15.07-.4.07H71.77c-.07,0-.22,0-.22.13s0,.49,0,.57.15.14.23.14h1.36c.08,0,.32-.25.36-.25s.64.24.64.32-.11.06-.26.06h-5.1l-.07,0-.14-.11s0,0,0,0h0l.32,0,1,0h.93c.08,0,.21,0,.21-.14V53.4c0-.08-.05-.13-.22-.13Zm3.14,1.55c.27,0,.3,0,.38-.06a1,1,0,0,1,.27-.11,1.38,1.38,0,0,1,.51.28s0,0-.16.12,0,.31,0,.37c0,.23.06.74.06.82s-.31.21-.35.21-.27,0-.27-.15,0-.15-.21-.15H70c-.07,0-.24,0-.24.12s0,.23-.39.23-.25-.09-.25-.14,0-.27,0-.31v-.5a4.84,4.84,0,0,0,0-.77.49.49,0,0,1,0-.11s0,0,.06,0a2.5,2.5,0,0,1,.39.11,2.23,2.23,0,0,0,.62.07Zm-2.47.12c-.23,0-.23,0-.23.45a5,5,0,0,0,0,.56c0,.07.14.07.2.07H72.6c.22,0,.22,0,.22-.45,0,0,0-.53,0-.56a.25.25,0,0,0-.21-.07Z"/><path class="cls-2" d="M71.77,59.54c-.22,0-.22,0-.22.4s0,.32,0,.36a.4.4,0,0,0,.19,0h1c.31,0,.35,0,.41,0s.25-.24.32-.24a1.8,1.8,0,0,1,.58.33c0,.07-.15.07-.39.07H71.79c-.24,0-.24.07-.24.24,0,.5,0,.55.06.59a.36.36,0,0,0,.17,0h1.59a1,1,0,0,0,.37,0c.07,0,.27-.24.34-.24a1.57,1.57,0,0,1,.59.33c0,.07-.14.07-.39.07H68.16l-.07,0L68,61.33s0,0,0,0h.35c.36,0,.66,0,1,0h1.5c.06,0,.18,0,.22-.06s0-.46,0-.53,0-.27-.21-.27H69a.09.09,0,0,1-.06,0l-.15-.11,0,0s0,0,0,0l.32,0h1.7a.21.21,0,0,0,.19-.07,3.76,3.76,0,0,0,0-.61c0-.11-.15-.11-.23-.11h-1c-.07,0-.17,0-.2.05a.27.27,0,0,1-.29.19c-.22,0-.27-.1-.27-.22s0-.77,0-.9a6.78,6.78,0,0,0,0-.93.89.89,0,0,1-.08-.17s0,0,0,0a3.26,3.26,0,0,1,.43.14,1.46,1.46,0,0,0,.58.08h2.68a.59.59,0,0,0,.28,0s.17-.12.21-.12.53.23.53.3-.06.07-.15.11-.09.05-.09.23,0,1,0,1.22-.16.3-.41.3-.15,0-.16-.13-.14-.09-.22-.09Zm-1-.94c.22,0,.22,0,.22-.32s0-.39-.22-.39h-1c-.21,0-.22,0-.22.32s0,.39.22.39Zm0,.81c.22,0,.22,0,.22-.24,0-.34,0-.38,0-.4a.25.25,0,0,0-.17,0h-1c-.22,0-.22.05-.22.25s0,.37,0,.39a.27.27,0,0,0,.18,0Zm1.92,0c.24,0,.24,0,.24-.43,0-.18,0-.25-.23-.25h-1c-.23,0-.23.07-.23.31s0,.37.23.37Zm-.93-1.52c-.24,0-.24,0-.24.41s0,.3.24.3h1c.23,0,.23,0,.23-.41s0-.3-.23-.3Z"/><path class="cls-2" d="M69.26,63.74H68.19s0,0-.07,0L68,63.62l0,0h0l.33,0h2.47c.08,0,.23,0,.23-.12a3.12,3.12,0,0,0,0-.55s-.08-.17-.08-.19,0,0,.06,0l.7.08c.08,0,.2,0,.2.09s-.23.17-.25.21,0,.32,0,.38.15.12.22.12h1.38c.33,0,.36,0,.47-.08s.22-.17.29-.17a2.55,2.55,0,0,1,.69.31c0,.07-.15.07-.4.07H71.77c-.07,0-.22,0-.22.13s0,.49,0,.57.15.14.23.14h1.36c.08,0,.32-.25.36-.25s.64.24.64.32-.11.06-.26.06h-5.1a.09.09,0,0,1-.07,0l-.14-.11s0,0,0,0h0l.32,0,1,0h.93c.08,0,.21,0,.21-.14v-.57c0-.08-.05-.13-.22-.13Zm3.14,1.55c.27,0,.3,0,.38-.06a1,1,0,0,1,.27-.11,1.38,1.38,0,0,1,.51.28s0,0-.16.12,0,.31,0,.37c0,.23.06.74.06.82s-.31.2-.35.2-.27,0-.27-.14,0-.16-.21-.16H70c-.07,0-.24,0-.24.13s0,.23-.39.23-.25-.09-.25-.14,0-.27,0-.31V66a4.84,4.84,0,0,0,0-.77.49.49,0,0,1,0-.11s0,0,.06,0a2.5,2.5,0,0,1,.39.11,2.23,2.23,0,0,0,.62.07Zm-2.47.12c-.23,0-.23,0-.23.45a5,5,0,0,0,0,.56c0,.07.14.07.2.07H72.6c.22,0,.22,0,.22-.45,0,0,0-.53,0-.56a.25.25,0,0,0-.21-.07Z"/><path class="cls-2" d="M71.77,70c-.22,0-.22,0-.22.41s0,.32,0,.36a.4.4,0,0,0,.19,0h1c.31,0,.35,0,.41,0s.25-.24.32-.24a1.8,1.8,0,0,1,.58.33c0,.07-.15.07-.39.07H71.79c-.24,0-.24.07-.24.23,0,.5,0,.56.06.6a.36.36,0,0,0,.17,0h1.59c.28,0,.32,0,.37,0s.27-.23.34-.23a1.57,1.57,0,0,1,.59.33c0,.07-.14.07-.39.07H68.16l-.07,0L68,71.8s0,0,0,0h.35c.36,0,.66,0,1,0h1.5c.06,0,.18,0,.22-.06s0-.47,0-.53c0-.22,0-.27-.21-.27H69a.09.09,0,0,1-.06,0l-.15-.11,0,0s0,0,0,0h.32l1,0h.69a.21.21,0,0,0,.19-.07,3.89,3.89,0,0,0,0-.62c0-.11-.15-.11-.23-.11h-1c-.07,0-.17,0-.2.06a.27.27,0,0,1-.29.19c-.22,0-.27-.1-.27-.22s0-.77,0-.9a6.78,6.78,0,0,0,0-.93A1.3,1.3,0,0,1,69,68s0,0,0,0a2.21,2.21,0,0,1,.43.14,1.46,1.46,0,0,0,.58.08h2.68a.59.59,0,0,0,.28,0,1.13,1.13,0,0,1,.21-.12s.53.23.53.29-.06.08-.15.11-.09.06-.09.24,0,1.05,0,1.22-.16.3-.41.3-.15,0-.16-.13-.14-.1-.22-.1Zm-1-.93c.22,0,.22,0,.22-.32s0-.39-.22-.39h-1c-.21,0-.22,0-.22.32s0,.39.22.39Zm0,.81c.22,0,.22,0,.22-.25s0-.37,0-.4a.32.32,0,0,0-.17,0h-1c-.22,0-.22,0-.22.25s0,.36,0,.39a.27.27,0,0,0,.18,0Zm1.92,0c.24,0,.24,0,.24-.43,0-.18,0-.25-.23-.25h-1c-.23,0-.23.07-.23.31s0,.37.23.37Zm-.93-1.52c-.24,0-.24,0-.24.41s0,.3.24.3h1c.23,0,.23,0,.23-.41s0-.3-.23-.3Z"/><path class="cls-2" d="M69.12,77.22c-.18,0-.18,0-.21.11s-.3.16-.38.16-.2-.14-.2-.22c0-.25,0-1.46,0-1.73s0-1.46,0-1.72c0-.08,0-.47,0-.56s0-.05.06-.05a1.41,1.41,0,0,1,.36.1.89.89,0,0,0,.4.07h4.23a.31.31,0,0,0,.24-.07c.17-.12.19-.13.25-.13s.55.25.55.33,0,0-.14.11-.07.21-.07.26,0,2.47,0,2.61,0,.59,0,.65,0,.34-.42.34c-.21,0-.21-.08-.23-.19s-.08-.07-.21-.07Zm4.26-.13c.24,0,.24,0,.24-.36s0-1.42,0-1.65,0-1,0-1.23a1,1,0,0,0,0-.28c0-.07-.15-.07-.22-.07H69.14c-.24,0-.24.08-.24.2s0,1.07,0,1.24,0,1.68,0,2,0,.2.24.2ZM72,76.43c.24,0,.39,0,.47-.08s.16-.16.22-.16a2.06,2.06,0,0,1,.61.31c0,.06,0,.06-.39.06H69.48a.09.09,0,0,1-.07,0l-.14-.11s0,0,0,0h0l.33,0h1.19s.17,0,.2-.06a6.52,6.52,0,0,0,0-.78c0-.29,0-.32-.24-.32-.53,0-.78,0-.89,0h-.15s0,0-.07,0l-.14-.11,0,0h.34l1,0c.2,0,.2-.06.2-.39,0-.09,0-.51-.08-.56a.27.27,0,0,0-.16,0h-.18l-.89,0h-.15s0,0-.07,0l-.14-.11s0,0,0,0h.35l1,0h1.42a.32.32,0,0,0,.27-.08c.15-.15.17-.17.22-.17a2.14,2.14,0,0,1,.62.32s0,0-.39,0h-1c-.21,0-.24,0-.24.46s0,.49.08.51.07,0,.25,0a.61.61,0,0,0,.27,0,1.45,1.45,0,0,1,.32-.18,1.36,1.36,0,0,1,.55.28s-.09,0-.33,0h-.92c-.23,0-.23,0-.23.29s0,.74,0,.8.16.07.23.07Zm.82-.32c-.14,0-.16,0-.41-.26a1.11,1.11,0,0,0-.33-.24c-.08,0-.13-.08-.13-.1s.08,0,.11,0,1,.15,1,.43C73.09,76,72.93,76.11,72.81,76.11Z"/><path class="cls-2" d="M75.57,80H67a2.3,2.3,0,0,1-2.3-2.3V52.37A2.3,2.3,0,0,1,67,50.08h8.57a2.3,2.3,0,0,1,2.3,2.29V77.74A2.3,2.3,0,0,1,75.57,80ZM67,50.45a1.93,1.93,0,0,0-1.92,1.92V77.74A1.92,1.92,0,0,0,67,79.66h8.57a1.92,1.92,0,0,0,1.92-1.92V52.37a1.93,1.93,0,0,0-1.92-1.92Z"/></svg>