<svg id="レイヤー_1" data-name="レイヤー 1" xmlns="http://www.w3.org/2000/svg" viewBox="0 0 93.01 96.21"><defs><style>.cls-1{fill:#c7000b;}.cls-2{fill:#231815;}</style></defs><path class="cls-1" d="M68.8,58.27c-.64,0-.85,0-.92,0h-.16l-.06,0-.14-.11,0,0s0,0,0,0h.32l1,0h1.47c.08,0,.23,0,.23-.13a4.68,4.68,0,0,0-.05-.55s-.09-.17-.09-.18,0,0,.07,0l.7.08c.08,0,.19,0,.19.09s-.22.17-.24.21,0,.33,0,.38.16.13.23.13H72.7c.33,0,.36,0,.46-.08s.23-.18.3-.18a2.57,2.57,0,0,1,.69.32c0,.06-.15.06-.4.06H71.31c-.07,0-.22,0-.22.13s0,.5,0,.58.15.13.23.13h1.36c.08,0,.31-.25.36-.25s.64.24.64.32-.11.06-.26.06h-4c-.63,0-.85,0-.92,0H68.3a.09.09,0,0,1-.07,0l-.14-.11,0,0s0,0,0,0h.33c.35,0,.65,0,1,0h.93c.08,0,.2,0,.2-.13v-.57c0-.08,0-.14-.22-.14Zm3.13,1.55a.82.82,0,0,0,.39,0,.9.9,0,0,1,.27-.11,1.38,1.38,0,0,1,.51.28s0,0-.16.12,0,.3,0,.36c0,.24.06.74.06.83s-.31.2-.35.2-.27,0-.27-.15,0-.15-.22-.15H69.54c-.07,0-.24,0-.24.12s0,.23-.4.23-.25-.09-.25-.14,0-.27,0-.31v-.5a4.65,4.65,0,0,0,0-.76l0-.11s0,0,.06,0a2.5,2.5,0,0,1,.39.11,2.85,2.85,0,0,0,.62.06ZM69.47,60c-.23,0-.23,0-.23.44a5,5,0,0,0,0,.56c0,.08.14.08.2.08h2.68c.22,0,.22,0,.22-.46a4.87,4.87,0,0,0,0-.55c0-.07-.14-.07-.2-.07Z"/><path class="cls-1" d="M71.31,64.54c-.22,0-.22,0-.22.4s0,.33,0,.36a.4.4,0,0,0,.19,0h1c.31,0,.34,0,.4,0s.26-.24.32-.24a1.56,1.56,0,0,1,.58.34c0,.06-.14.06-.38.06H71.33c-.24,0-.24.07-.24.24,0,.5,0,.56.06.59a.28.28,0,0,0,.17,0h1.59c.28,0,.32,0,.37,0s.27-.24.34-.24a1.57,1.57,0,0,1,.59.33c0,.07-.14.07-.39.07h-5c-.65,0-.86,0-.93,0H67.7s0,0-.07,0l-.14-.11s0,0,0,0h0l.33,0,1,0h1.5c.06,0,.18,0,.22-.07s0-.46,0-.53,0-.27-.22-.27H68.71l-.16,0s0,0-.06,0l-.15-.11,0,0s0,0,0,0l.32,0h1.69c.07,0,.15,0,.19-.06a4,4,0,0,0,0-.62c0-.11-.14-.11-.22-.11h-1c-.06,0-.16,0-.19.06a.28.28,0,0,1-.3.19c-.22,0-.26-.11-.26-.22s0-.78,0-.9a5.32,5.32,0,0,0-.05-.93s-.08-.15-.08-.17,0,0,0,0a3.83,3.83,0,0,1,.43.14,1.38,1.38,0,0,0,.57.09h2.69a.61.61,0,0,0,.28,0,1.06,1.06,0,0,1,.2-.12s.54.22.54.29-.06.07-.16.11-.08.06-.08.24,0,1,0,1.22-.16.3-.4.3-.15,0-.17-.13-.14-.1-.21-.1Zm-1-.93c.22,0,.22,0,.22-.32s0-.4-.22-.4h-1c-.21,0-.21,0-.21.33s0,.39.21.39Zm0,.8c.22,0,.22,0,.22-.24s0-.37,0-.4a.32.32,0,0,0-.17,0h-1c-.21,0-.21,0-.21.24s0,.37,0,.4a.32.32,0,0,0,.17,0Zm1.92,0c.24,0,.24,0,.24-.43,0-.17,0-.24-.23-.24h-1c-.23,0-.23.06-.23.3s0,.37.23.37Zm-.94-1.52c-.23,0-.23,0-.23.42s0,.3.23.3h1c.23,0,.23,0,.23-.42s0-.3-.23-.3Z"/><path class="cls-1" d="M68.8,68.74c-.64,0-.85,0-.92,0h-.16s0,0-.06,0l-.14-.11s0,0,0,0h.34l1,0h1.47c.08,0,.23,0,.23-.13a4.68,4.68,0,0,0-.05-.55s-.09-.17-.09-.18,0,0,.07,0l.7.08c.08,0,.19,0,.19.09s-.22.17-.24.21,0,.33,0,.38.16.13.23.13H72.7c.33,0,.36,0,.46-.08s.23-.18.3-.18a2.57,2.57,0,0,1,.69.32c0,.06-.15.06-.4.06H71.31c-.07,0-.22,0-.22.13s0,.5,0,.58.15.13.23.13h1.36c.08,0,.31-.25.36-.25s.64.24.64.32-.11.06-.26.06h-4c-.63,0-.85,0-.92,0H68.3a.09.09,0,0,1-.07,0l-.14-.11,0,0s0,0,0,0h.33l1,0h.93c.08,0,.2,0,.2-.13v-.57c0-.08,0-.14-.22-.14Zm3.13,1.55a.82.82,0,0,0,.39-.05.9.9,0,0,1,.27-.11,1.25,1.25,0,0,1,.51.28s0,0-.16.12,0,.3,0,.36c0,.23.06.74.06.82s-.31.21-.35.21-.27,0-.27-.15,0-.15-.22-.15H69.54c-.07,0-.24,0-.24.12s0,.23-.4.23-.25-.09-.25-.14,0-.27,0-.31V71a4.84,4.84,0,0,0,0-.77.42.42,0,0,1,0-.1s0,0,.06,0a2.5,2.5,0,0,1,.39.11,2.85,2.85,0,0,0,.62.06Zm-2.46.13c-.23,0-.23,0-.23.44a5,5,0,0,0,0,.56c0,.08.14.08.2.08h2.68c.22,0,.22,0,.22-.46a4.87,4.87,0,0,0,0-.55c0-.07-.14-.07-.2-.07Z"/><path class="cls-1" d="M71.31,75c-.22,0-.22,0-.22.4s0,.33,0,.36a.4.4,0,0,0,.19,0h1c.31,0,.34,0,.4,0s.26-.24.32-.24a1.7,1.7,0,0,1,.58.33c0,.07-.14.07-.38.07H71.33c-.24,0-.24.07-.24.24,0,.5,0,.56.06.59a.28.28,0,0,0,.17,0h1.59c.28,0,.32,0,.37,0s.27-.24.34-.24a1.57,1.57,0,0,1,.59.33c0,.07-.14.07-.39.07H67.7l-.07,0-.14-.11s0,0,0,0h0l.33,0,1,0h1.5c.06,0,.18,0,.22-.07s0-.46,0-.53,0-.27-.22-.27H68.71l-.16,0s0,0-.06,0l-.15-.11s0,0,0,0,0,0,0,0l.32,0h1.69c.07,0,.15,0,.19-.06a4,4,0,0,0,0-.62c0-.11-.14-.11-.22-.11h-1c-.06,0-.16,0-.19.06a.28.28,0,0,1-.3.19c-.22,0-.26-.11-.26-.22s0-.78,0-.91a5.26,5.26,0,0,0-.05-.92s-.08-.15-.08-.17,0,0,0,0a3.83,3.83,0,0,1,.43.14,1.38,1.38,0,0,0,.57.09h2.69a.61.61,0,0,0,.28,0,1.13,1.13,0,0,1,.2-.13s.54.23.54.3-.06.07-.16.11-.08.06-.08.24,0,1,0,1.22-.16.3-.4.3-.15-.06-.17-.14-.14-.09-.21-.09Zm-1-.93c.22,0,.22,0,.22-.33s0-.39-.22-.39h-1c-.21,0-.21,0-.21.33s0,.39.21.39Zm0,.8c.22,0,.22,0,.22-.24s0-.37,0-.4a.32.32,0,0,0-.17,0h-1c-.21,0-.21,0-.21.24s0,.37,0,.4a.32.32,0,0,0,.17,0Zm1.92,0c.24,0,.24,0,.24-.43,0-.17,0-.24-.23-.24h-1c-.23,0-.23.06-.23.3s0,.37.23.37Zm-.94-1.52c-.23,0-.23,0-.23.42s0,.3.23.3h1c.23,0,.23,0,.23-.42s0-.3-.23-.3Z"/><path class="cls-1" d="M68.66,82.23c-.18,0-.18,0-.21.11s-.3.15-.38.15-.2-.14-.2-.22c0-.24,0-1.45,0-1.72s0-1.46,0-1.73c0-.07,0-.47,0-.55s0-.06.06-.06a1.17,1.17,0,0,1,.35.11,1,1,0,0,0,.41.06h4.23a.31.31,0,0,0,.23-.06c.18-.13.2-.13.26-.13s.55.24.55.33,0,0-.15.1-.06.21-.06.26,0,2.47.05,2.61,0,.6,0,.65,0,.34-.42.34c-.21,0-.22-.08-.23-.19s-.08-.06-.21-.06Zm4.26-.13c.24,0,.24,0,.24-.37s0-1.41,0-1.65,0-1,0-1.22a1.23,1.23,0,0,0,0-.29.29.29,0,0,0-.22-.06H68.68c-.24,0-.25.07-.25.19V80c0,.31,0,1.67,0,2,0,.13,0,.2.25.2Zm-1.4-.66c.25,0,.4,0,.47-.08s.16-.17.22-.17a2,2,0,0,1,.62.32c0,.06,0,.06-.39.06H69.17l-.16,0s0,0-.06,0l-.14-.11,0,0s0,0,0,0l.32,0,1,0h.23s.17,0,.2-.06,0-.72,0-.78c0-.29,0-.32-.24-.32h-1s0,0-.06,0l-.14-.11s0,0,0,0h.34l1,0c.2,0,.2-.06.2-.39,0-.08,0-.51-.09-.56a.29.29,0,0,0-.15,0H69.09a.09.09,0,0,1-.07,0l-.15-.11s0,0,0,0h0l.33,0,1,0h1.42c.12,0,.21,0,.28-.09s.16-.17.22-.17.62.26.62.33,0,0-.39,0h-1c-.21,0-.24,0-.24.46s0,.48.08.5.07,0,.25,0a.64.64,0,0,0,.27,0,1.39,1.39,0,0,1,.31-.18,1.35,1.35,0,0,1,.56.29s-.1,0-.34,0H71.3c-.23,0-.23,0-.23.29s0,.73,0,.8.16.07.23.07Zm.82-.33c-.13,0-.16,0-.41-.26a1.43,1.43,0,0,0-.32-.24c-.08,0-.13-.08-.13-.1s.08,0,.1,0,1,.15,1,.43S72.47,81.11,72.34,81.11Z"/><path class="cls-1" d="M75.11,85H66.53a2.3,2.3,0,0,1-2.29-2.29V57.38a2.3,2.3,0,0,1,2.29-2.3h8.58a2.3,2.3,0,0,1,2.29,2.3V82.75A2.3,2.3,0,0,1,75.11,85ZM66.53,55.46a1.92,1.92,0,0,0-1.91,1.92V82.75a1.92,1.92,0,0,0,1.91,1.92h8.58A1.92,1.92,0,0,0,77,82.75V57.38a1.92,1.92,0,0,0-1.92-1.92Z"/><path class="cls-2" d="M67.47,50.62A30.27,30.27,0,0,1,60.88,48a28.15,28.15,0,0,1-2.54-1.59,28.45,28.45,0,0,1-3.83-3.26A28.79,28.79,0,0,1,47.19,30a31.82,31.82,0,0,1-.69-3.63A27.93,27.93,0,0,1,45.81,30a29.53,29.53,0,0,1-4.12,9.2,28.52,28.52,0,0,1-3.18,3.89,28.74,28.74,0,0,1-3.84,3.27,29.58,29.58,0,0,1-9.14,4.24,30.41,30.41,0,0,1-10.18,1,27.52,27.52,0,0,0,10.39-.1,26.92,26.92,0,0,0,9.72-4,24.91,24.91,0,0,0,4.14-3.32A27.72,27.72,0,0,0,43,40.12a29.3,29.3,0,0,0,3.49-6.85A29.65,29.65,0,0,0,50,40.12a27.18,27.18,0,0,0,3.43,4.07,24.43,24.43,0,0,0,4.13,3.32A26.21,26.21,0,0,0,62.23,50l1.23.47c.42.15.84.26,1.26.4s.84.24,1.27.34.85.23,1.28.3a27.72,27.72,0,0,0,10.39.09c-.37,0-.91.07-1.55.08A30.62,30.62,0,0,1,67.47,50.62Z"/><path class="cls-2" d="M70.3,67c-.43-.09-1.23-.28-2.23-.57a35.65,35.65,0,0,1-5.16-1.83c-1.43-.65-2.46-1.26-2.76-1.43A29,29,0,0,1,55.76,60c-.33-.3-.78-.71-1.3-1.24A27.69,27.69,0,0,1,52.09,56c-.62-.81-1-1.46-1.17-1.66s-.54-.85-1-1.76a33.67,33.67,0,0,1-1.78-4c-.27-.72-.48-1.31-.59-1.65-.32-.95-.55-1.76-.7-2.33s-.24-.92-.32-1.25c-.07.33-.18.76-.31,1.26s-.35,1.31-.76,2.5c-.52,1.54-1,2.67-1.14,3-.44,1-.8,1.73-.92,2-.29.56-.52,1-.58,1.07-.51.89-.95,1.55-1.17,1.87-.09.13-.46.66-1,1.33a26.36,26.36,0,0,1-2.08,2.35c-.55.56-1,1-1.31,1.25a30,30,0,0,1-2.88,2.25c-.66.44-1.19.77-1.46.93s-.91.53-1.89,1c-.28.14-.87.42-1.63.75s-1.17.47-1.32.52l-.39.14c-.23.08-.8.28-1.43.48s-1.37.4-2,.56c-.45.12-.92.24-1.53.38-1.31.3-2.38.47-3,.56-.33.05-1.11.16-2.14.25-.86.08-1.58.11-2.08.13-1.06,0-1.86,0-2.1,0-.66,0-1.23,0-1.69-.08a36.88,36.88,0,0,0,11.14,0,33,33,0,0,0,10.7-3.51A28.08,28.08,0,0,0,42.23,57a29.6,29.6,0,0,0,4.28-7.64A29.28,29.28,0,0,0,50.78,57a28,28,0,0,0,8.68,7.31,32.86,32.86,0,0,0,10.69,3.51,37.55,37.55,0,0,0,11.15,0c-.84,0-1.56.07-2.12.07s-1.14,0-2,0c-.14,0-.79,0-1.69-.11-1.46-.13-2.57-.31-2.93-.37S71.44,67.27,70.3,67Z"/><path class="cls-2" d="M65.67,32.88a32.89,32.89,0,0,1-5.86-3,32.55,32.55,0,0,1-3.71-2.8,30.82,30.82,0,0,1-4.72-5.26,30.85,30.85,0,0,1-4.12-8.12c-.17-.49-.33-1-.48-1.54-.1-.35-.19-.7-.27-1h0c-.09.33-.18.68-.28,1-.15.54-.31,1.05-.48,1.54a31.09,31.09,0,0,1-8.83,13.38,32.92,32.92,0,0,1-3.72,2.8,32.53,32.53,0,0,1-5.86,3,33.28,33.28,0,0,1-9,2.07,29.77,29.77,0,0,0,9.31-1.26A34.22,34.22,0,0,0,32.05,32c.7-.37,1.42-.71,2.1-1.14l1-.62,1-.68.5-.34.47-.37.94-.74c.61-.52,1.21-1.06,1.77-1.63A30.17,30.17,0,0,0,43,22.82a31.59,31.59,0,0,0,3.54-6.32h0a30.63,30.63,0,0,0,3.54,6.32,31,31,0,0,0,3.13,3.63c.57.57,1.16,1.11,1.77,1.63l.94.74.48.37.49.34,1,.68,1,.62c.67.43,1.39.77,2.09,1.14a34.22,34.22,0,0,0,4.44,1.72A29.87,29.87,0,0,0,74.72,35,33.28,33.28,0,0,1,65.67,32.88Z"/></svg>